<svg width="300" height="143" viewBox="0 0 300 143" fill="none" xmlns="http://www.w3.org/2000/svg">
<path d="M300 113.481V126.963H226.37V125.333H226.765C236.938 125.333 239.012 123.802 239.012 116.247V22.9133C239.012 15.3578 236.938 13.8269 226.765 13.8269H226.37V12.1973H297.629V25.6787H296V25.2837C296 15.8516 294.37 13.8269 286.913 13.8269H252.494V68.3948H277.432C284.987 68.3948 286.518 66.3207 286.518 56.1479V55.7034H288.148V82.6664H286.518V82.2713C286.518 72.0985 284.987 70.0244 277.432 70.0244H252.494V125.382H289.284C296.839 125.382 298.37 123.457 298.37 113.926V113.481H300Z" fill="white"/>
<path d="M223.358 113.481V126.963H147.358V125.333H147.753C157.926 125.333 160 123.802 160 116.247V22.9133C160 15.3578 157.926 13.8269 147.753 13.8269H147.358V12.1973H186.173V13.8269H185.778C175.605 13.8269 173.531 15.3578 173.531 22.9133V125.382H212.692C220.05 125.382 221.778 124.345 221.778 113.926V113.481H223.358Z" fill="white"/>
<path d="M145.136 93.8272V94.2222C145.038 108.346 138.914 120.543 127.457 129.531C116.84 137.877 102.717 142.469 87.7536 142.469C76.9388 142.469 65.3338 138.025 56.6425 130.617C46.8647 122.272 41.4326 110.864 41.4326 98.5679C41.4326 85.6296 44.9882 75.1111 51.9511 67.3086C58.0746 60.4444 66.9141 55.6049 78.124 52.9877L78.6178 52.8889V54.4691L78.3215 54.5679C68.0499 56.9877 59.9017 61.3333 54.0746 67.4074C46.7659 75.0617 43.0622 85.5309 43.0622 98.5679C43.0622 109.975 48.0005 120.691 56.9388 128.79C65.4326 136.444 76.6425 140.84 87.7536 140.84C114.766 140.84 130.865 124.741 130.865 97.7284C130.865 78.0741 115.062 68.8395 99.8524 59.9506C85.6301 51.6049 72.1487 43.7531 71.5561 28.0988C71.2598 21.2346 73.6301 15.0123 78.3215 10.1235C84.4943 3.7037 94.3215 0 105.186 0C115.112 0 123.852 4.64198 129.087 12.7407C130.173 14.4198 130.618 14.7161 130.815 14.6173C130.963 14.5679 131.704 14.0741 131.704 8.2963V7.90123H133.334V34.0247H131.704V33.6296C131.704 23.3086 130.025 16.5432 126.272 11.6049C121.531 5.4321 113.778 1.58025 105.976 1.58025C98.5684 1.58025 92.3956 4 88.0993 8.54321C84.1981 12.6914 82.2721 18.1728 82.6178 24.0988C82.9635 29.8272 86.2721 34.5185 91.2104 38.8148C96.0993 43.1111 102.618 46.963 109.284 50.8642C126.075 60.8889 145.136 72.0988 145.136 93.8272Z" fill="white"/>
<path d="M26.1728 22.9133V116.296C26.1728 123.852 28.2469 125.382 38.4198 125.382H38.8148V127.012H0V125.382H0.395063C10.5679 125.382 12.642 123.852 12.642 116.296V22.9133C12.642 15.3578 10.5679 13.8269 0.395063 13.8269H0V12.1973H38.8148V13.8269H38.4198C28.2469 13.8269 26.1728 15.3578 26.1728 22.9133Z" fill="white"/>
</svg>
