<svg width="200" height="200" viewBox="0 0 200 200" fill="none" xmlns="http://www.w3.org/2000/svg">
  <mask id="mask0_5_1360" style="mask-type:luminance" maskUnits="userSpaceOnUse" x="102" y="12" width="84" height="177">
    <path d="M102.542 12.5748H185.028V188.286H102.542V12.5748Z" fill="white"/>
  </mask>
  <g mask="url(#mask0_5_1360)">
    <path d="M102.542 21.4396C110.511 21.9567 118.332 25.2197 124.411 31.2979C125.234 32.119 126.005 32.9737 126.723 33.857C131.449 30.4744 137.216 28.4611 143.455 28.4611H169.142L185.028 12.5748H102.542V21.4396Z" fill="#BB6127"/>
    <path d="M143.455 172.4C137.216 172.4 131.449 170.387 126.723 167.004C126.003 167.887 125.234 168.742 124.411 169.565C118.332 175.641 110.511 178.904 102.542 179.421V188.286H185.028L169.142 172.4H143.455Z" fill="#BB6127"/>
    <path d="M160.293 125.976C155.912 121.782 149.985 119.184 143.454 119.184H122.22L124.413 121.379C134.127 131.092 148.951 132.602 160.293 125.976Z" fill="#BB6127"/>
    <path d="M164.701 167.95L133.134 136.383C135.612 145.394 134.327 155.209 129.287 163.365C133.288 166.238 138.176 167.95 143.464 167.95H164.701Z" fill="#BB6127"/>
    <path d="M121.276 124.524L119.081 122.331V143.568C119.081 150.099 121.678 156.024 125.875 160.405C132.502 149.062 130.991 134.239 121.276 124.524Z" fill="#BB6127"/>
    <path d="M143.456 81.6755C149.791 81.6755 155.747 79.2601 160.302 74.8911C148.96 68.2575 134.129 69.7657 124.412 79.4851L122.219 81.6755H143.456Z" fill="#BB6127"/>
    <path d="M166.317 79.484C165.594 78.761 164.84 78.0811 164.065 77.4491C163.99 77.5233 163.928 77.6071 163.854 77.6813C158.408 83.1251 151.168 86.1248 143.467 86.1248H117.78L105.703 98.2046H145.37H174.873C174.363 91.3771 171.527 84.6932 166.317 79.484Z" fill="#BB6127"/>
    <path d="M145.37 102.656H105.702L117.78 114.736H143.467C151.527 114.736 158.817 118.07 164.055 123.421C164.835 122.784 165.591 122.104 166.317 121.376C171.526 116.167 174.363 109.483 174.873 102.656H145.37Z" fill="#BB6127"/>
    <path d="M167.833 143.567C167.833 138.278 166.122 133.395 163.251 129.395C157.922 132.703 151.782 134.503 145.354 134.503C142.244 134.503 139.207 134.058 136.288 133.256L167.833 164.803V143.567Z" fill="#BB6127"/>
  </g>
  <path d="M79.4838 76.3297L81.6766 78.5226V57.2883C81.6766 50.7576 79.0816 44.8301 74.885 40.4492C68.2585 51.7917 69.7691 66.6151 79.4838 76.3297Z" fill="#BB6127"/>
  <path d="M32.9077 57.2875C32.9077 62.5781 34.6194 67.4642 37.4921 71.4645C45.6483 66.4276 55.4635 65.1396 64.4743 67.6174L32.9077 36.0508V57.2875Z" fill="#BB6127"/>
  <path d="M36.0442 32.9049L67.6132 64.4739C65.133 55.4631 66.421 45.6455 71.4578 37.4893C67.4576 34.6166 62.5715 32.9049 57.2809 32.9049H36.0442Z" fill="#BB6127"/>
  <path d="M28.4482 143.56C28.4482 137.322 30.4615 131.555 33.8442 126.831C32.9584 126.106 32.1014 125.335 31.2826 124.516C25.2044 118.441 21.9414 110.617 21.4244 102.648H12.5596V185.134L28.4482 169.245V143.56Z" fill="#BB6127"/>
  <path d="M77.4385 36.7C82.7889 41.938 86.1213 49.2276 86.1213 57.288V82.9703L98.2012 95.0525V25.8794C91.3736 26.3917 84.6897 29.2285 79.4805 34.4378C78.7528 35.1631 78.0729 35.9196 77.4385 36.7Z" fill="#BB6127"/>
  <path d="M114.723 57.2876C114.723 49.2271 118.058 41.9376 123.409 36.6996C122.774 35.9192 122.092 35.1651 121.367 34.4373C116.157 29.2281 109.471 26.3913 102.644 25.8813V95.0521L114.723 82.9722V57.2876Z" fill="#BB6127"/>
  <path d="M86.1213 143.56C86.1213 151.621 82.7889 158.91 77.4385 164.148C78.0729 164.929 78.7528 165.683 79.4805 166.41C84.6897 171.62 91.3736 174.456 98.2012 174.966V105.796L86.1213 117.876V143.56Z" fill="#BB6127"/>
  <path d="M74.0214 166.997C69.2981 170.38 63.5311 172.393 57.2925 172.393H31.6055L15.7192 188.28H98.2026V179.415C90.2332 178.898 82.4122 175.635 76.3339 169.559C75.5128 168.735 74.742 167.881 74.0214 166.997Z" fill="#BB6127"/>
  <path d="M31.6043 28.4546H57.2913C63.5324 28.4546 69.2994 30.4679 74.0227 33.8506C74.7432 32.9672 75.5141 32.1126 76.3352 31.289C82.4134 25.2132 90.2345 21.9502 98.2039 21.4332V12.5684H15.718L31.6043 28.4546Z" fill="#BB6127"/>
  <path d="M76.3191 121.375L76.3239 121.37L78.5143 119.18H57.28C50.7493 119.18 44.8219 121.775 40.4409 125.969C51.7835 132.595 66.6044 131.085 76.3191 121.375Z" fill="#BB6127"/>
  <path d="M71.4581 163.358C66.4212 155.202 65.1333 145.386 67.611 136.378L36.0444 167.942H57.2811C62.5694 167.942 67.4578 166.231 71.4581 163.358Z" fill="#BB6127"/>
  <path d="M32.9077 143.56V164.797L64.4527 133.249C61.5345 134.051 58.4966 134.497 55.3868 134.497C48.9567 134.497 42.8186 132.696 37.4873 129.388C34.617 133.388 32.9077 138.272 32.9077 143.56Z" fill="#BB6127"/>
  <path d="M78.5148 81.6694L76.31 79.4646C70.5358 73.7 62.9541 70.8129 55.3749 70.8129C50.1992 70.8129 45.0402 72.1918 40.4414 74.8778C44.8223 79.0744 50.7474 81.6694 57.2805 81.6694H78.5148Z" fill="#BB6127"/>
  <path d="M31.2826 76.3308C32.1061 75.5073 32.9608 74.7388 33.8442 74.0158C30.4615 69.2926 28.4482 63.5256 28.4482 57.2869V31.6023L12.5596 15.7136V98.1971L21.4244 98.1995C21.9414 90.23 25.2044 82.409 31.2826 76.3308Z" fill="#BB6127"/>
  <path d="M82.9735 86.1198H57.2888C49.2259 86.1198 41.9387 82.785 36.7008 77.4346C35.9204 78.069 35.1639 78.7512 34.4361 79.4766C29.2269 84.6858 26.39 91.3697 25.8801 98.1973L55.376 98.1997H95.0533L82.9735 86.1198Z" fill="#BB6127"/>
  <path d="M81.6762 143.56V122.326L79.4738 124.528C69.7687 134.243 68.2606 149.059 74.8846 160.399C79.0812 156.016 81.6762 150.091 81.6762 143.56Z" fill="#BB6127"/>
  <path d="M95.0524 102.649H55.3918H25.8792C26.3915 109.477 29.2283 116.161 34.4375 121.37C35.1629 122.098 35.9194 122.778 36.6998 123.415C41.9378 118.062 49.2273 114.729 57.2878 114.729H82.9725L95.0524 102.649Z" fill="#BB6127"/>
  <path d="M169.556 124.517C168.735 125.336 167.881 126.106 166.995 126.832C170.378 131.555 172.391 137.322 172.391 143.561V169.245L188.279 185.134V102.651L179.415 102.648C178.898 110.618 175.632 118.439 169.556 124.517Z" fill="#BB6127"/>
  <path d="M119.183 57.2874V78.5241L121.381 76.3265C131.09 66.6118 132.601 51.7909 125.975 40.4484C121.778 44.8293 119.183 50.7567 119.183 57.2874Z" fill="#BB6127"/>
  <path d="M129.388 37.4891C134.425 45.6453 135.713 55.4604 133.236 64.4713L164.802 32.9047H143.565C138.277 32.9047 133.389 34.6163 129.388 37.4891Z" fill="#BB6127"/>
  <path d="M108.341 111.492L102.645 105.797L102.643 174.968C109.473 174.458 116.157 171.621 121.366 166.409C122.094 165.684 122.774 164.927 123.408 164.147C118.058 158.911 114.723 151.622 114.723 143.561V117.874L108.341 111.492Z" fill="#BB6127"/>
  <path d="M172.387 57.2874C172.387 63.38 170.483 69.171 167 74.0259C167.881 74.7441 168.731 75.5125 169.552 76.3313C175.628 82.4071 178.893 90.2305 179.41 98.2H188.275V15.7141L172.387 31.6027V57.2874Z" fill="#BB6127"/>
  <path d="M167.944 36.0513L136.377 67.6179C145.391 65.1377 155.211 66.4281 163.367 71.4697C166.326 67.3569 167.944 62.4517 167.944 57.288V36.0513Z" fill="#BB6127"/>
  <path d="M0 200H200V0H0V200ZM192.306 97.776V102.226V192.306H102.224H97.776H7.69415V102.224V97.7736V7.69415H97.776H102.224H192.306V97.776Z" fill="#BB6127"/>
</svg>
