<svg width="434" height="36" viewBox="0 0 434 36" fill="none" xmlns="http://www.w3.org/2000/svg">
<path d="M16.9739 35.0809C3.99376 35.0809 0 24.7333 0 17.9713C0 10.755 4.49307 0.906616 16.9739 0.906616C29.6357 0.906616 34.0381 10.2104 34.0381 17.9713C34.0381 24.7333 30.0897 35.0809 16.9739 35.0809ZM16.9739 1.45124C8.71368 1.45124 4.22092 7.9865 4.22092 17.9713C4.22092 26.4125 8.48689 34.5362 16.9739 34.5362C25.6423 34.5362 29.8175 26.4125 29.8175 17.9713C29.8175 8.53108 25.3244 1.45124 16.9739 1.45124Z" fill="#BB0000"/>
<path d="M39.5753 13.115L39.1668 12.7068C41.1185 10.7097 41.9807 8.75828 41.9807 7.39657C41.9807 6.12585 41.3453 5.80836 40.3924 5.17296C39.53 4.62837 38.9854 4.03838 38.9854 3.08518C38.9854 1.95055 39.8932 1.04309 41.2999 1.04309C42.7524 1.04309 43.9324 2.13203 43.9324 4.35588C43.9324 7.53292 41.9807 10.9368 39.5753 13.115Z" fill="#BB0000"/>
<path d="M76.6545 32.2217C73.2506 34.2188 69.6654 35.0809 65.6262 35.0809C54.5071 35.0809 48.8794 28.0464 48.8794 18.3341C48.8794 10.755 52.8732 0.906677 65.8533 0.906677C68.7125 0.906677 71.8893 1.36056 75.9283 3.31198L75.6559 5.85369C73.3414 3.1759 70.1646 1.4513 65.1723 1.4513C56.731 1.4513 53.1003 9.30289 53.1003 18.062C53.1003 29.4532 59.1363 34.5363 65.6262 34.5363C70.3914 34.5363 73.8406 32.8117 76.3823 29.7711L76.6545 32.2217Z" fill="#BB0000"/>
<path d="M98.7117 35.0809C85.7316 35.0809 81.7378 24.7333 81.7378 17.9713C81.7378 10.755 86.2309 0.906677 98.7117 0.906677C111.374 0.906677 115.776 10.2104 115.776 17.9713C115.776 24.7333 111.828 35.0809 98.7117 35.0809ZM98.7117 1.4513C90.4515 1.4513 85.9587 7.98656 85.9587 17.9713C85.9587 26.4125 90.2247 34.5363 98.7117 34.5363C107.38 34.5363 111.555 26.4125 111.555 17.9713C111.555 8.53114 107.062 1.4513 98.7117 1.4513Z" fill="#BB0000"/>
<path d="M145.503 1.63306H147.318C146.819 3.90195 146.683 8.89432 146.683 13.1603V35.0809H146.093L123.946 7.57827V23.3265C123.946 27.8196 124.036 31.6771 124.535 34.4456H122.72C123.401 31.6317 123.265 25.4597 123.31 23.3265V6.80655C122.039 5.17294 120.451 3.26662 119.226 1.63306H124.036L146.048 29.1811V11.7989C146.048 9.30287 145.957 4.2198 145.503 1.63306Z" fill="#BB0000"/>
<path d="M178.588 1.63306H180.403C179.904 3.90195 179.768 8.89432 179.768 13.1603V35.0809H179.178L157.03 7.57827V23.3265C157.03 27.8196 157.121 31.6771 157.62 34.4456H155.805C156.486 31.6317 156.35 25.4597 156.395 23.3265V6.80655C155.124 5.17294 153.536 3.26662 152.311 1.63306H157.121L179.132 29.1811V11.7989C179.132 9.30287 179.042 4.2198 178.588 1.63306Z" fill="#BB0000"/>
<path d="M195.334 33.9009C199.736 33.9009 206.135 33.7195 210.311 31.7679L209.812 34.4456H188.572V1.63306H209.176L209.312 4.0837C206.226 2.26842 202.278 2.17737 197.467 2.17737H192.43V16.9727H195.47C198.239 16.9727 203.095 16.5641 204.411 16.292V18.1073C203.095 17.8803 198.239 17.5173 195.47 17.5173H192.43V33.9009H195.334Z" fill="#BB0000"/>
<path d="M222.519 33.9009C226.922 33.9009 233.366 33.7195 237.541 31.7679L237.042 34.4456H216.12V1.63306H219.978V33.9009H222.519Z" fill="#BB0000"/>
<path d="M248.932 33.9009C253.335 33.9009 259.779 33.7195 263.954 31.7679L263.455 34.4456H242.533V1.63306H246.391V33.9009H248.932Z" fill="#BB0000"/>
<path d="M301.123 34.4456V17.7441H282.969V34.4456H279.112V1.63306H282.969V17.1995H301.123V1.63306H304.981V34.4456H301.123Z" fill="#BB0000"/>
<path d="M328.582 35.0809C315.602 35.0809 311.608 24.7333 311.608 17.9713C311.608 10.755 316.101 0.906677 328.582 0.906677C341.244 0.906677 345.646 10.2104 345.646 17.9713C345.646 24.7333 341.698 35.0809 328.582 35.0809ZM328.582 1.4513C320.322 1.4513 315.829 7.98656 315.829 17.9713C315.829 26.4125 320.095 34.5363 328.582 34.5363C337.25 34.5363 341.426 26.4125 341.426 17.9713C341.426 8.53114 336.932 1.4513 328.582 1.4513Z" fill="#BB0000"/>
<path d="M376.462 1.63306H378.096C377.597 4.85514 377.687 8.21363 377.551 12.2528V20.1041C377.551 28.5457 374.828 34.8995 365.479 34.8995C352.181 34.8995 352.317 25.9587 352.317 23.0087V1.63306H356.175V23.7804C356.175 32.4488 362.484 34.1735 365.524 34.1735C374.692 34.1735 376.916 27.8196 376.916 20.1041V11.8442C376.916 8.259 376.916 4.80979 376.462 1.63306Z" fill="#BB0000"/>
<path d="M394.707 35.0809C393.345 35.0809 388.761 34.8995 384.268 32.4032L384.541 29.8617C386.356 32.1309 389.624 34.5363 394.661 34.5363C400.153 34.5363 402.377 31.4503 402.377 28.2279C402.377 24.1887 398.337 21.1933 393.799 18.8788C388.897 16.2467 384.45 13.6142 384.45 8.66756C384.45 4.62837 387.309 0.906677 394.389 0.906677C398.02 0.906677 400.924 1.85987 403.239 3.13053L402.967 5.67194C401.287 3.31198 398.564 1.4513 394.389 1.4513C389.215 1.4513 387.717 4.03838 387.717 6.5798C387.717 10.9822 391.62 13.2057 396.068 15.4749C400.743 17.9713 405.689 20.8759 405.689 26.2311C405.689 30.9057 401.696 35.0809 394.707 35.0809Z" fill="#BB0000"/>
<path d="M418.716 33.9009C423.118 33.9009 429.517 33.7195 433.692 31.7679L433.193 34.4456H411.953V1.63306H432.557L432.694 4.0837C429.608 2.26842 425.659 2.17737 420.848 2.17737H415.811V16.9727H418.852C421.62 16.9727 426.476 16.5641 427.792 16.292V18.1073C426.476 17.8803 421.62 17.5173 418.852 17.5173H415.811V33.9009H418.716Z" fill="#BB0000"/>
</svg>
