<?xml version="1.0" standalone="no"?>
<!DOCTYPE svg PUBLIC "-//W3C//DTD SVG 1.1//EN" "http://www.w3.org/Graphics/SVG/1.1/DTD/svg11.dtd" >
<svg xmlns="http://www.w3.org/2000/svg" xmlns:xlink="http://www.w3.org/1999/xlink" version="1.1">
<metadata></metadata>
<defs>
<font id="sweet_sans_prolight" horiz-adv-x="1359" >
<font-face units-per-em="2048" ascent="1577" descent="-471" />
<missing-glyph horiz-adv-x="460" />
<glyph unicode="&#xfb00;" horiz-adv-x="1380" d="M84 840v100h192v207q0 82 25.5 144t68 97t90.5 51.5t101 16.5q59 0 123 -19t100 -53l-28 -102q-28 28 -78 44.5t-94 16.5q-78 0 -129.5 -49t-51.5 -147v-207h533v207q0 82 25 144t67 97t90 51.5t101 16.5q61 0 124.5 -19t98.5 -53l-29 -102q-26 28 -76 44.5t-96 16.5 q-77 0 -127.5 -49t-50.5 -147v-207h301v-100h-301v-840h-127v840h-533v-840h-127v840h-192z" />
<glyph unicode="&#xfb01;" horiz-adv-x="1228" d="M84 840v100h192v207q0 66 17 119.5t45 88.5t65 58t75 33t77 10q43 0 91 -10.5t77 -24.5l-25 -106q-51 28 -120 28q-73 0 -124 -49.5t-51 -146.5v-207h302v-100h-302v-840h-127v840h-192zM881 1313q0 34 25 58t61 24q38 0 63 -24t25 -58t-25 -57t-63 -23q-36 0 -61 23.5 t-25 56.5zM905 0v940h127v-940h-127z" />
<glyph unicode="&#xfb02;" horiz-adv-x="1273" d="M84 840v100h192v207q0 66 17 119.5t45 88.5t65 58t75 33t77 10q43 0 91 -10.5t77 -24.5l-25 -106q-51 28 -120 28q-73 0 -124 -49.5t-51 -146.5v-207h302v-100h-302v-840h-127v840h-192zM930 0v1434h127v-1434h-127z" />
<glyph unicode="&#xfb03;" horiz-adv-x="1888" d="M84 840v100h192v207q0 82 25.5 144t68 97t90.5 51.5t101 16.5q59 0 123 -19t100 -53l-28 -102q-28 28 -78 44.5t-94 16.5q-78 0 -129.5 -49t-51.5 -147v-207h533v207q0 66 17 119.5t44.5 88.5t64 58t74.5 33t78 10q43 0 91 -10.5t77 -24.5l-24 -106q-51 28 -121 28 q-73 0 -123.5 -49t-50.5 -147v-207h301v-100h-301v-840h-127v840h-533v-840h-127v840h-192zM1540 1313q0 34 25 58t61 24q38 0 63 -24t25 -58t-25 -57t-63 -23q-36 0 -61 23.5t-25 56.5zM1563 0v940h127v-940h-127z" />
<glyph unicode="&#xfb04;" horiz-adv-x="1933" d="M84 840v100h192v207q0 82 25.5 144t68 97t90.5 51.5t101 16.5q59 0 123 -19t100 -53l-28 -102q-28 28 -78 44.5t-94 16.5q-78 0 -129.5 -49t-51.5 -147v-207h533v207q0 66 17 119.5t44.5 88.5t64 58t74.5 33t78 10q43 0 91 -10.5t77 -24.5l-24 -106q-51 28 -121 28 q-73 0 -123.5 -49t-50.5 -147v-207h301v-100h-301v-840h-127v840h-533v-840h-127v840h-192zM1589 0v1434h127v-1434h-127z" />
<glyph unicode="fj" horiz-adv-x="1228" d="M84 840v100h192v207q0 66 17 119.5t45 88.5t65 58t75 33t77 10q43 0 91 -10.5t77 -24.5l-25 -106q-51 28 -120 28q-73 0 -124 -49.5t-51 -146.5v-207h302v-100h-302v-840h-127v840h-192zM680 -365q43 5 79 19t71 41.5t55 77t20 116.5v1051h127v-1051q0 -94 -29.5 -165.5 t-77.5 -110.5t-101 -58.5t-109 -19.5zM881 1313q0 34 25 58t61 24q38 0 63 -24t25 -58t-25 -57t-63 -23q-36 0 -61 23.5t-25 56.5z" />
<glyph unicode="ffj" horiz-adv-x="1888" d="M84 840v100h192v207q0 82 25.5 144t68 97t90.5 51.5t101 16.5q59 0 123 -19t100 -53l-28 -102q-28 28 -78 44.5t-94 16.5q-78 0 -129.5 -49t-51.5 -147v-207h533v207q0 66 17 119.5t44.5 88.5t64 58t74.5 33t78 10q43 0 91 -10.5t77 -24.5l-24 -106q-51 28 -121 28 q-73 0 -123.5 -49t-50.5 -147v-207h301v-100h-301v-840h-127v840h-533v-840h-127v840h-192zM1339 -365q43 5 79 19t70.5 41.5t54.5 77t20 116.5v1051h127v-1051q0 -94 -29.5 -165.5t-77.5 -111t-101.5 -58.5t-109.5 -19zM1540 1313q0 34 25 58t61 24q38 0 63 -24t25 -58 t-25 -57t-63 -23q-36 0 -61 23.5t-25 56.5z" />
<glyph unicode="ft" horiz-adv-x="1449" d="M84 840v100h192v207q0 66 17 119.5t45 88.5t65 58t75 33t77 10q43 0 91 -10.5t77 -24.5l-25 -106q-51 28 -120 28q-73 0 -124 -49.5t-51 -146.5v-207h535v289h127v-289h311v-100h-311v-609q0 -77 41.5 -114t105.5 -37q43 0 94.5 13t77.5 30l19 -98q-31 -23 -94 -40.5 t-119 -17.5q-46 0 -88.5 14t-80.5 43t-60.5 82.5t-22.5 124.5v609h-535v-840h-127v840h-192z" />
<glyph unicode="fft" horiz-adv-x="2109" d="M84 840v100h192v207q0 82 25.5 144t68 97t90.5 51.5t101 16.5q59 0 123 -19t100 -53l-28 -102q-28 28 -78 44.5t-94 16.5q-78 0 -129.5 -49t-51.5 -147v-207h533v207q0 66 17 119.5t44.5 88.5t64 58t74.5 33t78 10q43 0 91 -10.5t77 -24.5l-24 -106q-51 28 -121 28 q-73 0 -123.5 -49t-50.5 -147v-207h534v289h127v-289h310v-100h-310v-609q0 -77 41.5 -114t104.5 -37q44 0 96 13t78 30l18 -98q-31 -24 -94 -41t-121 -17q-45 0 -87 14t-80 43t-60.5 82.5t-22.5 124.5v609h-534v-840h-127v840h-533v-840h-127v840h-192z" />
<glyph unicode="tt" horiz-adv-x="1529" d="M63 840v100h195v289h127v-289h610v289h127v-289h312v-100h-312v-609q0 -76 42.5 -113.5t105.5 -37.5q44 0 96 13t78 30l18 -98q-31 -24 -94 -41t-121 -17q-45 0 -87.5 14t-80.5 43t-61 82.5t-23 124.5v609h-610v-609q0 -77 42 -114t105 -37q43 0 95 13t78 30l18 -98 q-31 -23 -94 -40.5t-119 -17.5q-46 0 -88.5 14t-80.5 43t-60.5 82.5t-22.5 124.5v609h-195z" />
<glyph horiz-adv-x="542" />
<glyph horiz-adv-x="542" />
<glyph horiz-adv-x="682" />
<glyph unicode="&#xd;" horiz-adv-x="501" />
<glyph unicode=" "  horiz-adv-x="460" />
<glyph unicode="&#x09;" horiz-adv-x="460" />
<glyph unicode="&#xa0;" horiz-adv-x="460" />
<glyph unicode="!" horiz-adv-x="595" d="M184 82q0 42 33 72t80 30t79 -30t32 -72q0 -43 -32 -72.5t-79 -29.5t-80 29.5t-33 72.5zM223 1014v323h148v-323l-27 -613h-92z" />
<glyph unicode="&#x22;" horiz-adv-x="856" d="M150 1151v186h137v-186l-27 -285h-82zM569 1151v186h138v-186l-29 -285h-80z" />
<glyph unicode="#" horiz-adv-x="1783" d="M117 233v99h430l76 413h-394v99h412l68 368h104l-68 -368h400l67 368h105l-68 -368h416v-99h-434l-76 -413h397v-99h-415l-78 -421h-105l78 421h-399l-76 -421h-106l77 421h-411zM651 332h400l75 413h-399z" />
<glyph unicode="$" horiz-adv-x="1396" d="M109 199l79 88q204 -178 463 -201v451q-59 4 -102 9t-96 14.5t-90.5 22.5t-75.5 34.5t-61 48.5t-37.5 66t-14.5 87q0 89 43.5 155t115.5 101.5t151.5 52.5t166.5 17v188h97v-192q142 -14 260.5 -61t193.5 -105l-80 -90q-58 50 -153.5 89t-220.5 52v-371q54 -3 95.5 -6.5 t98.5 -13t99.5 -23.5t88 -38.5t74.5 -56.5t47.5 -79.5t18.5 -105.5q0 -91 -41.5 -161t-114 -112.5t-165 -64t-201.5 -23.5v-243h-97v247q-305 21 -542 224zM305 829q0 -39 22 -69t55 -47.5t82.5 -29.5t91.5 -16.5t95 -7.5v373h-4q-90 0 -163.5 -18t-126 -65.5t-52.5 -119.5z M748 84q111 1 197.5 25.5t141 77.5t54.5 128q0 41 -14.5 73.5t-43.5 54.5t-63 37.5t-82.5 25.5t-91 15t-98.5 9v-446z" />
<glyph unicode="%" horiz-adv-x="2078" d="M119 870q0 141 111.5 241.5t271.5 100.5q158 0 272.5 -101t114.5 -241q0 -141 -114.5 -242.5t-272.5 -101.5q-160 0 -271.5 101t-111.5 243zM238 870q0 -98 77 -167.5t187 -69.5q109 0 188.5 69.5t79.5 167.5t-79.5 168t-188.5 70q-110 0 -187 -69.5t-77 -168.5zM635 0 l704 1188h111l-705 -1188h-110zM1196 319q0 139 112.5 241t270.5 102t273.5 -102.5t115.5 -240.5q0 -142 -115 -243t-274 -101t-271 100.5t-112 243.5zM1315 319q0 -99 77 -169t187 -70t190 70.5t80 168.5q0 97 -80 166.5t-190 69.5t-187 -69.5t-77 -166.5z" />
<glyph unicode="&#x26;" horiz-adv-x="1650" d="M225 356q0 68 20.5 126.5t53 99.5t80.5 76t95.5 57.5t105.5 42.5q-55 58 -83 112.5t-28 116.5q0 93 57.5 162.5t147 103t194.5 33.5q175 0 353 -100l-68 -107q-135 86 -287 86q-109 0 -184.5 -47.5t-75.5 -126.5q0 -27 12 -56.5t27 -53t43 -54t45 -47t48.5 -44.5 t39.5 -36l396 -368q122 110 239 278l111 -57q-119 -166 -264 -301l274 -252h-182l-189 172q-138 -105 -269.5 -152t-242.5 -47q-64 0 -127 12.5t-125.5 42t-110 72t-77 109t-29.5 147.5zM362 362q0 -71 33.5 -125.5t87 -83.5t109.5 -43t113 -14q202 0 415 156l-405 375 l-49 43q-47 -15 -81 -29t-79 -40.5t-74 -57t-49.5 -78t-20.5 -103.5z" />
<glyph unicode="'" horiz-adv-x="438" d="M150 1151v186h137v-186l-27 -285h-82z" />
<glyph unicode="(" horiz-adv-x="759" d="M115 541q0 184 59.5 354t178.5 310t282 220l70 -84q-208 -105 -330.5 -327t-122.5 -473q0 -165 53.5 -321t157 -282t242.5 -196l-70 -84q-163 80 -282 219t-178.5 309t-59.5 355z" />
<glyph unicode=")" horiz-adv-x="759" d="M55 -258q139 70 243 196.5t157 281.5t53 321q0 252 -122 473.5t-331 326.5l70 84q163 -80 282 -220t178.5 -310t59.5 -354q0 -185 -59.5 -355t-178.5 -309t-282 -219z" />
<glyph unicode="*" horiz-adv-x="1167" d="M125 1065l33 94l366 -110l8 385h103l10 -383l365 108l30 -92l-364 -129l219 -315l-78 -60l-235 305l-232 -305l-80 60l219 315z" />
<glyph unicode="+" horiz-adv-x="1447" d="M172 461v112h490v447h124v-447h486v-112h-486v-445h-124v445h-490z" />
<glyph unicode="," horiz-adv-x="622" d="M145 -279q36 11 73 30t74 47t60 66.5t23 80.5q0 28 -11 47.5t-30 23.5q-32 -8 -51 -8q-42 0 -71.5 25t-29.5 63q0 37 29 62.5t72 25.5q80 0 137 -59t57 -148q0 -235 -293 -337z" />
<glyph unicode="-" horiz-adv-x="819" d="M145 451v124h527v-124h-527z" />
<glyph unicode="." horiz-adv-x="567" d="M172 82q0 42 32 72t79 30t79.5 -30t32.5 -72q0 -43 -32.5 -72.5t-79.5 -29.5t-79 29.5t-32 72.5z" />
<glyph unicode="/" horiz-adv-x="1032" d="M100 -244l703 1581h125l-703 -1581h-125z" />
<glyph unicode="0" horiz-adv-x="1476" d="M131 557q0 161 81.5 297t220.5 214.5t302 78.5q164 0 304.5 -78.5t223.5 -214.5t83 -297t-83 -296.5t-223.5 -213.5t-304.5 -78q-163 0 -302 78t-220.5 213.5t-81.5 296.5zM266 557q0 -193 138.5 -331t330.5 -138q127 0 236.5 63t174 171t64.5 235t-64.5 235t-174 171 t-236.5 63q-192 0 -330.5 -138t-138.5 -331z" />
<glyph unicode="1" horiz-adv-x="774" d="M41 963l350 153h135v-1116h-135v991l-319 -139z" />
<glyph unicode="2" horiz-adv-x="1212" d="M131 0v123q0 83 27.5 153t72 119.5t110 90.5t131 67.5t144.5 48.5q3 1 33 9t40 10.5t40.5 12.5t45 16.5t41.5 18.5t41 23t33 27.5t28.5 33.5t16.5 38.5t7 44.5q0 63 -46 107.5t-113 63.5t-146 19q-123 0 -212 -42t-187 -122l-80 94q60 46 98.5 72t100 58t129.5 46.5 t147 14.5q117 0 215 -31.5t164.5 -103t66.5 -172.5q0 -66 -30 -120.5t-64 -86.5t-105 -64.5t-104.5 -43t-111.5 -32.5q-28 -8 -41 -12q-79 -24 -137 -50.5t-110.5 -67t-80 -98t-27.5 -130.5v-26h793v-109h-930z" />
<glyph unicode="3" horiz-adv-x="1378" d="M90 190l84 97q204 -197 496 -197q190 0 315 70t125 188q0 54 -29.5 94t-75 59t-86.5 27.5t-77 8.5h-215v110h190q41 0 85.5 18t79 59.5t34.5 96.5q0 69 -50.5 117.5t-117.5 68t-139 19.5q-220 0 -428 -188l-84 84q249 225 514 225q75 0 149 -17t141.5 -51.5t109.5 -95.5 t42 -139q0 -86 -50.5 -148t-113.5 -84q32 -6 64 -17.5t68 -33.5t63 -51t45 -73t18 -97q0 -115 -77.5 -200.5t-207.5 -129t-292 -43.5q-345 0 -580 223z" />
<glyph unicode="4" horiz-adv-x="1390" d="M72 270v101l870 745h133v-737h228v-109h-228v-270h-137v270h-866zM272 379h666v563h-18l-648 -557v-6z" />
<glyph unicode="5" horiz-adv-x="1318" d="M109 145l73 97q203 -152 459 -152q63 0 121.5 9.5t113 31.5t95 54t64.5 80.5t24 107.5q0 84 -52 141.5t-129.5 82t-172.5 24.5q-122 0 -215.5 -28t-194.5 -79l-86 64v538h874v-121h-751v-362q65 34 108 53t115.5 35t153.5 16q95 0 179.5 -21.5t154.5 -64t111.5 -114.5 t41.5 -164q0 -105 -48 -186t-129 -127.5t-176.5 -69.5t-201.5 -23q-289 0 -532 178z" />
<glyph unicode="6" horiz-adv-x="1353" d="M135 539q0 139 51 255t136.5 192.5t196.5 118.5t233 42q229 0 407 -115l-72 -96q-136 90 -339 90q-94 0 -180 -32t-154 -90.5t-109.5 -149t-44.5 -199.5q246 172 510 172q114 0 205.5 -32t146.5 -84t84 -114t29 -126q0 -167 -143.5 -284.5t-360.5 -117.5 q-117 0 -223 37.5t-190 107t-133.5 180t-49.5 245.5zM266 451q30 -171 161 -266t306 -95q154 0 259.5 86t105.5 197q0 43 -20 84.5t-59.5 77.5t-107 58.5t-153.5 22.5q-242 0 -492 -165z" />
<glyph unicode="7" horiz-adv-x="1212" d="M109 995v121h991v-123l-637 -993h-178l659 995h-835z" />
<glyph unicode="8" horiz-adv-x="1361" d="M131 319q0 84 48 149.5t119 101t157 48.5q-118 19 -182 78.5t-64 155.5q0 73 44 131.5t114.5 93.5t151 53.5t161.5 18.5q82 0 163 -18.5t151 -53.5t113.5 -93.5t43.5 -131.5q0 -196 -246 -234q87 -13 158.5 -48.5t119.5 -101t48 -149.5q0 -108 -82 -190t-205.5 -122 t-263.5 -40q-139 0 -262 40t-205 122t-82 190zM279 332q0 -75 61 -133t150.5 -85.5t189.5 -27.5q101 0 191 27.5t151 85.5t61 133q0 57 -36.5 103t-96.5 73t-129 41t-141 14q-70 0 -139 -14t-128.5 -41t-96.5 -73t-37 -103zM358 842q0 -86 83.5 -131t238.5 -45q156 0 240 45 t84 131q0 64 -52 110.5t-123.5 67t-148.5 20.5q-76 0 -147 -20.5t-123 -67t-52 -110.5z" />
<glyph unicode="9" horiz-adv-x="1347" d="M113 743q0 168 143.5 286t361.5 118q92 0 178.5 -23t162 -70.5t132 -114t89 -159.5t32.5 -202q0 -139 -50.5 -256t-136 -193t-196.5 -118t-233 -42q-237 0 -408 115l70 94q141 -88 340 -88q95 0 181.5 32t154 90.5t109 148.5t44.5 198q-244 -170 -507 -170 q-115 0 -207 32t-147 84t-84 113t-29 125zM250 741q0 -42 20 -83t58.5 -77t106.5 -58.5t155 -22.5q234 0 491 162q-30 172 -161.5 268t-305.5 96q-154 0 -259 -86.5t-105 -198.5z" />
<glyph unicode=":" horiz-adv-x="669" d="M223 82q0 42 32 72t79 30t79.5 -30t32.5 -72q0 -43 -32.5 -72.5t-79.5 -29.5t-79 29.5t-32 72.5zM223 729q0 42 32 72t79 30t79.5 -30t32.5 -72q0 -43 -32.5 -72.5t-79.5 -29.5t-79 29.5t-32 72.5z" />
<glyph unicode=";" horiz-adv-x="696" d="M188 -279q36 11 73 30t74 47t60 66.5t23 80.5q0 28 -11 47.5t-30 23.5q-32 -8 -49 -8q-43 0 -73 25t-30 63q0 37 30 62.5t73 25.5q78 0 135 -59t57 -148q0 -235 -293 -337zM225 729q0 42 32 72t79 30t80 -30t33 -72q0 -43 -33 -72.5t-80 -29.5t-79 29.5t-32 72.5z" />
<glyph unicode="&#x3c;" horiz-adv-x="1447" d="M172 455v127l1100 403v-129l-942 -330v-18l942 -328v-129z" />
<glyph unicode="=" horiz-adv-x="1447" d="M172 213v115h1100v-115h-1100zM172 709v114h1100v-114h-1100z" />
<glyph unicode="&#x3e;" horiz-adv-x="1447" d="M172 51v129l944 328v18l-944 330v129l1100 -403v-127z" />
<glyph unicode="?" horiz-adv-x="1220" d="M102 1137q52 54 101.5 92t114.5 71t147.5 49.5t181.5 16.5q72 0 134.5 -9.5t120 -32.5t98.5 -58.5t65.5 -91t24.5 -125.5q0 -88 -40 -147t-118 -118q-35 -27 -92.5 -65.5t-95 -66t-78.5 -65.5t-66 -84t-33 -102h-123q4 60 25.5 113.5t50 90.5t72.5 75t80 62.5t87 58.5 t81 57q66 46 96.5 85.5t30.5 100.5q0 56 -27 98.5t-73.5 66t-102.5 35t-121 11.5q-105 0 -192 -27.5t-143.5 -67.5t-117.5 -103zM420 82q0 42 31.5 72t78.5 30t80 -30t33 -72q0 -43 -33 -72.5t-80 -29.5t-78.5 29.5t-31.5 72.5z" />
<glyph unicode="@" horiz-adv-x="2031" d="M121 508q0 194 82 360.5t219.5 278.5t318 175.5t377.5 63.5q176 0 325.5 -50.5t252 -137.5t160 -207.5t57.5 -257.5q0 -107 -34 -204.5t-90.5 -169t-126.5 -125t-144 -80.5t-142 -27q-90 0 -146 43.5t-56 116.5v16q-70 -84 -154.5 -129t-171.5 -45q-120 0 -204.5 83 t-84.5 239q0 113 47.5 217.5t120.5 175.5t160.5 113t167.5 42q97 0 163 -56.5t82 -137.5l56 162h117l-191 -580q-8 -21 -8 -43q0 -55 34.5 -87t94.5 -32q63 0 133.5 37t131 100.5t100.5 160t40 204.5q0 158 -85 285.5t-243 201.5t-362 74q-139 0 -270.5 -35t-242 -103.5 t-193.5 -161.5t-129.5 -216.5t-46.5 -261.5q0 -137 46.5 -253.5t124.5 -197t180 -137.5t212.5 -83.5t222.5 -26.5q138 0 295.5 36.5t243.5 81.5l34 -84q-92 -50 -259.5 -92.5t-319.5 -42.5q-125 0 -250 30.5t-241.5 95.5t-206 157t-143.5 225t-54 289zM686 467 q0 -112 53.5 -169.5t139.5 -57.5q69 0 144 39.5t144 117.5l95 289q-13 83 -69.5 143t-137.5 60q-46 0 -96.5 -19t-99 -56.5t-87.5 -87t-62.5 -117.5t-23.5 -142z" />
<glyph unicode="A" horiz-adv-x="1538" d="M82 0l620 1337h136l620 -1337h-149l-199 434h-690l-197 -434h-141zM471 545h590l-289 633h-12z" />
<glyph unicode="B" horiz-adv-x="1675" d="M262 0v1337h750q213 0 329 -116q91 -91 91 -211q0 -100 -58.5 -182.5t-148.5 -108.5q123 -21 197.5 -115t74.5 -219q0 -157 -119 -270q-121 -115 -342 -115h-774zM399 123h641q154 0 236 82q78 75 78 182q0 95 -70 168q-82 82 -199 82h-686v-514zM399 748h643 q110 0 177 67q69 69 69 170q0 92 -63 152q-74 77 -228 77h-598v-466z" />
<glyph unicode="C" horiz-adv-x="1605" d="M139 670q0 142 55.5 270.5t152 222.5t233 149.5t290.5 55.5q172 0 331 -60.5t269 -164.5l-92 -90q-97 90 -232 142t-274 52q-166 0 -302 -78.5t-211.5 -211t-75.5 -289.5q0 -118 45 -224t123.5 -184t190 -124t237.5 -46q155 0 292.5 62t239.5 165l92 -90 q-120 -116 -280.5 -188t-345.5 -72q-157 0 -295 55.5t-235 150.5t-152.5 224t-55.5 273z" />
<glyph unicode="D" horiz-adv-x="1677" d="M262 0v1337h557q180 0 299.5 -47.5t224.5 -144.5q90 -91 138.5 -213.5t48.5 -261.5q0 -142 -51.5 -268.5t-145.5 -217.5q-104 -94 -218.5 -139t-295.5 -45h-557zM399 123h416q147 0 235 35t177 112q76 76 119 180.5t43 219.5t-41 216t-117 177q-84 77 -176.5 114 t-239.5 37h-416v-1091z" />
<glyph unicode="E" horiz-adv-x="1470" d="M262 0v1337h1067v-123h-930v-446h564v-121h-564v-524h975v-123h-1112z" />
<glyph unicode="F" horiz-adv-x="1337" d="M262 0v1337h1041v-123h-904v-469h564v-122h-564v-623h-137z" />
<glyph unicode="G" horiz-adv-x="1673" d="M139 670q0 143 57.5 272t155.5 222.5t234.5 148.5t287.5 55q157 0 308 -55t274 -158l-96 -86q-92 83 -222.5 130.5t-263.5 47.5q-165 0 -301 -78t-213 -210.5t-77 -290.5q0 -115 44 -220t121.5 -184.5t192 -126.5t246.5 -47q129 0 253.5 41t211.5 111v352h-449v121h574 v-539q-120 -97 -278.5 -153t-319.5 -56q-204 0 -374.5 94.5t-268 256t-97.5 352.5z" />
<glyph unicode="H" horiz-adv-x="1691" d="M262 0v1337h137v-553h893v553h138v-1337h-138v664h-893v-664h-137z" />
<glyph unicode="I" horiz-adv-x="661" d="M262 0v1337h137v-1337h-137z" />
<glyph unicode="J" horiz-adv-x="1378" d="M53 301l113 59q18 -40 37.5 -72.5t55 -71t77.5 -64.5t105.5 -44t138.5 -18q191 0 309.5 101.5t118.5 283.5v862h137v-862q0 -158 -73 -274.5t-199.5 -175t-290.5 -58.5q-96 0 -177.5 22.5t-135 55t-98.5 81t-69.5 87.5t-48.5 88z" />
<glyph unicode="K" horiz-adv-x="1529" d="M262 0v1337h137v-807l813 807h168l-520 -508l629 -829h-176l-551 735l-363 -358v-377h-137z" />
<glyph unicode="L" horiz-adv-x="1304" d="M262 0v1337h137v-1214h861v-123h-998z" />
<glyph unicode="M" horiz-adv-x="1875" d="M262 0v1337h152l526 -880h4l524 880h148v-1337h-137v1094h-11l-514 -861h-36l-515 861h-10v-1094h-131z" />
<glyph unicode="N" horiz-adv-x="1701" d="M262 0v1337h129l909 -1101h3v1101h137v-1337h-129l-910 1102h-2v-1102h-137z" />
<glyph unicode="O" horiz-adv-x="1751" d="M139 672q0 142 57.5 271t155 222t233.5 148t287 55q152 0 289 -55t236 -148t157 -222t58 -271q0 -192 -98.5 -354.5t-268.5 -256.5t-373 -94q-151 0 -287 55.5t-233.5 150t-155 225t-57.5 274.5zM285 672q0 -159 77.5 -292.5t212.5 -211.5t297 -78q123 0 233.5 46 t190 124t126 185.5t46.5 226.5q0 117 -46.5 223.5t-126 183.5t-190 122.5t-233.5 45.5q-121 0 -230.5 -45.5t-187.5 -123t-123.5 -183.5t-45.5 -223z" />
<glyph unicode="P" horiz-adv-x="1529" d="M262 0v1337h709q239 0 366 -133q101 -107 101 -250q0 -154 -115 -266q-122 -119 -352 -119h-572v-569h-137zM399 690h572q166 0 252 84q77 71 77 180q0 95 -69 170q-85 90 -260 90h-572v-524z" />
<glyph unicode="Q" horiz-adv-x="1751" d="M139 672q0 142 57.5 271t155 222t233.5 148t287 55q152 0 289 -55t236 -148t157 -222t58 -271q0 -190 -97.5 -350t-261.5 -254l187 -261l-131 -43l-179 246q-127 -43 -258 -43q-151 0 -287 55.5t-233.5 150t-155 225t-57.5 274.5zM285 672q0 -159 77.5 -292.5 t212.5 -211.5t297 -78q87 0 183 27l-195 272l133 43l187 -260q132 76 210 209t78 291q0 117 -46.5 223.5t-126 183.5t-190 122.5t-233.5 45.5q-121 0 -230.5 -45.5t-187.5 -123t-123.5 -183.5t-45.5 -223z" />
<glyph unicode="R" horiz-adv-x="1626" d="M262 0v1337h735q243 0 365 -131q100 -108 100 -256q0 -136 -87.5 -236.5t-235.5 -127.5l336 -586h-156l-320 569h-600v-569h-137zM399 690h648q123 0 200.5 76.5t77.5 185.5q0 101 -70 174q-84 88 -258 88h-598v-524z" />
<glyph unicode="S" horiz-adv-x="1523" d="M117 240l84 94q52 -48 103.5 -86t126.5 -78t169.5 -62t200.5 -22q129 0 231 30.5t167 98.5t65 166q0 47 -15 85t-38 64t-61.5 46t-74.5 31.5t-89 20t-93.5 12t-97.5 7.5q-79 4 -124 7.5t-118 13.5t-116 23.5t-96 38.5t-82 58t-49 83t-20 112q0 85 32.5 152.5t85 110 t123.5 71t142 40t146 11.5q184 0 337 -59t244 -135l-83 -95q-74 69 -204.5 120.5t-299.5 51.5q-56 0 -109 -8.5t-104 -28t-88.5 -48.5t-60.5 -73.5t-23 -99.5q0 -46 18 -80.5t52 -56t75.5 -36t96.5 -22t106 -11.5t113 -7h6q53 -3 82.5 -5.5t86 -9t92 -14.5t86.5 -23 t83.5 -33.5t69 -47.5t57.5 -64t35 -82.5t14 -103.5q0 -88 -32 -160t-87 -121.5t-132 -83.5t-164.5 -49.5t-186.5 -15.5q-119 0 -225 23t-190 65.5t-145.5 85.5t-121.5 99z" />
<glyph unicode="T" horiz-adv-x="1300" d="M66 1214v123h1169v-123h-516v-1214h-137v1214h-516z" />
<glyph unicode="U" horiz-adv-x="1634" d="M233 475v862h138v-862q0 -181 124.5 -283t319.5 -102q198 0 323.5 102t125.5 283v862h137v-862q0 -158 -77 -274.5t-208.5 -175t-300.5 -58.5q-167 0 -298 58.5t-207.5 175t-76.5 274.5z" />
<glyph unicode="V" horiz-adv-x="1536" d="M78 1337h155l533 -1167h12l531 1167h149l-622 -1337h-136z" />
<glyph unicode="W" horiz-adv-x="2064" d="M100 1337h152l356 -1132h10l361 1132h113l362 -1132h8l359 1132h143l-432 -1337h-146l-348 1085h-12l-348 -1085h-148z" />
<glyph unicode="X" horiz-adv-x="1445" d="M66 0l573 696l-516 641h174l430 -544l440 544h166l-524 -637l565 -700h-174l-479 604l-490 -604h-165z" />
<glyph unicode="Y" horiz-adv-x="1366" d="M66 1337h174l448 -579l451 579h161l-548 -702v-635h-138v635z" />
<glyph unicode="Z" horiz-adv-x="1402" d="M98 0v88l967 1126h-895v123h1092v-88l-969 -1126h981v-123h-1176z" />
<glyph unicode="[" horiz-adv-x="704" d="M209 -315v1726h414v-111h-289v-1505h289v-110h-414z" />
<glyph unicode="\" horiz-adv-x="1038" d="M127 1337h125l702 -1581h-125z" />
<glyph unicode="]" horiz-adv-x="704" d="M82 -205h289v1505h-289v111h414v-1726h-414v110z" />
<glyph unicode="^" horiz-adv-x="1447" d="M213 434l442 821h140l438 -821h-141l-361 688h-12l-363 -688h-143z" />
<glyph unicode="_" horiz-adv-x="1228" d="M-12 -205h1253v-90h-1253v90z" />
<glyph unicode="`" horiz-adv-x="1024" d="M285 1409l143 4l182 -299l-112 -4z" />
<glyph unicode="a" horiz-adv-x="1220" d="M111 301q0 136 114 224.5t316 88.5q108 0 207 -28.5t155 -89.5v159q0 103 -85.5 154t-209.5 51q-108 0 -206.5 -36t-163.5 -81l-48 103q75 48 185 84.5t237 36.5q81 0 152 -14.5t132.5 -46t97.5 -87.5t36 -131v-518q0 -108 33 -170h-129q-27 43 -31 145 q-69 -66 -176 -115.5t-242 -49.5q-173 0 -273.5 90t-100.5 231zM238 301q0 -93 72 -154t200 -61q74 0 148 22t124 52.5t81.5 55.5t39.5 38v135q-45 60 -139.5 92.5t-204.5 32.5q-160 0 -240.5 -59t-80.5 -154z" />
<glyph unicode="b" horiz-adv-x="1280" d="M184 0q19 106 19 225v1209h127v-631q158 164 352 164q96 0 182 -36t150 -99.5t101.5 -156.5t37.5 -202q0 -148 -66.5 -263t-177.5 -176t-245 -61q-115 0 -208 54t-139 118q0 -79 -14 -145h-119zM330 244q18 -22 43 -45t66 -51t97.5 -46t116.5 -18q152 0 256.5 108 t104.5 281q0 170 -99 276.5t-245 106.5q-87 0 -176 -42t-164 -116v-454z" />
<glyph unicode="c" horiz-adv-x="1155" d="M125 473q0 145 69 259t184.5 174.5t254.5 60.5q112 0 217.5 -39t189.5 -115l-86 -86q-66 63 -150 96t-171 33q-156 0 -262.5 -106.5t-106.5 -276.5q0 -173 110.5 -280t270.5 -107q108 0 192 45t140 105l86 -80q-19 -23 -51.5 -49.5t-85.5 -59t-130.5 -53.5t-162.5 -21 q-137 0 -252 61t-185.5 176.5t-70.5 262.5z" />
<glyph unicode="d" horiz-adv-x="1282" d="M127 473q0 109 38.5 202t104.5 156.5t154 99.5t186 36q90 0 179 -40t163 -112v619h127v-1209q0 -132 19 -225h-119q-14 66 -14 145q-48 -64 -144 -118t-213 -54q-98 0 -185.5 36t-153 100t-104 158.5t-38.5 205.5zM268 473q0 -173 101.5 -281t251.5 -108q61 0 118.5 18 t99.5 46t68.5 51t44.5 45v454q-74 74 -159.5 116t-171.5 42q-149 0 -251 -106.5t-102 -276.5z" />
<glyph unicode="e" horiz-adv-x="1216" d="M125 459q0 141 65 257.5t180 183.5t255 67q68 0 133.5 -16.5t127 -53t108 -88.5t75 -130t29.5 -171q0 -27 -2 -41h-844v-4q0 -161 101 -269t274 -108q108 0 201.5 39.5t156.5 107.5l86 -81q-82 -80 -200.5 -129.5t-256.5 -49.5q-222 0 -355.5 140t-133.5 346zM264 567 h694q-3 95 -56 164t-127 100t-157 31q-133 0 -228.5 -83t-125.5 -212z" />
<glyph unicode="f" horiz-adv-x="720" d="M84 840v100h192v207q0 82 25.5 144t68 97t90.5 51.5t101 16.5q59 0 123 -19t100 -53l-28 -102q-28 28 -78 44.5t-94 16.5q-78 0 -129.5 -49t-51.5 -147v-207h302v-100h-302v-840h-127v840h-192z" />
<glyph unicode="g" horiz-adv-x="1282" d="M127 467q0 148 67 263t178.5 176t245.5 61q114 0 206.5 -56t140.5 -120q0 81 22 151h119q-27 -92 -27 -225v-785q0 -172 -122 -284.5t-345 -112.5q-274 0 -426 166l78 76q124 -135 348 -135q162 0 251 81.5t89 208.5v205q-161 -164 -352 -164q-96 0 -182 36t-150.5 99.5 t-102.5 156.5t-38 202zM268 467q0 -170 99 -276.5t245 -106.5q87 0 176 42t164 116v454q-18 22 -43 45t-66 51t-97.5 46t-116.5 18q-153 0 -257 -108t-104 -281z" />
<glyph unicode="h" horiz-adv-x="1236" d="M201 0v1434h127v-631q65 70 155 117t197 47q166 0 269.5 -92t103.5 -236v-639h-129v639q0 92 -72 154.5t-184 62.5q-181 0 -340 -168v-688h-127z" />
<glyph unicode="i" horiz-adv-x="526" d="M176 1313q0 34 25 58t61 24q38 0 63 -24t25 -58t-25 -57t-63 -23q-36 0 -61 23.5t-25 56.5zM201 0v940h127v-940h-127z" />
<glyph unicode="j" horiz-adv-x="526" d="M-25 -365q43 5 79 19t71.5 41.5t55.5 77t20 116.5v1051h127v-1051q0 -76 -20 -137.5t-52 -101t-74.5 -66t-85 -38t-86.5 -11.5zM176 1313q0 34 25 58t61 24q38 0 63 -24t25 -58t-25 -57t-63 -23q-36 0 -61 23.5t-25 56.5z" />
<glyph unicode="k" horiz-adv-x="1138" d="M201 0v1434h127v-977l544 483h172l-382 -330l442 -610h-158l-379 528l-239 -209v-319h-127z" />
<glyph unicode="l" horiz-adv-x="561" d="M217 0v1434h127v-1434h-127z" />
<glyph unicode="m" horiz-adv-x="1824" d="M174 940h117q23 -74 26 -147q150 174 336 174q111 0 190.5 -52.5t119.5 -138.5q140 191 346 191q143 0 237 -93t94 -235v-639h-129v639q0 92 -63 154.5t-160 62.5q-157 0 -303 -168v-688h-127v684q-15 73 -73 122.5t-150 49.5q-159 0 -305 -168v-688h-127v717 q0 110 -29 223z" />
<glyph unicode="n" horiz-adv-x="1241" d="M174 940h117q23 -65 26 -149q164 176 375 176q157 0 260 -93t103 -235v-639h-129v639q0 92 -71 154.5t-183 62.5q-182 0 -342 -168v-688h-127v717q0 110 -29 223z" />
<glyph unicode="o" horiz-adv-x="1263" d="M125 473q0 207 145.5 350.5t360.5 143.5t361.5 -143.5t146.5 -350.5q0 -211 -146 -355.5t-362 -144.5q-107 0 -201 39t-161 105.5t-105.5 159t-38.5 196.5zM258 473q0 -164 106 -278.5t267 -114.5t269 115t108 278q0 159 -108.5 274t-268.5 115t-266.5 -114.5 t-106.5 -274.5z" />
<glyph unicode="p" horiz-adv-x="1282" d="M178 940h119q19 -69 22 -145q64 72 160 122t203 50q129 0 236.5 -61t172 -175.5t64.5 -261.5q0 -146 -67 -260.5t-178 -175t-244 -60.5q-100 0 -187 46t-149 116v-569h-127v1143q0 131 -25 231zM330 242q59 -64 142.5 -111t180.5 -47q153 0 258 107t105 278t-100 279 t-244 108q-100 0 -188.5 -46.5t-153.5 -111.5v-456z" />
<glyph unicode="q" horiz-adv-x="1282" d="M127 469q0 147 66 261.5t175.5 175.5t241.5 61q105 0 199 -50t156 -122q0 75 22 145h119q-27 -94 -27 -231v-1143h-127v569q-61 -70 -151 -116t-193 -46q-98 0 -185.5 36t-153 99.5t-104 157.5t-38.5 203zM268 469q0 -171 101.5 -278t251.5 -107q99 0 186 47.5t145 110.5 v456q-62 65 -147 111.5t-184 46.5q-148 0 -250.5 -108t-102.5 -279z" />
<glyph unicode="r" horiz-adv-x="802" d="M172 940h119q23 -70 26 -166q133 193 295 193q106 0 150 -56l-43 -112q-20 22 -59 33.5t-74 11.5q-76 0 -137.5 -50.5t-118.5 -129.5v-664h-127v717q0 118 -31 223z" />
<glyph unicode="s" horiz-adv-x="1120" d="M113 119l51 96q56 -39 103 -65t129.5 -50t168.5 -24q138 0 228 51t90 145q0 30 -11.5 55t-28.5 41.5t-45 29t-52 19t-60 11.5t-58.5 6.5t-56.5 3.5q-178 11 -253 34q-161 50 -168 202v14q0 62 23 111.5t60.5 81t87.5 52.5t101.5 29.5t105.5 8.5q122 0 233.5 -38 t176.5 -83l-51 -96q-57 40 -155.5 75t-201.5 35q-47 0 -90.5 -9t-81 -27.5t-60 -51t-22.5 -74.5q0 -27 10.5 -48.5t25 -35.5t42 -24.5t48.5 -16t57 -10t55.5 -5.5t56.5 -3t58 -3.5t62 -5.5t66.5 -9.5t62.5 -16t61 -24.5t50.5 -34.5t42 -46t26 -60.5t10.5 -76 q0 -103 -61.5 -175t-159 -104.5t-222.5 -32.5q-248 0 -454 148z" />
<glyph unicode="t" horiz-adv-x="790" d="M63 840v100h195v289h127v-289h311v-100h-311v-609q0 -77 42 -114t105 -37q43 0 95 13t78 30l18 -98q-31 -23 -94 -40.5t-119 -17.5q-46 0 -88.5 14t-80.5 43t-60.5 82.5t-22.5 124.5v609h-195z" />
<glyph unicode="u" horiz-adv-x="1239" d="M184 301v639h129v-639q0 -92 71.5 -154.5t182.5 -62.5q182 0 342 168v688h127v-715q0 -130 17 -225h-117q-14 66 -14 150q-169 -177 -373 -177q-158 0 -261.5 93t-103.5 235z" />
<glyph unicode="v" horiz-adv-x="1093" d="M76 940h141l326 -770h14l332 770h131l-414 -940h-119z" />
<glyph unicode="w" horiz-adv-x="1579" d="M88 940h137l242 -776h10l250 776h133l250 -776h10l234 776h139l-313 -940h-140l-245 760h-11l-243 -760h-140z" />
<glyph unicode="x" horiz-adv-x="1107" d="M72 0l405 481l-385 459h162l299 -377l301 377h162l-385 -459l405 -481h-159l-324 399l-322 -399h-159z" />
<glyph unicode="y" horiz-adv-x="1126" d="M74 940h143l332 -774h6l369 774h129l-670 -1374h-131l231 461z" />
<glyph unicode="z" horiz-adv-x="1062" d="M94 0v78l666 762h-604v100h778v-78l-666 -762h680v-100h-854z" />
<glyph unicode="{" horiz-adv-x="765" d="M57 502v125q98 0 170 66t72 171v211q2 108 19.5 172t65 102t117 51t187.5 13v-110q-154 0 -206.5 -44t-55.5 -184v-211q0 -124 -72.5 -204.5t-169.5 -86.5v-16q240 -4 240 -281v-260q0 -71 11.5 -113t44 -67t80 -33t128.5 -8v-110q-97 0 -158.5 8t-110 28t-73.5 58.5 t-37 94.5t-12 142v260q0 53 -13 94t-35 65.5t-54 40t-65 21t-73 5.5z" />
<glyph unicode="|" horiz-adv-x="716" d="M301 -625v2472h119v-2472h-119z" />
<glyph unicode="}" horiz-adv-x="765" d="M78 -205q78 0 125 8.5t80 32.5t46 67t13 113v260q0 277 240 281v16q-98 6 -170 86.5t-72 204.5v211q-2 72 -15 116t-45.5 69.5t-78.5 34t-123 8.5v110q78 0 132.5 -5.5t99.5 -20t72.5 -38t46.5 -62t27 -89.5t9 -123v-211q0 -105 72.5 -171t169.5 -66v-125 q-240 0 -240 -226v-260q0 -86 -12 -142t-36.5 -94.5t-72.5 -58.5t-109.5 -28t-158.5 -8v110z" />
<glyph unicode="~" horiz-adv-x="1447" d="M123 477q95 106 178 159.5t170 53.5q148 0 281 -129q25 -23 32 -29t32.5 -25.5t41.5 -27t43 -15t55 -7.5q59 0 129 41.5t140 117.5l98 -59q-94 -109 -189.5 -165t-181.5 -56q-52 0 -96.5 12t-84.5 39t-57 41t-52 47q-51 45 -95 69.5t-100 24.5q-107 0 -250 -153z" />
<glyph unicode="&#xa1;" horiz-adv-x="567" d="M131 862q0 43 32 73t79 30t79.5 -30t32.5 -73q0 -42 -32.5 -72t-79.5 -30t-79 30t-32 72zM168 -70l27 613h92l28 -613v-323h-147v323z" />
<glyph unicode="&#xa2;" horiz-adv-x="1161" d="M115 424q0 130 65.5 232t175.5 157t244 55q33 0 49 -2l41 185h94l-43 -197q150 -28 271 -125l-82 -84q-94 73 -213 98l-148 -655q14 -2 41 -2q183 0 328 131l86 -80q-18 -20 -49 -43.5t-82.5 -52t-126.5 -47.5t-156 -19q-8 0 -65 5l-56 -252h-94l60 268 q-151 41 -245.5 155.5t-94.5 272.5zM252 424q0 -116 62 -199.5t165 -118.5l146 652h-25q-148 0 -248 -93t-100 -241z" />
<glyph unicode="&#xa3;" horiz-adv-x="1466" d="M133 0v109h76q62 0 99.5 9t64 35.5t37 71.5t10.5 119v203h-287v100h287v170q0 81 37.5 145.5t100.5 103.5t139 59t159 20q91 0 217.5 -38.5t233.5 -100.5l-68 -95q-96 50 -202.5 81.5t-180.5 31.5q-77 0 -143.5 -21t-112 -69.5t-45.5 -116.5v-170h530v-100h-530v-203 q0 -109 -35.5 -162.5t-118.5 -72.5h906v-109h-1174z" />
<glyph unicode="&#xa4;" horiz-adv-x="1513" d="M147 45l162 152q-116 145 -116 331q0 184 116 332l-162 152l89 88l161 -152q153 131 357 131q205 0 362 -131l162 152l90 -88l-166 -154q119 -148 119 -330q0 -183 -119 -331l166 -152l-90 -88l-162 152q-158 -132 -362 -132q-202 0 -357 129l-161 -149zM330 528 q0 -176 125 -301t299 -125q177 0 303.5 124.5t126.5 301.5q0 175 -126.5 300.5t-303.5 125.5q-173 0 -298.5 -125.5t-125.5 -300.5z" />
<glyph unicode="&#xa5;" horiz-adv-x="1523" d="M147 393v88h547v43l-104 125h-443v88h369l-317 379h174l395 -469l395 469h162l-315 -379h368v-88h-442l-105 -125v-43h547v-88h-547v-393h-137v393h-547z" />
<glyph unicode="&#xa6;" horiz-adv-x="716" d="M301 397h119v-860h-119v860zM301 782v846h119v-846h-119z" />
<glyph unicode="&#xa7;" horiz-adv-x="1433" d="M127 432q0 122 92 211q61 64 168 98q-28 17 -43 35q-35 47 -35 111q0 56 25.5 101.5t67 75t96.5 49t111 28t114 8.5q110 0 219 -30t193 -83l-62 -94q-70 45 -162.5 70.5t-187.5 25.5q-45 0 -88 -6.5t-88.5 -21.5t-73 -45.5t-27.5 -73.5q0 -45 27 -66q13 -12 33.5 -21 t39.5 -14.5t52.5 -11t53 -7.5t62.5 -6.5t62 -6.5q328 -33 455 -154q86 -83 86 -201q0 -126 -92 -215q-65 -60 -170 -94q29 -16 49 -43q31 -43 31 -102q0 -70 -38.5 -122.5t-101.5 -81t-132 -42.5t-142 -14q-111 0 -220 29t-192 81l62 95q71 -44 164.5 -70.5t187.5 -26.5 q44 0 88 7t88 23t71 47t27 73q0 44 -24 63q-11 10 -25.5 18t-35.5 14.5t-38.5 10.5t-47.5 8t-48.5 6t-55 5.5t-54.5 5.5q-322 33 -453 151q-88 82 -88 203zM264 449q0 -85 62 -144q96 -86 344 -108q6 -1 33 -3.5t36 -3.5t33.5 -3.5t36 -4.5t33 -5t35 -5.5t31.5 -6.5 t33.5 -8.5t29.5 -9.5q84 26 133 70q78 72 78 170q0 83 -62 139q-95 90 -346 113q-11 1 -57 5.5t-68 7.5t-59.5 8t-66.5 12t-54 16q-77 -24 -131 -72q-74 -74 -74 -167z" />
<glyph unicode="&#xa8;" horiz-adv-x="1024" d="M231 1221q0 32 23.5 54.5t58.5 22.5t59.5 -22.5t24.5 -54.5t-24.5 -54t-59.5 -22t-58.5 22t-23.5 54zM627 1221q0 32 23.5 54.5t58.5 22.5t59.5 -22.5t24.5 -54.5t-24.5 -54t-59.5 -22t-58.5 22t-23.5 54z" />
<glyph unicode="&#xa9;" horiz-adv-x="2045" d="M117 555q0 170 72 324.5t194 265t289.5 176t351.5 65.5q183 0 350 -65.5t289 -176t194 -265t72 -324.5t-72 -325t-194 -266.5t-289 -177t-350 -65.5q-147 0 -285 42t-250 119t-196 179t-130 230t-46 264zM221 555q0 -152 64.5 -289.5t172.5 -237t256 -158t310 -58.5 q217 0 401 99t292 270.5t108 373.5q0 150 -64 287.5t-171 237.5t-255.5 159t-310.5 59q-161 0 -309.5 -59t-256.5 -159t-172.5 -237.5t-64.5 -287.5zM545 555q0 190 136.5 317t356.5 127q106 0 214 -41.5t190 -107.5l-51 -84q-72 63 -164.5 98t-188.5 35q-167 0 -271.5 -99 t-104.5 -245q0 -140 110 -227.5t272 -87.5q119 0 197.5 32t159.5 93l51 -86q-88 -69 -178.5 -104.5t-229.5 -35.5q-137 0 -250.5 51t-181 147t-67.5 218z" />
<glyph unicode="&#xaa;" horiz-adv-x="933" d="M80 672q0 100 89 164.5t247 64.5q76 0 151.5 -19.5t116.5 -58.5v107q0 72 -62 106.5t-157 34.5q-82 0 -160.5 -26t-124.5 -58l-41 88q57 35 144.5 61.5t187.5 26.5q63 0 118 -11t102.5 -33.5t75.5 -64t28 -96.5v-383q0 -72 24 -124h-110q-15 24 -25 100 q-136 -121 -313 -121q-132 0 -211.5 69t-79.5 173zM193 672q0 -63 53.5 -104.5t146.5 -41.5q72 0 142 26.5t105 52.5t44 40v88q-79 82 -252 82q-122 0 -180.5 -39t-58.5 -104z" />
<glyph unicode="&#xab;" horiz-adv-x="1103" d="M119 459v69l221 252h154l-248 -278v-17l248 -276h-154zM549 485v19l242 276h151l-248 -278v-17l248 -276h-151z" />
<glyph unicode="&#xac;" horiz-adv-x="1447" d="M172 713v114h1100v-610h-125v496h-975z" />
<glyph unicode="&#xad;" horiz-adv-x="819" d="M145 451v124h527v-124h-527z" />
<glyph unicode="&#xae;" horiz-adv-x="1302" d="M133 899q0 95 40 182t107.5 151t163.5 102t203 38q218 0 371 -140t153 -333q0 -132 -69.5 -241.5t-190 -172.5t-264.5 -63q-218 0 -366 138t-148 339zM193 899q0 -177 131 -299.5t323 -122.5q194 0 328.5 122.5t134.5 299.5q0 171 -135.5 295.5t-327.5 124.5 q-190 0 -322 -124t-132 -296zM428 670v481h309q75 0 125.5 -39.5t50.5 -99.5q0 -47 -33.5 -84.5t-88.5 -50.5l129 -207h-82l-123 200h-215v-200h-72zM500 930h239q43 0 73 24.5t30 57.5q0 35 -30.5 57.5t-74.5 22.5h-237v-162z" />
<glyph unicode="&#xaf;" horiz-adv-x="1024" d="M256 1180v100h512v-100h-512z" />
<glyph unicode="&#xb0;" horiz-adv-x="1021" d="M121 946q0 148 102 247t285 99q184 0 289.5 -99.5t105.5 -246.5q0 -143 -106 -242.5t-289 -99.5q-182 0 -284.5 99t-102.5 243zM236 946q0 -104 72 -174t200 -70q129 0 204.5 70.5t75.5 173.5q0 105 -75.5 175.5t-204.5 70.5t-200.5 -70t-71.5 -176z" />
<glyph unicode="&#xb1;" horiz-adv-x="1447" d="M172 0v115h1100v-115h-1100zM172 608v115h490v375h124v-375h486v-115h-486v-375h-124v375h-490z" />
<glyph unicode="&#xb2;" horiz-adv-x="974" d="M92 451v104q0 277 404 381q117 29 163 52q101 49 101 128q0 47 -37 79.5t-91.5 46t-119.5 13.5q-102 0 -177 -33.5t-153 -95.5l-71 84q52 38 83.5 57.5t83.5 45.5t109 37.5t123 11.5q97 0 179 -25t138 -82.5t56 -138.5q0 -53 -23.5 -96t-57 -70t-85 -50.5t-90.5 -35.5 t-91 -26q-8 -2 -12.5 -3t-10.5 -3t-11 -3q-65 -18 -112.5 -38t-90.5 -51t-65.5 -75t-22.5 -100v-18h657v-96h-776z" />
<glyph unicode="&#xb3;" horiz-adv-x="1110" d="M63 604l74 84q170 -156 410 -156q156 0 258 53t102 144q0 41 -22.5 71t-58 44.5t-68 21t-62.5 6.5h-186v97h178q49 0 96 36.5t47 96.5q0 40 -23.5 70.5t-61.5 48t-80.5 26t-85.5 8.5q-187 0 -357 -147l-71 74q204 180 430 180q62 0 124 -13.5t118.5 -41t92 -76 t35.5 -111.5q0 -67 -38.5 -115.5t-84.5 -66.5q31 -6 62 -19.5t63.5 -38t53 -65.5t20.5 -92q0 -138 -136.5 -217.5t-344.5 -79.5q-292 0 -484 178z" />
<glyph unicode="&#xb4;" horiz-adv-x="1024" d="M412 1114l182 299l143 -4l-211 -299z" />
<glyph unicode="&#xb5;" horiz-adv-x="1224" d="M176 -471v1401h127v-643q2 -90 73.5 -149.5t180.5 -59.5q183 0 342 168v684h127v-705q0 -137 18 -225h-118q-15 70 -15 143q-168 -176 -372 -176q-161 0 -236 113v-551h-127z" />
<glyph unicode="&#xb6;" horiz-adv-x="1722" d="M102 950q0 387 506 387h889v-1759h-115v1649h-249v-1649h-115v969h-451q-67 0 -131 13.5t-125.5 45t-107 77t-73.5 114.5t-28 153zM229 950q0 -62 20.5 -112t54 -83t78 -55.5t91 -32.5t94.5 -10h451v570h-410q-81 0 -145 -12.5t-119 -42t-85 -85.5t-30 -137z" />
<glyph unicode="&#xb7;" horiz-adv-x="1447" d="M600 518q0 46 35.5 79.5t87.5 33.5t87.5 -33.5t35.5 -79.5q0 -47 -35 -78.5t-88 -31.5q-51 0 -87 31.5t-36 78.5z" />
<glyph unicode="&#xb8;" horiz-adv-x="1024" d="M225 -414l23 74q181 -43 274 -43q92 0 148.5 28t56.5 79q0 48 -35 68t-86 20q-29 0 -112 -19l-41 45l67 182h86l-55 -157q58 16 98 16q78 0 136.5 -39t58.5 -116q0 -87 -89 -137t-229 -50q-109 0 -301 49z" />
<glyph unicode="&#xb9;" horiz-adv-x="618" d="M16 1217l289 120h121v-886h-121v778l-260 -109z" />
<glyph unicode="&#xba;" horiz-adv-x="954" d="M86 799q0 151 115.5 257.5t273.5 106.5q161 0 277 -106.5t116 -257.5q0 -153 -116 -261t-277 -108q-158 0 -273.5 108t-115.5 261zM201 799q0 -116 77 -194.5t197 -78.5q122 0 201.5 79t79.5 194q0 112 -80 191t-201 79q-119 0 -196.5 -79t-77.5 -191z" />
<glyph unicode="&#xbb;" horiz-adv-x="1103" d="M162 209l248 276v17l-248 278h151l242 -276v-19l-242 -276h-151zM610 209l248 276v17l-248 278h154l221 -252v-69l-221 -250h-154z" />
<glyph unicode="&#xbc;" horiz-adv-x="2113" d="M14 1217l289 120h121v-886h-121v778l-262 -109zM410 0l759 1337h109l-758 -1337h-110zM1026 211v88l727 588h115v-578h182v-98h-182v-211h-121v211h-721zM1204 309h543v424h-16l-527 -420v-4z" />
<glyph unicode="&#xbd;" horiz-adv-x="2041" d="M14 1217l289 120h121v-886h-121v778l-262 -109zM410 0l759 1337h109l-758 -1337h-110zM1157 0v104q0 277 404 381q119 30 168 54q98 50 98 127q0 47 -37.5 79.5t-92 46t-118.5 13.5q-103 0 -177 -33t-155 -96l-69 84q49 36 82 57t84 46t108 36.5t123 11.5q98 0 180 -25 t137.5 -82t55.5 -138q0 -53 -25.5 -97t-53.5 -69.5t-88.5 -51.5t-88 -34t-93.5 -26q-22 -6 -32 -9q-64 -18 -111 -38t-90 -51t-65.5 -75t-22.5 -100v-19h655v-96h-776z" />
<glyph unicode="&#xbe;" horiz-adv-x="2609" d="M63 604l74 84q170 -156 410 -156q156 0 258 53t102 144q0 41 -22.5 71t-58 44.5t-68 21t-62.5 6.5h-186v97h178q49 0 96 36.5t47 96.5q0 40 -23.5 70.5t-61.5 48t-80.5 26t-85.5 8.5q-187 0 -357 -147l-71 74q204 180 430 180q62 0 124 -13.5t118.5 -41t92 -76 t35.5 -111.5q0 -67 -38.5 -115.5t-84.5 -66.5q31 -6 62 -19.5t63.5 -38t53 -65.5t20.5 -92q0 -138 -136.5 -217.5t-344.5 -79.5q-292 0 -484 178zM905 0l760 1337h109l-758 -1337h-111zM1522 211v88l727 588h114v-578h183v-98h-183v-211h-120v211h-721zM1700 309h543v424 h-17l-526 -420v-4z" />
<glyph unicode="&#xbf;" horiz-adv-x="1214" d="M119 -104q0 88 39.5 146.5t117.5 117.5q35 27 92.5 65.5t95 66t78.5 65.5t66 84t33 102h123q-4 -60 -25.5 -113.5t-50 -90.5t-72 -75t-80 -62.5t-87 -58.5t-80.5 -57q-66 -46 -96.5 -85.5t-30.5 -100.5q0 -56 26.5 -98.5t73 -66t102.5 -35t121 -11.5q105 0 192 27.5 t143.5 67.5t117.5 103l88 -80q-52 -54 -101.5 -92t-114.5 -71t-147.5 -49.5t-181.5 -16.5q-91 0 -166.5 16t-139.5 51.5t-100 99.5t-36 151zM565 862q0 43 33 73t80 30t78.5 -30t31.5 -73q0 -42 -31.5 -72t-78.5 -30t-80 30t-33 72z" />
<glyph unicode="&#xc0;" horiz-adv-x="1538" d="M82 0l620 1337h136l620 -1337h-149l-199 434h-690l-197 -434h-141zM465 1751l170 6l268 -241l-119 -9zM471 545h590l-289 633h-12z" />
<glyph unicode="&#xc1;" horiz-adv-x="1538" d="M82 0l620 1337h136l620 -1337h-149l-199 434h-690l-197 -434h-141zM471 545h590l-289 633h-12zM637 1516l268 241l168 -6l-319 -244z" />
<glyph unicode="&#xc2;" horiz-adv-x="1538" d="M82 0l620 1337h136l620 -1337h-149l-199 434h-690l-197 -434h-141zM471 545h590l-289 633h-12zM475 1516l225 243h140l223 -243l-100 -9l-193 176l-195 -176z" />
<glyph unicode="&#xc3;" horiz-adv-x="1538" d="M82 0l620 1337h136l620 -1337h-149l-199 434h-690l-197 -434h-141zM442 1563q46 75 91 111t100 36q35 0 64.5 -14.5t74.5 -46.5q71 -56 119 -56q23 0 45.5 15.5t36.5 32.5t35 47l79 -43q-88 -150 -190 -150q-71 0 -145 55q-31 25 -43 34.5t-32.5 19.5t-37.5 10 q-22 0 -44.5 -16.5t-35 -32.5t-33.5 -47zM471 545h590l-289 633h-12z" />
<glyph unicode="&#xc4;" horiz-adv-x="1538" d="M82 0l620 1337h136l620 -1337h-149l-199 434h-690l-197 -434h-141zM471 545h590l-289 633h-12zM489 1618q0 31 23.5 54.5t58.5 23.5t59.5 -23.5t24.5 -54.5q0 -34 -24 -56t-60 -22q-35 0 -58.5 22t-23.5 56zM885 1618q0 31 23.5 54.5t58.5 23.5t59.5 -23.5t24.5 -54.5 q0 -34 -24 -56t-60 -22q-35 0 -58.5 22t-23.5 56z" />
<glyph unicode="&#xc5;" horiz-adv-x="1538" d="M82 0l620 1337h136l620 -1337h-149l-199 434h-690l-197 -434h-141zM471 545h590l-289 633h-12zM535 1614q0 83 62 138.5t167 55.5q107 0 171 -56t64 -138q0 -81 -64 -135t-171 -54q-105 0 -167 54t-62 135zM614 1614q0 -54 42 -89.5t108 -35.5q68 0 111 35.5t43 89.5 q0 58 -43 95.5t-111 37.5q-66 0 -108 -38t-42 -95z" />
<glyph unicode="&#xc6;" horiz-adv-x="2230" d="M8 0l979 1337h1100v-123h-930v-450h563v-123h-563v-518h975v-123h-1110v434h-547l-313 -434h-154zM555 545h467v633h-8z" />
<glyph unicode="&#xc7;" horiz-adv-x="1605" d="M139 670q0 142 55.5 270.5t152 222.5t233 149.5t290.5 55.5q172 0 331 -60.5t269 -164.5l-92 -90q-97 90 -232 142t-274 52q-166 0 -302 -78.5t-211.5 -211t-75.5 -289.5q0 -118 45 -224t123.5 -184t190 -124t237.5 -46q155 0 292.5 62t239.5 165l92 -90 q-120 -116 -280.5 -188t-345.5 -72h-5l-36 -104q58 16 98 16q78 0 136 -39t58 -116q0 -87 -88.5 -137t-228.5 -50q-109 0 -301 49l22 74q181 -43 275 -43q92 0 148.5 28t56.5 79q0 48 -35 68t-86 20q-30 0 -113 -19l-41 45l49 135q-187 19 -335.5 116.5t-230 250 t-81.5 330.5z" />
<glyph unicode="&#xc8;" horiz-adv-x="1470" d="M262 0v1337h1067v-123h-930v-446h564v-121h-564v-524h975v-123h-1112zM494 1751l170 6l268 -241l-119 -9z" />
<glyph unicode="&#xc9;" horiz-adv-x="1470" d="M262 0v1337h1067v-123h-930v-446h564v-121h-564v-524h975v-123h-1112zM666 1516l268 241l168 -6l-320 -244z" />
<glyph unicode="&#xca;" horiz-adv-x="1470" d="M262 0v1337h1067v-123h-930v-446h564v-121h-564v-524h975v-123h-1112zM504 1516l225 243h139l224 -243l-101 -9l-192 176l-195 -176z" />
<glyph unicode="&#xcb;" horiz-adv-x="1470" d="M262 0v1337h1067v-123h-930v-446h564v-121h-564v-524h975v-123h-1112zM518 1618q0 31 23.5 54.5t58.5 23.5t59.5 -23.5t24.5 -54.5q0 -34 -24 -56t-60 -22q-35 0 -58.5 22t-23.5 56zM913 1618q0 31 23.5 54.5t58.5 23.5t59.5 -23.5t24.5 -54.5q0 -34 -24 -56t-60 -22 q-35 0 -58.5 22t-23.5 56z" />
<glyph unicode="&#xcc;" horiz-adv-x="661" d="M25 1751l170 6l268 -241l-119 -9zM262 0v1337h137v-1337h-137z" />
<glyph unicode="&#xcd;" horiz-adv-x="661" d="M197 1516l268 241l168 -6l-320 -244zM262 0v1337h137v-1337h-137z" />
<glyph unicode="&#xce;" horiz-adv-x="661" d="M35 1516l227 243h137l226 -243l-103 -9l-192 176l-193 -176zM262 0v1337h137v-1337h-137z" />
<glyph unicode="&#xcf;" horiz-adv-x="661" d="M49 1618q0 31 23.5 54.5t58.5 23.5q36 0 60 -23t24 -55q0 -34 -23.5 -56t-60.5 -22q-35 0 -58.5 22t-23.5 56zM262 0v1337h137v-1337h-137zM444 1618q0 31 23.5 54.5t58.5 23.5q36 0 60 -23t24 -55q0 -34 -23.5 -56t-60.5 -22q-35 0 -58.5 22t-23.5 56z" />
<glyph unicode="&#xd0;" horiz-adv-x="1730" d="M109 647v111h204v579h559q180 0 300 -48t223 -144q91 -91 139.5 -213.5t48.5 -261.5q0 -141 -52 -267.5t-145 -218.5q-104 -94 -219 -139t-295 -45h-559v647h-204zM451 123h415q148 0 237 35.5t175 111.5q76 76 119 180.5t43 219.5q0 114 -41 215.5t-115 177.5 q-86 77 -178.5 114t-239.5 37h-415v-456h448v-111h-448v-524z" />
<glyph unicode="&#xd1;" horiz-adv-x="1701" d="M262 0v1337h129l909 -1101h3v1101h137v-1337h-129l-910 1102h-2v-1102h-137zM522 1563q46 75 91 111t100 36q35 0 64.5 -14.5t74.5 -46.5q71 -56 119 -56q23 0 45.5 16t35.5 32t35 47l80 -43q-88 -150 -190 -150q-72 0 -146 55q-59 49 -81 58q-16 6 -31 6 q-22 0 -44.5 -16.5t-35 -32.5t-33.5 -47z" />
<glyph unicode="&#xd2;" horiz-adv-x="1751" d="M139 672q0 142 57.5 271t155 222t233.5 148t287 55q152 0 289 -55t236 -148t157 -222t58 -271q0 -192 -98.5 -354.5t-268.5 -256.5t-373 -94q-151 0 -287 55.5t-233.5 150t-155 225t-57.5 274.5zM285 672q0 -159 77.5 -292.5t212.5 -211.5t297 -78q123 0 233.5 46 t190 124t126 185.5t46.5 226.5q0 117 -46.5 223.5t-126 183.5t-190 122.5t-233.5 45.5q-121 0 -230.5 -45.5t-187.5 -123t-123.5 -183.5t-45.5 -223zM569 1751l170 6l269 -241l-119 -9z" />
<glyph unicode="&#xd3;" horiz-adv-x="1751" d="M139 672q0 142 57.5 271t155 222t233.5 148t287 55q152 0 289 -55t236 -148t157 -222t58 -271q0 -192 -98.5 -354.5t-268.5 -256.5t-373 -94q-151 0 -287 55.5t-233.5 150t-155 225t-57.5 274.5zM285 672q0 -159 77.5 -292.5t212.5 -211.5t297 -78q123 0 233.5 46 t190 124t126 185.5t46.5 226.5q0 117 -46.5 223.5t-126 183.5t-190 122.5t-233.5 45.5q-121 0 -230.5 -45.5t-187.5 -123t-123.5 -183.5t-45.5 -223zM741 1516l269 241l168 -6l-320 -244z" />
<glyph unicode="&#xd4;" horiz-adv-x="1751" d="M139 672q0 142 57.5 271t155 222t233.5 148t287 55q152 0 289 -55t236 -148t157 -222t58 -271q0 -192 -98.5 -354.5t-268.5 -256.5t-373 -94q-151 0 -287 55.5t-233.5 150t-155 225t-57.5 274.5zM285 672q0 -159 77.5 -292.5t212.5 -211.5t297 -78q123 0 233.5 46 t190 124t126 185.5t46.5 226.5q0 117 -46.5 223.5t-126 183.5t-190 122.5t-233.5 45.5q-121 0 -230.5 -45.5t-187.5 -123t-123.5 -183.5t-45.5 -223zM580 1516l225 243h139l223 -243l-100 -9l-193 176l-194 -176z" />
<glyph unicode="&#xd5;" horiz-adv-x="1751" d="M139 672q0 142 57.5 271t155 222t233.5 148t287 55q152 0 289 -55t236 -148t157 -222t58 -271q0 -192 -98.5 -354.5t-268.5 -256.5t-373 -94q-151 0 -287 55.5t-233.5 150t-155 225t-57.5 274.5zM285 672q0 -159 77.5 -292.5t212.5 -211.5t297 -78q123 0 233.5 46 t190 124t126 185.5t46.5 226.5q0 117 -46.5 223.5t-126 183.5t-190 122.5t-233.5 45.5q-121 0 -230.5 -45.5t-187.5 -123t-123.5 -183.5t-45.5 -223zM547 1563q46 75 90.5 111t99.5 36q35 0 65.5 -14.5t74.5 -46.5q71 -56 118 -56q23 0 45.5 15.5t36.5 32.5t35 47l80 -43 q-88 -150 -191 -150q-71 0 -145 55q-31 25 -43 34.5t-32.5 19.5t-37.5 10q-22 0 -44.5 -17t-34 -32t-33.5 -47z" />
<glyph unicode="&#xd6;" horiz-adv-x="1751" d="M139 672q0 142 57.5 271t155 222t233.5 148t287 55q152 0 289 -55t236 -148t157 -222t58 -271q0 -192 -98.5 -354.5t-268.5 -256.5t-373 -94q-151 0 -287 55.5t-233.5 150t-155 225t-57.5 274.5zM285 672q0 -159 77.5 -292.5t212.5 -211.5t297 -78q123 0 233.5 46 t190 124t126 185.5t46.5 226.5q0 117 -46.5 223.5t-126 183.5t-190 122.5t-233.5 45.5q-121 0 -230.5 -45.5t-187.5 -123t-123.5 -183.5t-45.5 -223zM594 1618q0 31 23.5 54.5t58.5 23.5t59.5 -23.5t24.5 -54.5q0 -34 -24 -56t-60 -22q-35 0 -58.5 22t-23.5 56zM989 1618 q0 31 23.5 54.5t58.5 23.5t59.5 -23.5t24.5 -54.5q0 -34 -24 -56t-60 -22q-35 0 -58.5 22t-23.5 56z" />
<glyph unicode="&#xd7;" horiz-adv-x="1447" d="M211 129l424 387l-424 387l86 84l428 -391l426 391l82 -82l-424 -387l426 -387l-86 -82l-428 389l-426 -389z" />
<glyph unicode="&#xd8;" horiz-adv-x="1751" d="M139 672q0 142 57.5 271t155 222t233.5 148t287 55q189 0 359 -88l125 178l92 -63l-121 -174q133 -97 209 -240.5t76 -308.5q0 -192 -98.5 -354.5t-268.5 -256.5t-373 -94q-192 0 -358 88l-121 -174l-94 62l121 172q-131 98 -206 243.5t-75 313.5zM285 672 q0 -134 56 -251.5t155 -197.5l663 953q-136 71 -287 71q-121 0 -230.5 -45.5t-187.5 -123t-123.5 -183.5t-45.5 -223zM588 162q134 -72 284 -72q123 0 233.5 46t190 124t126 185.5t46.5 226.5q0 131 -57.5 247t-157.5 197z" />
<glyph unicode="&#xd9;" horiz-adv-x="1634" d="M233 475v862h138v-862q0 -181 124.5 -283t319.5 -102q198 0 323.5 102t125.5 283v862h137v-862q0 -158 -77 -274.5t-208.5 -175t-300.5 -58.5q-167 0 -298 58.5t-207.5 175t-76.5 274.5zM510 1751l170 6l268 -241l-119 -9z" />
<glyph unicode="&#xda;" horiz-adv-x="1634" d="M233 475v862h138v-862q0 -181 124.5 -283t319.5 -102q198 0 323.5 102t125.5 283v862h137v-862q0 -158 -77 -274.5t-208.5 -175t-300.5 -58.5q-167 0 -298 58.5t-207.5 175t-76.5 274.5zM682 1516l268 241l168 -6l-319 -244z" />
<glyph unicode="&#xdb;" horiz-adv-x="1634" d="M233 475v862h138v-862q0 -181 124.5 -283t319.5 -102q198 0 323.5 102t125.5 283v862h137v-862q0 -158 -77 -274.5t-208.5 -175t-300.5 -58.5q-167 0 -298 58.5t-207.5 175t-76.5 274.5zM520 1516l225 243h140l223 -243l-100 -9l-193 176l-194 -176z" />
<glyph unicode="&#xdc;" horiz-adv-x="1634" d="M233 475v862h138v-862q0 -181 124.5 -283t319.5 -102q198 0 323.5 102t125.5 283v862h137v-862q0 -158 -77 -274.5t-208.5 -175t-300.5 -58.5q-167 0 -298 58.5t-207.5 175t-76.5 274.5zM535 1618q0 32 23.5 55t57.5 23q35 0 59.5 -23.5t24.5 -54.5q0 -34 -24 -56 t-60 -22q-35 0 -58 22t-23 56zM930 1618q0 31 23.5 54.5t58.5 23.5t59.5 -23.5t24.5 -54.5q0 -34 -24 -56t-60 -22q-35 0 -58.5 22t-23.5 56z" />
<glyph unicode="&#xdd;" horiz-adv-x="1366" d="M66 1337h174l448 -579l451 579h161l-548 -702v-635h-138v635zM551 1516l268 241l168 -6l-319 -244z" />
<glyph unicode="&#xde;" horiz-adv-x="1560" d="M262 0v1337h137v-274h594q130 0 211 -32t150 -97q106 -112 106 -262q0 -161 -117 -275q-67 -60 -147 -90.5t-203 -30.5h-594v-276h-137zM399 397h594q156 0 252 86q78 78 78 187q0 108 -74 182q-50 48 -110 68t-146 20h-594v-543z" />
<glyph unicode="&#xdf;" horiz-adv-x="1224" d="M201 0v1083q0 98 32.5 172.5t88 117t120.5 63t138 20.5q162 0 263 -91.5t101 -225.5q0 -62 -23 -119t-58 -96t-71 -65.5t-69 -39.5q56 -17 116.5 -52.5t123 -91t103 -138t40.5 -175.5q0 -168 -123 -275t-344 -107l-12 98q167 0 257.5 80t90.5 209q0 70 -29.5 132.5 t-71.5 104.5t-96 76.5t-95.5 52t-76.5 27.5l10 98q79 20 138 95.5t59 174.5t-65 160.5t-168 61.5t-178.5 -67.5t-75.5 -199.5v-1083h-125z" />
<glyph unicode="&#xe0;" horiz-adv-x="1220" d="M111 301q0 136 114 224.5t316 88.5q108 0 207 -28.5t155 -89.5v159q0 103 -85.5 154t-209.5 51q-108 0 -206.5 -36t-163.5 -81l-48 103q75 48 185 84.5t237 36.5q81 0 152 -14.5t132.5 -46t97.5 -87.5t36 -131v-518q0 -108 33 -170h-129q-27 43 -31 145 q-69 -66 -176 -115.5t-242 -49.5q-173 0 -273.5 90t-100.5 231zM238 301q0 -93 72 -154t200 -61q74 0 148 22t124 52.5t81.5 55.5t39.5 38v135q-45 60 -139.5 92.5t-204.5 32.5q-160 0 -240.5 -59t-80.5 -154zM383 1409l143 4l183 -299l-113 -4z" />
<glyph unicode="&#xe1;" horiz-adv-x="1220" d="M111 301q0 136 114 224.5t316 88.5q108 0 207 -28.5t155 -89.5v159q0 103 -85.5 154t-209.5 51q-108 0 -206.5 -36t-163.5 -81l-48 103q75 48 185 84.5t237 36.5q81 0 152 -14.5t132.5 -46t97.5 -87.5t36 -131v-518q0 -108 33 -170h-129q-27 43 -31 145 q-69 -66 -176 -115.5t-242 -49.5q-173 0 -273.5 90t-100.5 231zM238 301q0 -93 72 -154t200 -61q74 0 148 22t124 52.5t81.5 55.5t39.5 38v135q-45 60 -139.5 92.5t-204.5 32.5q-160 0 -240.5 -59t-80.5 -154zM510 1114l182 299l144 -4l-211 -299z" />
<glyph unicode="&#xe2;" horiz-adv-x="1220" d="M111 301q0 136 114 224.5t316 88.5q108 0 207 -28.5t155 -89.5v159q0 103 -85.5 154t-209.5 51q-108 0 -206.5 -36t-163.5 -81l-48 103q75 48 185 84.5t237 36.5q81 0 152 -14.5t132.5 -46t97.5 -87.5t36 -131v-518q0 -108 33 -170h-129q-27 43 -31 145 q-69 -66 -176 -115.5t-242 -49.5q-173 0 -273.5 90t-100.5 231zM238 301q0 -93 72 -154t200 -61q74 0 148 22t124 52.5t81.5 55.5t39.5 38v135q-45 60 -139.5 92.5t-204.5 32.5q-160 0 -240.5 -59t-80.5 -154zM315 1120l226 256h139l223 -256l-100 -8l-193 188l-194 -188z " />
<glyph unicode="&#xe3;" horiz-adv-x="1220" d="M111 301q0 136 114 224.5t316 88.5q108 0 207 -28.5t155 -89.5v159q0 103 -85.5 154t-209.5 51q-108 0 -206.5 -36t-163.5 -81l-48 103q75 48 185 84.5t237 36.5q81 0 152 -14.5t132.5 -46t97.5 -87.5t36 -131v-518q0 -108 33 -170h-129q-27 43 -31 145 q-69 -66 -176 -115.5t-242 -49.5q-173 0 -273.5 90t-100.5 231zM238 301q0 -93 72 -154t200 -61q74 0 148 22t124 52.5t81.5 55.5t39.5 38v135q-45 60 -139.5 92.5t-204.5 32.5q-160 0 -240.5 -59t-80.5 -154zM283 1167q46 76 90.5 112t99.5 36q35 0 64 -14.5t75 -47.5 q73 -57 119 -57q23 0 46 16t36 32.5t35 47.5l80 -45q-89 -147 -191 -147q-71 0 -145 55q-4 3 -13 10t-12.5 10t-11.5 9t-11.5 8t-10.5 7t-11 6.5t-10.5 4.5t-11 4t-10.5 2t-11 1q-17 0 -32 -7.5t-31 -25.5t-24 -28.5t-25 -35.5z" />
<glyph unicode="&#xe4;" horiz-adv-x="1220" d="M111 301q0 136 114 224.5t316 88.5q108 0 207 -28.5t155 -89.5v159q0 103 -85.5 154t-209.5 51q-108 0 -206.5 -36t-163.5 -81l-48 103q75 48 185 84.5t237 36.5q81 0 152 -14.5t132.5 -46t97.5 -87.5t36 -131v-518q0 -108 33 -170h-129q-27 43 -31 145 q-69 -66 -176 -115.5t-242 -49.5q-173 0 -273.5 90t-100.5 231zM238 301q0 -93 72 -154t200 -61q74 0 148 22t124 52.5t81.5 55.5t39.5 38v135q-45 60 -139.5 92.5t-204.5 32.5q-160 0 -240.5 -59t-80.5 -154zM330 1221q0 32 23.5 54.5t58.5 22.5t59.5 -22.5t24.5 -54.5 t-24.5 -54t-59.5 -22t-58.5 22t-23.5 54zM725 1221q0 32 23.5 54.5t58.5 22.5t59.5 -22.5t24.5 -54.5t-24.5 -54t-59.5 -22t-58.5 22t-23.5 54z" />
<glyph unicode="&#xe5;" horiz-adv-x="1220" d="M111 301q0 136 114 224.5t316 88.5q108 0 207 -28.5t155 -89.5v159q0 103 -85.5 154t-209.5 51q-108 0 -206.5 -36t-163.5 -81l-48 103q75 48 185 84.5t237 36.5q81 0 152 -14.5t132.5 -46t97.5 -87.5t36 -131v-518q0 -108 33 -170h-129q-27 43 -31 145 q-69 -66 -176 -115.5t-242 -49.5q-173 0 -273.5 90t-100.5 231zM238 301q0 -93 72 -154t200 -61q74 0 148 22t124 52.5t81.5 55.5t39.5 38v135q-45 60 -139.5 92.5t-204.5 32.5q-160 0 -240.5 -59t-80.5 -154zM375 1284q0 83 62 139t167 56q107 0 171.5 -56.5t64.5 -138.5 q0 -80 -64.5 -134t-171.5 -54q-106 0 -167.5 53.5t-61.5 134.5zM455 1284q0 -56 41.5 -91.5t107.5 -35.5q69 0 111.5 35.5t42.5 91.5q0 58 -43 95.5t-111 37.5q-66 0 -107.5 -38t-41.5 -95z" />
<glyph unicode="&#xe6;" horiz-adv-x="1992" d="M111 301q0 136 114 224.5t316 88.5q108 0 209.5 -28.5t156.5 -89.5v159q0 70 -44.5 118t-109.5 67.5t-145 19.5q-108 0 -206.5 -36t-163.5 -81l-48 103q75 48 185 84.5t237 36.5q67 0 127 -10.5t115.5 -33.5t92.5 -67t46 -104l2 -41q46 116 158.5 186t241.5 70 q74 0 143.5 -18t132.5 -57t109 -96.5t71.5 -142t20.5 -186.5h-840q0 -25 6 -80q19 -131 116 -216t241 -85q229 0 366 147l86 -81q-179 -179 -452 -179q-136 0 -242 56t-170 153q-84 -90 -217 -149.5t-281 -59.5q-172 0 -273 93t-101 235zM238 301q0 -93 72 -154t200 -61 q75 0 146.5 18.5t125.5 49t91 59t65 57.5q-26 54 -33 117q-55 63 -146.5 95t-199.5 32q-160 0 -240.5 -59t-80.5 -154zM1036 567h699q-1 72 -32 129.5t-80 93t-107.5 54t-120.5 18.5q-136 0 -232.5 -81.5t-126.5 -213.5z" />
<glyph unicode="&#xe7;" horiz-adv-x="1155" d="M125 473q0 145 69 259t184.5 174.5t254.5 60.5q112 0 217.5 -39t189.5 -115l-86 -86q-66 63 -150 96t-171 33q-156 0 -262.5 -106.5t-106.5 -276.5q0 -173 110.5 -280t270.5 -107q108 0 192 45t140 105l86 -80q-19 -23 -51 -49t-84 -58t-127 -53.5t-156 -22.5l-39 -110 q58 16 99 16q78 0 136 -39t58 -116q0 -87 -88.5 -137t-228.5 -50q-109 0 -301 49l22 74q181 -43 275 -43q92 0 148 28t56 79q0 48 -34.5 68t-85.5 20q-30 0 -113 -19l-41 45l51 142q-186 24 -310 158t-124 335z" />
<glyph unicode="&#xe8;" horiz-adv-x="1216" d="M125 459q0 141 65 257.5t180 183.5t255 67q68 0 133.5 -16.5t127 -53t108 -88.5t75 -130t29.5 -171q0 -27 -2 -41h-844v-4q0 -161 101 -269t274 -108q108 0 201.5 39.5t156.5 107.5l86 -81q-82 -80 -200.5 -129.5t-256.5 -49.5q-222 0 -355.5 140t-133.5 346zM264 567 h694q-3 95 -56 164t-127 100t-157 31q-133 0 -228.5 -83t-125.5 -212zM395 1409l144 4l182 -299l-113 -4z" />
<glyph unicode="&#xe9;" horiz-adv-x="1216" d="M125 459q0 141 65 257.5t180 183.5t255 67q68 0 133.5 -16.5t127 -53t108 -88.5t75 -130t29.5 -171q0 -27 -2 -41h-844v-4q0 -161 101 -269t274 -108q108 0 201.5 39.5t156.5 107.5l86 -81q-82 -80 -200.5 -129.5t-256.5 -49.5q-222 0 -355.5 140t-133.5 346zM264 567 h694q-3 95 -56 164t-127 100t-157 31q-133 0 -228.5 -83t-125.5 -212zM522 1114l183 299l143 -4l-211 -299z" />
<glyph unicode="&#xea;" horiz-adv-x="1216" d="M125 459q0 141 65 257.5t180 183.5t255 67q68 0 133.5 -16.5t127 -53t108 -88.5t75 -130t29.5 -171q0 -27 -2 -41h-844v-4q0 -161 101 -269t274 -108q108 0 201.5 39.5t156.5 107.5l86 -81q-82 -80 -200.5 -129.5t-256.5 -49.5q-222 0 -355.5 140t-133.5 346zM264 567 h694q-3 95 -56 164t-127 100t-157 31q-133 0 -228.5 -83t-125.5 -212zM328 1120l225 256h139l223 -256l-100 -8l-192 188l-195 -188z" />
<glyph unicode="&#xeb;" horiz-adv-x="1216" d="M125 459q0 141 65 257.5t180 183.5t255 67q68 0 133.5 -16.5t127 -53t108 -88.5t75 -130t29.5 -171q0 -27 -2 -41h-844v-4q0 -161 101 -269t274 -108q108 0 201.5 39.5t156.5 107.5l86 -81q-82 -80 -200.5 -129.5t-256.5 -49.5q-222 0 -355.5 140t-133.5 346zM264 567 h694q-3 95 -56 164t-127 100t-157 31q-133 0 -228.5 -83t-125.5 -212zM342 1221q0 32 23.5 54.5t58.5 22.5t59.5 -22.5t24.5 -54.5t-24.5 -54t-59.5 -22t-58.5 22t-23.5 54zM737 1221q0 32 23.5 54.5t58.5 22.5t59.5 -22.5t24.5 -54.5t-24.5 -54t-59.5 -22t-58.5 22 t-23.5 54z" />
<glyph unicode="&#xec;" horiz-adv-x="526" d="M37 1409l143 4l182 -299l-112 -4zM201 0v940h127v-940h-127z" />
<glyph unicode="&#xed;" horiz-adv-x="526" d="M164 1114l182 299l143 -4l-210 -299zM201 0v940h127v-940h-127z" />
<glyph unicode="&#xee;" horiz-adv-x="526" d="M-31 1120l226 256h139l223 -256l-100 -8l-193 188l-194 -188zM201 0v940h127v-940h-127z" />
<glyph unicode="&#xef;" horiz-adv-x="526" d="M-16 1221q0 32 23.5 54.5t58.5 22.5t59.5 -22.5t24.5 -54.5t-24.5 -54t-59.5 -22t-58.5 22t-23.5 54zM201 0v940h127v-940h-127zM379 1221q0 32 23.5 54.5t58.5 22.5t59.5 -22.5t24.5 -54.5t-24.5 -54t-59.5 -22t-58.5 22t-23.5 54z" />
<glyph unicode="&#xf0;" horiz-adv-x="1282" d="M127 459q0 135 64 247t171.5 175t233.5 63t228 -58t143 -157q-47 245 -217 424l-31 31l-344 -123l-31 86l295 106q-104 80 -260 156l135 31q152 -76 242 -146l248 90l30 -86l-200 -71l28 -29q258 -269 258 -682q0 -254 -137 -397q-67 -70 -161.5 -108t-196.5 -38 q-133 0 -247.5 65t-182.5 177.5t-68 243.5zM260 461q0 -158 104.5 -266.5t258.5 -108.5q161 0 266 111q100 108 100 272q0 161 -105.5 263t-262.5 102q-153 0 -257 -108.5t-104 -264.5z" />
<glyph unicode="&#xf1;" horiz-adv-x="1241" d="M174 940h117q23 -65 26 -149q164 176 375 176q157 0 260 -93t103 -235v-639h-129v639q0 92 -71 154.5t-183 62.5q-182 0 -342 -168v-688h-127v717q0 110 -29 223zM291 1167q46 76 90.5 112t99.5 36q35 0 65 -14.5t75 -47.5q73 -57 118 -57q23 0 46 16t36 32.5t35 47.5 l80 -45q-89 -147 -191 -147q-71 0 -145 55q-4 3 -13 10t-12.5 10t-11.5 9t-11.5 8t-10.5 7t-11 6.5t-10.5 4.5t-11 4t-10.5 2t-11 1q-17 0 -32 -7.5t-31 -25.5t-24 -28.5t-25 -35.5z" />
<glyph unicode="&#xf2;" horiz-adv-x="1263" d="M125 473q0 207 145.5 350.5t360.5 143.5t361.5 -143.5t146.5 -350.5q0 -211 -146 -355.5t-362 -144.5q-107 0 -201 39t-161 105.5t-105.5 159t-38.5 196.5zM258 473q0 -164 106 -278.5t267 -114.5t269 115t108 278q0 159 -108.5 274t-268.5 115t-266.5 -114.5 t-106.5 -274.5zM403 1409l144 4l182 -299l-113 -4z" />
<glyph unicode="&#xf3;" horiz-adv-x="1263" d="M125 473q0 207 145.5 350.5t360.5 143.5t361.5 -143.5t146.5 -350.5q0 -211 -146 -355.5t-362 -144.5q-107 0 -201 39t-161 105.5t-105.5 159t-38.5 196.5zM258 473q0 -164 106 -278.5t267 -114.5t269 115t108 278q0 159 -108.5 274t-268.5 115t-266.5 -114.5 t-106.5 -274.5zM530 1114l183 299l143 -4l-211 -299z" />
<glyph unicode="&#xf4;" horiz-adv-x="1263" d="M125 473q0 207 145.5 350.5t360.5 143.5t361.5 -143.5t146.5 -350.5q0 -211 -146 -355.5t-362 -144.5q-107 0 -201 39t-161 105.5t-105.5 159t-38.5 196.5zM258 473q0 -164 106 -278.5t267 -114.5t269 115t108 278q0 159 -108.5 274t-268.5 115t-266.5 -114.5 t-106.5 -274.5zM336 1120l225 256h139l224 -256l-101 -8l-192 188l-195 -188z" />
<glyph unicode="&#xf5;" horiz-adv-x="1263" d="M125 473q0 207 145.5 350.5t360.5 143.5t361.5 -143.5t146.5 -350.5q0 -211 -146 -355.5t-362 -144.5q-107 0 -201 39t-161 105.5t-105.5 159t-38.5 196.5zM258 473q0 -164 106 -278.5t267 -114.5t269 115t108 278q0 159 -108.5 274t-268.5 115t-266.5 -114.5 t-106.5 -274.5zM303 1167q46 75 91 111.5t100 36.5q35 0 64 -14.5t75 -47.5q73 -57 119 -57q17 0 33 7.5t32 24t25 28.5t26 36l80 -45q-89 -147 -190 -147q-72 0 -146 55q-4 3 -16 12.5t-16 12.5t-13.5 10t-14 9.5t-12.5 7t-13.5 6t-12.5 3t-14 1.5q-22 0 -44.5 -17 t-34.5 -32.5t-34 -47.5z" />
<glyph unicode="&#xf6;" horiz-adv-x="1263" d="M125 473q0 207 145.5 350.5t360.5 143.5t361.5 -143.5t146.5 -350.5q0 -211 -146 -355.5t-362 -144.5q-107 0 -201 39t-161 105.5t-105.5 159t-38.5 196.5zM258 473q0 -164 106 -278.5t267 -114.5t269 115t108 278q0 159 -108.5 274t-268.5 115t-266.5 -114.5 t-106.5 -274.5zM350 1221q0 32 23.5 54.5t58.5 22.5t59.5 -22.5t24.5 -54.5t-24.5 -54t-59.5 -22t-58.5 22t-23.5 54zM745 1221q0 32 23.5 54.5t58.5 22.5t59.5 -22.5t24.5 -54.5t-24.5 -54t-59.5 -22t-58.5 22t-23.5 54z" />
<glyph unicode="&#xf7;" horiz-adv-x="1447" d="M172 461v112h1100v-112h-1100zM618 88q0 40 31 69t76 29q44 0 74 -29t30 -69q0 -41 -30 -68.5t-74 -27.5q-45 0 -76 27.5t-31 68.5zM618 946q0 41 31 68.5t76 27.5q44 0 74 -27.5t30 -68.5q0 -40 -30 -68t-74 -28q-45 0 -76 28t-31 68z" />
<glyph unicode="&#xf8;" horiz-adv-x="1263" d="M125 473q0 207 145.5 350.5t360.5 143.5q134 0 250 -64l102 146l72 -52l-101 -141q86 -69 135.5 -169t49.5 -214q0 -211 -146 -355.5t-362 -144.5q-131 0 -252 64l-100 -143l-72 49l98 141q-86 70 -133 170t-47 219zM258 473q0 -174 117 -291l442 629q-85 51 -186 51 q-160 0 -266.5 -114.5t-106.5 -274.5zM444 129q84 -49 187 -49q161 0 269 115t108 278q0 83 -32 158t-89 129z" />
<glyph unicode="&#xf9;" horiz-adv-x="1239" d="M184 301v639h129v-639q0 -92 71.5 -154.5t182.5 -62.5q182 0 342 168v688h127v-715q0 -130 17 -225h-117q-14 66 -14 150q-169 -177 -373 -177q-158 0 -261.5 93t-103.5 235zM391 1409l144 4l182 -299l-113 -4z" />
<glyph unicode="&#xfa;" horiz-adv-x="1239" d="M184 301v639h129v-639q0 -92 71.5 -154.5t182.5 -62.5q182 0 342 168v688h127v-715q0 -130 17 -225h-117q-14 66 -14 150q-169 -177 -373 -177q-158 0 -261.5 93t-103.5 235zM518 1114l182 299l144 -4l-211 -299z" />
<glyph unicode="&#xfb;" horiz-adv-x="1239" d="M184 301v639h129v-639q0 -92 71.5 -154.5t182.5 -62.5q182 0 342 168v688h127v-715q0 -130 17 -225h-117q-14 66 -14 150q-169 -177 -373 -177q-158 0 -261.5 93t-103.5 235zM324 1120l225 256h139l223 -256l-100 -8l-193 188l-194 -188z" />
<glyph unicode="&#xfc;" horiz-adv-x="1239" d="M184 301v639h129v-639q0 -92 71.5 -154.5t182.5 -62.5q182 0 342 168v688h127v-715q0 -130 17 -225h-117q-14 66 -14 150q-169 -177 -373 -177q-158 0 -261.5 93t-103.5 235zM338 1221q0 32 23.5 54.5t58.5 22.5t59.5 -22.5t24.5 -54.5t-24.5 -54t-59.5 -22t-58.5 22 t-23.5 54zM733 1221q0 32 23.5 54.5t58.5 22.5t59.5 -22.5t24.5 -54.5t-24.5 -54t-59.5 -22t-58.5 22t-23.5 54z" />
<glyph unicode="&#xfd;" horiz-adv-x="1126" d="M74 940h143l332 -774h6l369 774h129l-670 -1374h-131l231 461zM461 1114l182 299l143 -4l-211 -299z" />
<glyph unicode="&#xfe;" horiz-adv-x="1282" d="M184 -434v1868h127v-627q65 69 155.5 114.5t197.5 45.5q129 0 236 -61t171 -175.5t64 -261.5q0 -109 -39 -203t-106 -157.5t-156.5 -99.5t-188.5 -36q-100 0 -187 46t-147 116v-569h-127zM311 242q59 -64 142.5 -111t181.5 -47q153 0 256.5 107t103.5 278t-100 279 t-244 108q-182 0 -340 -158v-456z" />
<glyph unicode="&#xff;" horiz-adv-x="1126" d="M74 940h143l332 -774h6l369 774h129l-670 -1374h-131l231 461zM281 1221q0 33 23 55t58 22t59.5 -22.5t24.5 -54.5t-24.5 -54t-59.5 -22t-58 22t-23 54zM676 1221q0 32 23.5 54.5t58.5 22.5t59.5 -22.5t24.5 -54.5t-24.5 -54t-59.5 -22t-58.5 22t-23.5 54z" />
<glyph unicode="&#x152;" horiz-adv-x="2678" d="M139 672q0 114 36 220t102.5 191.5t155.5 150t199.5 99.5t229.5 35q204 0 367.5 -95t238.5 -269v333h1067v-123h-929v-450h563v-123h-563v-518h974v-123h-1112v336q-75 -174 -239.5 -271.5t-366.5 -97.5q-148 0 -282.5 55.5t-231 150t-153 225t-56.5 274.5zM285 672 q0 -159 76 -292.5t209 -211.5t292 -78q166 0 305.5 78t220 211.5t80.5 292.5q0 156 -80.5 288.5t-220 209.5t-305.5 77q-119 0 -226.5 -45.5t-184 -122.5t-121.5 -183.5t-45 -223.5z" />
<glyph unicode="&#x153;" horiz-adv-x="2097" d="M125 473q0 134 69 248.5t185 180t250 65.5q146 0 271.5 -83.5t170.5 -213.5q43 132 163 214.5t267 82.5q73 0 142.5 -18t132.5 -57t109 -96.5t71.5 -142t21.5 -186.5h-841q0 -29 6 -72q15 -133 112.5 -221t245.5 -88q227 0 367 147l84 -81q-81 -81 -195.5 -130 t-255.5 -49q-158 0 -277 79.5t-159 207.5q-47 -125 -170.5 -206t-265.5 -81q-134 0 -250 65.5t-185 181.5t-69 253zM256 473q0 -163 107 -278t266 -115q160 0 268.5 114t108.5 279q0 160 -108 274.5t-269 114.5q-159 0 -266 -115t-107 -274zM1147 567h692q-2 95 -54.5 164 t-126.5 100t-157 31q-133 0 -228.5 -82t-125.5 -213z" />
<glyph unicode="&#x178;" horiz-adv-x="1366" d="M66 1337h174l448 -579l451 579h161l-548 -702v-635h-138v635zM403 1618q0 31 23.5 54.5t58.5 23.5t59.5 -23.5t24.5 -54.5q0 -34 -24 -56t-60 -22q-35 0 -58.5 22t-23.5 56zM799 1618q0 31 23.5 54.5t58.5 23.5t59.5 -23.5t24.5 -54.5q0 -34 -24 -56t-60 -22 q-35 0 -58.5 22t-23.5 56z" />
<glyph unicode="&#x2c6;" horiz-adv-x="1024" d="M217 1120l225 256h140l223 -256l-100 -8l-193 188l-195 -188z" />
<glyph unicode="&#x2dc;" horiz-adv-x="1024" d="M184 1167q46 75 91 111.5t100 36.5q35 0 64 -14.5t75 -47.5q73 -57 119 -57q23 0 46 16t36 32.5t35 47.5l79 -45q-89 -147 -190 -147q-71 0 -145 55q-4 3 -13 10t-12.5 10t-11.5 9t-11.5 8t-10.5 7t-11 6.5t-10.5 4.5t-11 4t-10.5 2t-11 1q-22 0 -44.5 -17t-34.5 -32.5 t-34 -47.5z" />
<glyph unicode="&#x2000;" horiz-adv-x="923" />
<glyph unicode="&#x2001;" horiz-adv-x="1847" />
<glyph unicode="&#x2002;" horiz-adv-x="923" />
<glyph unicode="&#x2003;" horiz-adv-x="1847" />
<glyph unicode="&#x2004;" horiz-adv-x="615" />
<glyph unicode="&#x2005;" horiz-adv-x="461" />
<glyph unicode="&#x2006;" horiz-adv-x="307" />
<glyph unicode="&#x2007;" horiz-adv-x="307" />
<glyph unicode="&#x2008;" horiz-adv-x="230" />
<glyph unicode="&#x2009;" horiz-adv-x="369" />
<glyph unicode="&#x200a;" horiz-adv-x="102" />
<glyph unicode="&#x2010;" horiz-adv-x="819" d="M145 451v124h527v-124h-527z" />
<glyph unicode="&#x2011;" horiz-adv-x="819" d="M145 451v124h527v-124h-527z" />
<glyph unicode="&#x2012;" horiz-adv-x="819" d="M145 451v124h527v-124h-527z" />
<glyph unicode="&#x2013;" horiz-adv-x="1306" d="M147 463v112h1012v-112h-1012z" />
<glyph unicode="&#x2014;" horiz-adv-x="2289" d="M147 463v112h1995v-112h-1995z" />
<glyph unicode="&#x2018;" horiz-adv-x="550" d="M123 1065q0 228 278 324l37 -78q-35 -10 -70.5 -28t-70 -44.5t-56.5 -64t-22 -78.5q0 -51 43 -64q40 10 47 10q42 0 70.5 -24t28.5 -60q0 -35 -28.5 -59.5t-70.5 -24.5q-76 0 -131 54t-55 137z" />
<glyph unicode="&#x2019;" horiz-adv-x="555" d="M127 932q35 10 70.5 28.5t70 45t56.5 63.5t22 78q0 50 -41 63q-40 -10 -49 -10q-42 0 -70 24t-28 60q0 35 28.5 59.5t69.5 24.5q76 0 131 -53.5t55 -136.5q0 -230 -278 -324z" />
<glyph unicode="&#x201a;" horiz-adv-x="616" d="M152 -254q35 11 70 29.5t69.5 45t56 64t21.5 78.5q0 49 -41 62q-36 -9 -49 -9q-41 0 -69 23.5t-28 58.5q0 37 28 61.5t69 24.5q77 0 132.5 -54t55.5 -136q0 -225 -279 -326z" />
<glyph unicode="&#x201c;" horiz-adv-x="1011" d="M123 1065q0 228 278 324l37 -78q-35 -10 -70.5 -28t-70 -44.5t-56.5 -64t-22 -78.5q0 -51 43 -64q40 10 47 10q42 0 70.5 -24t28.5 -60q0 -35 -28.5 -59.5t-70.5 -24.5q-76 0 -131 54t-55 137zM584 1065q0 228 278 324l37 -78q-35 -10 -70.5 -28t-70 -44.5t-56.5 -64 t-22 -78.5q0 -51 41 -64q40 10 49 10q42 0 70 -24t28 -60t-28 -60t-70 -24q-76 0 -131 54t-55 137z" />
<glyph unicode="&#x201d;" horiz-adv-x="1015" d="M127 932q35 10 70.5 28.5t70 45t56.5 63.5t22 78q0 50 -41 63q-40 -10 -49 -10q-42 0 -70 24t-28 60q0 35 28.5 59.5t69.5 24.5q76 0 131 -53.5t55 -136.5q0 -230 -278 -324zM588 932q35 10 70.5 28.5t70 45t56.5 63.5t22 78q0 50 -41 63q-40 -10 -49 -10q-42 0 -70.5 24 t-28.5 60q0 35 28.5 59.5t70.5 24.5q76 0 131 -53.5t55 -136.5q0 -228 -278 -324z" />
<glyph unicode="&#x201e;" horiz-adv-x="1077" d="M152 -254q35 11 70 29.5t69.5 45t56 64t21.5 78.5q0 49 -41 62q-36 -9 -49 -9q-41 0 -69 23.5t-28 58.5q0 37 28 61.5t69 24.5q77 0 132.5 -54t55.5 -136q0 -225 -279 -326zM610 -254q36 11 71 29.5t70 45t56.5 64t21.5 78.5q0 49 -41 62q-36 -9 -49 -9q-41 0 -68.5 23.5 t-27.5 58.5q0 37 27.5 61.5t68.5 24.5q77 0 133 -54.5t56 -135.5q0 -225 -279 -326z" />
<glyph unicode="&#x2022;" horiz-adv-x="903" d="M133 604q0 126 94 214.5t226 88.5q131 0 224 -88.5t93 -214.5t-93 -214.5t-224 -88.5q-132 0 -226 88.5t-94 214.5z" />
<glyph unicode="&#x2026;" horiz-adv-x="2048" d="M258 82q0 42 33 72t80 30t78.5 -30t31.5 -72q0 -43 -31.5 -72.5t-78.5 -29.5t-80 29.5t-33 72.5zM911 82q0 42 32 72t79 30t80 -30t33 -72q0 -43 -33 -72.5t-80 -29.5t-79 29.5t-32 72.5zM1565 82q0 42 31.5 72t78.5 30t80 -30t33 -72q0 -43 -33 -72.5t-80 -29.5 t-78.5 29.5t-31.5 72.5z" />
<glyph unicode="&#x202f;" horiz-adv-x="369" />
<glyph unicode="&#x2030;" horiz-adv-x="2953" d="M121 870q0 141 111.5 241.5t271.5 100.5q158 0 272.5 -101t114.5 -241q0 -141 -114.5 -242.5t-272.5 -101.5q-160 0 -271.5 101t-111.5 243zM240 870q0 -98 77 -167.5t187 -69.5q111 0 190.5 69.5t79.5 167.5t-79.5 168t-190.5 70q-110 0 -187 -69.5t-77 -168.5zM637 0 l704 1188h111l-704 -1188h-111zM1198 319q0 139 113 241t270 102q159 0 274 -102t115 -241q0 -142 -114.5 -243t-274.5 -101q-158 0 -270.5 101t-112.5 243zM1317 319q0 -99 77 -169t187 -70t190 70.5t80 168.5q0 97 -80 166.5t-190 69.5t-187 -69.5t-77 -166.5zM2071 319 q0 139 113 241t270 102q159 0 274 -102t115 -241q0 -142 -114.5 -243t-274.5 -101q-158 0 -270.5 101t-112.5 243zM2189 319q0 -98 78 -168.5t187 -70.5q110 0 190 70.5t80 168.5q0 97 -80 166.5t-190 69.5q-109 0 -187 -69.5t-78 -166.5z" />
<glyph unicode="&#x2039;" horiz-adv-x="655" d="M119 459v69l221 252h154l-248 -278v-17l248 -276h-154z" />
<glyph unicode="&#x203a;" horiz-adv-x="655" d="M162 209l248 276v17l-248 278h151l222 -252v-69l-222 -250h-151z" />
<glyph unicode="&#x2044;" horiz-adv-x="450" d="M-207 0l760 1337h109l-758 -1337h-111z" />
<glyph unicode="&#x205f;" horiz-adv-x="461" />
<glyph unicode="&#x2070;" horiz-adv-x="1185" d="M86 895q0 127 68.5 235t184.5 170t251 62q138 0 255 -62t186 -169.5t69 -235.5q0 -129 -69 -237t-186 -170t-255 -62q-135 0 -251 62t-184.5 170.5t-68.5 236.5zM207 895q0 -151 112.5 -257t270.5 -106q160 0 275.5 106.5t115.5 256.5q0 149 -115.5 254.5t-275.5 105.5 q-158 0 -270.5 -105.5t-112.5 -254.5z" />
<glyph unicode="&#x2074;" horiz-adv-x="1148" d="M57 662v88l727 587h115v-577h182v-98h-182v-211h-121v211h-721zM236 760h542v424h-16l-526 -420v-4z" />
<glyph unicode="&#x2075;" horiz-adv-x="1056" d="M74 551l63 96q163 -115 381 -115q90 0 164.5 21t127 73.5t52.5 129.5q0 93 -84 140.5t-205 47.5q-103 0 -182.5 -25.5t-157.5 -70.5l-77 57v432h731v-106h-621v-266q73 41 142 61.5t167 20.5q79 0 150.5 -17.5t130 -51.5t93 -91.5t34.5 -130.5q0 -86 -40 -152 t-108 -103.5t-148 -56t-169 -18.5q-247 0 -444 125z" />
<glyph unicode="&#x2076;" horiz-adv-x="1085" d="M88 879q0 147 73 259t189 168t254 56q205 0 352 -113l-73 -84q-114 90 -281 90q-105 0 -194.5 -41.5t-147.5 -125t-61 -193.5q198 133 419 133q96 0 172.5 -25t123 -66.5t70.5 -91t24 -100.5q0 -134 -120 -226.5t-302 -92.5q-97 0 -186 29.5t-159 85t-111.5 143 t-41.5 195.5zM205 805q27 -130 134 -201.5t249 -71.5q127 0 213 65t86 151q0 71 -70.5 127.5t-206.5 56.5q-191 0 -405 -127z" />
<glyph unicode="&#x2077;" horiz-adv-x="954" d="M63 1231v106h830v-106l-528 -780h-158l549 780h-693z" />
<glyph unicode="&#x2078;" horiz-adv-x="1085" d="M82 705q0 97 78 158.5t188 78.5q-97 14 -149 61t-52 125q0 47 24.5 86.5t64.5 66.5t92 46t106.5 28t108.5 9q69 0 136.5 -14.5t126.5 -42t95.5 -74.5t36.5 -105q0 -78 -51.5 -125t-151.5 -61q71 -11 130 -39t99 -80t40 -118q0 -86 -69 -151.5t-172 -97.5t-220 -32 q-118 0 -221 32t-171.5 97.5t-68.5 151.5zM213 715q0 -57 50 -100t124 -64t156 -21q130 0 229.5 50.5t99.5 134.5q0 58 -53 100t-125.5 60t-150.5 18t-151 -18t-126 -60t-53 -100zM279 1118q0 -66 68 -100.5t196 -34.5t197 34.5t69 100.5q0 47 -42.5 82.5t-101.5 51.5 t-122 16t-121.5 -16t-100.5 -51.5t-42 -82.5z" />
<glyph unicode="&#x2079;" horiz-adv-x="1085" d="M78 1042q0 133 120 226.5t302 93.5q97 0 185.5 -29.5t158 -85t110.5 -143t41 -195.5q0 -147 -73 -259t-188.5 -168t-252.5 -56q-200 0 -354 113l74 84q118 -91 282 -91q162 0 280 98t124 263q-203 -133 -422 -133q-96 0 -172 25t-122 66.5t-69.5 90t-23.5 100.5z M199 1038q0 -70 70.5 -126t207.5 -56q193 0 402 127q-27 130 -133.5 201t-249.5 71q-126 0 -211.5 -65t-85.5 -152z" />
<glyph unicode="&#x207d;" horiz-adv-x="542" d="M80 831q0 201 99.5 369t275.5 256l61 -74q-145 -74 -230 -225t-85 -326t85 -324.5t230 -223.5l-61 -74q-176 88 -275.5 255.5t-99.5 366.5z" />
<glyph unicode="&#x207e;" horiz-adv-x="542" d="M27 283q145 74 230 223.5t85 324.5t-85 326t-230 225l61 74q176 -88 275.5 -256t99.5 -369q0 -199 -99.5 -366.5t-275.5 -255.5z" />
<glyph unicode="&#x207f;" horiz-adv-x="944" d="M127 1143h100q14 -37 21 -109q119 129 280 129q121 0 201 -69t80 -174v-469h-111v469q0 64 -53 106.5t-135 42.5q-131 0 -252 -121v-497h-111v520q0 98 -20 172z" />
<glyph unicode="&#x2080;" horiz-adv-x="1183" d="M84 100q0 127 69 235t185.5 170t251.5 62q138 0 255 -62t186 -169.5t69 -235.5q0 -129 -69 -237t-186 -170t-255 -62q-135 0 -251.5 62t-185.5 170.5t-69 236.5zM205 100q0 -151 112.5 -256.5t272.5 -105.5t274.5 106t114.5 256q0 149 -114.5 255t-274.5 106t-272.5 -106 t-112.5 -255z" />
<glyph unicode="&#x2081;" horiz-adv-x="616" d="M14 422l289 121h121v-887h-121v778l-262 -108z" />
<glyph unicode="&#x2082;" horiz-adv-x="974" d="M90 -240q0 277 404 381q119 30 168 54q98 50 98 127q0 47 -37.5 79.5t-92 46t-118.5 13.5q-103 0 -177 -33t-155 -96l-69 84q49 36 82 57t84 46t108 36.5t123 11.5q98 0 180 -25t137.5 -82t55.5 -138q0 -53 -25.5 -97t-53.5 -69.5t-88.5 -51.5t-88 -34t-93.5 -26 q-22 -6 -32 -9q-64 -18 -111 -38t-90 -51t-65.5 -75t-22.5 -100v-19h655v-96h-776v104z" />
<glyph unicode="&#x2083;" horiz-adv-x="1110" d="M61 -190l74 84q174 -156 412 -156q155 0 257.5 52.5t102.5 143.5q0 41 -23 71.5t-58.5 45t-68 21t-61.5 6.5h-188v96h178q49 0 96 36.5t47 96.5q0 40 -23.5 70.5t-61.5 48t-80.5 26.5t-85.5 9q-97 0 -189.5 -41.5t-165.5 -106.5l-73 74q208 180 430 180q62 0 124 -13.5 t119 -40.5t92 -75.5t35 -111.5q0 -67 -38 -116t-85 -67q32 -6 63 -20t63.5 -38t52.5 -65t20 -92q0 -138 -136 -217.5t-343 -79.5q-292 0 -486 179z" />
<glyph unicode="&#x2084;" horiz-adv-x="1144" d="M57 -45l727 588h115v-578h182v-98h-182v-211h-121v211h-721v88zM236 -31v-4h542v424h-16z" />
<glyph unicode="&#x2085;" horiz-adv-x="1056" d="M74 -244l63 97q163 -115 381 -115q66 0 125 12.5t109.5 38t80 70t29.5 102.5q0 63 -42.5 107t-106 63t-140.5 19q-173 0 -340 -97l-77 58v432h731v-107h-621v-266q73 41 142 61.5t167 20.5q79 0 150.5 -17.5t130 -51.5t93 -91.5t34.5 -130.5q0 -86 -40 -152t-108 -103.5 t-148 -56t-169 -18.5q-247 0 -444 125z" />
<glyph unicode="&#x2086;" horiz-adv-x="1083" d="M88 84q0 147 73 259t189 168t254 56q206 0 352 -112l-73 -84q-114 90 -283 90q-104 0 -193.5 -42t-147 -125.5t-60.5 -193.5q198 133 419 133q96 0 172.5 -25t123 -66.5t70.5 -90.5t24 -100q0 -134 -120 -227t-302 -93q-97 0 -186 29.5t-159 85t-111.5 143t-41.5 195.5z M205 10q27 -130 133.5 -201t249.5 -71q127 0 213 64.5t86 150.5q0 71 -70.5 127.5t-206.5 56.5q-191 0 -405 -127z" />
<glyph unicode="&#x2087;" horiz-adv-x="950" d="M63 436v107h830v-107l-528 -780h-158l549 780h-693z" />
<glyph unicode="&#x2088;" horiz-adv-x="1085" d="M82 -90q0 98 78 159t188 78q-97 14 -149 61.5t-52 125.5q0 58 36.5 104.5t96 74t127 42t136.5 14.5t136.5 -14.5t126.5 -42t95.5 -74t36.5 -104.5q0 -78 -51.5 -126t-151.5 -61q71 -11 130 -39t99 -80t40 -118q0 -86 -69 -151.5t-172 -97.5t-220 -32q-118 0 -221 32 t-171.5 97.5t-68.5 151.5zM213 -80q0 -57 50.5 -100t124 -63.5t155.5 -20.5q130 0 229.5 50t99.5 134q0 58 -53 100t-125.5 60t-150.5 18t-151 -18t-126 -60t-53 -100zM279 324q0 -66 68 -101t196 -35t197 35t69 101q0 47 -42.5 82.5t-101.5 51t-122 15.5t-121.5 -15.5 t-100.5 -51t-42 -82.5z" />
<glyph unicode="&#x2089;" horiz-adv-x="1083" d="M78 248q0 133 120 226t302 93q97 0 185.5 -29.5t158 -84.5t110.5 -142.5t41 -195.5q0 -111 -42.5 -203.5t-113.5 -153t-163.5 -94t-194.5 -33.5q-200 0 -354 113l74 84q117 -90 282 -90q161 0 279.5 98t124.5 262q-203 -133 -422 -133q-96 0 -172 25t-121.5 66.5 t-69.5 90.5t-24 101zM199 244q0 -70 70.5 -126.5t207.5 -56.5q193 0 402 127q-27 130 -133.5 201.5t-249.5 71.5q-126 0 -211.5 -65t-85.5 -152z" />
<glyph unicode="&#x20ac;" horiz-adv-x="1593" d="M127 393v88h168q-6 38 -6 76q0 51 8 92h-170v88h190q62 179 227.5 293.5t373.5 114.5q148 0 280.5 -47t228.5 -131l-84 -95q-81 70 -192.5 111t-232.5 41q-150 0 -273.5 -79.5t-179.5 -207.5h614v-88h-643q-10 -52 -10 -92q0 -39 6 -76h647v-88h-622 q55 -134 180.5 -217.5t280.5 -83.5q124 0 240.5 45t201.5 123l84 -96q-106 -92 -241 -143.5t-285 -51.5q-213 0 -380 119.5t-225 304.5h-186z" />
<glyph unicode="&#x2122;" horiz-adv-x="1751" d="M113 1260v77h569v-77h-238v-592h-94v592h-237zM874 668v669h99l246 -415h2l245 415h97v-669h-95v506h-6l-237 -398h-19l-237 398h-6v-506h-89z" />
<glyph unicode="&#x2153;" horiz-adv-x="2177" d="M14 1217l289 120h121v-886h-121v778l-262 -109zM410 0l759 1337h109l-758 -1337h-110zM1128 154l74 84q174 -156 412 -156q155 0 257.5 53t102.5 144q0 41 -23 71t-58.5 44.5t-68 21t-61.5 6.5h-188v96h178q49 0 96 36.5t47 96.5q0 40 -23.5 70.5t-61.5 48t-80.5 26.5 t-85.5 9q-97 0 -189.5 -41.5t-165.5 -106.5l-73 74q208 180 430 180q62 0 124 -13.5t119 -40.5t92 -75.5t35 -111.5q0 -67 -38 -116t-85 -67q32 -6 63 -20t63.5 -38t52.5 -65t20 -92q0 -138 -136 -217.5t-343 -79.5q-292 0 -486 179z" />
<glyph unicode="&#x2154;" horiz-adv-x="2535" d="M90 451v104q0 277 404 381q5 1 16 4q31 7 49.5 12.5t53 16.5t56 24t45 30.5t35 41t11.5 51.5q0 47 -37.5 79.5t-92 46t-118.5 13.5q-103 0 -177 -33t-155 -96l-69 84q50 36 82.5 57t83.5 46t108 37t123 12q98 0 180 -25t137.5 -82.5t55.5 -138.5q0 -53 -25.5 -97 t-53.5 -69.5t-88.5 -51.5t-88 -34t-93.5 -26q-22 -6 -32 -9q-64 -18 -111 -38t-90 -51t-65.5 -75t-22.5 -100v-18h655v-96h-776zM768 0l760 1337h108l-757 -1337h-111zM1487 154l74 84q174 -156 411 -156q155 0 258 53t103 144q0 41 -23 71t-58.5 44.5t-68 21t-61.5 6.5 h-189v96h178q49 0 96.5 36.5t47.5 96.5q0 52 -41.5 88.5t-96.5 51t-114 14.5q-97 0 -189 -41.5t-165 -106.5l-74 74q208 180 430 180q62 0 124 -13.5t119 -40.5t92.5 -75.5t35.5 -111.5q0 -67 -38 -116t-85 -67q32 -6 63 -20t63 -38t52 -65t20 -92q0 -138 -136 -217.5 t-343 -79.5q-291 0 -485 179z" />
<glyph unicode="&#x215b;" horiz-adv-x="2152" d="M14 1217l289 120h121v-886h-121v778l-262 -109zM410 0l759 1337h109l-758 -1337h-110zM1149 254q0 98 78 159.5t188 78.5q-97 14 -149 61t-52 125q0 58 36.5 104.5t96 74t127 42t136.5 14.5t136.5 -14.5t126.5 -42t95.5 -74t36.5 -104.5q0 -78 -51.5 -125t-151.5 -61 q112 -17 190.5 -78.5t78.5 -159.5q0 -86 -69 -151.5t-172 -97.5t-220 -32q-118 0 -221 32t-171.5 97.5t-68.5 151.5zM1280 264q0 -57 50.5 -100t124 -63.5t155.5 -20.5q130 0 229.5 50t99.5 134q0 58 -53 100t-125.5 60t-150.5 18t-151 -18t-126 -60t-53 -100zM1346 668 q0 -66 68 -101t196 -35t197 35t69 101q0 47 -42.5 82.5t-101.5 51t-122 15.5t-121.5 -15.5t-100.5 -51t-42 -82.5z" />
<glyph unicode="&#x215c;" horiz-adv-x="2648" d="M63 604l74 84q170 -156 410 -156q156 0 258 53t102 144q0 41 -22.5 71t-58 44.5t-68 21t-62.5 6.5h-186v97h178q49 0 96 36.5t47 96.5q0 40 -23.5 70.5t-61.5 48t-80.5 26t-85.5 8.5q-187 0 -357 -147l-71 74q204 180 430 180q62 0 124 -13.5t118.5 -41t92 -76 t35.5 -111.5q0 -67 -38.5 -115.5t-84.5 -66.5q31 -6 62 -19.5t63.5 -38t53 -65.5t20.5 -92q0 -138 -136.5 -217.5t-344.5 -79.5q-292 0 -484 178zM905 0l760 1337h109l-758 -1337h-111zM1645 254q0 98 78 159.5t188 78.5q-97 14 -149 61t-52 125q0 58 36.5 104.5t95.5 74 t126.5 42t136.5 14.5t136.5 -14.5t127 -42t96 -74t36.5 -104.5q0 -78 -51.5 -125t-151.5 -61q111 -17 189.5 -78.5t78.5 -159.5q0 -86 -69 -151.5t-172 -97.5t-220 -32q-118 0 -221 32t-171 97.5t-68 151.5zM1776 264q0 -57 50 -100t123.5 -63.5t155.5 -20.5q130 0 230 50 t100 134q0 58 -53 100t-126 60t-151 18t-150.5 -18t-125.5 -60t-53 -100zM1841 668q0 -66 68 -101t196 -35t197.5 35t69.5 101q0 47 -43 82.5t-102 51t-122 15.5t-121.5 -15.5t-100.5 -51t-42 -82.5z" />
<glyph unicode="&#x215d;" horiz-adv-x="2592" d="M74 551l63 96q163 -115 381 -115q90 0 164.5 21t127 73.5t52.5 129.5q0 93 -84 140.5t-205 47.5q-103 0 -182.5 -25.5t-157.5 -70.5l-77 57v432h731v-106h-621v-266q73 41 142 61.5t167 20.5q79 0 150.5 -17.5t130 -51.5t93 -91.5t34.5 -130.5q0 -86 -40 -152 t-108 -103.5t-148 -56t-169 -18.5q-247 0 -444 125zM850 0l760 1337h108l-757 -1337h-111zM1589 254q0 98 78 159.5t188 78.5q-97 14 -148.5 61t-51.5 125q0 58 36.5 104.5t95.5 74t126.5 42t136.5 14.5t136.5 -14.5t126.5 -42t95.5 -74t36.5 -104.5q0 -78 -51 -125.5 t-151 -60.5q111 -17 189.5 -78.5t78.5 -159.5q0 -86 -69 -151.5t-172 -97.5t-220 -32q-118 0 -221 32t-171.5 97.5t-68.5 151.5zM1720 264q0 -57 50.5 -100t124 -63.5t155.5 -20.5q130 0 230 50t100 134q0 58 -53 100t-126 60t-151 18t-151 -18t-126 -60t-53 -100zM1786 668 q0 -66 68 -101t196 -35t197 35t69 101q0 47 -42.5 82.5t-101.5 51t-122 15.5t-121.5 -15.5t-100.5 -51t-42 -82.5z" />
<glyph unicode="&#x215e;" horiz-adv-x="2353" d="M63 1231v106h830v-106l-528 -780h-158l549 780h-693zM610 0l760 1337h109l-758 -1337h-111zM1350 254q0 98 78 159.5t188 78.5q-97 14 -149 61t-52 125q0 58 36.5 104.5t95.5 74t126.5 42t136.5 14.5t136.5 -14.5t127 -42t96 -74t36.5 -104.5q0 -78 -51.5 -125 t-151.5 -61q111 -17 189.5 -78.5t78.5 -159.5q0 -86 -69 -151.5t-172 -97.5t-220 -32q-118 0 -221 32t-171 97.5t-68 151.5zM1481 264q0 -57 50 -100t123.5 -63.5t155.5 -20.5q130 0 230 50t100 134q0 58 -53 100t-126 60t-151 18t-150.5 -18t-125.5 -60t-53 -100zM1546 668 q0 -66 68 -101t196 -35t197.5 35t69.5 101q0 47 -43 82.5t-102 51t-122 15.5t-121.5 -15.5t-100.5 -51t-42 -82.5z" />
<glyph unicode="&#x25fc;" horiz-adv-x="942" d="M0 0v942h942v-942h-942z" />
<glyph horiz-adv-x="628" d="M246 0v1116h137v-1116h-137z" />
<glyph horiz-adv-x="1032" d="M68 608l69 78q154 -138 342 -156v342q-63 4 -108.5 10.5t-96.5 22t-83 39t-53 63.5t-21 93q0 72 32.5 125t87.5 81.5t115.5 42t126.5 13.5v149h82v-153q204 -23 348 -131l-69 -80q-102 89 -279 108v-278q47 -2 85.5 -7t87.5 -15t85.5 -28.5t69 -46t50 -69.5t17.5 -96 q0 -97 -55.5 -163t-142 -95.5t-197.5 -30.5v-193h-82v195q-234 19 -411 180zM231 1110q0 -115 248 -129v281h-2q-48 0 -90 -8t-78 -24.5t-57 -47.5t-21 -72zM561 526q124 2 202.5 45.5t78.5 128.5q0 46 -21.5 78t-64.5 49.5t-86.5 25.5t-108.5 13v-340z" />
<glyph horiz-adv-x="858" d="M74 793q0 157 107 255.5t265 98.5q23 0 35 -2l31 147h84l-35 -157q115 -21 209 -99l-74 -73q-67 53 -155 75l-109 -510h25q136 0 243 103l76 -70q-14 -17 -38 -36t-63.5 -42t-97 -38t-120.5 -15q-31 0 -45 2l-41 -199h-82l45 213q-116 35 -188 127t-72 220zM195 793 q0 -90 43 -153.5t116 -92.5l107 504h-15q-107 0 -179 -71.5t-72 -186.5z" />
<glyph horiz-adv-x="1165" d="M78 758v76h127q-4 20 -4 61q0 24 4 70h-127v75h145q48 141 173.5 231.5t281.5 90.5q113 0 213.5 -37t173.5 -104l-74 -84q-60 55 -142 86.5t-171 31.5q-107 0 -195.5 -59.5t-130.5 -155.5h449v-75h-473q-6 -35 -6 -70q0 -21 4 -61h475v-76h-453q41 -100 130.5 -163 t199.5 -63q92 0 178 35.5t150 98.5l73 -84q-80 -74 -183 -115t-218 -41q-160 0 -286 93t-171 239h-143z" />
<glyph horiz-adv-x="1069" d="M86 451v96h57q89 0 121.5 36t32.5 146v152h-211v88h211v131q0 86 51 147t125 88t160 27q69 0 165 -31t181 -80l-59 -84q-73 39 -152.5 63.5t-134.5 24.5q-87 0 -151 -39.5t-64 -115.5v-131h391v-88h-391v-152q0 -85 -27.5 -126t-93.5 -56h680v-96h-891z" />
<glyph horiz-adv-x="1126" d="M90 758v76h414v32l-80 99h-334v75h275l-238 297h152l288 -364l289 364h141l-235 -297h276v-75h-336l-77 -99v-32h413v-76h-413v-307h-121v307h-414z" />
<glyph horiz-adv-x="1320" d="M72 633v86h323l56 319h-293v86h309l51 289h90l-51 -289h291l51 289h90l-51 -289h309v-86h-323l-56 -319h295v-86h-311l-57 -332h-93l58 332h-289l-57 -332h-92l57 332h-307zM487 719h289l55 319h-288z" />
<glyph horiz-adv-x="1560" d="M72 1145q0 111 84.5 191.5t205.5 80.5q120 0 207.5 -81t87.5 -191q0 -114 -87 -194.5t-208 -80.5t-205.5 80.5t-84.5 194.5zM176 1145q0 -74 55 -128t131 -54q78 0 135.5 54t57.5 128q0 72 -57.5 125t-135.5 53q-76 0 -131 -53t-55 -125zM465 451l534 944h99l-537 -944 h-96zM903 702q0 111 85 192t206 81t208 -81t87 -192q0 -113 -86 -192.5t-209 -79.5q-121 0 -206 79.5t-85 192.5zM1008 702q0 -74 55 -127t131 -53q78 0 135 53.5t57 126.5t-57 126t-135 53q-76 0 -131 -52.5t-55 -126.5z" />
<glyph horiz-adv-x="464" d="M139 516q0 36 27.5 61t66.5 25q38 0 65.5 -25.5t27.5 -60.5t-27.5 -59.5t-65.5 -24.5q-40 0 -67 24.5t-27 59.5z" />
<glyph horiz-adv-x="499" d="M113 260q44 13 88 43t61 72q16 52 -6 80q-8 -4 -27 -4q-36 0 -61 21.5t-25 53.5q0 31 25 53.5t61 22.5q59 0 102.5 -43.5t43.5 -109.5q0 -182 -230 -261z" />
<glyph horiz-adv-x="616" d="M121 752v108h373v-108h-373z" />
<glyph d="M113 557q0 161 76.5 297t206.5 214.5t282 78.5t283 -78.5t208.5 -214.5t77.5 -297t-77.5 -296.5t-208.5 -213.5t-283 -78t-282 78t-206.5 213.5t-76.5 296.5zM250 557q0 -127 57.5 -235t156 -171t214.5 -63q177 0 304.5 138t127.5 331t-127.5 331t-304.5 138 q-116 0 -214.5 -63t-156 -171t-57.5 -235z" />
<glyph d="M231 975l476 141h135v-1007h360v-109h-950v109h455v882l-441 -127z" />
<glyph d="M154 0v123q0 83 30.5 153t79.5 119.5t121 90.5t144.5 67.5t160.5 48.5q153 34 217 60q160 65 160 174q0 48 -30.5 85.5t-81.5 59.5t-112 33.5t-128 11.5q-139 0 -238.5 -42t-212.5 -122l-78 94q65 45 108.5 71.5t111 58t143 46.5t162.5 15q95 0 181 -19t156.5 -55 t112 -96.5t41.5 -136.5q0 -67 -33.5 -122t-71 -86.5t-117.5 -64t-116.5 -43t-125.5 -32.5q-29 -8 -42 -11q-90 -24 -156.5 -50.5t-127 -67t-92 -98t-31.5 -130.5v-26h897v-109h-1032z" />
<glyph d="M94 190l84 97q200 -197 490 -197q187 0 310.5 70t123.5 188q0 54 -29 94t-73.5 59t-85.5 27.5t-78 8.5h-211v110h188q67 0 131 47t64 127q0 52 -28.5 93.5t-74.5 64.5t-97 35t-103 12q-214 0 -422 -188l-84 84q249 225 508 225q58 0 117 -10t117.5 -33.5t103 -57.5 t72.5 -86.5t28 -115.5q0 -86 -49.5 -148t-110.5 -84q31 -6 62 -17.5t66.5 -33.5t62 -51t44 -73t17.5 -97q0 -115 -76.5 -200.5t-204.5 -129t-288 -43.5q-342 0 -574 223z" />
<glyph d="M63 270v101l852 745h132v-737h221v-109h-221v-270h-138v270h-846zM266 379h643v563h-16q-119 -105 -346.5 -307.5t-280.5 -249.5v-6z" />
<glyph d="M115 145l71 97q213 -152 476 -152q82 0 156.5 16t138 48t101.5 88.5t38 130.5q0 64 -31 113t-84 77.5t-117.5 43t-138.5 14.5q-126 0 -222.5 -28t-201.5 -79l-86 64v538h901v-121h-776v-362q99 51 183.5 77.5t203.5 26.5q99 0 187.5 -21.5t161 -64t115 -114.5t42.5 -164 q0 -85 -33 -154.5t-88.5 -115.5t-130 -77t-155.5 -45t-167 -14q-80 0 -155.5 13t-129.5 30.5t-108.5 44t-85 46t-65.5 44.5z" />
<glyph d="M135 539q0 139 51 255t136.5 192.5t197 118.5t234.5 42q80 0 150.5 -12t124.5 -34.5t79 -35.5t57 -33l-73 -96q-136 90 -342 90q-75 0 -146 -20t-132.5 -60t-107.5 -95.5t-74 -132t-30 -163.5q246 172 512 172q115 0 207 -32t147 -84t84 -114t29 -126q0 -167 -144 -284.5 t-362 -117.5q-93 0 -180.5 23t-163.5 70.5t-132.5 114.5t-89 160t-32.5 202zM266 451q30 -170 162 -265.5t307 -95.5q156 0 262.5 86t106.5 197q0 43 -20.5 84.5t-60 77.5t-108 58.5t-155.5 22.5q-244 0 -494 -165z" />
<glyph d="M131 995v121h1098v-123l-713 -993h-178l735 995h-942z" />
<glyph d="M131 319q0 84 48 149.5t119 101t157 48.5q-118 19 -182 78.5t-64 155.5q0 73 43.5 131.5t114 93.5t151.5 53.5t162 18.5q82 0 163 -18.5t151 -53.5t113.5 -93.5t43.5 -131.5q0 -96 -63 -155.5t-183 -78.5q87 -13 158.5 -48.5t119.5 -101t48 -149.5q0 -108 -82 -190 t-205.5 -122t-263.5 -40t-263 40t-204.5 122t-81.5 190zM276 332q0 -75 61.5 -133t152 -85.5t190.5 -27.5q101 0 191 27.5t151 85.5t61 133q0 57 -37 103t-97 73t-129 41t-140 14q-70 0 -139.5 -14t-129.5 -41t-97.5 -73t-37.5 -103zM358 842q0 -86 83 -131t239 -45 t238.5 45t82.5 131q0 64 -51 110.5t-122 67t-148 20.5q-76 0 -147 -20.5t-123 -67t-52 -110.5z" />
<glyph d="M113 743q0 168 146 286t364 118q94 0 181.5 -23t163.5 -70.5t133 -114t89.5 -159.5t32.5 -202q0 -139 -51 -256t-137.5 -193t-198 -118t-234.5 -42q-236 0 -414 115l72 94q141 -88 344 -88q95 0 182.5 32t156 90.5t110.5 148.5t45 198q-250 -170 -514 -170 q-116 0 -209 32t-148.5 84t-84.5 113t-29 125zM250 741q0 -42 20 -83t60 -77t109 -58.5t157 -22.5q237 0 494 162q-19 115 -89 199t-168 124.5t-212 40.5q-157 0 -264 -86.5t-107 -198.5z" />
<glyph d="M109 199l79 88q195 -178 447 -201v451q-57 4 -99 9t-93.5 14.5t-87.5 22.5t-73 34.5t-59.5 48.5t-36.5 66t-14 87q0 72 28.5 129t74 93t107.5 60t124.5 34t128.5 10v188h94v-194q138 -12 252 -59t190 -105l-79 -90q-57 49 -150 89t-213 52v-371q53 -3 92.5 -7t95.5 -13.5 t97 -23.5t85 -38.5t72 -56.5t46 -79t18 -105q0 -91 -40.5 -161t-111 -112.5t-160 -64t-194.5 -23.5v-243h-94v247q-297 21 -526 224zM303 829q0 -33 14 -59.5t40.5 -44t56.5 -30t71 -19.5t74.5 -11t75.5 -6v373h-6q-63 0 -118.5 -10.5t-103.5 -33.5t-76 -63.5t-28 -95.5z M729 84q107 1 190 25t135 77t52 129q0 49 -21.5 86t-54.5 59t-86 37t-101 21.5t-114 11.5v-446z" />
<glyph d="M137 424q0 130 75 232t202 157t280 55q10 0 32 -1t32 -1l47 185h96l-51 -197q179 -28 315 -125l-84 -84q-117 76 -260 100l-170 -657q18 -2 58 -2q228 0 385 131l88 -80q-21 -20 -56.5 -43.5t-94.5 -52.5t-144 -47.5t-178 -18.5q-17 0 -84 5l-66 -252h-96l69 268 q-175 41 -285 155t-110 273zM276 424q0 -117 78 -202t205 -118l170 652q-12 2 -35 2q-115 0 -209.5 -41t-151.5 -118t-57 -175z" />
<glyph d="M94 393v88h144q-5 63 -5 76q0 38 7 92h-146v88h164q55 180 198 294t324 114q129 0 245 -47t200 -131l-84 -95q-69 70 -164 111t-197 41q-126 0 -228.5 -79.5t-148.5 -207.5h519v-88h-543q-8 -41 -8 -92t4 -76h547v-88h-525q43 -133 148.5 -217t234.5 -84q106 0 205.5 45 t169.5 123l84 -96q-92 -92 -210.5 -143.5t-248.5 -51.5q-184 0 -329 119.5t-197 304.5h-160z" />
<glyph d="M115 0v109h71q75 0 114.5 18t59 68.5t19.5 148.5v203h-264v100h264v170q0 81 35 145.5t93.5 103.5t130.5 59t150 20q86 0 204.5 -38.5t221.5 -100.5l-67 -95q-92 50 -190.5 81.5t-168.5 31.5q-110 0 -192 -53.5t-82 -153.5v-170h492v-100h-492v-203q0 -109 -33 -162.5 t-112 -72.5h843v-109h-1097z" />
<glyph d="M123 393v88h487v43l-94 125h-393v88h328l-283 379h174l342 -469l344 469h162l-285 -379h332v-88h-397l-92 -125v-43h489v-88h-489v-393h-138v393h-487z" />
<glyph d="M115 432q0 123 88 211q55 64 151 98q-26 20 -39 35q-30 52 -30 111q0 56 24 101.5t63 75t91 49t105 28t108 8.5q104 0 206.5 -30t180.5 -83l-59 -94q-65 45 -152 70.5t-176 25.5q-41 0 -80.5 -6.5t-81 -21.5t-67 -45.5t-25.5 -73.5q0 -45 24 -66q14 -14 34 -24t54.5 -17 t53 -10t71 -8.5t66.5 -7.5q310 -34 430 -154q80 -83 80 -201q0 -124 -88 -215q-60 -60 -156 -94q28 -15 45 -43q29 -40 29 -102q0 -70 -36 -122.5t-95.5 -81t-125 -42.5t-134.5 -14q-105 0 -208 29t-179 81l59 95q66 -44 154 -70.5t176 -26.5q40 0 80.5 7t81 23t65.5 47 t25 73q0 43 -23 63q-10 10 -23.5 18t-32.5 14.5t-35.5 10.5t-44 8t-45 6t-51 5.5t-50.5 5.5q-305 34 -424 151q-84 81 -84 203zM252 449q0 -87 57 -144q87 -85 316 -108q209 -22 284 -50q77 28 117 70q74 74 74 170q0 81 -58 139q-85 90 -319 113q-11 1 -53.5 5.5t-63.5 7.5 l-56 8t-62.5 12t-51.5 16q-70 -25 -114 -72q-70 -73 -70 -167z" />
<glyph d="M74 233v99h325l60 413h-297v99h311l53 368h103l-54 -368h289l54 368h102l-53 -368h315v-99h-330l-59 -413h301v-99h-315l-60 -421h-102l59 421h-289l-59 -421h-102l59 421h-311zM502 332h289l59 413h-289z" />
<glyph d="M55 870q0 141 75 241.5t183 100.5q107 0 184.5 -101t77.5 -241q0 -141 -77.5 -242.5t-184.5 -101.5q-108 0 -183 101t-75 243zM160 870q0 -99 44.5 -168t108.5 -69q63 0 109.5 69.5t46.5 167.5t-46.5 168t-109.5 70q-64 0 -108.5 -69.5t-44.5 -168.5zM389 0l479 1188h107 l-475 -1188h-111zM788 319q0 139 77 241t184 102t184.5 -102t77.5 -241q0 -142 -77 -243t-185 -101q-107 0 -184 101t-77 243zM897 319q0 -99 44 -169t108 -70t109.5 70t45.5 169q0 97 -45.5 166.5t-109.5 69.5t-108 -69t-44 -167z" />
<glyph horiz-adv-x="1716" d="M143 629q0 179 96.5 330.5t260.5 239t356 87.5q193 0 358 -87.5t262 -239t97 -330.5q0 -136 -57.5 -259t-154 -211t-229 -140t-276.5 -52t-275.5 52t-227.5 140t-153 211t-57 259zM281 629q0 -147 77 -271t209.5 -196t288.5 -72t289.5 72t212 196t78.5 271 q0 145 -78.5 268.5t-212 195.5t-289.5 72t-288.5 -72t-209.5 -195.5t-77 -268.5z" />
<glyph horiz-adv-x="878" d="M39 1081l420 174h137v-1255h-137v1130l-389 -159z" />
<glyph horiz-adv-x="1415" d="M145 0v129q0 392 572 539q11 3 54.5 14.5t66 18t65.5 21.5t68 27.5t58 33.5t51 43t31 52t13 64q0 57 -33 101t-88.5 70t-122 39t-139.5 13q-147 0 -255 -47t-222 -135l-80 94q53 39 89.5 63.5t93.5 55t107.5 48t119.5 30t143 12.5q101 0 192.5 -20.5t167 -60.5 t120.5 -107.5t45 -153.5q0 -40 -10.5 -76t-25 -64.5t-42.5 -55t-51 -45t-63.5 -38.5t-66 -31t-73 -26.5t-70 -22t-71.5 -19.5t-64 -17q-76 -22 -136 -45t-119.5 -58t-98.5 -76.5t-63.5 -100t-24.5 -128.5v-30h960v-111h-1098z" />
<glyph horiz-adv-x="1611" d="M111 213l84 96q247 -219 600 -219q233 0 386.5 80.5t153.5 218.5q0 51 -24.5 92t-61 64.5t-82 39.5t-83 21.5t-68.5 5.5h-271v111h252q31 0 69 13t74 37t60.5 65t24.5 90q0 61 -36 109t-94.5 74.5t-123.5 40t-131 13.5q-269 0 -518 -211l-84 84q292 248 604 248 q87 0 174.5 -19t167 -57t129 -105.5t49.5 -154.5q0 -99 -59 -167.5t-134 -94.5q37 -7 74.5 -19.5t80 -37.5t74.5 -57.5t53.5 -82.5t21.5 -110q0 -128 -91 -223.5t-244 -143t-345 -47.5q-403 0 -682 246z" />
<glyph horiz-adv-x="1624" d="M84 307v105l1036 843h140v-837h260v-111h-260v-307h-138v307h-1038zM283 418h839v665h-22q-249 -198 -817 -657v-8z" />
<glyph horiz-adv-x="1527" d="M117 186l84 97q235 -193 547 -193q98 0 186.5 19t163.5 58t119.5 106.5t44.5 156.5q0 76 -37.5 134.5t-101.5 92.5t-142 51t-166 17q-145 0 -258 -35t-227 -98l-88 65v598h1030v-122h-905v-410q103 59 204.5 88t247.5 29q90 0 172.5 -14.5t157.5 -46.5t130 -78.5 t87.5 -115.5t32.5 -153q0 -97 -37.5 -177t-100 -132.5t-147.5 -88.5t-176.5 -51.5t-189.5 -15.5q-353 0 -631 219z" />
<glyph horiz-adv-x="1568" d="M147 606q0 156 59.5 286t159.5 215t230 132t272 47q280 0 488 -162l-84 -96q-162 137 -406 137q-115 0 -220.5 -37t-187.5 -105t-132 -173t-52 -232q118 80 274 138.5t339 58.5q109 0 201.5 -24t155.5 -63.5t107 -91.5t64.5 -107.5t20.5 -112.5q0 -121 -76 -224 t-213 -164t-305 -61q-108 0 -209.5 25.5t-190 78.5t-154 128t-103.5 179.5t-38 227.5zM281 516q22 -136 106 -234t201.5 -145t255.5 -47q193 0 323.5 99t130.5 229q0 51 -25 100t-73.5 91.5t-133 69t-192.5 26.5q-286 0 -593 -189z" />
<glyph horiz-adv-x="1376" d="M98 1133v122h1164v-122l-762 -1133h-178l782 1133h-1006z" />
<glyph horiz-adv-x="1564" d="M137 360q0 72 34 132t91.5 101t127.5 67.5t149 37.5q-147 20 -225 87.5t-78 175.5q0 81 50.5 146t131.5 103.5t175 59t189 20.5t189 -20.5t175.5 -59t132 -103.5t50.5 -146q0 -109 -77.5 -176t-225.5 -87q79 -11 149 -37.5t127.5 -67.5t91 -101t33.5 -132 q0 -91 -56.5 -167.5t-149 -126t-206.5 -76.5t-233 -27q-120 0 -234 27t-206.5 76.5t-148.5 126t-56 167.5zM287 371q0 -88 75.5 -154.5t186.5 -98.5t233 -32q123 0 234.5 32t187.5 98.5t76 154.5q0 67 -45.5 120.5t-119.5 85.5t-160 49t-173 17t-172 -17t-158.5 -49 t-119 -85.5t-45.5 -120.5zM385 950q0 -98 103 -150t294 -52q192 0 296 52t104 150q0 57 -37 102.5t-96.5 72.5t-128.5 41t-138 14q-95 0 -182.5 -23.5t-151 -77.5t-63.5 -129z" />
<glyph horiz-adv-x="1564" d="M129 840q0 121 76 223t213 162.5t305 60.5q136 0 259.5 -41.5t221.5 -119t155.5 -201t57.5 -275.5q0 -125 -38.5 -234.5t-106.5 -190.5t-159 -139.5t-197.5 -88t-219.5 -29.5q-94 0 -177 17t-147 48.5t-93.5 50t-69.5 48.5l84 94q163 -135 405 -135q115 0 220 37 t187.5 104.5t132.5 172.5t52 231q-296 -197 -610 -197q-110 0 -202.5 24t-155.5 64.5t-107.5 93t-65 108t-20.5 112.5zM266 838q0 -51 25 -100t74 -92.5t133.5 -70t191.5 -26.5q289 0 592 190q-21 135 -104 233t-200.5 145.5t-256.5 47.5q-193 0 -324 -98.5t-131 -228.5z " />
<glyph horiz-adv-x="1429" d="M88 223l80 90q221 -204 506 -227v524q-63 4 -110 9.5t-103.5 16t-97 25t-81 38t-66 54t-41 74.5t-15.5 97q0 80 31.5 143.5t82 103.5t118.5 66.5t136.5 37.5t141.5 11h4v215h96v-221q151 -14 278.5 -66t208.5 -116l-79 -92q-61 56 -166 100.5t-242 58.5v-434 q57 -3 103 -7t106.5 -14.5t107 -26t95 -43t80 -63t51.5 -88t20 -116.5q0 -101 -45 -179.5t-123.5 -125.5t-178 -72t-216.5 -27v-276h-96v280q-333 21 -586 250zM289 936q0 -40 16 -71t47 -52t65.5 -35.5t82.5 -23t86.5 -12.5t87.5 -7v436h-8q-72 0 -135.5 -12t-119.5 -38 t-89 -73.5t-33 -111.5zM770 84q122 2 217.5 30.5t156 90.5t60.5 151q0 58 -25.5 101.5t-64.5 69t-100 42.5t-116 24t-128 11v-520z" />
<glyph horiz-adv-x="1204" d="M100 473q0 218 150 356t368 138q9 0 28 -1t28 -1l45 211h94l-47 -224q171 -37 293 -139l-84 -86q-104 87 -234 115l-159 -756q16 -2 49 -2q197 0 354 152l86 -80q-19 -23 -52 -49.5t-87 -59t-134 -53.5t-167 -21q-24 0 -74 4l-59 -284h-95l64 303q-162 46 -264.5 172.5 t-102.5 304.5zM240 473q0 -133 69.5 -230.5t182.5 -136.5l157 748q-10 2 -31 2q-160 0 -269 -106.5t-109 -276.5z" />
<glyph horiz-adv-x="1673" d="M121 449v88h180q-6 44 -6 92q0 59 8 106h-182v88h205q64 203 242 333t403 130q159 0 302 -53t247 -148l-84 -94q-88 81 -210 127.5t-255 46.5q-168 0 -304.5 -95t-197.5 -247h676v-88h-703q-10 -58 -10 -106q0 -53 8 -92h705v-88h-682q58 -159 197.5 -259t310.5 -100 q137 0 263 51.5t220 141.5l84 -97q-113 -104 -259 -161.5t-308 -57.5q-229 0 -409.5 136t-242.5 346h-198z" />
<glyph horiz-adv-x="1550" d="M137 0v111h82q89 0 136.5 21t70.5 79t23 170v242h-312v100h312v197q0 92 40.5 164t108 115t149.5 65t171 22q96 0 230 -42t253 -111l-70 -97q-103 57 -218 93t-195 36q-63 0 -120.5 -15t-105.5 -43.5t-77 -77t-29 -109.5v-197h575v-100h-575v-242q0 -125 -38 -186.5 t-126 -83.5h977v-111h-1262z" />
<glyph horiz-adv-x="1609" d="M147 449v88h590v57l-114 141h-476v88h406l-348 432h172l434 -538l432 538h162l-346 -432h405v-88h-477l-113 -141v-57h590v-88h-590v-449h-137v449h-590z" />
<glyph horiz-adv-x="1460" d="M86 487q0 137 98 238q71 71 189 113q-31 16 -49 41q-39 48 -39 122q0 77 41 136t108 90.5t141 47t152 15.5q121 0 238 -34t206 -95l-61 -92q-76 51 -178 81t-205 30q-49 0 -97.5 -8t-97.5 -26.5t-79.5 -54.5t-30.5 -85q0 -50 31 -78q12 -11 28 -20.5t39.5 -16.5t42 -11.5 t52 -9.5t51.5 -7t59.5 -6.5t58.5 -6.5q354 -36 492 -172q92 -92 92 -225q0 -143 -102 -242q-69 -69 -187 -109q27 -14 58 -49q32 -48 32 -114q0 -77 -41 -135.5t-108 -90.5t-141 -47.5t-152 -15.5q-119 0 -235.5 34t-208.5 95l61 94q76 -52 178 -82.5t205 -30.5q50 0 99.5 9 t97.5 28t78 55t30 85t-26 75q-12 11 -28 20.5t-40 16.5t-42.5 11.5t-53 9.5t-53 7t-61.5 6.5t-60 6.5q-347 40 -486 170q-96 96 -96 227zM223 504q0 -103 72 -166q101 -99 377 -129q13 -1 63.5 -6.5t72.5 -8t61 -8.5t68.5 -13.5t55.5 -16.5q95 30 154 86q84 84 84 194 q3 97 -68 164q-98 101 -381 131q-4 0 -38.5 3.5t-43.5 4.5t-40 4.5t-44.5 5.5t-40 6t-42.5 8t-36.5 9.5t-37.5 11.5q-102 -33 -154 -88q-82 -85 -82 -192z" />
<glyph horiz-adv-x="1863" d="M98 266v101h463l84 479h-426v100h445l73 418h107l-74 -418h436l74 418h104l-73 -418h452v-100h-471l-84 -479h434v-101h-450l-84 -479h-104l83 479h-436l-84 -479h-106l84 479h-447zM668 367h436l84 479h-436z" />
<glyph horiz-adv-x="2187" d="M98 979q0 158 120.5 271.5t291.5 113.5q170 0 294 -114t124 -271q0 -159 -123.5 -273t-294.5 -114t-291.5 113.5t-120.5 273.5zM219 979q0 -116 85 -198.5t206 -82.5q123 0 211 82.5t88 198.5q0 115 -88 196.5t-211 81.5q-121 0 -206 -81t-85 -197zM657 0l760 1337h111 l-758 -1337h-113zM1257 360q0 158 120.5 271.5t291.5 113.5q170 0 294 -114t124 -271q0 -159 -123.5 -273t-294.5 -114t-291.5 113.5t-120.5 273.5zM1376 360q0 -116 86 -199t207 -83q122 0 210.5 83.5t88.5 198.5q0 114 -88.5 196.5t-210.5 82.5q-121 0 -207 -82.5 t-86 -196.5z" />
<glyph horiz-adv-x="1183" d="M84 895q0 127 69 235t185.5 170t251.5 62q138 0 255 -62t186 -169.5t69 -235.5q0 -129 -69 -237t-186 -170t-255 -62q-135 0 -251.5 62t-185.5 170.5t-69 236.5zM205 895q0 -151 112.5 -257t272.5 -106t274.5 106.5t114.5 256.5q0 149 -114.5 254.5t-274.5 105.5 t-272.5 -105.5t-112.5 -254.5z" />
<glyph horiz-adv-x="616" d="M14 1217l289 120h121v-886h-121v778l-262 -109z" />
<glyph horiz-adv-x="974" d="M90 451v104q0 277 404 381q5 1 16 4q31 7 49.5 12.5t53 16.5t56 24t45 30.5t35 41t11.5 51.5q0 47 -37.5 79.5t-92 46t-118.5 13.5q-103 0 -177 -33t-155 -96l-69 84q50 36 82.5 57t83.5 46t108 37t123 12q98 0 180 -25t137.5 -82.5t55.5 -138.5q0 -53 -25.5 -97 t-53.5 -69.5t-88.5 -51.5t-88 -34t-93.5 -26q-22 -6 -32 -9q-64 -18 -111 -38t-90 -51t-65.5 -75t-22.5 -100v-18h655v-96h-776z" />
<glyph horiz-adv-x="1112" d="M63 604l74 84q170 -156 410 -156q156 0 258 53t102 144q0 41 -22.5 71t-58 44.5t-68 21t-62.5 6.5h-186v97h178q49 0 96 36.5t47 96.5q0 40 -23.5 70.5t-61.5 48t-80.5 26t-85.5 8.5q-187 0 -357 -147l-71 74q204 180 430 180q62 0 124 -13.5t118.5 -41t92 -76 t35.5 -111.5q0 -67 -38.5 -115.5t-84.5 -66.5q31 -6 62 -19.5t63.5 -38t53 -65.5t20.5 -92q0 -138 -136.5 -217.5t-344.5 -79.5q-292 0 -484 178z" />
<glyph horiz-adv-x="1144" d="M57 662v88l727 587h115v-577h182v-98h-182v-211h-121v211h-721zM236 760h542v424h-16l-526 -420v-4z" />
<glyph horiz-adv-x="1056" d="M74 551l63 96q163 -115 381 -115q90 0 164.5 21t127 73.5t52.5 129.5q0 93 -84 140.5t-205 47.5q-103 0 -182.5 -25.5t-157.5 -70.5l-77 57v432h731v-106h-621v-266q73 41 142 61.5t167 20.5q79 0 150.5 -17.5t130 -51.5t93 -91.5t34.5 -130.5q0 -86 -40 -152 t-108 -103.5t-148 -56t-169 -18.5q-247 0 -444 125z" />
<glyph horiz-adv-x="1083" d="M88 879q0 147 73 259t189 168t254 56q205 0 352 -113l-73 -84q-114 90 -283 90q-77 0 -148 -24.5t-127 -69.5t-90 -114t-36 -152q198 133 419 133q96 0 172.5 -25t123 -66.5t70.5 -91t24 -100.5q0 -134 -120 -226.5t-302 -92.5q-97 0 -186 29.5t-159 85t-111.5 143 t-41.5 195.5zM205 805q27 -130 133.5 -201.5t249.5 -71.5q127 0 213 65t86 151q0 71 -70.5 127.5t-206.5 56.5q-191 0 -405 -127z" />
<glyph horiz-adv-x="950" d="M63 1231v106h830v-106l-528 -780h-158l549 780h-693z" />
<glyph horiz-adv-x="1085" d="M82 705q0 97 78 158.5t188 78.5q-97 14 -149 61t-52 125q0 47 24.5 86.5t64.5 66.5t92 46t106.5 28t108.5 9q69 0 136.5 -14.5t126.5 -42t95.5 -74.5t36.5 -105q0 -78 -51.5 -125t-151.5 -61q71 -11 130 -39t99 -80t40 -118q0 -86 -69 -151.5t-172 -97.5t-220 -32 q-118 0 -221 32t-171.5 97.5t-68.5 151.5zM213 715q0 -57 50 -100t124 -64t156 -21q130 0 229.5 50.5t99.5 134.5q0 58 -53 100t-125.5 60t-150.5 18t-151 -18t-126 -60t-53 -100zM279 1118q0 -66 68 -100.5t196 -34.5t197 34.5t69 100.5q0 47 -42.5 82.5t-101.5 51.5 t-122 16t-121.5 -16t-100.5 -51.5t-42 -82.5z" />
<glyph horiz-adv-x="1083" d="M78 1042q0 133 120 226.5t302 93.5q97 0 185.5 -29.5t158 -85t110.5 -143t41 -195.5q0 -147 -73 -259t-188.5 -168t-252.5 -56q-200 0 -354 113l74 84q118 -91 282 -91q162 0 280 98t124 263q-203 -133 -422 -133q-96 0 -172 25t-122 66.5t-69.5 90t-23.5 100.5z M199 1038q0 -70 70.5 -126t207.5 -56q193 0 402 127q-27 130 -133.5 201t-249.5 71q-126 0 -211.5 -65t-85.5 -152z" />
<glyph horiz-adv-x="1183" d="M84 444q0 127 69 235t185.5 170t251.5 62q138 0 255 -62t186 -169.5t69 -235.5q0 -129 -69 -237t-186 -170t-255 -62q-135 0 -251.5 62t-185.5 170.5t-69 236.5zM205 444q0 -151 112.5 -256.5t272.5 -105.5t274.5 106t114.5 256q0 149 -114.5 255t-274.5 106t-272.5 -106 t-112.5 -255z" />
<glyph horiz-adv-x="616" d="M14 766l289 121h121v-887h-121v778l-262 -108z" />
<glyph horiz-adv-x="974" d="M90 0v104q0 277 404 381q119 30 168 54q98 50 98 127q0 47 -37.5 79.5t-92 46t-118.5 13.5q-103 0 -177 -33t-155 -96l-69 84q49 36 82 57t84 46t108 36.5t123 11.5q98 0 180 -25t137.5 -82t55.5 -138q0 -53 -25.5 -97t-53.5 -69.5t-88.5 -51.5t-88 -34t-93.5 -26 q-22 -6 -32 -9q-64 -18 -111 -38t-90 -51t-65.5 -75t-22.5 -100v-19h655v-96h-776z" />
<glyph horiz-adv-x="1110" d="M61 154l74 84q174 -156 412 -156q155 0 257.5 53t102.5 144q0 41 -23 71t-58.5 44.5t-68 21t-61.5 6.5h-188v96h178q49 0 96 36.5t47 96.5q0 40 -23.5 70.5t-61.5 48t-80.5 26.5t-85.5 9q-97 0 -189.5 -41.5t-165.5 -106.5l-73 74q208 180 430 180q62 0 124 -13.5 t119 -40.5t92 -75.5t35 -111.5q0 -67 -38 -116t-85 -67q32 -6 63 -20t63.5 -38t52.5 -65t20 -92q0 -138 -136 -217.5t-343 -79.5q-292 0 -486 179z" />
<glyph horiz-adv-x="1144" d="M57 211v88l727 588h115v-578h182v-98h-182v-211h-121v211h-721zM236 309h542v424h-16l-526 -420v-4z" />
<glyph horiz-adv-x="1056" d="M74 100l63 97q163 -115 381 -115q66 0 125 12.5t109.5 38t80 70t29.5 102.5q0 63 -42.5 107t-106 63t-140.5 19q-173 0 -340 -97l-77 58v432h731v-107h-621v-266q73 41 142 61.5t167 20.5q79 0 150.5 -17.5t130 -51.5t93 -91.5t34.5 -130.5q0 -86 -40 -152t-108 -103.5 t-148 -56t-169 -18.5q-247 0 -444 125z" />
<glyph horiz-adv-x="1083" d="M88 428q0 147 73 259t189 168t254 56q206 0 352 -112l-73 -84q-114 90 -283 90q-104 0 -193.5 -42t-147 -125.5t-60.5 -193.5q200 134 419 134q96 0 172.5 -25t123 -66.5t70.5 -91t24 -100.5q0 -134 -120 -227t-302 -93q-97 0 -186 29.5t-159 85t-111.5 143t-41.5 195.5z M205 354q27 -130 133.5 -201t249.5 -71q127 0 213 64.5t86 150.5q0 71 -70.5 127.5t-206.5 56.5q-191 0 -405 -127z" />
<glyph horiz-adv-x="950" d="M63 780v107h830v-107l-528 -780h-158l549 780h-693z" />
<glyph horiz-adv-x="1085" d="M82 254q0 98 78 159.5t188 78.5q-97 14 -149 61t-52 125q0 58 36.5 104.5t96 74t127 42t136.5 14.5t136.5 -14.5t126.5 -42t95.5 -74t36.5 -104.5q0 -78 -51.5 -125t-151.5 -61q112 -17 190.5 -78.5t78.5 -159.5q0 -86 -69 -151.5t-172 -97.5t-220 -32q-118 0 -221 32 t-171.5 97.5t-68.5 151.5zM213 264q0 -57 50.5 -100t124 -63.5t155.5 -20.5q130 0 229.5 50t99.5 134q0 58 -53 100t-125.5 60t-150.5 18t-151 -18t-126 -60t-53 -100zM279 668q0 -66 68 -101t196 -35t197 35t69 101q0 47 -42.5 82.5t-101.5 51t-122 15.5t-121.5 -15.5 t-100.5 -51t-42 -82.5z" />
<glyph horiz-adv-x="1083" d="M78 592q0 133 120 226t302 93q97 0 185.5 -29.5t158 -84.5t110.5 -142.5t41 -195.5q0 -111 -42.5 -203.5t-113.5 -153t-163.5 -94t-194.5 -33.5q-200 0 -354 113l74 84q117 -90 282 -90q162 0 280 97.5t124 262.5q-203 -133 -422 -133q-96 0 -172 25t-121.5 66.5 t-69.5 90.5t-24 101zM199 588q0 -70 70.5 -126t207.5 -56q194 0 402 126q-27 130 -133.5 201.5t-249.5 71.5q-126 0 -211.5 -65t-85.5 -152z" />
<glyph horiz-adv-x="1574" d="M119 381q0 75 21.5 138t55 106t83 79t95.5 57.5t103 41.5q-115 129 -115 252q0 97 58 170t148 109t196 36q73 0 147.5 -19t116.5 -38t98 -49l-69 -107q-138 90 -295 90q-110 0 -186 -52t-76 -138q0 -34 14 -70t44.5 -73.5t50.5 -60t60 -60t46 -43.5l401 -400 q125 122 234 291l110 -57q-122 -184 -260 -318l270 -266h-182l-184 180q-261 -209 -512 -209q-57 0 -117 11.5t-125 41.5t-115.5 74.5t-83 118t-32.5 164.5zM256 389q0 -63 23 -114.5t59 -84.5t83 -55t92.5 -31.5t90.5 -9.5q200 0 416 168l-420 414l-43 41 q-45 -16 -78 -30.5t-78.5 -43t-74 -61t-49.5 -83t-21 -110.5z" />
<glyph horiz-adv-x="1708" d="M139 670q0 142 57 272t153 223.5t228 149t275 55.5q144 0 276.5 -55.5t229 -149t154 -223.5t57.5 -272q0 -144 -57.5 -274.5t-154 -225t-229 -150t-276.5 -55.5q-192 0 -356 94t-260.5 256.5t-96.5 354.5zM276 670q0 -158 77.5 -292.5t210 -212t288.5 -77.5t289.5 77.5 t212 212t78.5 292.5q0 156 -78.5 289.5t-212 211.5t-289.5 78t-288.5 -78t-210 -211.5t-77.5 -289.5z" />
<glyph horiz-adv-x="866" d="M31 1151l420 186h137v-1337h-137v1212l-390 -172z" />
<glyph horiz-adv-x="1400" d="M137 0v133q0 99 32.5 183t85.5 143.5t129.5 109t154 81t170.5 57.5q12 4 47.5 13.5t57 16.5t58.5 19t60.5 24t55 29t51.5 36.5t38.5 43.5t27.5 53t9 62q0 82 -57.5 139t-141.5 81.5t-184 24.5q-78 0 -146 -15t-128 -45t-103.5 -59.5t-99.5 -74.5l-80 94q66 52 114.5 84 t118.5 67.5t150 52.5t172 17q100 0 191.5 -22t166.5 -65t119.5 -114.5t44.5 -162.5q0 -56 -16.5 -104t-44.5 -83.5t-66.5 -66t-82 -52.5t-92 -40t-94.5 -32t-91 -27q-32 -9 -47 -13q-77 -23 -137.5 -48t-119.5 -63t-98.5 -83.5t-63.5 -109t-24 -139.5v-34h961v-111h-1098z " />
<glyph horiz-adv-x="1595" d="M100 227l84 97q250 -236 598 -236q153 0 275 37.5t195 112.5t73 176q0 55 -24.5 99.5t-61 70.5t-82 43.5t-83 23.5t-68.5 6h-271v111h252q31 0 68.5 13.5t74 39.5t60.5 71t24 99q0 66 -36.5 118t-95.5 81.5t-124 44t-131 14.5q-143 0 -275.5 -63.5t-240.5 -163.5l-84 86 q290 262 604 262q69 0 138.5 -12t139 -39.5t123 -67.5t87 -102t33.5 -137q0 -106 -59.5 -178.5t-133.5 -100.5q38 -8 74.5 -21.5t79.5 -40t74.5 -60.5t53 -87.5t21.5 -117.5q0 -137 -91.5 -238.5t-244.5 -152t-344 -50.5q-405 0 -682 262z" />
<glyph horiz-adv-x="1609" d="M78 330v106l1038 901h137v-897h263v-110h-263v-330h-137v330h-1038zM279 440h837v725h-22q-377 -327 -815 -716v-9z" />
<glyph horiz-adv-x="1517" d="M113 199l84 96q233 -207 548 -207q77 0 149.5 12.5t139 41.5t115.5 71t78.5 104.5t29.5 139.5q0 67 -24.5 121.5t-66.5 91.5t-100 61.5t-121.5 35.5t-133.5 11q-146 0 -259 -36.5t-226 -102.5l-88 66v632h1030v-123h-906v-444q102 62 205 92.5t248 30.5q90 0 172.5 -15 t157.5 -49t130 -83.5t87.5 -123t32.5 -163.5q0 -103 -37.5 -187t-100.5 -140t-148 -94.5t-176.5 -55.5t-189.5 -17q-353 0 -630 234z" />
<glyph horiz-adv-x="1554" d="M143 645q0 166 59.5 305t160 229.5t230 140.5t271.5 50q279 0 486 -174l-84 -96q-76 72 -180.5 110.5t-223.5 38.5q-92 0 -178.5 -25t-161.5 -75t-131 -120t-89 -166t-34 -206q295 211 613 211q110 0 202.5 -25.5t155.5 -68t107.5 -98t65 -115t20.5 -119.5 q0 -128 -76 -237t-213 -174.5t-305 -65.5q-109 0 -210.5 27.5t-189.5 84t-154 136t-103.5 191t-37.5 241.5zM274 555q30 -221 190 -344t376 -123q96 0 182 30t144.5 79.5t93 114t34.5 132.5q0 55 -25 108.5t-74 100.5t-133.5 76t-191.5 29q-286 0 -596 -203z" />
<glyph horiz-adv-x="1327" d="M66 1214v123h1163v-123l-762 -1214h-178l782 1214h-1005z" />
<glyph horiz-adv-x="1556" d="M133 383q0 77 34 141.5t91.5 108.5t127.5 72t149 40q-148 22 -226 92.5t-78 186.5q0 69 33.5 128t88.5 99t127 68.5t147.5 41.5t150.5 13t150.5 -13t147.5 -41.5t127 -68.5t88.5 -99t33.5 -128q0 -116 -77 -186.5t-226 -92.5q79 -12 149 -40t127.5 -72t91 -108.5 t33.5 -141.5q0 -96 -56.5 -177.5t-149 -134t-206.5 -81.5t-233 -29t-233.5 29t-206.5 81.5t-148.5 134t-56.5 177.5zM283 393q0 -72 44 -132t115.5 -97.5t158.5 -58.5t177 -21q123 0 234.5 34.5t187.5 107t76 167.5q0 73 -45.5 131.5t-119.5 93.5t-160 53.5t-173 18.5 t-172 -18.5t-158.5 -53.5t-119 -93.5t-45.5 -131.5zM381 1014q0 -106 103 -162.5t294 -56.5t295.5 57t104.5 162q0 62 -37 111.5t-96.5 78.5t-128.5 44.5t-138 15.5q-95 0 -182.5 -25.5t-151 -84.5t-63.5 -140z" />
<glyph horiz-adv-x="1558" d="M127 895q0 128 76 236.5t213 173.5t305 65q136 0 259.5 -44t221 -126.5t155.5 -214t58 -293.5q0 -134 -38.5 -251t-106.5 -203t-159 -148t-197.5 -93.5t-219.5 -31.5q-77 0 -149 14t-119 31.5t-97.5 46.5t-70.5 44t-51 40l84 95q164 -148 405 -148q115 0 219.5 40 t187 113t132.5 186t53 249q-73 -52 -153.5 -94.5t-206 -78.5t-250.5 -36q-110 0 -202.5 26t-155.5 68.5t-107.5 98.5t-65 115.5t-20.5 119.5zM264 893q0 -55 25 -108.5t74 -100.5t133.5 -76.5t191.5 -29.5q288 0 594 202q-20 149 -103 257t-201.5 160t-258.5 52 q-96 0 -182 -30t-145 -79.5t-93.5 -114t-34.5 -132.5z" />
<glyph horiz-adv-x="663" d="M180 1255q0 43 32 73t79 30t79.5 -30t32.5 -73q0 -42 -32.5 -72t-79.5 -30t-79 30t-32 72zM217 0v324l27 612h92l29 -612v-324h-148z" />
<glyph horiz-adv-x="1220" d="M90 289q0 87 40 146t118 118q34 27 91.5 65.5t95.5 66t79 65.5t65.5 84t32.5 102h123q-4 -60 -25.5 -113.5t-50 -90.5t-72 -75t-80 -62.5t-87 -58.5t-80.5 -57q-66 -46 -96.5 -85.5t-30.5 -100.5q0 -56 27 -98.5t73.5 -66t102.5 -35t121 -11.5q80 0 147.5 14.5t122 43.5 t96 61.5t86.5 79.5l88 -80q-71 -73 -137.5 -119.5t-171.5 -78.5t-236 -32q-91 0 -166.5 16t-139.5 51.5t-100 99.5t-36 151zM537 1255q0 43 32.5 73t79.5 30t79 -30t32 -73q0 -42 -32 -72t-79 -30t-79.5 30t-32.5 72z" />
<glyph horiz-adv-x="649" d="M121 670v69l221 252h154l-248 -278v-17l248 -276h-154z" />
<glyph horiz-adv-x="649" d="M154 420l247 276v17l-247 278h151l221 -252v-69l-221 -250h-151z" />
<glyph horiz-adv-x="1097" d="M121 670v69l221 252h154l-248 -278v-17l248 -276h-154zM551 694v21l242 276h151l-248 -278v-17l248 -276h-151z" />
<glyph horiz-adv-x="1097" d="M154 420l247 276v17l-247 278h151l242 -276v-21l-242 -274h-151zM602 420l248 276v17l-248 278h154l221 -252v-69l-221 -250h-154z" />
<glyph horiz-adv-x="813" d="M143 662v122h527v-122h-527z" />
<glyph horiz-adv-x="1298" d="M143 672v112h1012v-112h-1012z" />
<glyph horiz-adv-x="2281" d="M143 672v112h1995v-112h-1995z" />
<glyph horiz-adv-x="757" d="M115 647q0 282 137.5 523.5t382.5 363.5l70 -86q-208 -105 -330.5 -327.5t-122.5 -473.5q0 -165 53.5 -320.5t157 -281t242.5 -195.5l-70 -86q-163 80 -282 219t-178.5 309t-59.5 355z" />
<glyph horiz-adv-x="757" d="M53 -150q139 70 242.5 195.5t157 281t53.5 320.5q0 251 -122.5 473.5t-330.5 327.5l68 86q246 -122 384 -363.5t138 -523.5q0 -185 -59.5 -355t-179 -309t-283.5 -219z" />
<glyph horiz-adv-x="702" d="M209 -209v1727h414v-111h-289v-1505h289v-111h-414z" />
<glyph horiz-adv-x="702" d="M82 -98h287v1505h-287v111h414v-1727h-414v111z" />
<glyph horiz-adv-x="770" d="M66 610v125q97 0 169 65.5t72 170.5v211q1 72 9 123t27 89.5t46.5 62t72.5 38t99.5 20t132.5 5.5v-111q-79 0 -125.5 -8.5t-78.5 -34t-44 -68.5t-14 -116v-211q0 -124 -72 -204.5t-170 -86.5v-16q240 -4 240 -281v-260q0 -71 11.5 -113t44 -67t80 -33t128.5 -8v-111 q-80 0 -135 5t-101 19t-73.5 37t-46.5 61t-26 88.5t-7 121.5v260q0 227 -239 227z" />
<glyph horiz-adv-x="770" d="M76 -98q79 0 126 8t80 32.5t45.5 67t12.5 113.5v260q0 277 240 281v16q-97 6 -169.5 86.5t-72.5 204.5v211q-2 72 -14.5 115.5t-45 69t-78.5 34t-124 8.5v111q118 0 187.5 -13t117 -51t65 -102t19.5 -172v-211q0 -105 72 -170.5t170 -65.5v-125q-240 0 -240 -227v-260 q0 -71 -7.5 -121.5t-26.5 -88.5t-46.5 -61t-74 -37t-101.5 -19t-135 -5v111z" />
<glyph horiz-adv-x="991" d="M176 711q0 126 94 214.5t226 88.5q131 0 225 -88.5t94 -214.5t-94 -214.5t-225 -88.5q-132 0 -226 88.5t-94 214.5z" />
<glyph horiz-adv-x="2029" d="M127 588q0 193 82 359.5t219.5 279t318 176t377.5 63.5q176 0 325.5 -50.5t252 -138.5t160 -208.5t57.5 -257.5q0 -107 -34 -204.5t-90.5 -169t-126.5 -125t-144 -80.5t-142 -27q-90 0 -146 43.5t-56 116.5v16q-70 -84 -154.5 -129t-171.5 -45q-120 0 -204.5 83 t-84.5 240q0 91 31 177.5t82.5 152.5t115.5 116t133.5 76.5t133.5 26.5q97 0 163.5 -57.5t82.5 -138.5l55 161h117l-191 -577q-8 -21 -8 -45q0 -55 34.5 -86t94.5 -31q63 0 133.5 36.5t131.5 100t101 160.5t40 205q0 117 -50 220t-139 178t-219 118t-283 43 q-139 0 -270.5 -35t-242 -103.5t-193.5 -161.5t-129.5 -216.5t-46.5 -261.5q0 -137 46.5 -253.5t124.5 -197.5t180 -138t212.5 -83.5t222.5 -26.5q139 0 296 37.5t243 83.5l35 -84q-90 -51 -258 -93t-322 -42q-125 0 -249.5 30t-241.5 95t-206.5 157t-143.5 225t-54 290z M692 545q0 -112 53.5 -170t139.5 -58q69 0 144.5 41t144.5 119l94 289q-13 82 -69.5 142.5t-137.5 60.5q-58 0 -122 -31t-119.5 -84.5t-91.5 -135t-36 -173.5z" />
<glyph horiz-adv-x="1466" d="M109 238l79 90q217 -217 504 -240v567q-63 5 -109 10.5t-103 16.5t-97.5 26t-81.5 40t-66 57t-41 78t-16 102q0 85 31.5 152t82 109.5t119 70.5t137 39.5t140.5 11.5h4v231h96v-237q152 -16 280 -71.5t210 -121.5l-80 -92q-63 59 -168 106.5t-242 63.5v-471q57 -3 103 -7 t107 -15.5t108 -28t95.5 -45.5t80.5 -67t52 -94t20 -124q0 -86 -29.5 -156.5t-81.5 -119.5t-124 -83t-155 -50.5t-176 -18.5v-295h-96v299q-332 24 -583 267zM309 997q0 -43 16 -77t46.5 -56.5t65 -38t82 -24.5t86 -13.5t87.5 -7.5v473h-8q-71 0 -134.5 -13t-119 -41 t-88.5 -80t-33 -122zM788 84q91 2 168.5 20t138.5 53.5t95.5 92.5t34.5 131q0 53 -16.5 94.5t-49.5 69.5t-71 47t-92 30.5t-100 17t-108 9.5v-565z" />
<glyph horiz-adv-x="1220" d="M113 502q0 154 70 274t187.5 184t260.5 64q9 0 26.5 -1t26.5 -1l45 227h96l-49 -241q172 -37 295 -146l-86 -86q-96 89 -229 121l-164 -813q16 -2 51 -2q190 0 354 164l86 -80q-19 -24 -52 -52.5t-87.5 -63t-134 -57t-166.5 -22.5q-24 0 -74 4l-59 -303h-96l63 324 q-162 49 -263 183.5t-101 322.5zM250 502q0 -142 69 -246t181 -147l162 802q-10 2 -31 2q-162 0 -271.5 -113.5t-109.5 -297.5z" />
<glyph horiz-adv-x="1671" d="M119 481v88h180q-6 50 -6 101q0 64 8 116h-182v88h203q66 217 244 356.5t403 139.5q159 0 302 -57t247 -158l-84 -94q-88 88 -210 138t-255 50q-169 0 -306.5 -104.5t-197.5 -270.5h678v-88h-703q-10 -65 -10 -116q0 -57 8 -101h705v-88h-684q56 -173 196.5 -283 t313.5 -110q136 0 262 55.5t221 151.5l84 -96q-113 -110 -259 -172t-308 -62q-229 0 -410 145.5t-242 370.5h-198z" />
<glyph horiz-adv-x="1527" d="M131 0v111h82q89 0 136 22.5t70 85t23 182.5v267h-311v100h311v211q0 97 40.5 174t108.5 123t149.5 70t170.5 24q96 0 231 -45.5t253 -118.5l-68 -96q-103 62 -218.5 100.5t-197.5 38.5q-85 0 -158 -27.5t-123 -91t-50 -151.5v-211h575v-100h-575v-267q0 -135 -37.5 -201 t-126.5 -89h977v-111h-1262z" />
<glyph horiz-adv-x="1587" d="M135 481v88h590v66l-115 151h-475v88h408l-350 463h172l434 -579l432 579h162l-351 -463h410v-88h-475l-115 -151v-66h590v-88h-590v-481h-137v481h-590z" />
<glyph horiz-adv-x="1497" d="M106 520q0 137 99 252q77 80 188 123q-30 18 -49 43q-39 55 -39 131q0 82 41 143.5t108.5 95.5t142 50t153.5 16q120 0 236.5 -36.5t205.5 -102.5l-62 -92q-76 56 -177 88.5t-205 32.5q-48 0 -97 -9t-98.5 -29t-80 -59.5t-30.5 -93.5q0 -55 31 -86q14 -14 37 -25.5 t43 -18.5t57.5 -13.5t58.5 -9.5t69 -8.5t67 -8.5q354 -40 491 -182q93 -100 93 -240q0 -147 -101 -256q-74 -77 -188 -119q34 -18 57 -51q33 -57 33 -123q0 -81 -40.5 -142.5t-107.5 -95.5t-141 -50.5t-153 -16.5q-119 0 -236 37.5t-209 102.5l62 94q78 -57 179.5 -90 t205.5 -33q49 0 98 9.5t97 30t78 60t30 92.5q0 52 -27 82q-12 13 -28 23t-39.5 17.5t-43 13t-52 10.5t-53 7.5t-60.5 7.5t-60 7q-162 22 -284.5 61.5t-200.5 119.5q-99 99 -99 241zM244 537q0 -113 71 -181q100 -105 377 -139q6 -1 40.5 -4.5t44.5 -4.5t40.5 -5t43.5 -6 t39 -6.5t41.5 -8.5t35.5 -10t37 -12q92 33 153 96q84 91 84 209q0 107 -65 178q-100 107 -383 141q-231 23 -324 58q-96 -36 -153 -99q-82 -92 -82 -206z" />
<glyph horiz-adv-x="1886" d="M109 287v100h464l86 518h-430v101h447l74 446h104l-74 -446h437l73 446h107l-74 -446h451v-101h-467l-86 -518h432v-100h-449l-84 -514h-106l84 514h-436l-84 -514h-105l84 514h-448zM678 387h436l86 518h-436z" />
<glyph horiz-adv-x="2211" d="M111 979q0 158 120 271.5t291 113.5q170 0 294 -114t124 -271q0 -159 -123.5 -273t-294.5 -114t-291 113.5t-120 273.5zM231 979q0 -116 85 -198.5t206 -82.5q123 0 211 82.5t88 198.5q0 115 -88 196.5t-211 81.5q-121 0 -206 -81t-85 -197zM670 0l760 1337h110 l-758 -1337h-112zM1270 360q0 158 120 271.5t291 113.5q170 0 294 -114t124 -271q0 -159 -123.5 -273t-294.5 -114t-291 113.5t-120 273.5zM1389 360q0 -116 85.5 -199t206.5 -83q122 0 210.5 83.5t88.5 198.5q0 114 -88.5 196.5t-210.5 82.5q-121 0 -206.5 -82.5 t-85.5 -196.5z" />
<glyph horiz-adv-x="526" d="M-190 -395l28 102q27 -26 77.5 -42.5t96.5 -16.5q80 0 134.5 49t54.5 147v1096h127v-1096q0 -82 -26.5 -144t-70 -97t-93 -51.5t-103.5 -16.5q-62 0 -126 19t-99 51zM176 1313q0 34 25 58t61 24q38 0 63 -24t25 -58t-25 -57t-63 -23q-36 0 -61 23.5t-25 56.5z" />
<glyph horiz-adv-x="999" d="M172 940h119q23 -70 26 -166q133 193 308 193q134 0 216.5 -91.5t76.5 -238.5h-123q3 96 -52.5 154.5t-144.5 58.5q-130 0 -268 -186v-664h-127v717q0 118 -31 223z" />
<glyph horiz-adv-x="1126" d="M-168 -391l39 102q40 -31 104 -50t134 -19q108 0 184.5 75.5t144.5 219.5l45 90l-409 913h143l332 -774h6l369 774h129l-516 -1061q-37 -75 -76.5 -132.5t-92 -107.5t-119.5 -77t-145 -27q-163 0 -272 74z" />
<glyph horiz-adv-x="1126" d="M-168 -391l39 102q40 -31 104 -50t134 -19q108 0 184.5 75.5t144.5 219.5l45 90l-409 913h143l332 -774h6l369 774h129l-516 -1061q-37 -75 -76.5 -132.5t-92 -107.5t-119.5 -77t-145 -27q-163 0 -272 74zM461 1114l182 299l143 -4l-211 -299z" />
<glyph horiz-adv-x="1126" d="M-168 -391l39 102q40 -31 104 -50t134 -19q108 0 184.5 75.5t144.5 219.5l45 90l-409 913h143l332 -774h6l369 774h129l-516 -1061q-37 -75 -76.5 -132.5t-92 -107.5t-119.5 -77t-145 -27q-163 0 -272 74zM281 1221q0 33 23 55t58 22t59.5 -22.5t24.5 -54.5t-24.5 -54 t-59.5 -22t-58 22t-23 54zM676 1221q0 32 23.5 54.5t58.5 22.5t59.5 -22.5t24.5 -54.5t-24.5 -54t-59.5 -22t-58.5 22t-23.5 54z" />
<glyph horiz-adv-x="933" d="M80 672q0 100 89 164.5t247 64.5q76 0 151.5 -19.5t116.5 -58.5v107q0 72 -62 106.5t-157 34.5q-82 0 -160.5 -26t-124.5 -58l-41 88q57 35 144.5 61.5t187.5 26.5q63 0 118 -11t102.5 -33.5t75.5 -64t28 -96.5v-383q0 -72 24 -124h-110q-15 24 -25 100 q-136 -121 -313 -121q-132 0 -211.5 69t-79.5 173zM193 672q0 -63 53.5 -104.5t146.5 -41.5q72 0 142 26.5t105 52.5t44 40v88q-79 82 -252 82q-122 0 -180.5 -39t-58.5 -104z" />
<glyph horiz-adv-x="972" d="M133 451q14 69 14 172v811h109v-387q122 116 264 116q153 0 259 -101.5t106 -262.5q0 -164 -109 -266.5t-268 -102.5q-86 0 -156.5 39.5t-103.5 85.5q0 -55 -12 -104h-103zM256 635q21 -22 48 -43.5t82.5 -44.5t113.5 -23q110 0 187 76.5t77 198.5q0 120 -73.5 195 t-180.5 75q-133 0 -254 -111v-323z" />
<glyph horiz-adv-x="972" d="M88 799q0 161 108 262.5t263 101.5q143 0 258 -106v377h108v-811q0 -98 15 -172h-103q-8 31 -12 104q-32 -45 -104.5 -85t-161.5 -40q-157 0 -264 102.5t-107 266.5zM209 799q0 -122 75 -198.5t185 -76.5q59 0 115.5 23t84 44.5t48.5 43.5v323q-118 111 -248 111 q-110 0 -185 -75t-75 -195z" />
<glyph horiz-adv-x="927" d="M88 786q0 159 110 268t271 109q73 0 139 -22t121 -65.5t85.5 -118.5t25.5 -171h-641q0 -108 75 -184t195 -76q167 0 276 105l74 -70q-138 -131 -350 -131q-169 0 -275 103t-106 253zM209 872h508q-1 64 -39 111t-92.5 68.5t-116.5 21.5q-98 0 -167 -55.5t-93 -145.5z" />
<glyph horiz-adv-x="942" d="M147 451v983h109v-387q120 116 262 116q129 0 209 -68t80 -175v-469h-111v469q0 64 -53 106.5t-135 42.5q-135 0 -252 -121v-497h-109z" />
<glyph horiz-adv-x="405" d="M127 1378q0 27 22 46.5t52 19.5q32 0 53.5 -19t21.5 -47q0 -29 -21.5 -48t-53.5 -19q-31 0 -52.5 19.5t-21.5 47.5zM147 451v692h111v-692h-111z" />
<glyph horiz-adv-x="403" d="M147 451v983h109v-983h-109z" />
<glyph horiz-adv-x="1394" d="M127 1143h100q14 -42 21 -107q111 127 254 127q83 0 145 -38t94 -101q102 139 260 139q111 0 186 -69t75 -174v-469h-113v469q0 64 -46.5 106.5t-117.5 42.5q-117 0 -225 -121v-497h-111v493q-11 53 -54.5 89t-111.5 36q-117 0 -225 -121v-497h-111v522q0 99 -20 170z " />
<glyph horiz-adv-x="954" d="M86 799q0 151 115.5 257.5t273.5 106.5q161 0 277 -106.5t116 -257.5q0 -153 -116 -261t-277 -108q-158 0 -273.5 108t-115.5 261zM201 799q0 -116 77 -194.5t197 -78.5q122 0 201.5 79t79.5 194q0 112 -80 191t-201 79q-119 0 -196.5 -79t-77.5 -191z" />
<glyph horiz-adv-x="626" d="M125 1143h102q14 -40 21 -119q101 139 223 139q81 0 115 -37l-37 -98q-36 31 -100 31q-55 0 -99.5 -35.5t-91.5 -93.5v-479h-108v522q0 81 -25 170z" />
<glyph horiz-adv-x="860" d="M82 537l45 81q47 -29 82 -46.5t99.5 -35.5t131.5 -18q99 0 165.5 35t66.5 96q0 36 -22 60.5t-61.5 35t-73 14.5t-77.5 5q-46 2 -78.5 5t-74 10t-69.5 20t-54 33.5t-38.5 52t-12.5 73.5q0 56 26.5 98t70.5 65.5t93 34.5t102 11q96 0 184 -27.5t140 -60.5l-45 -82 q-48 30 -122.5 55t-156.5 25q-71 0 -126.5 -28t-55.5 -78q0 -22 8.5 -38.5t27 -27t36.5 -17t47 -10.5t48 -5.5t50 -2.5q37 -2 60 -3.5t63 -7t66 -14t57.5 -24.5t50.5 -37t32 -53t13 -72q0 -112 -97 -171.5t-247 -59.5q-189 0 -354 109z" />
<glyph horiz-adv-x="657" d="M72 1059v84h145v211h113v-211h229v-84h-229v-438q0 -50 30 -75.5t76 -25.5q32 0 71 8t58 19l15 -84q-23 -15 -72 -26t-92 -11q-78 0 -138.5 48t-60.5 147v438h-145z" />
<glyph horiz-adv-x="1421" d="M92 0l553 1116h131l553 -1116h-149l-170 346h-607l-167 -346h-144zM457 455h499l-243 499h-11z" />
<glyph horiz-adv-x="1544" d="M262 0v1116h660q217 0 319 -108q68 -71 68 -166q0 -84 -50 -151t-126 -87q102 -15 169.5 -94t67.5 -184q0 -129 -98 -224q-57 -57 -131.5 -79.5t-186.5 -22.5h-692zM397 121h549q156 0 225 69q56 56 56 136q0 69 -53 125q-65 71 -189 71h-588v-401zM397 631h559 q94 0 156 55q55 55 55 131q0 66 -43 109q-66 69 -215 69h-512v-364z" />
<glyph horiz-adv-x="1490" d="M154 557q0 119 49 227.5t134 188.5t206.5 127t259.5 47q153 0 295 -52.5t243 -140.5l-92 -92q-88 75 -206.5 119.5t-237.5 44.5q-218 0 -363 -137t-145 -332q0 -127 65.5 -234.5t184 -171t264.5 -63.5q134 0 255.5 53t213.5 140l92 -91q-109 -99 -252.5 -161t-310.5 -62 q-140 0 -262.5 47t-208 127t-135 188t-49.5 228z" />
<glyph horiz-adv-x="1556" d="M262 0v1116h504q168 0 276 -42.5t201 -127.5q154 -157 154 -389q0 -115 -41 -216.5t-119 -176.5q-90 -82 -198 -123t-273 -41h-504zM397 121h365q131 0 212 31t154 96q127 124 127 309q0 183 -122 305q-72 67 -155.5 100t-215.5 33h-365v-874z" />
<glyph horiz-adv-x="1372" d="M262 0v1116h952v-121h-817v-346h496v-121h-496v-407h856v-121h-991z" />
<glyph horiz-adv-x="1261" d="M262 0v1116h932v-121h-797v-358h494v-123h-494v-514h-135z" />
<glyph horiz-adv-x="1533" d="M154 557q0 161 86.5 296.5t237 214.5t329.5 79q139 0 275 -49t247 -137l-94 -87q-79 70 -195.5 111t-232.5 41q-217 0 -364.5 -137.5t-147.5 -331.5q0 -92 37.5 -177t104 -150t166.5 -103.5t216 -38.5q109 0 219 33t183 86v276h-394v123h519v-465q-110 -80 -251.5 -127 t-283.5 -47q-136 0 -258.5 47t-209.5 126.5t-138 188t-51 228.5z" />
<glyph horiz-adv-x="1564" d="M262 0v1116h135v-450h770v450h136v-1116h-136v545h-770v-545h-135z" />
<glyph horiz-adv-x="659" d="M262 0v1116h135v-1116h-135z" />
<glyph horiz-adv-x="1288" d="M78 250l112 57q15 -31 31.5 -57t47 -57.5t67 -53t91.5 -36.5t120 -15q163 0 264.5 81.5t101.5 225.5v721h138v-721q0 -200 -140 -314t-362 -114q-86 0 -158.5 19t-119.5 46.5t-87.5 69t-62.5 74.5t-43 74z" />
<glyph horiz-adv-x="1435" d="M262 0v1116h135v-639l707 639h168l-467 -426l563 -690h-174l-487 600l-310 -276v-324h-135z" />
<glyph horiz-adv-x="1234" d="M262 0v1116h135v-995h760v-121h-895z" />
<glyph horiz-adv-x="1732" d="M262 0v1116h148l458 -715h4l457 715h141v-1116h-135v881h-8l-446 -693h-33l-447 693h-8v-881h-131z" />
<glyph horiz-adv-x="1576" d="M262 0v1116h125l789 -901h2v901h137v-1116h-127l-789 899h-2v-899h-135z" />
<glyph horiz-adv-x="1601" d="M156 559q0 160 85 295t233 214t325 79t326.5 -79t236 -214t86.5 -295q0 -161 -86.5 -297.5t-236 -215.5t-326.5 -79q-133 0 -252 46.5t-205 126t-136 189t-50 230.5zM297 559q0 -127 66.5 -235.5t182 -172t253.5 -63.5q211 0 359.5 138.5t148.5 332.5q0 126 -67.5 233.5 t-184.5 170.5t-256 63q-138 0 -253.5 -63t-182 -170.5t-66.5 -233.5z" />
<glyph horiz-adv-x="1431" d="M262 0v1116h633q113 0 192 -26.5t140 -85.5q90 -90 90 -216q0 -121 -92 -213q-61 -59 -137.5 -85.5t-194.5 -26.5h-496v-463h-135zM397 582h494q87 0 138 17t93 56q58 58 58 133t-52 127q-43 44 -98 62t-135 18h-498v-413z" />
<glyph horiz-adv-x="1601" d="M156 559q0 160 85 295t233 214t325 79t326.5 -79t236 -214t86.5 -295q0 -157 -82 -289.5t-221 -212.5l168 -225l-133 -41l-158 211q-122 -35 -223 -35q-133 0 -252 46.5t-205 126t-136 189t-50 230.5zM297 559q0 -127 66.5 -235.5t182 -172t253.5 -63.5q75 0 143 18 l-168 226l133 41l160 -215q109 64 174.5 170.5t65.5 230.5q0 126 -67.5 233.5t-184.5 170.5t-256 63q-138 0 -253.5 -63t-182 -170.5t-66.5 -233.5z" />
<glyph horiz-adv-x="1513" d="M262 0v1116h651q121 0 199.5 -29.5t136.5 -87.5q88 -91 88 -211q0 -117 -77.5 -200.5t-206.5 -106.5l295 -481h-156l-281 463h-514v-463h-135zM397 584h559q107 0 176.5 59t69.5 145q0 75 -55 130q-43 43 -95.5 60t-138.5 17h-516v-411z" />
<glyph horiz-adv-x="1421" d="M133 199l84 96q46 -40 91 -71.5t111.5 -65.5t151.5 -53t179 -19q111 0 198 24t142 77t55 128q0 43 -15.5 76t-46 55t-65 37t-85.5 24t-93 13t-101 8q-220 14 -314 38q-193 51 -221 195q-5 25 -5 54q0 73 29 131t75.5 95t109.5 61.5t126.5 34.5t130.5 10q164 0 304.5 -51 t223.5 -115l-84 -94q-66 56 -183 98.5t-267 42.5q-85 0 -156 -18.5t-121.5 -65.5t-50.5 -117q0 -42 22 -71.5t56 -46t86.5 -27t101.5 -14.5t114 -8q15 -1 23 -1q204 -12 302 -41q241 -70 241 -284q0 -93 -42.5 -165t-117 -115t-169.5 -65t-205 -22q-107 0 -203 20t-172 56.5 t-130.5 72.5t-109.5 83z" />
<glyph horiz-adv-x="1224" d="M84 995v121h1057v-121h-459v-995h-137v995h-461z" />
<glyph horiz-adv-x="1515" d="M238 385v731h135v-731q0 -137 108.5 -217t276.5 -80q169 0 277 79.5t108 217.5v731h135v-731q0 -129 -68.5 -225t-185.5 -144.5t-266 -48.5t-266 48.5t-185.5 144.5t-68.5 225z" />
<glyph horiz-adv-x="1421" d="M90 1116h156l463 -956h12l463 956h145l-553 -1116h-131z" />
<glyph horiz-adv-x="1900" d="M117 1116h151l307 -934h11l313 934h109l315 -934h8l309 934h144l-383 -1116h-144l-301 883h-10l-301 -883h-143z" />
<glyph horiz-adv-x="1368" d="M90 0l510 578l-459 538h174l373 -442l383 442h164l-467 -532l502 -584h-172l-416 489l-426 -489h-166z" />
<glyph horiz-adv-x="1271" d="M80 1116h172l389 -469l391 469h160l-487 -592v-524h-138v524z" />
<glyph horiz-adv-x="1318" d="M125 0v86l838 909h-779v121h975v-88l-840 -907h848v-121h-1042z" />
<glyph horiz-adv-x="1531" d="M137 319q0 76 27.5 136.5t78 101.5t103.5 67t121 48q-100 103 -100 202q0 121 111 196t263 75q166 0 332 -92l-67 -105q-127 76 -267 76q-99 0 -168 -40.5t-69 -106.5q0 -18 7 -38t16.5 -37t27.5 -38.5t30.5 -35.5t35 -35t33 -30l31.5 -27t24 -20l356 -313 q109 90 227 252l109 -57q-118 -160 -250 -273l258 -225h-178l-174 152q-129 -93 -253.5 -136t-228.5 -43q-72 0 -144.5 19t-140 58t-109.5 109t-42 160zM274 322q0 -61 30 -107.5t79 -71.5t100 -37t103 -12q184 0 381 133l-363 318l-49 43q-47 -16 -73.5 -26t-71.5 -34 t-70.5 -49t-45.5 -66.5t-20 -90.5z" />
<glyph horiz-adv-x="1421" d="M92 0l553 1116h131l553 -1116h-149l-170 346h-607l-167 -346h-144zM457 455h499l-243 499h-11zM578 1270l268 241l168 -8l-320 -241z" />
<glyph horiz-adv-x="1421" d="M92 0l553 1116h131l553 -1116h-149l-170 346h-607l-167 -346h-144zM406 1503l169 8l269 -241l-119 -8zM457 455h499l-243 499h-11z" />
<glyph horiz-adv-x="1421" d="M92 0l553 1116h131l553 -1116h-149l-170 346h-607l-167 -346h-144zM416 1270l225 243h139l224 -243l-101 -8l-192 174l-195 -174zM457 455h499l-243 499h-11z" />
<glyph horiz-adv-x="1421" d="M92 0l553 1116h131l553 -1116h-149l-170 346h-607l-167 -346h-144zM430 1370q0 33 23.5 55.5t58.5 22.5t59.5 -23t24.5 -55t-24.5 -54t-59.5 -22t-58.5 22t-23.5 54zM457 455h499l-243 499h-11zM825 1370q0 33 23.5 55.5t58.5 22.5t59.5 -23t24.5 -55t-24.5 -54 t-59.5 -22t-58.5 22t-23.5 54z" />
<glyph horiz-adv-x="1421" d="M92 0l553 1116h131l553 -1116h-149l-170 346h-607l-167 -346h-144zM383 1317q46 75 90.5 111t99.5 36q35 0 65.5 -14.5t74.5 -46.5q73 -57 118 -57q23 0 46 16t36 32.5t35 47.5l80 -45q-89 -148 -190 -148q-71 0 -146 56q-3 2 -13 10l-12.5 10t-11 8.5t-12 8.5t-10.5 6.5 t-10.5 6t-10 4.5t-11 4t-10.5 2t-11 1q-22 0 -44.5 -16.5t-35 -32.5t-33.5 -47zM457 455h499l-243 499h-11z" />
<glyph horiz-adv-x="1421" d="M92 0l553 1116h131l553 -1116h-149l-170 346h-607l-167 -346h-144zM457 455h499l-243 499h-11zM475 1368q0 83 62.5 139t167.5 56q107 0 171 -56.5t64 -138.5q0 -80 -64 -134t-171 -54q-106 0 -168 53.5t-62 134.5zM555 1368q0 -56 42 -91.5t108 -35.5q68 0 110.5 35.5 t42.5 91.5q0 58 -42.5 95.5t-110.5 37.5q-66 0 -108 -38t-42 -95z" />
<glyph horiz-adv-x="1490" d="M154 557q0 119 49 227.5t134 188.5t206.5 127t259.5 47q153 0 295 -52.5t243 -140.5l-92 -92q-88 75 -206.5 119.5t-237.5 44.5q-218 0 -363 -137t-145 -332q0 -127 65.5 -234.5t184 -171t264.5 -63.5q134 0 255.5 53t213.5 140l92 -91q-107 -97 -248 -158.5t-303 -64.5 l-37 -104q58 16 99 16q78 0 136 -39t58 -116q0 -87 -88.5 -137t-228.5 -50q-109 0 -301 49l22 74q181 -43 275 -43q92 0 148.5 28t56.5 79q0 48 -35 68t-86 20q-30 0 -113 -19l-41 45l49 133q-168 15 -301.5 97.5t-206.5 211t-73 277.5z" />
<glyph horiz-adv-x="1372" d="M262 0v1116h952v-121h-817v-346h496v-121h-496v-407h856v-121h-991zM602 1270l268 241l168 -8l-319 -241z" />
<glyph horiz-adv-x="1372" d="M262 0v1116h952v-121h-817v-346h496v-121h-496v-407h856v-121h-991zM430 1503l170 8l268 -241l-118 -8z" />
<glyph horiz-adv-x="1372" d="M262 0v1116h952v-121h-817v-346h496v-121h-496v-407h856v-121h-991zM440 1270l226 243h139l223 -243l-100 -8l-193 174l-194 -174z" />
<glyph horiz-adv-x="1372" d="M262 0v1116h952v-121h-817v-346h496v-121h-496v-407h856v-121h-991zM455 1370q0 33 23.5 55.5t58.5 22.5t59.5 -23t24.5 -55t-24.5 -54t-59.5 -22t-58.5 22t-23.5 54zM850 1370q0 33 23.5 55.5t58.5 22.5t59.5 -23t24.5 -55t-24.5 -54t-59.5 -22t-58.5 22t-23.5 54z" />
<glyph horiz-adv-x="659" d="M197 1270l268 241l168 -8l-320 -241zM262 0v1116h135v-1116h-135z" />
<glyph horiz-adv-x="659" d="M25 1503l170 8l268 -241l-119 -8zM262 0v1116h135v-1116h-135z" />
<glyph horiz-adv-x="659" d="M35 1270l227 243h137l226 -243l-103 -8l-192 174l-193 -174zM262 0v1116h135v-1116h-135z" />
<glyph horiz-adv-x="659" d="M49 1370q0 33 23.5 55.5t58.5 22.5q36 0 60 -22.5t24 -55.5q0 -32 -24 -54t-60 -22q-35 0 -58.5 22t-23.5 54zM262 0v1116h135v-1116h-135zM444 1370q0 33 23.5 55.5t58.5 22.5q36 0 60 -22.5t24 -55.5q0 -32 -24 -54t-60 -22q-35 0 -58.5 22t-23.5 54z" />
<glyph horiz-adv-x="659" d="M248 1370q0 33 23.5 55.5t58.5 22.5q36 0 60 -22.5t24 -55.5q0 -32 -24 -54t-60 -22q-35 0 -58.5 22t-23.5 54zM262 0v1116h135v-1116h-135z" />
<glyph horiz-adv-x="1576" d="M262 0v1116h125l789 -901h2v901h137v-1116h-127l-789 899h-2v-899h-135zM459 1317q46 75 90.5 111t99.5 36q35 0 64.5 -14.5t74.5 -46.5q73 -57 119 -57q23 0 46 16t36 32.5t35 47.5l80 -45q-89 -148 -191 -148q-70 0 -145 56q-62 48 -85 56q-15 5 -28 5q-22 0 -44.5 -17 t-34 -32t-33.5 -47z" />
<glyph horiz-adv-x="1601" d="M156 559q0 160 85 295t233 214t325 79t326.5 -79t236 -214t86.5 -295q0 -161 -86.5 -297.5t-236 -215.5t-326.5 -79q-133 0 -252 46.5t-205 126t-136 189t-50 230.5zM297 559q0 -127 66.5 -235.5t182 -172t253.5 -63.5q211 0 359.5 138.5t148.5 332.5q0 126 -67.5 233.5 t-184.5 170.5t-256 63q-138 0 -253.5 -63t-182 -170.5t-66.5 -233.5zM668 1270l268 241l168 -8l-320 -241z" />
<glyph horiz-adv-x="1601" d="M156 559q0 160 85 295t233 214t325 79t326.5 -79t236 -214t86.5 -295q0 -161 -86.5 -297.5t-236 -215.5t-326.5 -79q-133 0 -252 46.5t-205 126t-136 189t-50 230.5zM297 559q0 -127 66.5 -235.5t182 -172t253.5 -63.5q211 0 359.5 138.5t148.5 332.5q0 126 -67.5 233.5 t-184.5 170.5t-256 63q-138 0 -253.5 -63t-182 -170.5t-66.5 -233.5zM496 1503l170 8l268 -241l-119 -8z" />
<glyph horiz-adv-x="1601" d="M156 559q0 160 85 295t233 214t325 79t326.5 -79t236 -214t86.5 -295q0 -161 -86.5 -297.5t-236 -215.5t-326.5 -79q-133 0 -252 46.5t-205 126t-136 189t-50 230.5zM297 559q0 -127 66.5 -235.5t182 -172t253.5 -63.5q211 0 359.5 138.5t148.5 332.5q0 126 -67.5 233.5 t-184.5 170.5t-256 63q-138 0 -253.5 -63t-182 -170.5t-66.5 -233.5zM506 1270l225 243h139l224 -243l-101 -8l-192 174l-195 -174z" />
<glyph horiz-adv-x="1601" d="M156 559q0 160 85 295t233 214t325 79t326.5 -79t236 -214t86.5 -295q0 -161 -86.5 -297.5t-236 -215.5t-326.5 -79q-133 0 -252 46.5t-205 126t-136 189t-50 230.5zM297 559q0 -127 66.5 -235.5t182 -172t253.5 -63.5q211 0 359.5 138.5t148.5 332.5q0 126 -67.5 233.5 t-184.5 170.5t-256 63q-138 0 -253.5 -63t-182 -170.5t-66.5 -233.5zM520 1370q0 33 23.5 55.5t58.5 22.5t59.5 -23t24.5 -55t-24.5 -54t-59.5 -22t-58.5 22t-23.5 54zM915 1370q0 33 23.5 55.5t58.5 22.5t59.5 -23t24.5 -55t-24.5 -54t-59.5 -22t-58.5 22t-23.5 54z" />
<glyph horiz-adv-x="1601" d="M156 559q0 160 85 295t233 214t325 79t326.5 -79t236 -214t86.5 -295q0 -161 -86.5 -297.5t-236 -215.5t-326.5 -79q-133 0 -252 46.5t-205 126t-136 189t-50 230.5zM297 559q0 -127 66.5 -235.5t182 -172t253.5 -63.5q211 0 359.5 138.5t148.5 332.5q0 126 -67.5 233.5 t-184.5 170.5t-256 63q-138 0 -253.5 -63t-182 -170.5t-66.5 -233.5zM473 1317q46 75 91 111t100 36q35 0 64.5 -14.5t74.5 -46.5q73 -57 119 -57q17 0 33 7.5t32 24t25 28.5t26 36l80 -45q-89 -148 -190 -148q-71 0 -146 56q-3 2 -13 10l-12.5 10t-11 8.5t-12 8.5 t-10.5 6.5t-10.5 6t-10 4.5t-11 4t-10.5 2t-11 1q-22 0 -44.5 -16.5t-35 -32.5t-33.5 -47z" />
<glyph horiz-adv-x="1601" d="M156 559q0 160 85 295t233 214t325 79q157 0 299 -66l112 160l90 -63l-106 -152q118 -83 186 -205.5t68 -261.5q0 -161 -86.5 -297.5t-236 -215.5t-326.5 -79q-157 0 -299 66l-111 -158l-90 64l104 151q-116 83 -181.5 205t-65.5 264zM297 559q0 -107 47.5 -202 t132.5 -162l549 782q-111 49 -227 49q-138 0 -253.5 -63t-182 -170.5t-66.5 -233.5zM573 137q107 -49 226 -49q211 0 359.5 138.5t148.5 332.5q0 106 -50 200.5t-137 160.5z" />
<glyph horiz-adv-x="1515" d="M238 385v731h135v-731q0 -137 108.5 -217t276.5 -80q169 0 277 79.5t108 217.5v731h135v-731q0 -129 -68.5 -225t-185.5 -144.5t-266 -48.5t-266 48.5t-185.5 144.5t-68.5 225zM625 1270l268 241l168 -8l-320 -241z" />
<glyph horiz-adv-x="1515" d="M238 385v731h135v-731q0 -137 108.5 -217t276.5 -80q169 0 277 79.5t108 217.5v731h135v-731q0 -129 -68.5 -225t-185.5 -144.5t-266 -48.5t-266 48.5t-185.5 144.5t-68.5 225zM453 1503l170 8l268 -241l-119 -8z" />
<glyph horiz-adv-x="1515" d="M238 385v731h135v-731q0 -137 108.5 -217t276.5 -80q169 0 277 79.5t108 217.5v731h135v-731q0 -129 -68.5 -225t-185.5 -144.5t-266 -48.5t-266 48.5t-185.5 144.5t-68.5 225zM463 1270l225 243h139l224 -243l-101 -8l-192 174l-195 -174z" />
<glyph horiz-adv-x="1515" d="M238 385v731h135v-731q0 -137 108.5 -217t276.5 -80q169 0 277 79.5t108 217.5v731h135v-731q0 -129 -68.5 -225t-185.5 -144.5t-266 -48.5t-266 48.5t-185.5 144.5t-68.5 225zM477 1370q0 33 23.5 55.5t58.5 22.5t59.5 -23t24.5 -55t-24.5 -54t-59.5 -22t-58.5 22 t-23.5 54zM872 1370q0 33 23.5 55.5t58.5 22.5t59.5 -23t24.5 -55t-24.5 -54t-59.5 -22t-58.5 22t-23.5 54z" />
<glyph horiz-adv-x="1271" d="M80 1116h172l389 -469l391 469h160l-487 -592v-524h-138v524zM502 1270l268 241l168 -8l-320 -241z" />
<glyph horiz-adv-x="1271" d="M80 1116h172l389 -469l391 469h160l-487 -592v-524h-138v524zM354 1370q0 33 23.5 55.5t58.5 22.5t59.5 -23t24.5 -55t-24.5 -54t-59.5 -22t-58.5 22t-23.5 54zM750 1370q0 33 23 55.5t58 22.5t59.5 -23t24.5 -55t-24.5 -54t-59.5 -22t-58 22t-23 54z" />
<glyph horiz-adv-x="1609" d="M131 528v109h182v479h506q167 0 275.5 -42.5t199.5 -127.5q156 -156 156 -389q0 -115 -41 -216.5t-119 -176.5q-89 -82 -198 -123t-273 -41h-506v528h-182zM451 121h362q131 0 212.5 31.5t154.5 95.5q127 121 127 309q0 181 -121 305q-72 67 -155.5 100t-217.5 33h-362 v-358h391v-109h-391v-407z" />
<glyph horiz-adv-x="1460" d="M262 0v1116h135v-223h521q113 0 191.5 -27t139.5 -88q90 -90 90 -219q0 -127 -94 -221q-62 -59 -137.5 -85t-194.5 -26h-516v-227h-135zM397 346h516q86 0 137 16.5t93 53.5q59 59 59 143q0 82 -53 135q-45 43 -98.5 60.5t-132.5 17.5h-521v-426z" />
<glyph horiz-adv-x="2029" d="M18 0l871 1116h983v-121h-815v-350h493v-121h-493v-403h854v-121h-989v346h-480l-272 -346h-152zM518 455h404v499h-9z" />
<glyph horiz-adv-x="2437" d="M154 559q0 160 85.5 294.5t234 213t325.5 78.5q174 0 316 -71.5t212 -205.5v248h950v-121h-815v-350h496v-121h-496v-403h856v-121h-991v248q-70 -133 -212 -205t-316 -72q-177 0 -325.5 78t-234 213.5t-85.5 296.5zM297 559q0 -194 146 -330.5t356 -136.5 q145 0 266.5 62.5t191.5 170t70 234.5q0 126 -70 233t-191.5 169.5t-266.5 62.5q-138 0 -253.5 -62.5t-182 -169.5t-66.5 -233z" />
<glyph horiz-adv-x="2842" d="M133 199l84 96q46 -40 91 -71.5t111.5 -65.5t151.5 -53t179 -19q111 0 198 24t142 77t55 128q0 43 -15.5 76t-46 55t-65 37t-85.5 24t-93 13t-101 8q-220 14 -314 38q-193 51 -221 195q-5 25 -5 54q0 73 29 131t75.5 95t109.5 61.5t126.5 34.5t130.5 10q164 0 304.5 -51 t223.5 -115l-84 -94q-66 56 -183 98.5t-267 42.5q-85 0 -156 -18.5t-121.5 -65.5t-50.5 -117q0 -42 22 -71.5t56 -46t86.5 -27t101.5 -14.5t114 -8q15 -1 23 -1q204 -12 302 -41q241 -70 241 -284q0 -93 -42.5 -165t-117 -115t-169.5 -65t-205 -22q-107 0 -203 20t-172 56.5 t-130.5 72.5t-109.5 83zM1554 199l84 96q46 -40 91 -71.5t111.5 -65.5t151.5 -53t179 -19q111 0 198 24t142 77t55 128q0 43 -15 76t-46 55t-65.5 37t-85.5 24t-92.5 13t-100.5 8q-220 14 -314 38q-194 51 -222 194q-5 27 -5 55q0 73 29 131t75.5 95t109.5 61.5t126.5 34.5 t130.5 10q164 0 304.5 -51t223.5 -115l-84 -94q-66 56 -183 98.5t-267 42.5q-85 0 -156 -18.5t-121.5 -65.5t-50.5 -117q0 -42 22 -71.5t56 -46t87 -27t102 -14.5t114 -8q15 -1 23 -1q203 -12 301 -40q240 -72 241 -285q0 -93 -42.5 -165t-117 -115t-169.5 -65t-205 -22 q-107 0 -203 20t-172 56.5t-130.5 72.5t-109.5 83z" />
<glyph horiz-adv-x="567" d="M131 1038q0 43 32 73t79 30t79.5 -30t32.5 -73q0 -42 -32.5 -72t-79.5 -30t-79 30t-32 72zM168 106l27 613h92l28 -613v-323h-147v323z" />
<glyph horiz-adv-x="1214" d="M119 72q0 88 39.5 146.5t117.5 117.5q35 27 92.5 65.5t95 66t78.5 65.5t66 84t33 102h123q-4 -60 -25.5 -113.5t-50 -90.5t-72 -75t-80 -62.5t-87 -58.5t-80.5 -57q-66 -46 -96.5 -85.5t-30.5 -100.5q0 -56 26.5 -98.5t73 -66t102.5 -35t121 -11.5q105 0 192 27.5 t143.5 67.5t117.5 103l88 -79q-71 -73 -137.5 -119.5t-171.5 -78.5t-236 -32q-91 0 -166.5 16t-139.5 51.5t-100 99.5t-36 151zM565 1038q0 43 33 73t80 30t78.5 -30t31.5 -73q0 -42 -31.5 -72t-78.5 -30t-80 30t-33 72z" />
<glyph horiz-adv-x="659" d="M219 80q0 40 32 69t77 29q47 0 79.5 -29t32.5 -69q0 -41 -32.5 -70.5t-79.5 -29.5q-46 0 -77.5 29.5t-31.5 70.5zM256 846v270h147v-270l-28 -506h-90z" />
<glyph horiz-adv-x="1114" d="M111 946q65 64 123 103t151.5 66.5t210.5 27.5q80 0 147.5 -14t123.5 -43.5t88 -82.5t32 -126t-33.5 -123.5t-97.5 -94.5q-32 -24 -82 -55.5t-85 -54.5t-71.5 -54t-58.5 -69.5t-29 -85.5h-122q3 53 22 99t45.5 78.5t65.5 64.5t73 53t78 49t70 47q52 36 77 67t25 74 q0 81 -78 120.5t-194 39.5q-135 0 -224 -41.5t-171 -122.5zM385 80q0 40 31 69t78 29q45 0 76.5 -29t31.5 -69q0 -42 -31.5 -71t-76.5 -29q-47 0 -78 29t-31 71z" />
<glyph horiz-adv-x="665" d="M223 1036q0 41 33 70t80 29q46 0 77 -29t31 -70q0 -42 -31.5 -71t-76.5 -29q-47 0 -80 29.5t-33 70.5zM260 0v270l29 504h90l29 -504v-270h-148z" />
<glyph horiz-adv-x="1107" d="M125 240q0 73 33.5 122.5t97.5 94.5q32 24 82 55.5t85.5 54.5t72 54t58.5 69.5t28 85.5h123q-3 -53 -22 -99t-45 -78.5t-65.5 -64.5t-73 -53t-78.5 -49t-71 -47q-52 -36 -77 -67t-25 -74q0 -81 78 -120.5t194 -39.5q135 0 225.5 42t172.5 122l83 -78q-65 -64 -123 -103 t-151 -66.5t-209 -27.5q-81 0 -148.5 14t-124 44t-88.5 83t-32 126zM510 1036q0 42 32 71.5t79 29.5q45 0 76.5 -29.5t31.5 -71.5q0 -40 -31.5 -69t-76.5 -29q-47 0 -79 29t-32 69z" />
</font>
</defs>
</svg>
