<?xml version="1.0" standalone="no"?>
<!DOCTYPE svg PUBLIC "-//W3C//DTD SVG 1.1//EN" "http://www.w3.org/Graphics/SVG/1.1/DTD/svg11.dtd" >
<svg xmlns="http://www.w3.org/2000/svg" xmlns:xlink="http://www.w3.org/1999/xlink" version="1.1">
<metadata></metadata>
<defs>
<font id="sweet_sans_promedium" horiz-adv-x="1409" >
<font-face units-per-em="2048" ascent="1577" descent="-471" />
<missing-glyph horiz-adv-x="460" />
<glyph unicode="&#xfb00;" horiz-adv-x="1443" d="M76 823v166h182v180q0 77 26 135t69 90t91.5 47t100.5 15q57 0 122 -14.5t95 -32.5l-39 -176q-19 13 -62.5 25t-74.5 12q-54 0 -85.5 -27t-31.5 -74v-180h479v180q0 77 26 135t69 90t91.5 47t100.5 15q57 0 122 -14.5t95 -32.5l-39 -176q-19 13 -62.5 25t-74.5 12 q-54 0 -85.5 -27t-31.5 -74v-180h260v-166h-260v-823h-211v823h-479v-823h-211v823h-182z" />
<glyph unicode="&#xfb01;" horiz-adv-x="1320" d="M76 823v166h182v180q0 77 26 135t69 90t91.5 47t100.5 15q57 0 122 -14.5t95 -32.5l-39 -176q-19 13 -62.5 25t-74.5 12q-54 0 -85.5 -27t-31.5 -74v-180h260v-166h-260v-823h-211v823h-182zM907 1311q0 51 38 87t95 36q56 0 96 -36.5t40 -86.5q0 -51 -39.5 -86 t-96.5 -35t-95 35t-38 86zM936 0v989h211v-989h-211z" />
<glyph unicode="&#xfb02;" horiz-adv-x="1343" d="M76 823v166h182v180q0 77 26 135t69 90t91.5 47t100.5 15q57 0 122 -14.5t95 -32.5l-39 -176q-19 13 -62.5 25t-74.5 12q-54 0 -85.5 -27t-31.5 -74v-180h260v-166h-260v-823h-211v823h-182zM946 0v1434h211v-1434h-211z" />
<glyph unicode="&#xfb03;" horiz-adv-x="2011" d="M76 823v166h182v180q0 77 26 135t69 90t91.5 47t100.5 15q57 0 122 -14.5t95 -32.5l-39 -176q-19 13 -62.5 25t-74.5 12q-54 0 -85.5 -27t-31.5 -74v-180h479v180q0 77 26 135t69 90t91.5 47t100.5 15q57 0 122 -14.5t95 -32.5l-39 -176q-19 13 -62.5 25t-74.5 12 q-54 0 -85.5 -27t-31.5 -74v-180h260v-166h-260v-823h-211v823h-479v-823h-211v823h-182zM1597 1311q0 51 38.5 87t95.5 36q56 0 95.5 -36.5t39.5 -86.5q0 -51 -39 -86t-96 -35t-95.5 35t-38.5 86zM1626 0v989h211v-989h-211z" />
<glyph unicode="&#xfb04;" horiz-adv-x="2033" d="M76 823v166h182v180q0 77 26 135t69 90t91.5 47t100.5 15q57 0 122 -14.5t95 -32.5l-39 -176q-19 13 -62.5 25t-74.5 12q-54 0 -85.5 -27t-31.5 -74v-180h479v180q0 77 26 135t69 90t91.5 47t100.5 15q57 0 122 -14.5t95 -32.5l-39 -176q-19 13 -62.5 25t-74.5 12 q-54 0 -85.5 -27t-31.5 -74v-180h260v-166h-260v-823h-211v823h-479v-823h-211v823h-182zM1636 0v1434h211v-1434h-211z" />
<glyph unicode="fj" horiz-adv-x="1320" d="M76 823v166h182v180q0 77 26 135t69 90t91.5 47t100.5 15q57 0 122 -14.5t95 -32.5l-39 -176q-19 13 -62.5 25t-74.5 12q-54 0 -85.5 -27t-31.5 -74v-180h260v-166h-260v-823h-211v823h-182zM745 -299q34 7 55.5 14t50 22t45 35t28.5 54t12 78v1085h211v-1085 q0 -97 -31.5 -171.5t-83 -116t-108.5 -61.5t-117 -20zM907 1311q0 51 38 87t95 36q56 0 96 -36.5t40 -86.5q0 -51 -39.5 -86t-96.5 -35t-95 35t-38 86z" />
<glyph unicode="ffj" horiz-adv-x="2011" d="M76 823v166h182v180q0 77 26 135t69 90t91.5 47t100.5 15q57 0 122 -14.5t95 -32.5l-39 -176q-19 13 -62.5 25t-74.5 12q-54 0 -85.5 -27t-31.5 -74v-180h479v180q0 77 26 135t69 90t91.5 47t100.5 15q57 0 122 -14.5t95 -32.5l-39 -176q-19 13 -62.5 25t-74.5 12 q-54 0 -85.5 -27t-31.5 -74v-180h260v-166h-260v-823h-211v823h-479v-823h-211v823h-182zM1436 -299q33 7 55 14t50 22t44.5 35t28.5 54t12 78v1085h211v-1085q0 -97 -31.5 -171.5t-83 -116t-108.5 -61.5t-117 -20zM1597 1311q0 51 38.5 87t95.5 36q56 0 95.5 -36.5 t39.5 -86.5q0 -51 -39 -86t-96 -35t-95.5 35t-38.5 86z" />
<glyph unicode="ft" horiz-adv-x="1492" d="M76 823v166h182v180q0 77 26 135t69 90t91.5 47t100.5 15q57 0 122 -14.5t95 -32.5l-39 -176q-19 13 -62.5 25t-74.5 12q-54 0 -85.5 -27t-31.5 -74v-180h494v293h211v-293h260v-166h-260v-577q0 -49 30.5 -75t85.5 -26q31 0 78 5.5t66 11.5l20 -166q-25 -16 -87.5 -26.5 t-117.5 -10.5q-41 0 -80 9t-77 30.5t-66 53.5t-45.5 82t-17.5 112v577h-494v-823h-211v823h-182z" />
<glyph unicode="fft" horiz-adv-x="2183" d="M76 823v166h182v180q0 77 26 135t69 90t91.5 47t100.5 15q57 0 122 -14.5t95 -32.5l-39 -176q-19 13 -62.5 25t-74.5 12q-54 0 -85.5 -27t-31.5 -74v-180h479v180q0 77 26 135t69 90t91.5 47t100.5 15q57 0 122 -14.5t95 -32.5l-39 -176q-19 13 -62.5 25t-74.5 12 q-54 0 -85.5 -27t-31.5 -74v-180h494v293h211v-293h260v-166h-260v-577q0 -49 30.5 -75t85.5 -26q31 0 78 5.5t66 11.5l20 -166q-25 -16 -87.5 -26.5t-117.5 -10.5q-41 0 -80 9t-77 30.5t-66 53.5t-45.5 82t-17.5 112v577h-494v-823h-211v823h-479v-823h-211v823h-182z" />
<glyph unicode="tt" horiz-adv-x="1562" d="M55 823v166h185v293h211v-293h544v293h211v-293h260v-166h-260v-577q0 -49 31 -75t86 -26q31 0 77.5 5.5t65.5 11.5l21 -166q-25 -16 -87.5 -26.5t-117.5 -10.5q-52 0 -100.5 15t-91.5 47t-69 90t-26 135v577h-544v-577q0 -49 30.5 -75t85.5 -26q31 0 78 5.5t66 11.5 l20 -166q-25 -16 -87.5 -26.5t-117.5 -10.5q-41 0 -80 9t-77 30.5t-66 53.5t-45.5 82t-17.5 112v577h-185z" />
<glyph horiz-adv-x="501" />
<glyph horiz-adv-x="501" />
<glyph horiz-adv-x="682" />
<glyph unicode="&#xd;" horiz-adv-x="501" />
<glyph unicode=" "  horiz-adv-x="460" />
<glyph unicode="&#x09;" horiz-adv-x="460" />
<glyph unicode="&#xa0;" horiz-adv-x="460" />
<glyph unicode="!" horiz-adv-x="636" d="M156 117q0 62 46.5 105.5t114.5 43.5q69 0 116.5 -43.5t47.5 -105.5t-47.5 -105t-116.5 -43t-115 43t-46 105zM193 1014v323h249v-323l-51 -584h-147z" />
<glyph unicode="&#x22;" horiz-adv-x="1028" d="M129 1110v227h229v-227l-51 -336h-127zM670 1110v227h229v-227l-51 -336h-127z" />
<glyph unicode="#" horiz-adv-x="1826" d="M104 221v164h431l65 354h-379v162h408l67 363h170l-67 -363h346l67 363h170l-67 -363h405v-162h-434l-65 -354h381v-164h-412l-76 -418h-170l76 418h-346l-76 -418h-170l76 418h-400zM705 385h346l65 354h-346z" />
<glyph unicode="$" horiz-adv-x="1470" d="M98 205l131 147q194 -157 428 -192v360q-71 6 -124 14.5t-113.5 23.5t-102.5 38t-78.5 56t-54.5 81t-18 109q0 79 29.5 142t77 102.5t113 66t132 37.5t139.5 12v189h154v-197q149 -17 276 -65.5t211 -106.5l-131 -152q-52 46 -143 83t-213 53v-289q54 -3 100 -8 t102.5 -16.5t101 -28.5t89 -45t74 -63.5t47.5 -87t18 -114.5q0 -101 -41.5 -178t-115.5 -122.5t-167.5 -68t-207.5 -24.5v-246h-154v254q-312 35 -559 236zM383 862q0 -114 274 -137v289q-274 -4 -274 -152zM811 150q143 2 231 45t88 129q0 90 -78.5 129.5t-240.5 54.5v-358 z" />
<glyph unicode="%" horiz-adv-x="2150" d="M106 913q0 147 117 252t283 105t285.5 -105.5t119.5 -251.5q0 -147 -119.5 -252.5t-285.5 -105.5q-167 0 -283.5 105t-116.5 253zM303 913q0 -75 59.5 -129.5t143.5 -54.5q86 0 147.5 54.5t61.5 129.5t-61.5 129t-147.5 54q-84 0 -143.5 -54t-59.5 -129zM618 0l738 1239 h180l-735 -1239h-183zM1243 328q0 145 117 250.5t282 105.5q166 0 286 -105.5t120 -250.5q0 -149 -120 -254t-286 -105t-282.5 105t-116.5 254zM1440 328q0 -76 59 -130.5t143 -54.5q86 0 147.5 55t61.5 130t-61.5 128.5t-147.5 53.5q-84 0 -143 -53.5t-59 -128.5z" />
<glyph unicode="&#x26;" horiz-adv-x="1591" d="M168 362q0 278 311 400q-67 98 -67 196q0 101 54.5 179.5t141.5 118.5t191 40q176 0 375 -118l-115 -181q-127 95 -264 95q-70 0 -112 -37t-42 -90q0 -24 13.5 -54.5t30.5 -56t47 -59t48.5 -52.5t50 -49.5t37.5 -36.5l244 -243q113 113 223 293l185 -95 q-133 -198 -271 -336l281 -276h-301l-142 137q-230 -168 -456 -168q-87 0 -167.5 24t-147.5 70.5t-107.5 124t-40.5 174.5zM397 375q0 -98 76 -149.5t178 -51.5q138 0 297 102l-260 259l-82 79q-42 -17 -73.5 -34t-65.5 -45t-52 -68.5t-18 -91.5z" />
<glyph unicode="'" horiz-adv-x="487" d="M129 1110v227h229v-227l-51 -336h-127z" />
<glyph unicode="(" horiz-adv-x="811" d="M92 541q0 287 144.5 519.5t404.5 364.5l115 -139q-198 -107 -316 -306.5t-118 -438.5q0 -240 118 -438.5t316 -305.5l-115 -139q-260 132 -404.5 364t-144.5 519z" />
<glyph unicode=")" horiz-adv-x="811" d="M55 -203q198 107 316 305.5t118 438.5q0 239 -118 438.5t-316 306.5l115 139q260 -132 404.5 -364.5t144.5 -519.5t-144.5 -519t-404.5 -364z" />
<glyph unicode="*" horiz-adv-x="1185" d="M106 1020l52 154l338 -95l16 355h164l18 -353l334 93l51 -152l-331 -125l194 -293l-127 -96l-223 274l-221 -274l-127 96l194 293z" />
<glyph unicode="+" horiz-adv-x="1550" d="M184 436v189h488v407h207v-407h485v-189h-485v-407h-207v407h-488z" />
<glyph unicode="," horiz-adv-x="634" d="M76 -256q41 11 86.5 32t88.5 51t71 69.5t28 80.5v17q-40 -10 -57 -10q-69 0 -115.5 40.5t-46.5 100.5q0 59 46.5 100t115.5 41q89 0 156 -66t67 -165q0 -74 -24.5 -137.5t-62 -108t-90 -81.5t-100 -59t-100.5 -40z" />
<glyph unicode="-" horiz-adv-x="800" d="M137 418v209h527v-209h-527z" />
<glyph unicode="." horiz-adv-x="585" d="M129 117q0 62 46.5 105.5t115.5 43.5t116.5 -43.5t47.5 -105.5t-47.5 -105t-116.5 -43t-115.5 43t-46.5 105z" />
<glyph unicode="/" horiz-adv-x="1095" d="M90 -244l703 1581h208l-702 -1581h-209z" />
<glyph unicode="0" horiz-adv-x="1495" d="M104 582q0 127 51.5 242.5t137.5 198t204.5 131t247.5 48.5q173 0 321.5 -82t236.5 -225.5t88 -312.5q0 -170 -88 -313.5t-236.5 -225.5t-321.5 -82t-320 82t-234 225t-87 314zM332 582q0 -172 121 -296t292 -124q170 0 294 124t124 296q0 112 -56.5 209t-153 153.5 t-208.5 56.5q-171 0 -292 -123.5t-121 -295.5z" />
<glyph unicode="1" horiz-adv-x="817" d="M41 1014l340 149h227v-1163h-227v956l-291 -127z" />
<glyph unicode="2" horiz-adv-x="1234" d="M121 0v172q0 361 506 498q264 67 264 196q0 68 -70.5 101.5t-169.5 33.5q-121 0 -209 -43.5t-186 -128.5l-133 160q64 51 108 81t110 64.5t141.5 51t162.5 16.5q72 0 139.5 -12t128.5 -38t106.5 -64t72 -93.5t26.5 -122.5q0 -41 -10 -78.5t-24 -67t-40 -57t-48 -46.5 t-59 -39.5t-61 -32t-66 -26.5t-62 -21.5t-62 -18.5t-53 -16q-66 -21 -112 -42t-88 -53t-63.5 -77.5t-21.5 -103.5v-13h744v-180h-971z" />
<glyph unicode="3" horiz-adv-x="1388" d="M61 205l140 160q196 -203 475 -203q161 0 268 59t107 160q0 41 -22.5 70.5t-59.5 43.5t-73 19.5t-75 5.5h-207v182h183q68 0 116 38t48 98q0 57 -39.5 95.5t-92.5 53t-114 14.5q-111 0 -218.5 -53.5t-193.5 -134.5l-139 139q266 250 555 250q63 0 125.5 -10.5t126 -35 t111.5 -61t78 -93t30 -125.5q0 -83 -43.5 -146.5t-93.5 -85.5q37 -9 72.5 -27t71.5 -49.5t58.5 -84t22.5 -117.5q0 -127 -81.5 -221t-216.5 -140.5t-304 -46.5q-372 0 -615 246z" />
<glyph unicode="4" horiz-adv-x="1458" d="M66 256v158l886 749h199v-727h225v-180h-225v-256h-229v256h-856zM410 436h512v432h-19l-493 -426v-6z" />
<glyph unicode="5" horiz-adv-x="1349" d="M80 143l119 160q202 -141 463 -141q71 0 133.5 12t116.5 37t86 69.5t32 104.5q0 89 -81 138.5t-193 49.5q-127 0 -223 -28.5t-201 -81.5l-139 100v600h921v-202h-717v-299q73 38 109 54.5t107 34t149 17.5q94 0 181.5 -24t158 -70t113 -120.5t42.5 -166.5 q0 -91 -34.5 -165t-92 -122t-135.5 -80.5t-161.5 -46.5t-174.5 -14q-321 0 -579 184z" />
<glyph unicode="6" horiz-adv-x="1392" d="M109 563q0 146 54 268t146 202.5t212.5 124.5t254.5 44q246 0 455 -119l-119 -159q-141 77 -342 77q-115 0 -214 -45.5t-165 -137t-76 -212.5q236 160 494 160q118 0 212.5 -32.5t151.5 -86.5t87 -118.5t30 -133.5q0 -187 -148.5 -310.5t-381.5 -123.5q-101 0 -195.5 24 t-177 74t-144.5 120t-98 169t-36 215zM334 438q42 -131 159.5 -203.5t270.5 -72.5q128 0 213.5 71t85.5 166q0 71 -69 127t-206 56q-212 0 -454 -144z" />
<glyph unicode="7" horiz-adv-x="1249" d="M88 961v202h1067v-205l-637 -958h-299l674 961h-805z" />
<glyph unicode="8" d="M113 334q0 125 81 203.5t197 99.5q-102 19 -157.5 81.5t-55.5 162.5q0 80 49.5 144.5t128 102.5t169 58t180.5 20q91 0 181 -20t168.5 -58t127.5 -102.5t49 -144.5q0 -206 -215 -244q117 -21 198.5 -99.5t81.5 -203.5q0 -115 -85.5 -203t-218 -131t-287.5 -43 q-115 0 -221 25.5t-189 72.5t-132.5 119.5t-49.5 159.5zM360 354q0 -90 103 -143t242 -53q89 0 166 22t127.5 67.5t50.5 106.5t-54.5 106t-131 65t-158.5 20t-158 -20t-131.5 -65t-55.5 -106zM428 860q0 -72 71 -109.5t206 -37.5t205.5 37.5t70.5 109.5q0 77 -85.5 121.5 t-190.5 44.5q-65 0 -126.5 -17.5t-106 -57t-44.5 -91.5z" />
<glyph unicode="9" horiz-adv-x="1388" d="M96 768q0 187 150 310.5t383 123.5q101 0 195 -24t176.5 -74t144.5 -120.5t97.5 -169t35.5 -214.5q0 -146 -54 -268t-146 -202.5t-212.5 -124.5t-253.5 -44q-253 0 -454 119l116 160q143 -78 342 -78q115 0 213.5 45t164 136t75.5 212q-239 -158 -489 -158 q-118 0 -213 32.5t-152.5 86.5t-88 118.5t-30.5 133.5zM324 764q0 -71 69 -126.5t207 -55.5q216 0 453 141q-41 132 -159.5 205t-268.5 73q-129 0 -215 -71t-86 -166z" />
<glyph unicode=":" horiz-adv-x="661" d="M168 117q0 62 46.5 105.5t115.5 43.5t116.5 -43.5t47.5 -105.5t-47.5 -105t-116.5 -43t-115.5 43t-46.5 105zM168 862q0 62 47 106t115 44q69 0 116.5 -44t47.5 -106t-47.5 -104.5t-116.5 -42.5t-115.5 42.5t-46.5 104.5z" />
<glyph unicode=";" horiz-adv-x="688" d="M113 -256q41 11 86.5 32t88.5 51t71 69.5t28 80.5v17q-40 -10 -57 -10q-69 0 -115.5 40.5t-46.5 100.5q0 59 46.5 100t115.5 41q89 0 156 -66t67 -165q0 -74 -24.5 -137.5t-62 -108t-90 -81.5t-100 -59t-100.5 -40zM168 862q0 62 47 106t115 44q69 0 116.5 -44t47.5 -106 t-47.5 -104.5t-116.5 -42.5t-115.5 42.5t-46.5 104.5z" />
<glyph unicode="&#x3c;" horiz-adv-x="1550" d="M184 428v205l1180 381v-215l-913 -256v-25l913 -256v-213z" />
<glyph unicode="=" horiz-adv-x="1550" d="M184 186v191h1180v-191h-1180zM184 686v191h1180v-191h-1180z" />
<glyph unicode="&#x3e;" horiz-adv-x="1550" d="M184 49v213l914 256v25l-914 256v215l1180 -381v-205z" />
<glyph unicode="?" horiz-adv-x="1187" d="M94 1124q55 61 104 102.5t114.5 78t147.5 54t183 17.5q90 0 164 -17.5t135 -54t95 -101t34 -152.5q0 -143 -102 -242q-35 -33 -89.5 -69.5t-99.5 -64.5t-88 -62.5t-68.5 -80.5t-27.5 -102h-205q-3 83 26 151.5t81 117t104.5 84.5t114 75.5t92.5 69.5q57 54 57 116 q0 71 -65 109.5t-164 38.5q-92 0 -167 -27t-125 -67t-107 -105zM371 117q0 62 46.5 105.5t114.5 43.5q69 0 116.5 -43.5t47.5 -105.5t-47.5 -105t-116.5 -43t-115 43t-46 105z" />
<glyph unicode="@" horiz-adv-x="2015" d="M106 508q0 158 53 299t147 247.5t219 184.5t273.5 118t305.5 40q176 0 325.5 -51.5t251.5 -140.5t159.5 -210.5t57.5 -259.5q0 -133 -50.5 -250.5t-129 -193.5t-171.5 -120t-181 -44q-93 0 -154 44t-61 116v16q-68 -83 -155 -128.5t-173 -45.5q-56 0 -106 20t-91 59.5 t-65 104.5t-24 148q0 113 45.5 217.5t115.5 175.5t154.5 113.5t163.5 42.5q92 0 157.5 -55t81.5 -132l50 144h190l-174 -533q-8 -21 -8 -43q0 -49 26.5 -74.5t73.5 -25.5q49 0 104 32.5t103 87t79.5 138.5t31.5 176q0 220 -174 364t-453 144q-161 0 -308 -52t-258 -144.5 t-177 -229.5t-66 -297q0 -126 41.5 -233t112 -181.5t164 -127t197 -77t210.5 -24.5q131 0 278.5 33.5t229.5 76.5l53 -139q-89 -50 -252 -92.5t-319 -42.5q-128 0 -254.5 30.5t-244 96.5t-207.5 158.5t-144 227t-54 292.5zM745 489q0 -87 35.5 -131.5t98.5 -44.5 q56 0 124.5 33.5t129.5 97.5l63 197q-14 76 -65 130t-115 54q-41 0 -87 -23t-88 -64t-69 -106.5t-27 -142.5z" />
<glyph unicode="A" horiz-adv-x="1548" d="M49 0l621 1337h209l620 -1337h-252l-162 360h-636l-160 -360h-240zM530 545h474l-230 518h-12z" />
<glyph unicode="B" horiz-adv-x="1673" d="M231 0v1337h809q206 0 322 -116q90 -90 90 -211q0 -91 -48.5 -167t-121.5 -106q115 -27 179.5 -119.5t64.5 -218.5q0 -166 -123 -284q-59 -54 -136.5 -84.5t-209.5 -30.5h-826zM461 205h604q105 0 166 61q55 55 55 135q0 71 -53 127q-69 72 -168 72h-604v-395zM461 784 h555q91 0 141 50q55 55 55 133q0 67 -47 114q-52 52 -149 52h-555v-349z" />
<glyph unicode="C" horiz-adv-x="1579" d="M113 670q0 193 90 354t256 257.5t375 96.5q179 0 344.5 -64t281.5 -171l-155 -154q-89 84 -216.5 134.5t-250.5 50.5q-143 0 -254.5 -69t-170.5 -184t-59 -253q0 -140 60.5 -254t174 -182t259.5 -68q148 0 278.5 62.5t223.5 162.5l153 -151q-122 -122 -289.5 -200.5 t-369.5 -78.5q-215 0 -383 96t-258 257.5t-90 357.5z" />
<glyph unicode="D" horiz-adv-x="1669" d="M231 0v1337h641q172 0 286 -44.5t206 -133.5q182 -188 182 -489q0 -151 -50.5 -282.5t-145.5 -223.5q-94 -84 -200.5 -124t-277.5 -40h-641zM461 205h401q117 0 177.5 23.5t129.5 80.5q65 65 101.5 159.5t36.5 201.5q0 218 -129 350q-64 59 -131.5 86t-184.5 27h-401 v-928z" />
<glyph unicode="E" horiz-adv-x="1462" d="M231 0v1337h1086v-204h-856v-332h514v-205h-514v-391h905v-205h-1135z" />
<glyph unicode="F" horiz-adv-x="1353" d="M231 0v1337h1076v-204h-846v-332h514v-205h-514v-596h-230z" />
<glyph unicode="G" horiz-adv-x="1648" d="M113 670q0 194 96 356.5t264 257t369 94.5q161 0 324 -62.5t298 -178.5l-159 -144q-83 83 -211 132t-250 49q-141 0 -254.5 -69t-175.5 -184.5t-62 -252.5q0 -98 33.5 -187.5t96 -161t162 -113.5t222.5 -42q108 0 218 29t176 79v269h-420v204h628v-585 q-126 -92 -292 -146.5t-324 -54.5q-156 0 -294 56t-235 151.5t-153.5 227t-56.5 276.5z" />
<glyph unicode="H" horiz-adv-x="1648" d="M231 0v1337h230v-506h727v506h229v-1337h-229v627h-727v-627h-230z" />
<glyph unicode="I" horiz-adv-x="692" d="M231 0v1337h230v-1337h-230z" />
<glyph unicode="J" horiz-adv-x="1327" d="M27 301l190 100q104 -237 344 -237q149 0 240.5 82t91.5 229v862h229v-862q0 -242 -154.5 -379t-404.5 -137q-96 0 -178 23t-136 56t-100.5 82.5t-72 90t-49.5 90.5z" />
<glyph unicode="K" horiz-adv-x="1568" d="M231 0v1337h230v-661l698 661h285l-547 -512l666 -825h-297l-535 672l-270 -252v-420h-230z" />
<glyph unicode="L" horiz-adv-x="1325" d="M231 0v1337h230v-1132h821v-205h-1051z" />
<glyph unicode="M" horiz-adv-x="1857" d="M231 0v1337h236l465 -788h4l465 788h225v-1337h-229v909h-11l-444 -749h-37l-444 749h-10v-909h-220z" />
<glyph unicode="N" horiz-adv-x="1669" d="M231 0v1337h203l772 -927h2v927h230v-1337h-203l-772 928h-2v-928h-230z" />
<glyph unicode="O" horiz-adv-x="1732" d="M113 672q0 193 99 355t272 256.5t380 94.5q124 0 240 -35.5t209.5 -100.5t163 -152t107.5 -195t38 -223q0 -195 -101 -359t-275 -259t-382 -95q-207 0 -380 95t-272 258.5t-99 359.5zM354 672q0 -138 67 -254.5t184.5 -185t258.5 -68.5q142 0 261 68.5t187 185t68 254.5 q0 136 -68 251.5t-187 183t-261 67.5q-141 0 -258.5 -67.5t-184.5 -183t-67 -251.5z" />
<glyph unicode="P" horiz-adv-x="1536" d="M231 0v1337h738q256 0 387 -141q106 -115 106 -268q0 -169 -123 -289q-132 -125 -370 -125h-508v-514h-230zM461 719h508q132 0 202 65q62 59 62 142q0 77 -55 135q-41 44 -93 58t-116 14h-508v-414z" />
<glyph unicode="Q" horiz-adv-x="1732" d="M113 672q0 193 99 355t272 256.5t380 94.5q124 0 240 -35.5t209.5 -100.5t163 -152t107.5 -195t38 -223q0 -188 -93.5 -346.5t-252.5 -253.5l172 -248l-221 -72l-162 234q-106 -27 -201 -27q-207 0 -380 95t-272 258.5t-99 359.5zM354 672q0 -138 67 -254.5t184.5 -185 t258.5 -68.5q24 0 74 4l-172 250l221 71l166 -239q104 68 165.5 180.5t61.5 241.5q0 136 -68 251.5t-187 183t-261 67.5q-141 0 -258.5 -67.5t-184.5 -183t-67 -251.5z" />
<glyph unicode="R" horiz-adv-x="1603" d="M231 0v1337h738q255 0 387 -141q106 -112 106 -268q0 -132 -79.5 -232t-215.5 -151l320 -545h-264l-287 514h-475v-514h-230zM461 719h549q91 0 157 61.5t66 147.5q0 75 -55 133q-43 45 -92.5 58.5t-116.5 13.5h-508v-414z" />
<glyph unicode="S" horiz-adv-x="1507" d="M88 240l139 159q50 -45 99.5 -80.5t124.5 -75.5t170.5 -62.5t201.5 -22.5q103 0 181.5 22.5t127 73t48.5 123.5q0 49 -18.5 85.5t-49.5 59.5t-83 38.5t-105.5 23.5t-130.5 14q-83 6 -129.5 10t-123 15.5t-121 26.5t-100 42.5t-85.5 63.5t-51 90t-21 121q0 92 32.5 164.5 t85.5 117.5t125 75t144.5 42t150.5 12q193 0 357 -59t260 -135l-139 -160q-67 62 -193 109t-293 47q-132 0 -216.5 -47t-84.5 -146q0 -97 127 -133q68 -19 259 -32q9 -1 16 -1q212 -14 317 -44q287 -81 298 -346q1 -11 1 -23q0 -95 -31 -171t-84.5 -127.5t-129 -85.5 t-161.5 -49.5t-184 -15.5q-419 0 -731 281z" />
<glyph unicode="T" horiz-adv-x="1402" d="M61 1133v204h1280v-204h-524v-1133h-229v1133h-527z" />
<glyph unicode="U" horiz-adv-x="1595" d="M205 475v862h229v-862q0 -146 102.5 -228.5t260.5 -82.5q159 0 261.5 82.5t102.5 228.5v862h230v-862q0 -241 -166 -378.5t-428 -137.5q-170 0 -303 59t-211 177.5t-78 279.5z" />
<glyph unicode="V" horiz-adv-x="1540" d="M45 1337h262l463 -1044h12l463 1044h250l-621 -1337h-208z" />
<glyph unicode="W" horiz-adv-x="2064" d="M76 1337h252l299 -983h12l317 983h164l318 -983h12l299 983h240l-428 -1337h-230l-293 895h-12l-293 -895h-229z" />
<glyph unicode="X" horiz-adv-x="1501" d="M41 0l567 688l-512 649h293l369 -487l385 487h278l-526 -639l553 -698h-293l-410 537l-426 -537h-278z" />
<glyph unicode="Y" horiz-adv-x="1392" d="M33 1337h291l383 -516l383 516h270l-549 -721v-616h-229v616z" />
<glyph unicode="Z" horiz-adv-x="1386" d="M104 0v143l824 990h-783v204h1117v-143l-824 -989h824v-205h-1158z" />
<glyph unicode="[" horiz-adv-x="753" d="M182 -315v1726h488v-184h-279v-1358h279v-184h-488z" />
<glyph unicode="\" horiz-adv-x="1101" d="M117 1337h209l702 -1581h-209z" />
<glyph unicode="]" horiz-adv-x="753" d="M84 -131h278v1358h-278v184h487v-1726h-487v184z" />
<glyph unicode="^" horiz-adv-x="1550" d="M215 436l451 819h225l444 -819h-235l-314 598h-16l-317 -598h-238z" />
<glyph unicode="_" horiz-adv-x="1228" d="M-12 -205h1253v-147h-1253v147z" />
<glyph unicode="`" horiz-adv-x="1024" d="M244 1427h243l164 -299h-190z" />
<glyph unicode="a" horiz-adv-x="1239" d="M94 319q0 137 121.5 227.5t335.5 90.5q87 0 173 -20t136 -56v109q0 87 -68 129.5t-180 42.5q-105 0 -213.5 -38.5t-171.5 -82.5l-73 174q82 50 206.5 88.5t262.5 38.5q88 0 165 -15.5t142 -48t103 -91t38 -136.5v-553q0 -116 27 -178h-213q-16 40 -25 123 q-74 -64 -161.5 -103.5t-215.5 -39.5q-176 0 -282.5 93.5t-106.5 245.5zM307 319q0 -71 59 -117t162 -46q64 0 125.5 18t104 44.5t67 46t35.5 32.5v100q-39 29 -113.5 51.5t-160.5 22.5q-279 0 -279 -152z" />
<glyph unicode="b" horiz-adv-x="1288" d="M160 0q18 94 18 272v1162h211v-566q138 154 305 154q132 0 242.5 -64.5t177 -185.5t66.5 -274q0 -118 -38.5 -218t-104.5 -167.5t-155 -105.5t-188 -38q-108 0 -196.5 53.5t-128.5 114.5q0 -73 -15 -137h-194zM389 293q23 -28 55 -55.5t96.5 -55.5t133.5 -28 q115 0 193.5 95.5t78.5 248.5q0 151 -78 244.5t-194 93.5q-150 0 -285 -138v-405z" />
<glyph unicode="c" horiz-adv-x="1155" d="M106 498q0 154 71.5 274.5t192 185t265.5 64.5q250 0 424 -162l-141 -141q-57 57 -132 87t-151 30q-126 0 -211.5 -93.5t-85.5 -244.5q0 -153 89 -247.5t220 -94.5q160 0 295 135l141 -133q-20 -24 -54 -51t-90.5 -61t-139 -55.5t-172.5 -21.5q-141 0 -259 64t-190 186.5 t-72 278.5z" />
<glyph unicode="d" horiz-adv-x="1288" d="M109 498q0 153 66.5 274t176.5 185.5t242 64.5q169 0 305 -133v545h211v-1162q0 -178 18 -272h-194q-14 60 -14 137q-40 -61 -129 -114.5t-197 -53.5q-99 0 -187.5 38t-154.5 105.5t-104.5 167.5t-38.5 218zM342 498q0 -153 78.5 -248.5t193.5 -95.5q69 0 133.5 28 t96.5 55.5t55 55.5v405q-135 138 -285 138q-116 0 -194 -93.5t-78 -244.5z" />
<glyph unicode="e" horiz-adv-x="1222" d="M106 487q0 148 65 270t184 193.5t268 71.5q74 0 143.5 -17.5t134 -57.5t113 -98.5t77.5 -146t29 -194.5q0 -39 -2 -59h-799q11 -129 90.5 -211t217.5 -82q91 0 177.5 36.5t145.5 98.5l142 -137q-86 -82 -215.5 -133.5t-272.5 -51.5q-154 0 -268.5 71t-172 187.5 t-57.5 259.5zM332 614h555q-1 75 -43 129.5t-102.5 78.5t-129.5 24q-109 0 -180.5 -64.5t-99.5 -167.5z" />
<glyph unicode="f" horiz-adv-x="753" d="M76 823v166h182v180q0 77 26 135t69 90t91.5 47t100.5 15q57 0 122 -14.5t95 -32.5l-39 -176q-19 13 -62.5 25t-74.5 12q-54 0 -85.5 -27t-31.5 -74v-180h260v-166h-260v-823h-211v823h-182z" />
<glyph unicode="g" horiz-adv-x="1288" d="M109 492q0 157 66 279t176 186.5t243 64.5q107 0 195.5 -58t130.5 -122q0 80 14 149h194q-18 -94 -18 -272v-770q0 -179 -130 -296.5t-366 -117.5q-288 0 -452 164l125 127q120 -115 327 -115q135 0 210 66.5t75 171.5v172q-136 -152 -305 -152q-99 0 -187.5 38 t-154.5 105t-104.5 166t-38.5 214zM342 492q0 -151 78 -244.5t194 -93.5q151 0 285 137v405q-23 28 -54.5 55.5t-96.5 56t-134 28.5q-115 0 -193.5 -95.5t-78.5 -248.5z" />
<glyph unicode="h" horiz-adv-x="1236" d="M176 0v1434h211v-566q127 154 289 154q177 0 287 -98.5t110 -253.5v-670h-213v670q0 69 -58 117.5t-147 48.5q-145 0 -268 -158v-678h-211z" />
<glyph unicode="i" horiz-adv-x="563" d="M147 1311q0 51 38.5 87t95.5 36q56 0 95.5 -36.5t39.5 -86.5q0 -51 -39 -86t-96 -35t-95.5 35t-38.5 86zM176 0v989h211v-989h-211z" />
<glyph unicode="j" horiz-adv-x="563" d="M-14 -299q33 7 55 14t50 22t44.5 35t28.5 54t12 78v1085h211v-1085q0 -97 -31.5 -171.5t-83 -116t-108.5 -61.5t-117 -20zM147 1311q0 51 38.5 87t95.5 36q56 0 95.5 -36.5t39.5 -86.5q0 -51 -39 -86t-96 -35t-95.5 35t-38.5 86z" />
<glyph unicode="k" horiz-adv-x="1171" d="M176 0v1434h213v-869l430 424h285l-391 -358l450 -631h-264l-342 489l-168 -153v-336h-213z" />
<glyph unicode="l" horiz-adv-x="583" d="M186 0v1434h211v-1434h-211z" />
<glyph unicode="m" horiz-adv-x="1843" d="M154 989h192q15 -66 21 -145q31 40 57 67t63.5 55t84.5 42t102 14q108 0 195 -54t130 -145q131 199 320 199q152 0 256 -100t104 -252v-670h-213v670q0 69 -52 117.5t-130 48.5q-135 0 -250 -158v-678h-213v670q0 69 -52 117.5t-130 48.5q-135 0 -250 -158v-678h-211v719 q0 145 -24 270z" />
<glyph unicode="n" horiz-adv-x="1239" d="M154 989h192q15 -66 21 -145q69 84 142.5 131t184.5 47q161 0 271 -100t110 -252v-670h-213v670q0 69 -57.5 117.5t-145.5 48.5q-146 0 -270 -158v-678h-211v717q0 147 -24 272z" />
<glyph unicode="o" horiz-adv-x="1265" d="M106 498q0 145 65 264t186 189.5t274 70.5q232 0 380 -151t148 -373q0 -148 -65.5 -268.5t-187 -190.5t-275.5 -70q-115 0 -213.5 41t-166.5 112t-106.5 168.5t-38.5 207.5zM326 498q0 -149 82.5 -251t222.5 -102q143 0 227 102t84 251q0 145 -84.5 246.5t-226.5 101.5 q-139 0 -222 -101.5t-83 -246.5z" />
<glyph unicode="p" horiz-adv-x="1288" d="M160 989h194q15 -73 15 -137q40 62 128.5 116t196.5 54q99 0 188 -38t155 -106t104.5 -168t38.5 -218q0 -115 -39 -214t-105 -166t-154.5 -105t-187.5 -38q-169 0 -305 152v-545h-211v1143q0 176 -18 270zM389 291q134 -137 285 -137q116 0 194 93.5t78 244.5 q0 153 -78.5 248.5t-193.5 95.5q-69 0 -134 -28.5t-96.5 -56t-54.5 -55.5v-405z" />
<glyph unicode="q" horiz-adv-x="1288" d="M109 492q0 157 66 279t176 186.5t243 64.5q108 0 197 -54t129 -116q0 68 14 137h194q-18 -94 -18 -270v-1143h-211v545q-136 -152 -305 -152q-99 0 -187.5 38t-154.5 105t-104.5 166t-38.5 214zM342 492q0 -151 78 -244.5t194 -93.5q151 0 285 137v405q-23 28 -54.5 55.5 t-96.5 56t-134 28.5q-115 0 -193.5 -95.5t-78.5 -248.5z" />
<glyph unicode="r" horiz-adv-x="823" d="M152 989h194q15 -73 21 -166q30 45 54 74.5t59 61t78.5 47.5t94.5 16q99 0 140 -41l-64 -197q-20 13 -60 22t-65 9q-34 0 -64.5 -14t-58.5 -41.5t-47 -51.5t-45 -61v-647h-211v719q0 134 -26 270z" />
<glyph unicode="s" horiz-adv-x="1140" d="M94 117l80 159q47 -28 80.5 -45.5t89 -41.5t116 -36t124.5 -12q112 0 183 39t71 109q0 27 -11 48.5t-33 34.5t-44.5 22.5t-56.5 14.5t-57 7t-58 4q-43 3 -70.5 5t-69.5 7t-70 11t-64 17.5t-59 26t-48 36t-39 48t-23.5 62.5t-9.5 78q0 70 24 125.5t63.5 90.5t93.5 57.5 t109.5 32t116.5 9.5q126 0 252.5 -36.5t198.5 -78.5l-80 -161q-64 36 -167 68t-199 32q-86 0 -143.5 -29t-57.5 -86q0 -29 17.5 -50t41 -32.5t61 -18.5t62.5 -9t60 -4q50 -2 82 -4.5t86.5 -11t91 -20.5t80 -35.5t69.5 -54.5t44 -79t18 -107q0 -114 -62.5 -193t-164.5 -115 t-236 -36q-266 0 -492 152z" />
<glyph unicode="t" horiz-adv-x="806" d="M55 823v166h185v293h211v-293h260v-166h-260v-577q0 -49 30.5 -75t85.5 -26q31 0 78 5.5t66 11.5l20 -166q-25 -16 -87.5 -26.5t-117.5 -10.5q-41 0 -80 9t-77 30.5t-66 53.5t-45.5 82t-17.5 112v577h-185z" />
<glyph unicode="u" horiz-adv-x="1236" d="M162 319v670h213v-670q0 -69 57.5 -117t145.5 -48q147 0 270 157v678h211v-717q0 -178 18 -272h-194q-15 64 -15 145q-69 -84 -141.5 -130t-183.5 -46q-162 0 -271.5 99t-109.5 251z" />
<glyph unicode="v" horiz-adv-x="1140" d="M51 989h240l278 -696h13l290 696h218l-433 -989h-176z" />
<glyph unicode="w" horiz-adv-x="1605" d="M61 989h230l201 -708h12l205 708h200l205 -708h12l191 708h227l-327 -989h-213l-195 678h-12l-195 -678h-213z" />
<glyph unicode="x" horiz-adv-x="1175" d="M45 0l414 508l-391 481h270l250 -348l252 348h268l-391 -481l413 -508h-266l-276 373l-275 -373h-268z" />
<glyph unicode="y" horiz-adv-x="1155" d="M49 989h240l282 -686h13l307 686h215l-674 -1413h-219l250 494z" />
<glyph unicode="z" horiz-adv-x="1083" d="M94 0v125l582 698h-541v166h836v-125l-582 -698h582v-166h-877z" />
<glyph unicode="{" horiz-adv-x="794" d="M53 475v180q90 0 156.5 58t66.5 151v211q1 86 15 143t42.5 97t81.5 60.5t121.5 29t174.5 8.5v-184q-134 0 -178.5 -29t-47.5 -125v-211q0 -124 -66 -204.5t-157 -86.5v-16q221 -4 221 -281v-260q0 -91 46 -119t182 -28v-184q-90 0 -151.5 5t-113.5 19t-82.5 36.5 t-52 60.5t-29.5 88.5t-8 121.5v260q0 199 -221 199z" />
<glyph unicode="|" horiz-adv-x="716" d="M264 -629v2482h195v-2482h-195z" />
<glyph unicode="}" horiz-adv-x="794" d="M84 -131q129 0 178 28.5t49 118.5v260q0 277 221 281v16q-91 6 -157 86.5t-66 204.5v211q-3 95 -50 124.5t-175 29.5v184q88 0 149 -5.5t111.5 -20t81.5 -38t52 -62t30 -89.5t10 -123v-211q0 -93 66.5 -151t156.5 -58v-180q-221 0 -221 -199v-260q0 -107 -19 -170 t-72 -100t-131.5 -49t-213.5 -12v184z" />
<glyph unicode="~" horiz-adv-x="1550" d="M102 489q114 130 210 193t198 63q167 0 324 -141q33 -28 50.5 -41.5t58 -32t79.5 -18.5q110 0 264 160l162 -101q-232 -264 -434 -264q-25 0 -49.5 3.5t-44.5 7.5t-42.5 13l-37.5 15t-35 19t-30 19t-28.5 20.5t-24 19.5t-22 19.5t-18.5 15.5q-100 82 -180 82 q-95 0 -244 -152z" />
<glyph unicode="&#xa1;" horiz-adv-x="618" d="M104 866q0 62 47.5 105t116.5 43t115.5 -43t46.5 -105t-46.5 -105.5t-115.5 -43.5t-116.5 43.5t-47.5 105.5zM143 -31l52 584h147l51 -584v-323h-250v323z" />
<glyph unicode="&#xa2;" horiz-adv-x="1243" d="M104 465q0 144 72.5 257t194 173.5t268.5 60.5q27 0 41 -2l39 179h153l-45 -197q162 -39 285 -131l-139 -139q-82 58 -187 86l-133 -598q172 0 322 125l141 -134q-20 -22 -54.5 -47.5t-92 -56.5t-142 -51.5t-176.5 -20.5q-27 0 -39 2l-55 -256h-151l61 281 q-161 47 -262 172t-101 297zM336 465q0 -97 47.5 -171t126.5 -110l129 586q-129 0 -216 -84t-87 -221z" />
<glyph unicode="&#xa3;" horiz-adv-x="1476" d="M123 0v182h80q106 0 145 42t39 169v146h-264v163h264v150q0 70 27 129t72.5 99t106.5 68t128.5 41t138.5 13q98 0 234.5 -42.5t253.5 -110.5l-113 -158q-95 48 -198.5 78t-176.5 30q-99 0 -172.5 -38t-73.5 -109v-150h502v-163h-502v-146q0 -98 -40.5 -146t-137.5 -65 h912v-182h-1225z" />
<glyph unicode="&#xa4;" horiz-adv-x="1527" d="M125 76l166 153q-90 136 -90 299q0 161 90 297l-166 156l147 147l164 -153q145 104 326 104q182 0 330 -104l165 153l148 -147l-168 -156q92 -139 92 -297q0 -160 -92 -299l168 -153l-148 -148l-165 154q-150 -105 -330 -105q-176 0 -326 103l-164 -152zM430 528 q0 -141 98 -242.5t234 -101.5q139 0 238.5 101.5t99.5 242.5t-99.5 242.5t-238.5 101.5q-136 0 -234 -101.5t-98 -242.5z" />
<glyph unicode="&#xa5;" horiz-adv-x="1613" d="M131 375v143h561v12l-98 121h-463v144h346l-301 368h291l350 -430l348 430h271l-299 -368h348v-144h-465l-98 -121v-12h563v-143h-563v-375h-230v375h-561z" />
<glyph unicode="&#xa6;" horiz-adv-x="716" d="M264 393h195v-860h-195v860zM264 788v844h195v-844h-195z" />
<glyph unicode="&#xa7;" horiz-adv-x="1472" d="M129 442q0 133 102 232q39 39 119 80q-12 15 -22 34q-25 59 -25 117q0 80 41 140.5t109 94t144.5 50t158.5 16.5q111 0 225.5 -26t200.5 -72l-99 -158q-65 33 -153 53.5t-174 20.5q-34 0 -67 -4t-72 -14.5t-63 -35t-24 -59.5q0 -31 21 -49q9 -9 22 -15.5t31 -11.5 t33 -8.5t40.5 -6.5t40 -4.5t45.5 -4.5t44 -4q337 -31 475 -164q90 -87 90 -213q0 -134 -100 -231q-48 -45 -123 -82q11 -11 25 -39q24 -46 24 -111q0 -80 -41 -140.5t-108.5 -94t-143.5 -50t-157 -16.5q-113 0 -228 27t-201 74l99 155q65 -33 154 -53.5t176 -20.5 q35 0 69.5 5t71 16t59.5 35t23 57t-21 51q-11 10 -28.5 17.5t-33 12t-44.5 9t-44.5 6t-53 5t-50.5 4.5q-339 32 -477 165q-90 87 -90 211zM358 471q0 -68 50 -115q81 -75 288 -92q1 0 39.5 -3.5t48 -4.5t45 -5t53 -7.5t46 -9t51.5 -12.5t45 -15q27 17 43 33q78 72 78 161 q0 67 -51 115q-81 75 -289 92q-1 0 -30.5 2.5t-36 3.5t-34.5 3.5t-39.5 4.5t-36.5 5.5t-40.5 7t-36.5 8.5t-39 10.5t-35 12.5l-41 -33q-78 -72 -78 -162z" />
<glyph unicode="&#xa8;" horiz-adv-x="1024" d="M168 1264q0 48 36 82t89 34t90 -34.5t37 -81.5q0 -49 -36.5 -82t-90.5 -33t-89.5 32.5t-35.5 82.5zM602 1264q0 48 36 82t89 34t90 -34.5t37 -81.5q0 -49 -36.5 -82t-90.5 -33t-89.5 32.5t-35.5 82.5z" />
<glyph unicode="&#xa9;" horiz-adv-x="2033" d="M106 549q0 173 72.5 330.5t195.5 270.5t292 180t354 67q184 0 351.5 -67t289.5 -180t194 -270.5t72 -330.5t-72 -330t-194 -270t-289.5 -179.5t-351.5 -66.5q-185 0 -354 66.5t-292 179.5t-195.5 270t-72.5 330zM276 549q0 -142 59.5 -272t159.5 -224t237.5 -149.5 t287.5 -55.5q201 0 370.5 94t268 255.5t98.5 351.5q0 189 -98.5 350.5t-268.5 256.5t-370 95q-149 0 -287 -56.5t-238 -150.5t-159.5 -224t-59.5 -271zM539 551q0 190 132 318t345 128q108 0 215.5 -41.5t189.5 -107.5l-78 -141q-136 124 -327 124q-127 0 -207 -81t-80 -199 q0 -113 84 -182.5t209 -69.5q76 0 140.5 18t101.5 38.5t90 58.5l78 -142q-88 -69 -178.5 -104t-231.5 -35q-204 0 -343.5 116.5t-139.5 301.5z" />
<glyph unicode="&#xaa;" horiz-adv-x="950" d="M80 680q0 97 92 161t254 64q56 0 116.5 -11t96.5 -28v58q0 55 -45.5 82.5t-124.5 27.5q-77 0 -160.5 -27.5t-128.5 -58.5l-63 146q62 36 158.5 63t203.5 27q67 0 125 -11t108 -34t78.5 -64.5t28.5 -97.5v-399q0 -74 19 -127h-183q-6 17 -16 77q-39 -31 -66 -48.5 t-81.5 -34.5t-118.5 -17q-131 0 -212 71t-81 181zM262 680q0 -42 40.5 -69t109.5 -27q57 0 111.5 21t77.5 37.5t38 31.5v53q-86 39 -182 39q-195 0 -195 -86z" />
<glyph unicode="&#xab;" horiz-adv-x="1241" d="M106 451v106l203 252h254l-248 -297v-16l248 -295h-254zM608 496v16l240 297h254l-248 -297v-16l248 -295h-254z" />
<glyph unicode="&#xac;" horiz-adv-x="1550" d="M184 647v191h1180v-607h-209v416h-971z" />
<glyph unicode="&#xad;" horiz-adv-x="800" d="M137 418v209h527v-209h-527z" />
<glyph unicode="&#xae;" horiz-adv-x="1282" d="M117 899q0 95 40.5 183.5t109.5 153t165.5 103.5t204.5 39q219 0 373.5 -142t154.5 -337q0 -202 -153.5 -341.5t-374.5 -139.5q-144 0 -263.5 63.5t-188 174t-68.5 243.5zM207 899q0 -166 124.5 -281.5t305.5 -115.5q184 0 311 115.5t127 281.5q0 163 -127.5 281 t-310.5 118q-180 0 -305 -118t-125 -281zM412 672v481h311q80 0 133 -42t53 -107q0 -43 -30 -80t-78 -58l121 -194h-127l-109 182h-164v-182h-110zM522 946h199q29 0 53.5 18t24.5 40q0 27 -22 43t-54 16h-201v-117z" />
<glyph unicode="&#xaf;" horiz-adv-x="1024" d="M244 1182v164h534v-164h-534z" />
<glyph unicode="&#xb0;" horiz-adv-x="999" d="M102 954q0 148 105.5 247t292.5 99t292 -99t105 -247q0 -144 -105 -243t-292 -99t-292.5 99t-105.5 243zM291 954q0 -77 55 -127.5t154 -50.5t154 50.5t55 127.5q0 79 -55 131t-154 52t-154 -52t-55 -131z" />
<glyph unicode="&#xb1;" horiz-adv-x="1550" d="M184 0v190h1180v-190h-1180zM184 647v191h488v336h207v-336h485v-191h-485v-336h-207v336h-488z" />
<glyph unicode="&#xb2;" horiz-adv-x="976" d="M90 1202q57 42 89 63.5t87.5 50.5t115.5 41.5t130 12.5q99 0 182.5 -25.5t141 -85t57.5 -145.5q0 -58 -24.5 -106t-61 -78.5t-87 -55t-93.5 -39t-90 -27.5q-23 -6 -33 -9q-103 -31 -157 -71.5t-54 -115.5v-2h577v-159h-776v143q0 80 33 145t92 110t127.5 75.5t151.5 50.5 q23 5 46.5 12.5t62 24t62 42t23.5 56.5q0 43 -50.5 62.5t-123.5 19.5q-96 0 -167 -33.5t-142 -95.5z" />
<glyph unicode="&#xb3;" horiz-adv-x="1093" d="M45 608l121 140q155 -152 371 -152q122 0 202 39t80 110q0 91 -155 91h-181v159h179q41 0 64.5 24.5t23.5 63.5q0 56 -55 82.5t-126 26.5q-89 0 -173 -39t-150 -100l-121 121q212 196 448 196q62 0 125 -14t121 -42.5t94.5 -79t36.5 -116.5q0 -62 -26.5 -110t-57.5 -64 q56 -14 104 -66t48 -145q0 -99 -65 -171.5t-172 -108t-242 -35.5q-301 0 -494 190z" />
<glyph unicode="&#xb4;" horiz-adv-x="1024" d="M373 1128l164 299h243l-217 -299h-190z" />
<glyph unicode="&#xb5;" horiz-adv-x="1239" d="M158 -471v1440h213v-668q0 -65 57.5 -111.5t144.5 -46.5q147 0 271 158v668h211v-697q0 -178 18 -272h-194q-15 64 -15 135q-69 -84 -141.5 -130t-183.5 -46q-103 0 -168 49v-479h-213z" />
<glyph unicode="&#xb6;" horiz-adv-x="1763" d="M96 942q0 395 451 395h1018v-1759h-189v1575h-213v-1575h-188v950h-414q-67 0 -131 14t-125.5 46t-107 78.5t-73.5 118t-28 157.5zM305 942q0 -60 23.5 -106t62 -72t81.5 -38.5t89 -12.5h414v440h-428q-53 0 -94 -9.5t-75.5 -32t-53.5 -65.5t-19 -104z" />
<glyph unicode="&#xb7;" horiz-adv-x="1550" d="M592 530q0 68 52.5 117t129.5 49q76 0 129 -49t53 -117q0 -69 -52.5 -116t-129.5 -47q-78 0 -130 47t-52 116z" />
<glyph unicode="&#xb8;" horiz-adv-x="1024" d="M207 -418l33 117q10 -2 41 -8t44 -8.5t40 -7t43.5 -6.5t39 -3.5t41.5 -1.5q72 0 114 19t42 55q0 55 -96 55q-25 0 -88 -10l-55 65l90 191h135l-68 -150q37 11 62 11q83 2 147 -42.5t64 -121.5q0 -90 -93.5 -144.5t-242.5 -54.5q-113 0 -293 45z" />
<glyph unicode="&#xb9;" horiz-adv-x="661" d="M20 1225l265 112h200v-886h-200v706l-222 -92z" />
<glyph unicode="&#xba;" horiz-adv-x="950" d="M80 807q0 156 116 266.5t277 110.5q163 0 280 -110.5t117 -266.5q0 -159 -116.5 -269t-280.5 -110q-161 0 -277 110.5t-116 268.5zM268 807q0 -98 53.5 -160.5t151.5 -62.5q101 0 156 62.5t55 160.5q0 95 -55.5 158t-155.5 63q-97 0 -151 -63t-54 -158z" />
<glyph unicode="&#xbb;" horiz-adv-x="1241" d="M139 201l248 295v16l-248 297h254l240 -297v-16l-240 -295h-254zM678 201l248 295v16l-248 297h254l203 -252v-106l-203 -250h-254z" />
<glyph unicode="&#xbc;" horiz-adv-x="2187" d="M16 1225l265 112h200v-886h-200v706l-222 -92zM414 0l760 1337h180l-758 -1337h-182zM1075 186v136l705 565h170v-539h174v-162h-174v-186h-201v186h-674zM1374 348h375v281h-16q-58 -46 -179 -138.5t-180 -138.5v-4z" />
<glyph unicode="&#xbd;" horiz-adv-x="2080" d="M16 1225l265 112h200v-886h-200v706l-222 -92zM414 0l760 1337h180l-758 -1337h-182zM1194 752q57 42 89 63.5t87.5 50.5t115.5 41.5t130 12.5q99 0 182.5 -25.5t141 -85t57.5 -145.5q0 -42 -13.5 -79.5t-32.5 -64t-52.5 -51t-60 -39.5t-69.5 -31t-65.5 -23t-64.5 -19 q-21 -6 -31 -9q-50 -15 -83.5 -29t-65 -35.5t-47 -52t-15.5 -69.5v-2h577v-160h-776v143q0 80 33 145t92 110t127.5 75.5t151.5 50.5q23 5 46.5 12.5t62 24t62 42t23.5 56.5q0 43 -50.5 62.5t-123.5 19.5q-96 0 -167 -33.5t-142 -95.5z" />
<glyph unicode="&#xbe;" horiz-adv-x="2627" d="M45 608l121 140q155 -152 371 -152q122 0 202 39t80 110q0 91 -155 91h-181v159h179q41 0 64.5 24.5t23.5 63.5q0 56 -55 82.5t-126 26.5q-89 0 -173 -39t-150 -100l-121 121q212 196 448 196q62 0 125 -14t121 -42.5t94.5 -79t36.5 -116.5q0 -62 -26.5 -110t-57.5 -64 q56 -14 104 -66t48 -145q0 -99 -65 -171.5t-172 -108t-242 -35.5q-301 0 -494 190zM854 0l760 1337h180l-758 -1337h-182zM1516 186v136l704 565h170v-539h174v-162h-174v-186h-201v186h-673zM1815 348h374v281h-16q-58 -46 -179 -138.5t-179 -138.5v-4z" />
<glyph unicode="&#xbf;" horiz-adv-x="1169" d="M80 -68q0 143 102 242q35 33 89.5 69.5t99.5 64.5t88 62.5t68.5 80.5t27.5 102h205q3 -83 -26 -151.5t-81 -117t-104.5 -84.5t-114 -75.5t-92.5 -69.5q-57 -54 -57 -116q0 -71 65 -109.5t164 -38.5q92 0 167 27t125 67t107 105l144 -131q-55 -61 -104 -102.5t-114.5 -78 t-147.5 -54t-183 -17.5q-90 0 -164 17.5t-135 54t-95 101t-34 152.5zM455 866q0 62 47 105t116 43t115.5 -43t46.5 -105t-46.5 -105.5t-115.5 -43.5t-116 43.5t-47 105.5z" />
<glyph unicode="&#xc0;" horiz-adv-x="1548" d="M49 0l621 1337h209l620 -1337h-252l-162 360h-636l-160 -360h-240zM461 1761h278l205 -266h-205zM530 545h474l-230 518h-12z" />
<glyph unicode="&#xc1;" horiz-adv-x="1548" d="M49 0l621 1337h209l620 -1337h-252l-162 360h-636l-160 -360h-240zM530 545h474l-230 518h-12zM604 1495l205 266h278l-280 -266h-203z" />
<glyph unicode="&#xc2;" horiz-adv-x="1548" d="M49 0l621 1337h209l620 -1337h-252l-162 360h-636l-160 -360h-240zM444 1495l211 272h238l209 -272h-170l-158 152l-160 -152h-170zM530 545h474l-230 518h-12z" />
<glyph unicode="&#xc3;" horiz-adv-x="1548" d="M49 0l621 1337h209l620 -1337h-252l-162 360h-636l-160 -360h-240zM403 1567q57 97 112.5 138.5t121.5 41.5q70 0 145 -53q3 -2 13 -9t13 -9l12 -8t13 -8t11.5 -6.5t12.5 -6t12 -3.5t13.5 -3t12.5 -1q23 0 46 16.5t34 30t35 46.5l127 -70q-102 -182 -234 -182 q-76 0 -143 49q-4 3 -17.5 13t-17.5 12.5t-15 9.5t-16 9.5t-14 6.5t-16 5t-15 1q-12 0 -23.5 -4.5t-19 -9.5t-18.5 -17.5t-15.5 -18.5t-16.5 -22.5t-15 -21.5zM530 545h474l-230 518h-12z" />
<glyph unicode="&#xc4;" horiz-adv-x="1548" d="M49 0l621 1337h209l620 -1337h-252l-162 360h-636l-160 -360h-240zM430 1628q0 48 36 82.5t89 34.5t90 -35t37 -82q0 -49 -36.5 -82t-90.5 -33t-89.5 32.5t-35.5 82.5zM530 545h474l-230 518h-12zM864 1628q0 48 36 82.5t89 34.5t90 -35t37 -82q0 -49 -36.5 -82 t-90.5 -33t-89.5 32.5t-35.5 82.5z" />
<glyph unicode="&#xc5;" horiz-adv-x="1548" d="M49 0l621 1337h209l620 -1337h-252l-162 360h-636l-160 -360h-240zM510 1630q0 91 68.5 153t189.5 62t191.5 -62.5t70.5 -152.5q0 -89 -70.5 -149t-191.5 -60t-189.5 60t-68.5 149zM530 545h474l-230 518h-12zM637 1630q0 -49 37 -79.5t94 -30.5q59 0 96 30.5t37 79.5 q0 52 -37.5 86.5t-95.5 34.5q-57 0 -94 -35t-37 -86z" />
<glyph unicode="&#xc6;" horiz-adv-x="2224" d="M-18 0l970 1337h1127v-204h-856v-332h514v-205h-514v-391h905v-205h-1133v360h-503l-254 -360h-256zM621 545h374v518h-8z" />
<glyph unicode="&#xc7;" horiz-adv-x="1579" d="M113 670q0 193 90 354t256 257.5t375 96.5q179 0 344.5 -64t281.5 -171l-155 -154q-89 84 -216.5 134.5t-250.5 50.5q-143 0 -254.5 -69t-170.5 -184t-59 -253q0 -140 60.5 -254t174 -182t259.5 -68q148 0 278.5 62.5t223.5 162.5l153 -151q-119 -119 -282.5 -197 t-360.5 -82l-31 -70q37 11 62 11q83 2 147 -42.5t64 -121.5q0 -90 -93.5 -144.5t-242.5 -54.5q-113 0 -293 45l33 117q184 -35 250 -35q72 0 113.5 19t41.5 55q0 55 -96 55q-25 0 -88 -10l-55 65l55 119q-184 24 -324.5 123.5t-215 250t-74.5 329.5z" />
<glyph unicode="&#xc8;" horiz-adv-x="1462" d="M231 0v1337h1086v-204h-856v-332h514v-205h-514v-391h905v-205h-1135zM463 1761h278l205 -266h-205z" />
<glyph unicode="&#xc9;" horiz-adv-x="1462" d="M231 0v1337h1086v-204h-856v-332h514v-205h-514v-391h905v-205h-1135zM606 1495l205 266h279l-281 -266h-203z" />
<glyph unicode="&#xca;" horiz-adv-x="1462" d="M231 0v1337h1086v-204h-856v-332h514v-205h-514v-391h905v-205h-1135zM446 1495l211 272h238l209 -272h-170l-158 152l-160 -152h-170z" />
<glyph unicode="&#xcb;" horiz-adv-x="1462" d="M231 0v1337h1086v-204h-856v-332h514v-205h-514v-391h905v-205h-1135zM432 1628q0 48 36 82.5t89 34.5t90 -35t37 -82q0 -49 -36.5 -82t-90.5 -33t-89.5 32.5t-35.5 82.5zM866 1628q0 48 36 82.5t89 34.5t90 -35t37 -82q0 -49 -36.5 -82t-90.5 -33t-89.5 32.5t-35.5 82.5 z" />
<glyph unicode="&#xcc;" horiz-adv-x="692" d="M33 1761h278l205 -266h-205zM231 0v1337h230v-1337h-230z" />
<glyph unicode="&#xcd;" horiz-adv-x="692" d="M176 1495l205 266h278l-280 -266h-203zM231 0v1337h230v-1337h-230z" />
<glyph unicode="&#xce;" horiz-adv-x="692" d="M16 1495l211 272h238l209 -272h-170l-158 152l-160 -152h-170zM231 0v1337h230v-1337h-230z" />
<glyph unicode="&#xcf;" horiz-adv-x="692" d="M2 1628q0 48 36 82.5t89 34.5t90 -35t37 -82q0 -49 -36.5 -82t-90.5 -33t-89.5 32.5t-35.5 82.5zM231 0v1337h230v-1337h-230zM436 1628q0 48 36 82.5t89 34.5t90 -35t37 -82q0 -49 -36.5 -82t-90.5 -33t-89.5 32.5t-35.5 82.5z" />
<glyph unicode="&#xd0;" horiz-adv-x="1730" d="M88 596v184h205v557h641q172 0 285 -44.5t206 -133.5q183 -189 183 -489q0 -151 -51 -282.5t-146 -223.5q-94 -84 -200 -124t-277 -40h-641v596h-205zM522 205h402q117 0 177.5 23.5t129.5 80.5q65 65 101 159.5t36 201.5q0 218 -129 350q-64 59 -131 86t-184 27h-402 v-353h393v-184h-393v-391z" />
<glyph unicode="&#xd1;" horiz-adv-x="1669" d="M231 0v1337h203l772 -927h2v927h230v-1337h-203l-772 928h-2v-928h-230zM463 1567q57 98 112 139t121 41q71 0 146 -53q4 -2 14.5 -9.5t14.5 -10.5t13 -9t14 -8.5t13.5 -6.5t14.5 -5.5t13.5 -3t14.5 -1.5q23 0 46 16.5t34 30t35 46.5l127 -70q-102 -182 -233 -182 q-77 0 -144 49q-5 4 -17 13t-17.5 12.5t-15 10t-15.5 9t-14 6t-15.5 5t-15.5 1.5q-10 0 -19.5 -2.5t-18.5 -9t-15.5 -11.5t-15.5 -16t-13.5 -17t-14 -19.5t-12.5 -18.5z" />
<glyph unicode="&#xd2;" horiz-adv-x="1732" d="M113 672q0 193 99 355t272 256.5t380 94.5q124 0 240 -35.5t209.5 -100.5t163 -152t107.5 -195t38 -223q0 -195 -101 -359t-275 -259t-382 -95q-207 0 -380 95t-272 258.5t-99 359.5zM354 672q0 -138 67 -254.5t184.5 -185t258.5 -68.5q142 0 261 68.5t187 185t68 254.5 q0 136 -68 251.5t-187 183t-261 67.5q-141 0 -258.5 -67.5t-184.5 -183t-67 -251.5zM553 1761h278l205 -266h-205z" />
<glyph unicode="&#xd3;" horiz-adv-x="1732" d="M113 672q0 193 99 355t272 256.5t380 94.5q124 0 240 -35.5t209.5 -100.5t163 -152t107.5 -195t38 -223q0 -195 -101 -359t-275 -259t-382 -95q-207 0 -380 95t-272 258.5t-99 359.5zM354 672q0 -138 67 -254.5t184.5 -185t258.5 -68.5q142 0 261 68.5t187 185t68 254.5 q0 136 -68 251.5t-187 183t-261 67.5q-141 0 -258.5 -67.5t-184.5 -183t-67 -251.5zM696 1495l205 266h279l-281 -266h-203z" />
<glyph unicode="&#xd4;" horiz-adv-x="1732" d="M113 672q0 193 99 355t272 256.5t380 94.5q124 0 240 -35.5t209.5 -100.5t163 -152t107.5 -195t38 -223q0 -195 -101 -359t-275 -259t-382 -95q-207 0 -380 95t-272 258.5t-99 359.5zM354 672q0 -138 67 -254.5t184.5 -185t258.5 -68.5q142 0 261 68.5t187 185t68 254.5 q0 136 -68 251.5t-187 183t-261 67.5q-141 0 -258.5 -67.5t-184.5 -183t-67 -251.5zM537 1495l211 272h237l209 -272h-170l-158 152l-159 -152h-170z" />
<glyph unicode="&#xd5;" horiz-adv-x="1732" d="M113 672q0 193 99 355t272 256.5t380 94.5q124 0 240 -35.5t209.5 -100.5t163 -152t107.5 -195t38 -223q0 -195 -101 -359t-275 -259t-382 -95q-207 0 -380 95t-272 258.5t-99 359.5zM354 672q0 -138 67 -254.5t184.5 -185t258.5 -68.5q142 0 261 68.5t187 185t68 254.5 q0 136 -68 251.5t-187 183t-261 67.5q-141 0 -258.5 -67.5t-184.5 -183t-67 -251.5zM496 1567q57 98 112 139t121 41q70 0 145 -53q3 -2 13 -9t13 -9l12 -8t13 -8t11.5 -6.5t12.5 -6t12 -3.5t13.5 -3t12.5 -1q23 0 46 16.5t34 30t35 46.5l127 -70q-102 -182 -234 -182 q-76 0 -143 49q-4 3 -17.5 13t-17.5 12.5t-15 9.5t-16 9.5t-14 6.5t-16 5t-15 1q-12 0 -23.5 -4.5t-19 -9.5t-18.5 -17.5t-15.5 -18.5t-16.5 -22.5t-15 -21.5z" />
<glyph unicode="&#xd6;" horiz-adv-x="1732" d="M113 672q0 193 99 355t272 256.5t380 94.5q124 0 240 -35.5t209.5 -100.5t163 -152t107.5 -195t38 -223q0 -195 -101 -359t-275 -259t-382 -95q-207 0 -380 95t-272 258.5t-99 359.5zM354 672q0 -138 67 -254.5t184.5 -185t258.5 -68.5q142 0 261 68.5t187 185t68 254.5 q0 136 -68 251.5t-187 183t-261 67.5q-141 0 -258.5 -67.5t-184.5 -183t-67 -251.5zM522 1628q0 48 36 82.5t89 34.5t90 -35t37 -82q0 -49 -36.5 -82t-90.5 -33t-89.5 32.5t-35.5 82.5zM956 1628q0 48 36 82.5t89 34.5t90 -35t37 -82q0 -49 -36.5 -82t-90.5 -33t-89.5 32.5 t-35.5 82.5z" />
<glyph unicode="&#xd7;" horiz-adv-x="1550" d="M199 891l145 137l432 -371l432 371l140 -135l-424 -363l426 -362l-144 -135l-434 368l-432 -368l-139 133l424 362z" />
<glyph unicode="&#xd8;" horiz-adv-x="1732" d="M113 672q0 193 99 355t272 256.5t380 94.5q174 0 332 -71l123 176l151 -105l-116 -168q126 -99 197 -238.5t71 -299.5q0 -195 -101 -359t-275 -259t-382 -95q-169 0 -332 70l-118 -172l-154 102l115 166q-124 100 -193 242t-69 305zM354 672q0 -104 39.5 -197t110.5 -164 l569 819q-103 44 -209 44q-141 0 -258.5 -67.5t-184.5 -183t-67 -251.5zM655 207q93 -43 209 -43q142 0 261 68.5t187 185t68 254.5q0 103 -40 195.5t-113 160.5z" />
<glyph unicode="&#xd9;" horiz-adv-x="1595" d="M205 475v862h229v-862q0 -146 102.5 -228.5t260.5 -82.5q159 0 261.5 82.5t102.5 228.5v862h230v-862q0 -241 -166 -378.5t-428 -137.5q-170 0 -303 59t-211 177.5t-78 279.5zM483 1761h279l205 -266h-205z" />
<glyph unicode="&#xda;" horiz-adv-x="1595" d="M205 475v862h229v-862q0 -146 102.5 -228.5t260.5 -82.5q159 0 261.5 82.5t102.5 228.5v862h230v-862q0 -241 -166 -378.5t-428 -137.5q-170 0 -303 59t-211 177.5t-78 279.5zM627 1495l204 266h279l-281 -266h-202z" />
<glyph unicode="&#xdb;" horiz-adv-x="1595" d="M205 475v862h229v-862q0 -146 102.5 -228.5t260.5 -82.5q159 0 261.5 82.5t102.5 228.5v862h230v-862q0 -241 -166 -378.5t-428 -137.5q-170 0 -303 59t-211 177.5t-78 279.5zM467 1495l211 272h237l209 -272h-170l-157 152l-160 -152h-170z" />
<glyph unicode="&#xdc;" horiz-adv-x="1595" d="M205 475v862h229v-862q0 -146 102.5 -228.5t260.5 -82.5q159 0 261.5 82.5t102.5 228.5v862h230v-862q0 -241 -166 -378.5t-428 -137.5q-170 0 -303 59t-211 177.5t-78 279.5zM453 1628q0 48 36 82.5t89 34.5t90 -35t37 -82q0 -49 -36.5 -82t-90.5 -33t-89.5 32.5 t-35.5 82.5zM887 1628q0 48 36 82.5t89 34.5t90 -35t37 -82q0 -49 -36.5 -82t-90.5 -33t-89.5 32.5t-35.5 82.5z" />
<glyph unicode="&#xdd;" horiz-adv-x="1392" d="M33 1337h291l383 -516l383 516h270l-549 -721v-616h-229v616zM526 1495l205 266h279l-281 -266h-203z" />
<glyph unicode="&#xde;" horiz-adv-x="1579" d="M231 0v1337h230v-256h549q256 0 387 -141q106 -115 106 -268q0 -169 -123 -289q-132 -125 -370 -125h-549v-258h-230zM461 463h549q132 0 202 65q62 59 62 142q0 77 -55 135q-41 44 -93 58t-116 14h-549v-414z" />
<glyph unicode="&#xdf;" horiz-adv-x="1210" d="M176 0v1057q0 105 35 185t94.5 125.5t129.5 68t149 22.5q173 0 285 -98t112 -238q0 -63 -25 -119t-64 -94.5t-77.5 -63.5t-75.5 -38q55 -14 115.5 -49t121 -89t99.5 -135t39 -172q0 -168 -127.5 -275t-353.5 -107l-21 163q136 0 209.5 62t73.5 164q0 60 -26.5 114.5 t-66.5 91.5t-89 66.5t-91.5 45t-76.5 20.5l20 161q93 19 145 86.5t52 149.5q0 83 -51 130.5t-125 47.5q-81 0 -141 -58t-60 -167v-1057h-209z" />
<glyph unicode="&#xe0;" horiz-adv-x="1239" d="M94 319q0 137 121.5 227.5t335.5 90.5q87 0 173 -20t136 -56v109q0 87 -68 129.5t-180 42.5q-105 0 -213.5 -38.5t-171.5 -82.5l-73 174q82 50 206.5 88.5t262.5 38.5q88 0 165 -15.5t142 -48t103 -91t38 -136.5v-553q0 -116 27 -178h-213q-16 40 -25 123 q-74 -64 -161.5 -103.5t-215.5 -39.5q-176 0 -282.5 93.5t-106.5 245.5zM307 319q0 -71 59 -117t162 -46q64 0 125.5 18t104 44.5t67 46t35.5 32.5v100q-39 29 -113.5 51.5t-160.5 22.5q-279 0 -279 -152zM350 1427h244l164 -299h-191z" />
<glyph unicode="&#xe1;" horiz-adv-x="1239" d="M94 319q0 137 121.5 227.5t335.5 90.5q87 0 173 -20t136 -56v109q0 87 -68 129.5t-180 42.5q-105 0 -213.5 -38.5t-171.5 -82.5l-73 174q82 50 206.5 88.5t262.5 38.5q88 0 165 -15.5t142 -48t103 -91t38 -136.5v-553q0 -116 27 -178h-213q-16 40 -25 123 q-74 -64 -161.5 -103.5t-215.5 -39.5q-176 0 -282.5 93.5t-106.5 245.5zM307 319q0 -71 59 -117t162 -46q64 0 125.5 18t104 44.5t67 46t35.5 32.5v100q-39 29 -113.5 51.5t-160.5 22.5q-279 0 -279 -152zM479 1128l164 299h244l-217 -299h-191z" />
<glyph unicode="&#xe2;" horiz-adv-x="1239" d="M94 319q0 137 121.5 227.5t335.5 90.5q87 0 173 -20t136 -56v109q0 87 -68 129.5t-180 42.5q-105 0 -213.5 -38.5t-171.5 -82.5l-73 174q82 50 206.5 88.5t262.5 38.5q88 0 165 -15.5t142 -48t103 -91t38 -136.5v-553q0 -116 27 -178h-213q-16 40 -25 123 q-74 -64 -161.5 -103.5t-215.5 -39.5q-176 0 -282.5 93.5t-106.5 245.5zM289 1130l211 279h237l209 -279h-170l-158 160l-159 -160h-170zM307 319q0 -71 59 -117t162 -46q64 0 125.5 18t104 44.5t67 46t35.5 32.5v100q-39 29 -113.5 51.5t-160.5 22.5q-279 0 -279 -152z" />
<glyph unicode="&#xe3;" horiz-adv-x="1239" d="M94 319q0 137 121.5 227.5t335.5 90.5q87 0 173 -20t136 -56v109q0 87 -68 129.5t-180 42.5q-105 0 -213.5 -38.5t-171.5 -82.5l-73 174q82 50 206.5 88.5t262.5 38.5q88 0 165 -15.5t142 -48t103 -91t38 -136.5v-553q0 -116 27 -178h-213q-16 40 -25 123 q-74 -64 -161.5 -103.5t-215.5 -39.5q-176 0 -282.5 93.5t-106.5 245.5zM248 1202q57 98 112 139t121 41q71 0 146 -53q2 -2 11 -8l12 -8t11 -7.5t11.5 -7t10.5 -6t11 -6t10.5 -4t11.5 -3.5t11 -2t12 -1q23 0 45.5 16t34.5 30t35 46l127 -70q-102 -182 -233 -182 q-77 0 -144 49q-6 4 -20 14.5t-20 14.5t-17 11t-18 10t-16.5 5.5t-18.5 2.5q-12 0 -23.5 -4.5t-19 -9.5t-19 -18t-16 -18.5t-16.5 -23t-15 -21.5zM307 319q0 -71 59 -117t162 -46q64 0 125.5 18t104 44.5t67 46t35.5 32.5v100q-39 29 -113.5 51.5t-160.5 22.5 q-279 0 -279 -152z" />
<glyph unicode="&#xe4;" horiz-adv-x="1239" d="M94 319q0 137 121.5 227.5t335.5 90.5q87 0 173 -20t136 -56v109q0 87 -68 129.5t-180 42.5q-105 0 -213.5 -38.5t-171.5 -82.5l-73 174q82 50 206.5 88.5t262.5 38.5q88 0 165 -15.5t142 -48t103 -91t38 -136.5v-553q0 -116 27 -178h-213q-16 40 -25 123 q-74 -64 -161.5 -103.5t-215.5 -39.5q-176 0 -282.5 93.5t-106.5 245.5zM274 1264q0 48 36 82t89 34t90 -34.5t37 -81.5q0 -49 -36.5 -82t-90.5 -33t-89.5 32.5t-35.5 82.5zM307 319q0 -71 59 -117t162 -46q64 0 125.5 18t104 44.5t67 46t35.5 32.5v100q-39 29 -113.5 51.5 t-160.5 22.5q-279 0 -279 -152zM709 1264q0 48 36 82t89 34t90 -34.5t37 -81.5q0 -49 -36.5 -82t-90.5 -33t-89.5 32.5t-35.5 82.5z" />
<glyph unicode="&#xe5;" horiz-adv-x="1239" d="M94 319q0 137 121.5 227.5t335.5 90.5q87 0 173 -20t136 -56v109q0 87 -68 129.5t-180 42.5q-105 0 -213.5 -38.5t-171.5 -82.5l-73 174q82 50 206.5 88.5t262.5 38.5q88 0 165 -15.5t142 -48t103 -91t38 -136.5v-553q0 -116 27 -178h-213q-16 40 -25 123 q-74 -64 -161.5 -103.5t-215.5 -39.5q-176 0 -282.5 93.5t-106.5 245.5zM307 319q0 -71 59 -117t162 -46q64 0 125.5 18t104 44.5t67 46t35.5 32.5v100q-39 29 -113.5 51.5t-160.5 22.5q-279 0 -279 -152zM354 1319q0 91 68.5 153t189.5 62t191.5 -62.5t70.5 -152.5 q0 -88 -70 -147.5t-192 -59.5q-121 0 -189.5 59t-68.5 148zM481 1319q0 -49 37 -80t94 -31q59 0 96 31t37 80q0 53 -37.5 88t-95.5 35q-57 0 -94 -35t-37 -88z" />
<glyph unicode="&#xe6;" horiz-adv-x="1976" d="M94 319q0 137 121.5 227.5t335.5 90.5q88 0 178.5 -20t140.5 -56v109q0 86 -72 129t-186 43q-105 0 -213.5 -38.5t-171.5 -82.5l-73 174q82 50 206.5 88.5t262.5 38.5q327 0 385 -178l2 -6q52 82 152 133t204 51q82 0 157.5 -19.5t143.5 -63.5t116 -109t72.5 -163 t16.5 -218h-801q3 -35 16 -80q31 -93 105 -153t174 -60q206 0 338 135l141 -137q-86 -84 -207.5 -134.5t-271.5 -50.5q-131 0 -236.5 53.5t-173.5 147.5q-89 -96 -212.5 -148.5t-260.5 -52.5q-175 0 -282 98.5t-107 251.5zM307 319q0 -71 59 -117t162 -46q62 0 114.5 12.5 t97 38t74.5 49t69 59.5q-17 56 -21 80q-122 76 -276 76q-279 0 -279 -152zM1077 614h563q-1 75 -42 129.5t-101.5 78.5t-130.5 24q-114 0 -186 -62t-103 -170z" />
<glyph unicode="&#xe7;" horiz-adv-x="1155" d="M106 498q0 154 71.5 274.5t192 185t265.5 64.5q250 0 424 -162l-141 -141q-57 57 -132 87t-151 30q-126 0 -211.5 -93.5t-85.5 -244.5q0 -153 89 -247.5t220 -94.5q160 0 295 135l141 -133q-18 -22 -50 -48t-84 -58t-127 -54.5t-158 -26.5l-37 -82q37 11 61 11 q83 2 147 -42.5t64 -121.5q0 -90 -93.5 -144.5t-242.5 -54.5q-113 0 -293 45l33 117q184 -35 250 -35q72 0 114 19t42 55q0 55 -97 55q-26 0 -88 -10l-55 65l61 129q-184 32 -304 172.5t-120 348.5z" />
<glyph unicode="&#xe8;" horiz-adv-x="1222" d="M106 487q0 148 65 270t184 193.5t268 71.5q74 0 143.5 -17.5t134 -57.5t113 -98.5t77.5 -146t29 -194.5q0 -39 -2 -59h-799q11 -129 90.5 -211t217.5 -82q91 0 177.5 36.5t145.5 98.5l142 -137q-86 -82 -215.5 -133.5t-272.5 -51.5q-154 0 -268.5 71t-172 187.5 t-57.5 259.5zM332 614h555q-1 75 -43 129.5t-102.5 78.5t-129.5 24q-109 0 -180.5 -64.5t-99.5 -167.5zM352 1427h244l164 -299h-191z" />
<glyph unicode="&#xe9;" horiz-adv-x="1222" d="M106 487q0 148 65 270t184 193.5t268 71.5q74 0 143.5 -17.5t134 -57.5t113 -98.5t77.5 -146t29 -194.5q0 -39 -2 -59h-799q11 -129 90.5 -211t217.5 -82q91 0 177.5 36.5t145.5 98.5l142 -137q-86 -82 -215.5 -133.5t-272.5 -51.5q-154 0 -268.5 71t-172 187.5 t-57.5 259.5zM332 614h555q-1 75 -43 129.5t-102.5 78.5t-129.5 24q-109 0 -180.5 -64.5t-99.5 -167.5zM481 1128l164 299h244l-217 -299h-191z" />
<glyph unicode="&#xea;" horiz-adv-x="1222" d="M106 487q0 148 65 270t184 193.5t268 71.5q74 0 143.5 -17.5t134 -57.5t113 -98.5t77.5 -146t29 -194.5q0 -39 -2 -59h-799q11 -129 90.5 -211t217.5 -82q91 0 177.5 36.5t145.5 98.5l142 -137q-86 -82 -215.5 -133.5t-272.5 -51.5q-154 0 -268.5 71t-172 187.5 t-57.5 259.5zM291 1130l211 279h237l209 -279h-170l-157 160l-160 -160h-170zM332 614h555q-1 75 -43 129.5t-102.5 78.5t-129.5 24q-109 0 -180.5 -64.5t-99.5 -167.5z" />
<glyph unicode="&#xeb;" horiz-adv-x="1222" d="M106 487q0 148 65 270t184 193.5t268 71.5q74 0 143.5 -17.5t134 -57.5t113 -98.5t77.5 -146t29 -194.5q0 -39 -2 -59h-799q11 -129 90.5 -211t217.5 -82q91 0 177.5 36.5t145.5 98.5l142 -137q-86 -82 -215.5 -133.5t-272.5 -51.5q-154 0 -268.5 71t-172 187.5 t-57.5 259.5zM276 1264q0 48 36 82t89 34t90 -34.5t37 -81.5q0 -49 -36.5 -82t-90.5 -33t-89.5 32.5t-35.5 82.5zM332 614h555q-1 75 -43 129.5t-102.5 78.5t-129.5 24q-109 0 -180.5 -64.5t-99.5 -167.5zM711 1264q0 48 36 82t89 34t90 -34.5t37 -81.5q0 -49 -36.5 -82 t-90.5 -33t-89.5 32.5t-35.5 82.5z" />
<glyph unicode="&#xec;" horiz-adv-x="563" d="M14 1427h244l164 -299h-191zM176 0v989h211v-989h-211z" />
<glyph unicode="&#xed;" horiz-adv-x="563" d="M143 1128l164 299h244l-217 -299h-191zM176 0v989h211v-989h-211z" />
<glyph unicode="&#xee;" horiz-adv-x="563" d="M-47 1130l211 279h237l209 -279h-170l-157 160l-160 -160h-170zM176 0v989h211v-989h-211z" />
<glyph unicode="&#xef;" horiz-adv-x="563" d="M-61 1264q0 48 35.5 82t88.5 34t90 -34.5t37 -81.5q0 -49 -36.5 -82t-90.5 -33t-89 32.5t-35 82.5zM176 0v989h211v-989h-211zM373 1264q0 48 36 82t89 34t90 -34.5t37 -81.5q0 -49 -36.5 -82t-90.5 -33t-89.5 32.5t-35.5 82.5z" />
<glyph unicode="&#xf0;" horiz-adv-x="1282" d="M109 473q0 216 135 362t327 146q187 0 316 -137q-52 155 -209 319l-322 -114l-49 141l246 86q-81 68 -193 137l238 41q14 -10 44 -31.5t55 -40t48 -36.5l261 92l49 -142l-185 -65q273 -279 273 -696q0 -267 -150 -420q-72 -72 -168.5 -109t-203.5 -37q-140 0 -258 68 t-186 184t-68 252zM330 477q0 -137 79 -229t207 -92q133 0 218 88q92 95 92 233q0 134 -87.5 226t-224.5 92q-128 0 -206 -91.5t-78 -226.5z" />
<glyph unicode="&#xf1;" horiz-adv-x="1239" d="M154 989h192q15 -66 21 -145q69 84 142.5 131t184.5 47q161 0 271 -100t110 -252v-670h-213v670q0 69 -57.5 117.5t-145.5 48.5q-146 0 -270 -158v-678h-211v717q0 147 -24 272zM248 1202q57 98 112 139t121 41q71 0 146 -53q2 -2 11 -8l12 -8t11 -7.5t11.5 -7t10.5 -6 t11 -6t10.5 -4t11.5 -3.5t11 -2t12 -1q23 0 45.5 16t34.5 30t35 46l127 -70q-102 -182 -233 -182q-77 0 -144 49q-6 4 -20 14.5t-20 14.5t-17 11t-18 10t-16.5 5.5t-18.5 2.5q-12 0 -23.5 -4.5t-19 -9.5t-19 -18t-16 -18.5t-16.5 -23t-15 -21.5z" />
<glyph unicode="&#xf2;" horiz-adv-x="1265" d="M106 498q0 145 65 264t186 189.5t274 70.5q232 0 380 -151t148 -373q0 -148 -65.5 -268.5t-187 -190.5t-275.5 -70q-115 0 -213.5 41t-166.5 112t-106.5 168.5t-38.5 207.5zM326 498q0 -149 82.5 -251t222.5 -102q143 0 227 102t84 251q0 145 -84.5 246.5t-226.5 101.5 q-139 0 -222 -101.5t-83 -246.5zM365 1427h243l164 -299h-190z" />
<glyph unicode="&#xf3;" horiz-adv-x="1265" d="M106 498q0 145 65 264t186 189.5t274 70.5q232 0 380 -151t148 -373q0 -148 -65.5 -268.5t-187 -190.5t-275.5 -70q-115 0 -213.5 41t-166.5 112t-106.5 168.5t-38.5 207.5zM326 498q0 -149 82.5 -251t222.5 -102q143 0 227 102t84 251q0 145 -84.5 246.5t-226.5 101.5 q-139 0 -222 -101.5t-83 -246.5zM494 1128l163 299h244l-217 -299h-190z" />
<glyph unicode="&#xf4;" horiz-adv-x="1265" d="M106 498q0 145 65 264t186 189.5t274 70.5q232 0 380 -151t148 -373q0 -148 -65.5 -268.5t-187 -190.5t-275.5 -70q-115 0 -213.5 41t-166.5 112t-106.5 168.5t-38.5 207.5zM303 1130l211 279h238l209 -279h-170l-158 160l-160 -160h-170zM326 498q0 -149 82.5 -251 t222.5 -102q143 0 227 102t84 251q0 145 -84.5 246.5t-226.5 101.5q-139 0 -222 -101.5t-83 -246.5z" />
<glyph unicode="&#xf5;" horiz-adv-x="1265" d="M106 498q0 145 65 264t186 189.5t274 70.5q232 0 380 -151t148 -373q0 -148 -65.5 -268.5t-187 -190.5t-275.5 -70q-115 0 -213.5 41t-166.5 112t-106.5 168.5t-38.5 207.5zM262 1202q57 97 112.5 138.5t121.5 41.5q70 0 145 -53q29 -20 40 -27.5t33 -16.5t40 -9 q23 0 45.5 16t33.5 29.5t35 46.5l127 -70q-102 -182 -233 -182q-77 0 -144 49q-6 4 -20 14.5t-20 14.5t-17 11t-18 10t-16.5 5.5t-18.5 2.5q-12 0 -23.5 -4.5t-19 -9.5t-19 -18t-16 -18.5t-16.5 -23t-15 -21.5zM326 498q0 -149 82.5 -251t222.5 -102q143 0 227 102t84 251 q0 145 -84.5 246.5t-226.5 101.5q-139 0 -222 -101.5t-83 -246.5z" />
<glyph unicode="&#xf6;" horiz-adv-x="1265" d="M106 498q0 145 65 264t186 189.5t274 70.5q232 0 380 -151t148 -373q0 -148 -65.5 -268.5t-187 -190.5t-275.5 -70q-115 0 -213.5 41t-166.5 112t-106.5 168.5t-38.5 207.5zM289 1264q0 48 36 82t89 34t90 -34.5t37 -81.5q0 -49 -36.5 -82t-90.5 -33t-89.5 32.5 t-35.5 82.5zM326 498q0 -149 82.5 -251t222.5 -102q143 0 227 102t84 251q0 145 -84.5 246.5t-226.5 101.5q-139 0 -222 -101.5t-83 -246.5zM723 1264q0 48 36 82t89 34t90 -34.5t37 -81.5q0 -49 -36.5 -82t-90.5 -33t-89.5 32.5t-35.5 82.5z" />
<glyph unicode="&#xf7;" horiz-adv-x="1550" d="M184 436v189h1180v-189h-1180zM625 129q0 58 43.5 98.5t107.5 40.5t108 -41t44 -98q0 -58 -43.5 -97.5t-108.5 -39.5q-64 0 -107.5 39t-43.5 98zM625 930q0 59 43.5 99t107.5 40t108 -40t44 -99q0 -57 -44 -97t-108 -40t-107.5 40t-43.5 97z" />
<glyph unicode="&#xf8;" horiz-adv-x="1265" d="M106 498q0 145 65 264t186 189.5t274 70.5q133 0 246 -55l102 147l119 -82l-103 -147q77 -71 120.5 -172t43.5 -215q0 -148 -65.5 -268.5t-187 -190.5t-275.5 -70q-127 0 -242 54l-102 -146l-119 82l102 145q-79 73 -121.5 174t-42.5 220zM326 498q0 -132 63 -226 l379 541q-64 33 -137 33q-139 0 -222 -101.5t-83 -246.5zM496 176q60 -31 135 -31q143 0 227 102t84 251q0 127 -65 219z" />
<glyph unicode="&#xf9;" horiz-adv-x="1236" d="M162 319v670h213v-670q0 -69 57.5 -117t145.5 -48q147 0 270 157v678h211v-717q0 -178 18 -272h-194q-15 64 -15 145q-69 -84 -141.5 -130t-183.5 -46q-162 0 -271.5 99t-109.5 251zM350 1427h244l164 -299h-191z" />
<glyph unicode="&#xfa;" horiz-adv-x="1236" d="M162 319v670h213v-670q0 -69 57.5 -117t145.5 -48q147 0 270 157v678h211v-717q0 -178 18 -272h-194q-15 64 -15 145q-69 -84 -141.5 -130t-183.5 -46q-162 0 -271.5 99t-109.5 251zM479 1128l164 299h244l-217 -299h-191z" />
<glyph unicode="&#xfb;" horiz-adv-x="1236" d="M162 319v670h213v-670q0 -69 57.5 -117t145.5 -48q147 0 270 157v678h211v-717q0 -178 18 -272h-194q-15 64 -15 145q-69 -84 -141.5 -130t-183.5 -46q-162 0 -271.5 99t-109.5 251zM289 1130l211 279h237l209 -279h-170l-158 160l-159 -160h-170z" />
<glyph unicode="&#xfc;" horiz-adv-x="1236" d="M162 319v670h213v-670q0 -69 57.5 -117t145.5 -48q147 0 270 157v678h211v-717q0 -178 18 -272h-194q-15 64 -15 145q-69 -84 -141.5 -130t-183.5 -46q-162 0 -271.5 99t-109.5 251zM274 1264q0 48 36 82t89 34t90 -34.5t37 -81.5q0 -49 -36.5 -82t-90.5 -33t-89.5 32.5 t-35.5 82.5zM709 1264q0 48 36 82t89 34t90 -34.5t37 -81.5q0 -49 -36.5 -82t-90.5 -33t-89.5 32.5t-35.5 82.5z" />
<glyph unicode="&#xfd;" horiz-adv-x="1155" d="M49 989h240l282 -686h13l307 686h215l-674 -1413h-219l250 494zM436 1128l164 299h244l-217 -299h-191z" />
<glyph unicode="&#xfe;" horiz-adv-x="1286" d="M176 -424v1858h211v-562q43 57 120.5 103.5t184.5 46.5q99 0 188 -38t155 -106t104.5 -168t38.5 -218q0 -115 -39 -214t-105 -166t-154.5 -105t-187.5 -38q-169 0 -305 152v-545h-211zM387 291q134 -137 285 -137q116 0 194 93.5t78 244.5q0 153 -78.5 248.5t-193.5 95.5 q-69 0 -134 -28.5t-96.5 -56t-54.5 -55.5v-405z" />
<glyph unicode="&#xff;" horiz-adv-x="1155" d="M49 989h240l282 -686h13l307 686h215l-674 -1413h-219l250 494zM231 1264q0 48 36 82t89 34t90 -34.5t37 -81.5q0 -49 -36.5 -82t-90.5 -33t-89.5 32.5t-35.5 82.5zM666 1264q0 48 36 82t89 34t90 -34.5t37 -81.5q0 -49 -36.5 -82t-90.5 -33t-89.5 32.5t-35.5 82.5z" />
<glyph unicode="&#x152;" horiz-adv-x="2611" d="M113 672q0 193 96.5 355t265 256.5t369.5 94.5q367 0 536 -235v194h1086v-204h-856v-332h514v-205h-514v-391h905v-205h-1135v193q-90 -119 -230 -176.5t-306 -57.5q-202 0 -370 95t-264.5 258.5t-96.5 359.5zM354 672q0 -138 65 -254.5t178 -185t247 -68.5 q148 0 271.5 68.5t194 185t70.5 254.5q0 136 -70.5 251.5t-194 183t-271.5 67.5q-135 0 -247.5 -67.5t-177.5 -183t-65 -251.5z" />
<glyph unicode="&#x153;" horiz-adv-x="2058" d="M104 498q0 143 71.5 264t192 190.5t261.5 69.5q127 0 242.5 -62.5t175.5 -164.5q55 104 164.5 165.5t236.5 61.5q82 0 157.5 -19.5t143.5 -63.5t116 -109t72.5 -163t16.5 -218h-801q3 -42 14 -76q29 -95 104 -156t177 -61q206 0 338 135l141 -137q-86 -84 -207.5 -134.5 t-271.5 -50.5q-134 0 -244.5 60t-163.5 159q-60 -99 -173.5 -159t-237.5 -60q-141 0 -261.5 69.5t-192 192t-71.5 267.5zM324 498q0 -149 82.5 -251t222.5 -102q143 0 227 102t84 251q0 145 -84.5 246.5t-226.5 101.5q-139 0 -222 -101.5t-83 -246.5zM1169 614h553 q-1 75 -42 129.5t-101.5 78.5t-130.5 24q-107 0 -178.5 -62.5t-100.5 -169.5z" />
<glyph unicode="&#x178;" horiz-adv-x="1392" d="M33 1337h291l383 -516l383 516h270l-549 -721v-616h-229v616zM352 1628q0 48 36 82.5t89 34.5t90 -35t37 -82q0 -49 -36.5 -82t-90.5 -33t-89.5 32.5t-35.5 82.5zM786 1628q0 48 36 82.5t89 34.5t90 -35t37 -82q0 -49 -36.5 -82t-90.5 -33t-89.5 32.5t-35.5 82.5z" />
<glyph unicode="&#x2c6;" horiz-adv-x="1024" d="M182 1130l211 279h238l209 -279h-170l-158 160l-160 -160h-170z" />
<glyph unicode="&#x2dc;" horiz-adv-x="1024" d="M141 1202q57 97 112.5 138.5t121.5 41.5q70 0 145 -53q29 -20 40 -27.5t33 -16.5t40 -9q23 0 45.5 16t34.5 30t35 46l126 -70q-102 -182 -233 -182q-76 0 -143 49q-5 3 -20 14.5t-20 15t-17 11t-19 10t-16.5 5t-18.5 2.5q-12 0 -23.5 -4.5t-19.5 -10t-18.5 -17.5 t-15.5 -19t-16 -23t-15 -21z" />
<glyph unicode="&#x2000;" horiz-adv-x="926" />
<glyph unicode="&#x2001;" horiz-adv-x="1853" />
<glyph unicode="&#x2002;" horiz-adv-x="926" />
<glyph unicode="&#x2003;" horiz-adv-x="1853" />
<glyph unicode="&#x2004;" horiz-adv-x="617" />
<glyph unicode="&#x2005;" horiz-adv-x="463" />
<glyph unicode="&#x2006;" horiz-adv-x="308" />
<glyph unicode="&#x2007;" horiz-adv-x="308" />
<glyph unicode="&#x2008;" horiz-adv-x="231" />
<glyph unicode="&#x2009;" horiz-adv-x="370" />
<glyph unicode="&#x200a;" horiz-adv-x="102" />
<glyph unicode="&#x2010;" horiz-adv-x="800" d="M137 418v209h527v-209h-527z" />
<glyph unicode="&#x2011;" horiz-adv-x="800" d="M137 418v209h527v-209h-527z" />
<glyph unicode="&#x2012;" horiz-adv-x="800" d="M137 418v209h527v-209h-527z" />
<glyph unicode="&#x2013;" horiz-adv-x="1290" d="M139 438v189h1012v-189h-1012z" />
<glyph unicode="&#x2014;" horiz-adv-x="2273" d="M139 438v189h1995v-189h-1995z" />
<glyph unicode="&#x2018;" horiz-adv-x="614" d="M106 993q0 70 23.5 131t59 103t86 77.5t95 56.5t95.5 38l61 -129q-55 -14 -112 -43.5t-103.5 -78t-46.5 -99.5v-17q40 10 55 10q66 0 110 -38t44 -95t-44 -96t-110 -39q-84 0 -148.5 63t-64.5 156z" />
<glyph unicode="&#x2019;" horiz-adv-x="614" d="M102 883q55 14 112.5 43.5t104 78t46.5 99.5v16q-40 -10 -56 -10q-66 0 -109.5 38t-43.5 95t43.5 96t109.5 39q84 0 148.5 -63t64.5 -156q0 -283 -358 -405z" />
<glyph unicode="&#x201a;" horiz-adv-x="618" d="M78 -229q55 14 112 43.5t103.5 78t46.5 99.5v16q-40 -10 -55 -10q-66 0 -110 38t-44 95t44 96t110 39q84 0 148.5 -63t64.5 -156q0 -70 -23.5 -131t-59 -102.5t-86 -77t-95 -56.5t-95.5 -38z" />
<glyph unicode="&#x201c;" horiz-adv-x="1173" d="M106 993q0 70 23.5 131t59 103t86 77.5t95 56.5t95.5 38l61 -129q-55 -14 -112 -43.5t-103.5 -78t-46.5 -99.5v-17q40 10 55 10q66 0 110 -38t44 -95t-44 -96t-110 -39q-84 0 -148.5 63t-64.5 156zM666 993q0 70 23.5 131t59 103t85.5 77.5t94.5 56.5t95.5 38l61 -129 q-55 -14 -112 -43.5t-103.5 -78t-46.5 -99.5v-17q40 10 56 10q66 0 109.5 -38t43.5 -95t-43.5 -96t-109.5 -39q-84 0 -148.5 63t-64.5 156z" />
<glyph unicode="&#x201d;" horiz-adv-x="1173" d="M102 883q55 14 112.5 43.5t104 78t46.5 99.5v16q-40 -10 -56 -10q-66 0 -109.5 38t-43.5 95t43.5 96t109.5 39q84 0 148.5 -63t64.5 -156q0 -283 -358 -405zM662 883q55 14 112 43.5t103.5 78t46.5 99.5v16q-40 -10 -56 -10q-66 0 -109.5 38t-43.5 95t43.5 96t109.5 39 q84 0 148.5 -63t64.5 -156q0 -283 -358 -405z" />
<glyph unicode="&#x201e;" horiz-adv-x="1177" d="M78 -229q55 14 112 43.5t103.5 78t46.5 99.5v16q-40 -10 -55 -10q-66 0 -110 38t-44 95t44 96t110 39q84 0 148.5 -63t64.5 -156q0 -70 -23.5 -131t-59 -102.5t-86 -77t-95 -56.5t-95.5 -38zM637 -229q55 14 112 43.5t103.5 78t46.5 99.5v16q-40 -10 -55 -10 q-66 0 -110 38t-44 95t44 96t110 39q84 0 148.5 -63t64.5 -156q0 -70 -23.5 -131t-59 -102.5t-86 -77t-95 -56.5t-95.5 -38z" />
<glyph unicode="&#x2022;" horiz-adv-x="892" d="M113 604q0 132 97.5 225t235.5 93q137 0 235.5 -93t98.5 -225q0 -131 -98.5 -224t-235.5 -93q-138 0 -235.5 92.5t-97.5 224.5z" />
<glyph unicode="&#x2026;" horiz-adv-x="2048" d="M203 117q0 62 46.5 105.5t115.5 43.5t116 -43.5t47 -105.5t-47 -105t-116 -43t-115.5 43t-46.5 105zM860 117q0 62 46.5 105.5t115.5 43.5t116.5 -43.5t47.5 -105.5t-47.5 -105t-116.5 -43t-115.5 43t-46.5 105zM1518 117q0 62 46.5 105.5t114.5 43.5q69 0 116.5 -43.5 t47.5 -105.5t-47.5 -105t-116.5 -43t-115 43t-46 105z" />
<glyph unicode="&#x202f;" horiz-adv-x="370" />
<glyph unicode="&#x2030;" horiz-adv-x="3055" d="M111 913q0 147 116.5 252t282.5 105t285.5 -105.5t119.5 -251.5q0 -147 -119.5 -252.5t-285.5 -105.5q-167 0 -283 105t-116 253zM307 913q0 -75 59.5 -129.5t143.5 -54.5q86 0 147.5 54.5t61.5 129.5t-61.5 129t-147.5 54q-84 0 -143.5 -54t-59.5 -129zM623 0l737 1239 h180l-735 -1239h-182zM1247 328q0 145 117.5 250.5t282.5 105.5q166 0 285.5 -105.5t119.5 -250.5q0 -149 -119.5 -254t-285.5 -105t-283 105t-117 254zM1444 328q0 -76 59.5 -130.5t143.5 -54.5q86 0 147 55t61 130t-61 128.5t-147 53.5q-84 0 -143.5 -53.5t-59.5 -128.5z M2150 328q0 145 117.5 250.5t282.5 105.5q166 0 285.5 -105.5t119.5 -250.5q0 -149 -119.5 -254t-285.5 -105t-283 105t-117 254zM2347 328q0 -76 59.5 -130.5t143.5 -54.5q86 0 148.5 55t62.5 130t-62.5 128.5t-148.5 53.5q-84 0 -143.5 -53.5t-59.5 -128.5z" />
<glyph unicode="&#x2039;" horiz-adv-x="702" d="M106 451v106l203 252h254l-248 -297v-16l248 -295h-254z" />
<glyph unicode="&#x203a;" horiz-adv-x="702" d="M139 201l248 295v16l-248 297h254l203 -252v-106l-203 -250h-254z" />
<glyph unicode="&#x2044;" horiz-adv-x="450" d="M-242 0l760 1337h180l-757 -1337h-183z" />
<glyph unicode="&#x205f;" horiz-adv-x="463" />
<glyph unicode="&#x2070;" horiz-adv-x="1185" d="M78 895q0 129 69.5 239t187 173t255.5 63q139 0 258.5 -63t189.5 -172.5t70 -239.5q0 -131 -70 -241t-189 -173t-259 -63q-138 0 -255.5 62.5t-187 173t-69.5 241.5zM276 895q0 -123 92 -211t222 -88q131 0 225 88t94 211q0 121 -94.5 209t-224.5 88t-222 -87.5 t-92 -209.5z" />
<glyph unicode="&#x2074;" horiz-adv-x="1171" d="M53 637v135l705 565h170v-538h174v-162h-174v-186h-201v186h-674zM352 799h375v280h-16q-58 -46 -179.5 -138t-179.5 -138v-4z" />
<glyph unicode="&#x2075;" horiz-adv-x="1069" d="M59 532l101 160q153 -96 368 -96q74 0 133.5 14t102.5 53t43 99q0 56 -59.5 89.5t-139.5 33.5q-103 0 -180 -27t-156 -76l-125 86v469h740v-178h-557v-186q67 43 129 62.5t153 19.5q101 0 189 -32t146.5 -100.5t58.5 -160.5q0 -91 -41.5 -160t-112 -108t-152.5 -57.5 t-174 -18.5q-260 0 -467 114z" />
<glyph unicode="&#x2076;" horiz-adv-x="1103" d="M80 881q0 112 43.5 205.5t117 154.5t170.5 95t205 34q206 0 380 -99q6 -4 8 -5l-121 -140q-107 66 -271 66q-136 0 -235.5 -73t-112.5 -199q187 116 381 116q95 0 170.5 -24.5t121 -65t69.5 -89.5t24 -103q0 -146 -119 -241t-307 -95q-101 0 -194 30t-167.5 86.5 t-118.5 146.5t-44 200zM283 774q37 -86 125 -132t200 -46q97 0 160 48.5t63 113.5q0 46 -50.5 82.5t-151.5 36.5q-153 0 -346 -103z" />
<glyph unicode="&#x2077;" horiz-adv-x="987" d="M63 1159v178h859v-178l-502 -708h-262l534 708h-629z" />
<glyph unicode="&#x2078;" horiz-adv-x="1107" d="M78 705q0 95 62 154.5t149 74.5q-78 14 -120 61t-42 125q0 62 40 111.5t104 79.5t137.5 45.5t146.5 15.5q72 0 145 -15.5t137 -45.5t104 -79.5t40 -111.5q0 -159 -164 -186q89 -15 151 -74.5t62 -154.5q0 -89 -68 -156t-175 -100t-232 -33q-127 0 -234.5 33t-175 100 t-67.5 156zM295 723q0 -61 76.5 -95t183.5 -34q106 0 182 34t76 95t-80.5 96t-177.5 35q-99 0 -179.5 -35t-80.5 -96zM344 1102q0 -103 211 -103q209 0 209 103q0 51 -65.5 80.5t-143.5 29.5q-80 0 -145.5 -29.5t-65.5 -80.5z" />
<glyph unicode="&#x2079;" horiz-adv-x="1103" d="M74 1034q0 146 119 241t307 95q101 0 194 -30t167.5 -86.5t118.5 -146.5t44 -200q0 -149 -75 -262t-196 -170t-266 -57q-35 0 -68.5 2.5t-63 8t-55 11t-50.5 14.5t-42 15t-37 16t-29.5 14.5t-24.5 13t-17 9.5l121 140q111 -66 271 -66q135 0 236 73t114 199 q-187 -116 -383 -116q-95 0 -170.5 24.5t-121 65t-69.5 89.5t-24 103zM272 1030q0 -46 51 -82.5t154 -36.5q159 0 344 103q-37 85 -125.5 131.5t-199.5 46.5q-96 0 -160 -48.5t-64 -113.5z" />
<glyph unicode="&#x207d;" horiz-adv-x="604" d="M72 831q0 206 104.5 366.5t294.5 258.5l100 -119q-137 -78 -219 -210t-82 -296q0 -163 82 -294t219 -207l-100 -121q-190 98 -294.5 258t-104.5 364z" />
<glyph unicode="&#x207e;" horiz-adv-x="604" d="M33 330q136 77 217.5 207.5t81.5 293.5t-81.5 295.5t-217.5 210.5l100 119q190 -99 294.5 -259t104.5 -366q0 -204 -105 -364t-294 -258z" />
<glyph unicode="&#x207f;" horiz-adv-x="946" d="M125 1159h164q7 -32 14 -100q49 61 98.5 93t130.5 32q120 0 203.5 -72.5t83.5 -181.5v-479h-182v479q0 40 -38.5 69t-96.5 29q-96 0 -178 -106v-471h-183v501q0 111 -16 207z" />
<glyph unicode="&#x2080;" horiz-adv-x="1181" d="M76 100q0 129 69.5 239t187 173t255.5 63q139 0 258.5 -63t189.5 -172.5t70 -239.5q0 -131 -70 -241t-189 -173t-259 -63q-138 0 -255.5 62.5t-187 173t-69.5 241.5zM274 100q0 -123 92 -211t222 -88q131 0 225 88t94 211q0 122 -94.5 209.5t-224.5 87.5t-222 -87.5 t-92 -209.5z" />
<glyph unicode="&#x2081;" horiz-adv-x="655" d="M16 430l265 113h200v-887h-200v706l-222 -92z" />
<glyph unicode="&#x2082;" horiz-adv-x="974" d="M88 408q56 42 88.5 63.5t88 50t115.5 41t130 12.5q99 0 182.5 -25.5t141 -85t57.5 -145.5q0 -58 -24.5 -106t-61 -78.5t-87 -55t-93.5 -39t-90 -27.5q-23 -6 -33 -9q-50 -15 -83.5 -29t-65 -35.5t-47 -52t-15.5 -69.5v-2h577v-160h-776v143q0 80 33 145t92 110 t127.5 75.5t151.5 50.5q23 5 46.5 12.5t62 24t62 42t23.5 56.5q0 43 -50.5 62.5t-123.5 19.5q-96 0 -167 -33.5t-142 -95.5z" />
<glyph unicode="&#x2083;" horiz-adv-x="1093" d="M43 -186l121 139q155 -152 371 -152q122 0 202 39.5t80 110.5q0 90 -155 90h-181v160h178q41 0 65 24.5t24 63.5q0 38 -29.5 63.5t-68.5 35t-83 9.5q-89 0 -173 -39t-150 -100l-121 121q212 196 448 196q63 0 125.5 -14t120.5 -42t94.5 -78.5t36.5 -116.5 q0 -62 -26.5 -110t-57.5 -64q56 -14 104 -66t48 -145q0 -99 -65 -172t-172 -108.5t-242 -35.5q-300 0 -494 191z" />
<glyph unicode="&#x2084;" horiz-adv-x="1165" d="M53 -23l705 566h170v-539h174v-162h-174v-186h-201v186h-674v135zM352 4h375v281h-16q-58 -46 -179 -138.5t-180 -138.5v-4z" />
<glyph unicode="&#x2085;" horiz-adv-x="1069" d="M59 -262l101 160q155 -97 368 -97q74 0 133.5 14t102.5 53t43 99q0 56 -59.5 89.5t-139.5 33.5q-103 0 -180.5 -27t-155.5 -75l-125 86v469h740v-178h-557v-187q67 43 129 62.5t153 19.5q101 0 189 -32t146.5 -100.5t58.5 -160.5q0 -91 -41.5 -160t-112 -108 t-152.5 -57.5t-174 -18.5q-258 0 -467 115z" />
<glyph unicode="&#x2086;" horiz-adv-x="1101" d="M78 86q0 112 43.5 205.5t117 154.5t170.5 95t205 34q206 0 379 -100l8 -4l-120 -139q-106 65 -271 65q-136 0 -235.5 -73t-112.5 -199q189 117 381 117q184 0 284.5 -84.5t100.5 -198.5q0 -146 -119 -241t-307 -95q-101 0 -194 30t-167.5 86.5t-118.5 146.5t-44 200z M281 -20q37 -85 125.5 -132t199.5 -47q97 0 160 48.5t63 113.5q0 46 -50.5 82.5t-151.5 36.5q-155 0 -346 -102z" />
<glyph unicode="&#x2087;" horiz-adv-x="976" d="M63 365v178h859v-178l-502 -709h-262l534 709h-629z" />
<glyph unicode="&#x2088;" horiz-adv-x="1107" d="M78 -90q0 95 62 154.5t149 74.5q-78 14 -120 61.5t-42 125.5q0 62 40 111.5t104 79.5t137.5 45.5t146.5 15.5q72 0 145 -15.5t137 -45.5t104 -79.5t40 -111.5q0 -160 -164 -187q89 -15 151 -74.5t62 -154.5q0 -89 -68 -156t-175 -100t-232 -33q-127 0 -234.5 33t-175 100 t-67.5 156zM295 -72q0 -61 76.5 -95t183.5 -34q106 0 182 34t76 95t-80.5 96t-177.5 35q-99 0 -179.5 -35t-80.5 -96zM344 307q0 -102 211 -102q209 0 209 102q0 51 -65.5 81t-143.5 30q-50 0 -96.5 -12t-80.5 -38t-34 -61z" />
<glyph unicode="&#x2089;" horiz-adv-x="1101" d="M74 240q0 146 119 240.5t307 94.5q101 0 194 -30t167.5 -86t118.5 -146t44 -200q0 -149 -75 -262t-196 -170.5t-266 -57.5q-39 0 -77.5 4t-68 9t-61.5 14.5t-51.5 16t-44.5 18t-35.5 17t-29 16t-19.5 10.5l121 139q111 -66 271 -66q135 0 236 73.5t114 199.5 q-189 -117 -383 -117q-184 0 -284.5 84.5t-100.5 198.5zM272 236q0 -46 51 -82.5t154 -36.5q161 0 344 102q-37 85 -125.5 131.5t-199.5 46.5q-96 0 -160 -48t-64 -113z" />
<glyph unicode="&#x20ac;" horiz-adv-x="1605" d="M115 375v143h172q-4 40 -4 64q0 46 4 69h-172v144h207q70 181 238.5 294t379.5 113q154 0 293.5 -49t239.5 -137l-140 -158q-74 67 -177 104t-216 37q-115 0 -213 -55.5t-156 -148.5h537v-144h-592q-4 -23 -4 -69q0 -44 4 -64h592v-143h-539q56 -97 154.5 -154t216.5 -57 q116 0 225 42.5t185 115.5l139 -158q-110 -96 -251 -149.5t-298 -53.5q-212 0 -382 115.5t-239 298.5h-204z" />
<glyph unicode="&#x2122;" horiz-adv-x="1769" d="M109 1214v123h602v-123h-226v-546h-151v546h-225zM885 668v669h151l207 -358h2l209 358h145v-669h-151v401h-6l-195 -330h-18l-195 330h-6v-401h-143z" />
<glyph unicode="&#x2153;" horiz-adv-x="2199" d="M16 1225l265 112h200v-886h-200v706l-222 -92zM414 0l760 1337h180l-758 -1337h-182zM1149 158l121 139q155 -152 370 -152q122 0 202.5 39.5t80.5 110.5q0 90 -156 90h-180v160h178q41 0 64.5 24.5t23.5 63.5q0 56 -54.5 82t-125.5 26q-89 0 -173 -39t-150 -100 l-121 121q213 197 448 197q62 0 125 -14t121 -42.5t94.5 -79t36.5 -116.5q0 -62 -26.5 -110t-57.5 -64q56 -14 104 -66t48 -145q0 -99 -65 -172t-172.5 -108.5t-242.5 -35.5q-299 0 -493 191z" />
<glyph unicode="&#x2154;" horiz-adv-x="2519" d="M88 1202q57 42 89 63.5t87.5 50.5t115.5 41.5t130 12.5q99 0 182.5 -25.5t141 -85t57.5 -145.5q0 -58 -24.5 -106t-61 -78.5t-87 -55t-93.5 -39t-90 -27.5q-23 -6 -33 -9q-103 -31 -157 -71.5t-54 -115.5v-2h577v-159h-776v143q0 80 33 145t92 110t127.5 75.5t151.5 50.5 q23 5 46.5 12.5t62 24t62 42t23.5 56.5q0 43 -50.5 62.5t-123.5 19.5q-96 0 -167 -33.5t-142 -95.5zM733 0l760 1337h180l-758 -1337h-182zM1468 158l121 139q155 -152 371 -152q122 0 202.5 39.5t80.5 110.5q0 90 -156 90h-180v160h178q41 0 64.5 24.5t23.5 63.5 q0 56 -54.5 82t-125.5 26q-89 0 -173.5 -39t-150.5 -100l-121 121q213 197 449 197q62 0 125 -14t121 -42.5t94.5 -79t36.5 -116.5q0 -62 -26.5 -110t-57.5 -64q56 -14 103.5 -66t47.5 -145q0 -99 -65 -172t-172 -108.5t-242 -35.5q-300 0 -494 191z" />
<glyph unicode="&#x215b;" horiz-adv-x="2213" d="M16 1225l265 112h200v-886h-200v706l-222 -92zM414 0l760 1337h180l-758 -1337h-182zM1184 254q0 95 62 154.5t149 74.5q-78 14 -120 61.5t-42 125.5q0 62 40 111.5t104 79.5t137.5 45.5t146.5 15.5q72 0 145 -15.5t137 -45.5t104 -79.5t40 -111.5q0 -160 -164 -187 q89 -15 151 -74.5t62 -154.5q0 -89 -68 -156t-175 -100t-232 -33q-127 0 -234.5 33t-175 100t-67.5 156zM1401 272q0 -61 76.5 -95t183.5 -34q106 0 182 34t76 95t-80.5 96t-177.5 35q-99 0 -179.5 -35t-80.5 -96zM1450 651q0 -102 211 -102q209 0 209 102q0 51 -65.5 81 t-143.5 30q-50 0 -96.5 -12t-80.5 -38t-34 -61z" />
<glyph unicode="&#x215c;" horiz-adv-x="2654" d="M45 608l121 140q155 -152 371 -152q122 0 202 39t80 110q0 91 -155 91h-181v159h179q41 0 64.5 24.5t23.5 63.5q0 56 -55 82.5t-126 26.5q-89 0 -173 -39t-150 -100l-121 121q212 196 448 196q62 0 125 -14t121 -42.5t94.5 -79t36.5 -116.5q0 -62 -26.5 -110t-57.5 -64 q56 -14 104 -66t48 -145q0 -99 -65 -171.5t-172 -108t-242 -35.5q-301 0 -494 190zM854 0l760 1337h180l-758 -1337h-182zM1624 254q0 95 62 154.5t149 74.5q-78 14 -120 61.5t-42 125.5q0 62 40 111.5t104 79.5t137.5 45.5t146.5 15.5q72 0 145 -15.5t137 -45.5t104 -79.5 t40 -111.5q0 -160 -164 -187q89 -15 151 -74.5t62 -154.5q0 -89 -68 -156t-175 -100t-232 -33q-127 0 -234.5 33t-175 100t-67.5 156zM1841 272q0 -61 76.5 -95t183.5 -34q106 0 182 34t76 95t-80.5 96t-177.5 35q-99 0 -179.5 -35t-80.5 -96zM1890 651q0 -102 211 -102 q209 0 209 102q0 51 -65.5 81t-143.5 30q-50 0 -96.5 -12t-80.5 -38t-34 -61z" />
<glyph unicode="&#x215d;" horiz-adv-x="2627" d="M59 532l101 160q153 -96 368 -96q74 0 133.5 14t102.5 53t43 99q0 56 -59.5 89.5t-139.5 33.5q-103 0 -180 -27t-156 -76l-125 86v469h740v-178h-557v-186q67 43 129 62.5t153 19.5q101 0 189 -32t146.5 -100.5t58.5 -160.5q0 -91 -41.5 -160t-112 -108t-152.5 -57.5 t-174 -18.5q-260 0 -467 114zM827 0l760 1337h180l-757 -1337h-183zM1597 254q0 95 62 154.5t149 74.5q-78 14 -119.5 61.5t-41.5 125.5q0 62 40 111.5t104 79.5t137.5 45.5t146.5 15.5q72 0 145 -15.5t137 -45.5t104 -79.5t40 -111.5q0 -160 -164 -187q89 -15 151 -74.5 t62 -154.5q0 -89 -68 -156t-175 -100t-232 -33q-127 0 -234.5 33t-175.5 100t-68 156zM1815 272q0 -61 76.5 -95t183.5 -34q106 0 182 34t76 95t-80.5 96t-177.5 35q-99 0 -179.5 -35t-80.5 -96zM1864 651q0 -102 211 -102q209 0 209 102q0 51 -65.5 81t-143.5 30 q-50 0 -96.5 -12t-80.5 -38t-34 -61z" />
<glyph unicode="&#x215e;" horiz-adv-x="2428" d="M63 1159v178h859v-178l-502 -708h-262l534 708h-629zM629 0l760 1337h180l-758 -1337h-182zM1399 254q0 95 62 154.5t149 74.5q-78 14 -120 61.5t-42 125.5q0 62 40 111.5t104 79.5t137.5 45.5t146.5 15.5q72 0 145 -15.5t137 -45.5t104 -79.5t40 -111.5 q0 -160 -164 -187q89 -15 151 -74.5t62 -154.5q0 -89 -68 -156t-175 -100t-232 -33q-127 0 -234.5 33t-175 100t-67.5 156zM1616 272q0 -61 76.5 -95t183.5 -34q106 0 182 34t76 95t-80.5 96t-177.5 35q-99 0 -179.5 -35t-80.5 -96zM1665 651q0 -102 211 -102q209 0 209 102 q0 51 -65.5 81t-143.5 30q-50 0 -96.5 -12t-80.5 -38t-34 -61z" />
<glyph unicode="&#x25fc;" horiz-adv-x="993" d="M0 0v993h993v-993h-993z" />
<glyph horiz-adv-x="645" d="M209 0v1163h227v-1163h-227z" />
<glyph horiz-adv-x="1060" d="M63 606l113 129q134 -111 293 -141v242q-62 6 -108 14.5t-95.5 26.5t-80.5 44.5t-51.5 69t-20.5 99.5q0 61 21 109.5t55 79.5t81.5 51.5t96 29.5t102.5 10v141h131v-149q206 -26 361 -131l-115 -131q-88 73 -246 96v-186q57 -4 104 -12t101.5 -28t92 -49.5t62.5 -80.5 t25 -117q0 -80 -30 -139.5t-84 -95t-121.5 -52.5t-149.5 -18v-185h-131v191q-227 31 -406 182zM301 1108q0 -74 168 -92v188q-168 -3 -168 -96zM600 584q90 0 143.5 27.5t53.5 84.5q0 60 -45 88.5t-152 40.5v-241z" />
<glyph horiz-adv-x="901" d="M70 813q0 169 115 275t284 106h25l28 131h133l-32 -149q115 -27 208 -99l-122 -123q-48 37 -119 60l-90 -426q109 6 209 90l122 -115q-16 -18 -42.5 -38t-70 -44t-106.5 -39.5t-133 -15.5h-14l-41 -193h-133l45 216q-119 38 -192.5 134.5t-73.5 229.5zM270 813 q0 -67 27.5 -117.5t75.5 -79.5l88 416q-81 -3 -136 -63.5t-55 -155.5z" />
<glyph horiz-adv-x="1148" d="M78 727v123h125q-2 14 -2 45t2 45h-125v123h153q52 135 174.5 221t272.5 86q113 0 213.5 -37t173.5 -104l-121 -139q-50 48 -120 75t-146 27q-71 0 -130 -34.5t-97 -94.5h350v-123h-398q-2 -14 -2 -45t2 -45h398v-123h-352q37 -61 97.5 -96t131.5 -35q79 0 153 31.5 t127 85.5l121 -140q-168 -155 -401 -155q-150 0 -272.5 86t-174.5 223h-153z" />
<glyph horiz-adv-x="1054" d="M84 451v159h57q69 0 95 30t26 120v92h-178v143h178v105q0 67 30.5 120t81.5 85t112 48.5t128 16.5q73 0 174 -33t189 -86l-100 -139q-66 35 -139 57.5t-124 22.5q-61 0 -106 -24t-45 -68v-105h344v-143h-344v-92q0 -69 -31.5 -103.5t-105.5 -46.5h649v-159h-891z" />
<glyph horiz-adv-x="1175" d="M82 727v123h405l-69 90h-336v123h240l-211 274h254l231 -309l231 309h234l-211 -274h244v-123h-338l-68 -90h406v-123h-406v-276h-201v276h-405z" />
<glyph horiz-adv-x="1314" d="M70 612v144h305l43 245h-262v144h288l48 268h145l-47 -268h227l47 268h146l-47 -268h282v-144h-307l-43 -245h266v-144h-293l-53 -311h-147l55 311h-227l-54 -311h-147l55 311h-280zM522 756h226l43 245h-226z" />
<glyph horiz-adv-x="1562" d="M70 1149q0 111 84.5 191.5t205.5 80.5q120 0 207.5 -81t87.5 -191q0 -114 -87 -194.5t-208 -80.5t-205.5 80.5t-84.5 194.5zM240 1149q0 -50 35.5 -85.5t84.5 -35.5q51 0 88 36t37 85t-37 84t-88 35q-50 0 -85 -35t-35 -84zM436 451l537 944h155l-534 -944h-158zM909 698 q0 111 85 192t206 81t208 -81t87 -192q0 -112 -86.5 -192t-208.5 -80q-121 0 -206 79.5t-85 192.5zM1079 698q0 -49 35.5 -84.5t85.5 -35.5q52 0 88.5 35t36.5 85t-36.5 84.5t-88.5 34.5q-50 0 -85.5 -35t-35.5 -84z" />
<glyph horiz-adv-x="475" d="M102 547q0 53 39 89t97 36q57 0 97 -36.5t40 -88.5q0 -51 -40 -87t-97 -36q-58 0 -97 36t-39 87z" />
<glyph horiz-adv-x="505" d="M53 279q39 8 87.5 32.5t80.5 55.5q33 33 41 65q-8 -2 -24 -2q-58 0 -98 35t-40 86q0 50 40 85.5t98 35.5q67 0 119.5 -50t52.5 -124q0 -71 -28.5 -130.5t-76.5 -98.5t-95 -64t-101 -43z" />
<glyph horiz-adv-x="589" d="M109 715v182h372v-182h-372z" />
<glyph d="M92 582q0 102 31 197t88 171t132 133t167.5 88t191.5 31q123 0 236.5 -48.5t196.5 -131t132.5 -198t49.5 -242.5q0 -170 -83.5 -313.5t-225 -225.5t-306.5 -82t-305 82t-222.5 225t-82.5 314zM319 582q0 -173 112 -296.5t271 -123.5q158 0 273 124t115 296t-115 295.5 t-273 123.5q-159 0 -271 -123.5t-112 -295.5z" />
<glyph d="M207 1014l485 149h228v-983h337v-180h-1009v180h444v776l-434 -127z" />
<glyph d="M147 0v172q0 361 570 498q42 8 85 19.5t102.5 34.5t96.5 60t37 82q0 46 -45 78t-109 44.5t-141 12.5q-97 0 -182.5 -25.5t-141.5 -58.5t-128 -88l-133 160q71 51 120 81t122.5 64.5t156.5 51t180 16.5q102 0 194.5 -19.5t168.5 -58t121 -104t45 -148.5q0 -75 -37 -137.5 t-78 -98.5t-127.5 -72t-125 -47.5t-131.5 -35.5q-30 -8 -44 -12q-79 -21 -135 -42t-108 -53t-78.5 -77.5t-26.5 -103.5v-13h864v-180h-1092z" />
<glyph d="M68 205l139 160q200 -203 483 -203q164 0 273.5 59t109.5 160q0 41 -23 70.5t-61 43.5t-74.5 19.5t-76.5 5.5h-209v182h184q70 0 119 38t49 98q0 57 -41 95.5t-95 53t-116 14.5q-113 0 -221.5 -53.5t-196.5 -134.5l-139 139q270 250 561 250q81 0 160.5 -18t152.5 -54 t118.5 -101.5t45.5 -151.5q0 -83 -44 -146.5t-95 -85.5q37 -9 73 -27t73 -49.5t60 -84t23 -117.5q0 -127 -82.5 -221t-219.5 -140.5t-308 -46.5q-376 0 -622 246z" />
<glyph d="M55 256v158l856 749h197v-727h217v-180h-217v-256h-229v256h-824zM399 436h480v432h-17l-463 -426v-6z" />
<glyph d="M88 143l119 160q213 -141 483 -141q75 0 141.5 12t124 37t91.5 69.5t34 104.5t-43 103.5t-109.5 64t-144.5 20.5q-132 0 -232 -28.5t-208 -81.5l-139 100v600h956v-202h-751v-299q60 30 85.5 41.5t78 30.5t104 26.5t113.5 7.5q99 0 190 -24t165 -70t118.5 -120t44.5 -167 q0 -91 -36 -165t-95.5 -122t-141 -80.5t-168 -46.5t-180.5 -14q-332 0 -600 184z" />
<glyph d="M111 563q0 146 54.5 268t147.5 202.5t214.5 124.5t256.5 44q73 0 143.5 -11t113 -21.5t95.5 -33t64 -28.5t45 -25l-119 -159q-145 77 -348 77q-116 0 -216 -45.5t-166.5 -137t-76.5 -212.5q236 160 498 160q120 0 215.5 -32.5t153.5 -86.5t88.5 -118.5t30.5 -133.5 q0 -187 -150.5 -310.5t-386.5 -123.5q-101 0 -196.5 24t-179 74t-146.5 120t-99 169t-36 215zM336 436q43 -131 163 -202.5t273 -71.5q131 0 218 71t87 166q0 71 -70 127t-210 56q-215 0 -461 -146z" />
<glyph d="M113 961v202h1181v-205l-721 -958h-299l758 961h-919z" />
<glyph d="M113 334q0 125 81 203.5t197 99.5q-102 19 -157.5 81.5t-55.5 162.5q0 80 49.5 144.5t128 102.5t169 58t180.5 20q91 0 181 -20t168.5 -58t127.5 -102.5t49 -144.5q0 -206 -215 -244q117 -21 198.5 -99.5t81.5 -203.5q0 -115 -85.5 -203t-218 -131t-287.5 -43 q-115 0 -221 25.5t-189 72.5t-132.5 119.5t-49.5 159.5zM360 354q0 -90 103 -143t242 -53q89 0 166 22t127.5 67.5t50.5 106.5t-54.5 106t-131 65t-158.5 20t-158 -20t-131.5 -65t-55.5 -106zM428 860q0 -72 71 -109.5t206 -37.5t205.5 37.5t70.5 109.5q0 77 -85.5 121.5 t-190.5 44.5q-65 0 -126.5 -17.5t-106 -57t-44.5 -91.5z" />
<glyph d="M96 768q0 187 152.5 310.5t388.5 123.5q102 0 197.5 -24t179.5 -74t146.5 -120t99 -169t36.5 -215q0 -146 -55 -268t-148.5 -202.5t-215 -124.5t-256.5 -44q-260 0 -461 119l116 160q146 -78 349 -78q117 0 217.5 45.5t167.5 137t77 212.5q-240 -160 -499 -160 q-120 0 -217 32.5t-155.5 86.5t-89 118.5t-30.5 133.5zM324 764q0 -71 71 -126.5t213 -55.5q220 0 461 143q-41 131 -162 203.5t-274 72.5q-132 0 -220.5 -71t-88.5 -166z" />
<glyph d="M90 205l131 147q182 -154 406 -192v360q-82 8 -142.5 18.5t-126 33.5t-107 56t-68.5 87.5t-27 126.5q0 79 28 141.5t73.5 102t108.5 66t127 38t134 12.5v189h153v-197q144 -19 266 -67t203 -105l-131 -152q-49 46 -136 83t-202 51v-287q52 -3 96 -8t98 -16.5t96.5 -28.5 t85 -45t71 -63.5t46 -87t17.5 -114.5q0 -82 -26 -147.5t-72 -110.5t-111 -75t-140 -44.5t-161 -15.5v-246h-153v254q-301 38 -537 236zM373 862q0 -117 254 -135v287q-254 -4 -254 -152zM780 150q133 2 215 45t82 129q0 90 -72 129.5t-225 54.5v-358z" />
<glyph d="M125 465q0 144 80 257t215 173.5t299 60.5q35 0 51 -2l45 179h156l-49 -197q182 -36 317 -131l-139 -139q-103 64 -223 88l-152 -600h8q216 0 373 125l141 -134q-22 -22 -60.5 -47.5t-102 -56.5t-156.5 -51.5t-195 -20.5q-37 0 -53 2l-64 -256h-153l69 281 q-181 47 -294 171.5t-113 297.5zM356 465q0 -101 61 -176.5t161 -110.5l147 592h-6q-153 0 -258 -84.5t-105 -220.5z" />
<glyph d="M88 375v143h152q-2 20 -2 64q0 46 2 69h-152v144h184q64 181 214.5 294t338.5 113q139 0 263.5 -49t214.5 -137l-140 -158q-63 67 -151.5 104t-186.5 37q-96 0 -178 -55.5t-129 -148.5h459v-144h-506q-4 -46 -4 -69q0 -44 4 -64h506v-143h-463q48 -97 130.5 -154 t180.5 -57q100 0 194.5 42.5t158.5 115.5l139 -158q-97 -96 -224.5 -149.5t-267.5 -53.5q-189 0 -340.5 115.5t-214.5 298.5h-182z" />
<glyph d="M111 0v182h77q68 0 103 16.5t52 62t17 132.5v146h-249v163h249v150q0 87 39.5 156t105 110.5t145.5 62.5t167 21q95 0 225.5 -42.5t245.5 -110.5l-112 -158q-92 48 -190.5 78t-168.5 30q-92 0 -160.5 -38t-68.5 -109v-150h477v-163h-477v-146q0 -98 -39 -146t-133 -65 h872v-182h-1177z" />
<glyph d="M100 375v143h488v12l-86 121h-402v144h299l-262 368h291l285 -430l284 430h271l-262 -368h303v-144h-406l-86 -121v-12h492v-143h-492v-375h-229v375h-488z" />
<glyph d="M109 442q0 134 98 232q36 41 106 80q-13 20 -18 34q-23 63 -23 117q0 64 26.5 116.5t69.5 86t100.5 56.5t117 32.5t121.5 9.5q106 0 215 -26t192 -72l-98 -158q-62 33 -145 53.5t-164 20.5q-30 0 -60 -4t-66 -14.5t-58.5 -35t-22.5 -59.5q0 -31 18 -49q9 -9 20.5 -15.5 t28.5 -11.5t31 -8.5t37.5 -6.5t37.5 -4.5t42.5 -4.5t40.5 -4q322 -32 454 -164q86 -89 86 -213q0 -132 -96 -231q-46 -46 -113 -82q12 -12 21 -39q22 -43 22 -111q0 -80 -39.5 -140.5t-104.5 -94t-137.5 -50t-150.5 -16.5q-106 0 -216 27t-191 74l96 155q62 -33 145 -53.5 t166 -20.5q32 0 63.5 5t65.5 16t55 35t21 57q0 36 -18 51q-10 10 -26 17.5t-31 12t-41.5 9t-41.5 6t-49 5t-47 4.5q-324 33 -454 165q-86 86 -86 211zM338 471q0 -70 45 -115q72 -74 266 -92q6 -1 33.5 -3t38.5 -3.5t38 -4.5t42.5 -5.5t40.5 -6.5t43.5 -9t39.5 -11.5 t40 -13.5q8 7 30 33q74 74 74 161q0 66 -49 115q-72 74 -266 92q-1 0 -29 2.5t-34.5 3.5t-33 3.5t-38 4.5t-35.5 5.5t-39 7t-35.5 8.5t-37.5 10.5t-34 12.5l-26 -33q-74 -71 -74 -162z" />
<glyph d="M61 221v164h326l51 354h-284v162h309l53 363h168l-53 -363h237l54 363h168l-54 -363h307v-162h-331l-51 -354h288v-164h-311l-61 -418h-168l61 418h-238l-61 -418h-168l62 418h-304zM555 385h238l51 354h-238z" />
<glyph d="M39 913q0 147 79.5 252t192.5 105q114 0 195.5 -105.5t81.5 -251.5q0 -148 -81.5 -253t-195.5 -105t-193 105t-79 253zM213 913q0 -76 28.5 -130t69.5 -54t72 54.5t31 129.5t-31 129t-72 54t-69.5 -54t-28.5 -129zM365 0l505 1239h179l-502 -1239h-182zM825 328 q0 146 80 251t193 105q112 0 194 -105.5t82 -250.5q0 -149 -81.5 -254t-194.5 -105q-114 0 -193.5 105t-79.5 254zM999 328q0 -75 29 -130t70 -55q42 0 71 54.5t29 130.5t-29 129t-71 53q-41 0 -70 -53.5t-29 -128.5z" />
<glyph horiz-adv-x="1675" d="M115 629q0 136 58 260t155 213t230 141.5t278 52.5q195 0 362 -88.5t266 -242.5t99 -336q0 -184 -99 -338.5t-266 -243t-362 -88.5q-145 0 -278 52.5t-230 141.5t-155 213.5t-58 262.5zM344 629q0 -126 66 -233t179 -169.5t247 -62.5t248.5 62.5t181.5 169.5t67 233 q0 190 -146.5 326.5t-350.5 136.5q-134 0 -247.5 -62.5t-179 -169t-65.5 -231.5z" />
<glyph horiz-adv-x="886" d="M39 1092l391 163h229v-1255h-229v1049l-342 -142z" />
<glyph horiz-adv-x="1386" d="M133 0v176q0 91 32 169.5t85 135t128.5 103t154.5 77t172 54.5q151 38 220 78q103 60 103 143q0 41 -25.5 72.5t-69 49t-94.5 26t-108 8.5q-140 0 -242 -47t-210 -136l-136 160q73 55 121 86t123 68.5t158 55t180 17.5q102 0 195 -21t169.5 -62.5t122 -111.5t45.5 -159 q0 -45 -12 -85.5t-26 -71t-48 -61.5t-54 -50t-69 -42.5t-69 -33.5t-77 -29t-70 -22.5t-71 -20.5q-33 -9 -48 -14q-79 -22 -136 -46t-109 -60.5t-79 -89t-27 -119.5v-13h869v-184h-1098z" />
<glyph horiz-adv-x="1556" d="M72 219l139 160q109 -102 242 -158.5t311 -56.5q127 0 227.5 27.5t161.5 83.5t61 133q0 48 -26 82t-68 50t-81.5 22.5t-80.5 6.5h-260v185h252q63 0 112.5 42.5t49.5 110.5q0 64 -49.5 108t-115 60.5t-138.5 16.5q-131 0 -255 -56.5t-224 -144.5l-140 139 q300 266 623 266q69 0 139.5 -11.5t141.5 -38.5t125 -66t88 -99.5t34 -134.5q0 -91 -45.5 -159.5t-99.5 -92.5q31 -7 61.5 -19.5t65 -37.5t61 -57t43.5 -80.5t17 -106.5q0 -136 -91.5 -236t-244 -149t-344.5 -49q-211 0 -381 63t-311 197z" />
<glyph horiz-adv-x="1628" d="M70 281v159l1011 815h203v-790h252v-184h-252v-281h-229v281h-985zM412 465h643v496h-23l-620 -488v-8z" />
<glyph horiz-adv-x="1513" d="M78 197l139 159q223 -192 531 -192q84 0 159 14.5t139.5 45t102 85t37.5 127.5q0 104 -100.5 161.5t-241.5 57.5q-145 0 -255.5 -37t-223.5 -104l-144 102v639h1041v-204h-832v-318q97 61 190.5 89t229.5 28q108 0 207.5 -26t180 -75t129 -129.5t48.5 -181.5 q0 -102 -38.5 -184.5t-103 -136.5t-152 -90.5t-181 -52t-195.5 -15.5q-368 0 -667 238z" />
<glyph horiz-adv-x="1556" d="M119 608q0 157 61 289t163.5 218t237 133.5t283.5 47.5q84 0 163.5 -13t130.5 -28.5t107 -42t75 -38t51 -31.5l-140 -160q-159 109 -391 109q-101 0 -193.5 -30.5t-166 -86t-119.5 -141t-53 -189.5q270 180 569 180q134 0 241.5 -35t172.5 -93.5t99 -128t34 -144.5 q0 -198 -169 -331.5t-431 -133.5q-112 0 -217.5 26t-198 79.5t-161 129.5t-108.5 182.5t-40 231.5zM346 477q46 -150 184.5 -231.5t317.5 -81.5q157 0 261.5 79t104.5 185q0 83 -84.5 148t-252.5 65q-246 0 -531 -164z" />
<glyph horiz-adv-x="1372" d="M84 1051v204h1196v-204l-729 -1051h-301l766 1051h-932z" />
<glyph horiz-adv-x="1556" d="M115 360q0 70 28 128.5t76.5 98.5t107 66t124.5 37q-124 20 -190 87t-66 175q0 69 36 127.5t95 98t135.5 68t157 41.5t159.5 13q100 0 200.5 -21.5t187.5 -62.5t141.5 -110t54.5 -154q0 -109 -65.5 -175.5t-192.5 -86.5q67 -11 126 -37t107 -66t76.5 -98.5t28.5 -128.5 q0 -94 -56.5 -172t-150 -128t-212 -77.5t-245.5 -27.5q-128 0 -246.5 27.5t-211.5 77.5t-149 128t-56 172zM365 381q0 -69 61.5 -121t153.5 -76t198 -24t198.5 24t154 76t61.5 121t-66 120.5t-157.5 74t-190.5 22.5q-72 0 -143.5 -13.5t-132.5 -39.5t-99 -68.5t-38 -95.5z M444 932q0 -81 86 -123.5t248 -42.5t248 42.5t86 123.5q0 59 -53.5 102.5t-127 62.5t-153.5 19t-153.5 -19t-127 -62.5t-53.5 -102.5z" />
<glyph horiz-adv-x="1552" d="M109 831q0 198 169 331.5t431 133.5q112 0 217.5 -26t198 -79.5t161 -129.5t108.5 -182.5t40 -231.5q0 -126 -39.5 -237t-109.5 -192.5t-163.5 -140.5t-204 -88.5t-229.5 -29.5q-84 0 -163.5 13.5t-130 28.5t-107 42t-74 38t-51.5 32l139 159q157 -108 391 -108 q136 0 252 50.5t193 153t86 240.5q-273 -178 -568 -178q-108 0 -199.5 23t-154.5 62.5t-107 91t-64.5 108.5t-20.5 116zM338 827q0 -83 85 -148t253 -65q251 0 528 162q-44 150 -182 233t-317 83q-157 0 -262 -79.5t-105 -185.5z" />
<glyph horiz-adv-x="1417" d="M57 221l131 150q197 -175 447 -211v409q-62 6 -110 13t-103 19.5t-95.5 29t-80 42t-64.5 58.5t-40 78.5t-15 101.5q0 85 30.5 152t79.5 109.5t117 70.5t136.5 40t144.5 13v205h153v-213q155 -19 286 -71.5t216 -114.5l-131 -152q-139 116 -371 146v-328q56 -3 103 -8.5 t106 -18t105 -30t92 -47.5t76.5 -68t49.5 -93t19 -122q0 -87 -28.5 -157.5t-78.5 -118.5t-120 -81t-151 -48.5t-173 -16.5v-266h-153v274q-326 38 -578 254zM344 932q0 -136 291 -154v328q-291 -4 -291 -174zM788 150q150 2 243 51.5t93 148.5q0 102 -84 147t-252 60v-407z " />
<glyph horiz-adv-x="1230" d="M80 498q0 154 74 274.5t199 185t276 64.5q29 0 43 -2l41 194h153l-45 -215q172 -41 293 -139l-141 -141q-79 65 -193 94l-139 -659q177 0 336 137l141 -133q-21 -24 -56.5 -51.5t-95 -61.5t-145.5 -56t-180 -22q-27 0 -41 2l-57 -276h-154l64 303q-166 53 -269.5 186 t-103.5 316zM311 498q0 -109 50 -190.5t133 -121.5l139 650h-4q-135 0 -226.5 -93.5t-91.5 -244.5z" />
<glyph horiz-adv-x="1630" d="M109 412v143h178q-4 25 -4 74q0 26 4 80h-178v143h213q70 196 244 320t392 124q160 0 302.5 -52.5t246.5 -147.5l-139 -160q-77 73 -185 114.5t-225 41.5q-123 0 -227 -65.5t-164 -174.5h566v-143h-615q-6 -40 -6 -80q0 -37 6 -74h615v-143h-570q58 -113 163 -180.5 t232 -67.5q121 0 234 46.5t194 127.5l140 -160q-113 -103 -259 -161t-309 -58q-220 0 -395 127t-244 326h-210z" />
<glyph horiz-adv-x="1525" d="M133 0v184h82q111 0 152 46.5t41 187.5v170h-275v166h275v166q0 94 42 168t112 118t155 67t178 23q101 0 240.5 -45t261.5 -118l-115 -160q-97 53 -204.5 86t-182.5 33q-104 0 -181 -44.5t-77 -127.5v-166h520v-166h-520v-170q0 -108 -41.5 -161.5t-140.5 -72.5h940v-184 h-1262z" />
<glyph horiz-adv-x="1669" d="M139 412v143h580v20l-105 134h-475v143h363l-316 403h291l367 -475l364 475h271l-316 -403h367v-143h-479l-103 -134v-20h582v-143h-582v-412h-229v412h-580z" />
<glyph horiz-adv-x="1411" d="M61 479q0 143 105 248q43 45 127 90q-17 20 -25 39q-26 57 -26 125q0 69 28.5 124.5t74.5 91t107.5 59.5t125 34t129.5 10q117 0 234.5 -29t205.5 -81l-98 -158q-68 38 -160 61t-182 23q-35 0 -70 -4.5t-75.5 -17t-65.5 -40t-25 -67.5q0 -36 21 -57q10 -9 23 -16.5 t32 -13.5t34.5 -9.5t42 -7t42 -5.5t48 -5t46.5 -5q349 -36 489 -178q94 -91 94 -227q0 -146 -104 -250q-49 -49 -129 -90q8 -9 27 -43q26 -54 26 -119q0 -85 -42.5 -149.5t-112.5 -100t-148 -52.5t-162 -17q-117 0 -234.5 29t-205.5 81l98 158q68 -38 160 -61t182 -23 q37 0 74 5.5t75.5 18.5t62.5 40.5t24 64.5q0 36 -21 57q-10 9 -23 16.5t-32 13.5t-34.5 9.5t-42 7t-42 5.5t-48 5t-46.5 5q-349 36 -489 178q-95 92 -95 227zM291 508q-3 -77 53 -129q81 -83 303 -105q4 0 57.5 -5.5t74 -8.5t64 -9.5t77 -16t63.5 -21.5q24 16 51 43 q80 80 80 178q3 77 -53 129q-81 83 -303 105q-4 0 -57.5 5.5t-74 8.5t-64 9.5t-77 16t-63.5 21.5q-24 -16 -51 -43q-80 -80 -80 -178z" />
<glyph horiz-adv-x="1820" d="M76 244v164h444l70 397h-393v164h421l70 395h170l-70 -395h363l70 395h170l-70 -395h420v-164h-449l-69 -397h397v-164h-426l-80 -457h-170l80 457h-362l-80 -457h-170l80 457h-416zM690 408h363l69 397h-362z" />
<glyph horiz-adv-x="2160" d="M80 985q0 158 120.5 271.5t291.5 113.5q170 0 293.5 -114t123.5 -271q0 -159 -123 -273t-294 -114t-291.5 113.5t-120.5 273.5zM276 985q0 -86 63.5 -148.5t152.5 -62.5q91 0 156 62.5t65 148.5t-65 147.5t-156 61.5q-89 0 -152.5 -61.5t-63.5 -147.5zM610 0l760 1337 h180l-757 -1337h-183zM1251 354q0 158 120.5 271.5t291.5 113.5q170 0 294 -114t124 -271q0 -159 -123.5 -273t-294.5 -114t-291.5 113.5t-120.5 273.5zM1448 354q0 -87 63 -149t152 -62q91 0 156 62.5t65 148.5t-65 147.5t-156 61.5q-89 0 -152 -61.5t-63 -147.5z" />
<glyph horiz-adv-x="1181" d="M76 895q0 129 69.5 239t187 173t255.5 63q139 0 258.5 -63t189.5 -172.5t70 -239.5q0 -131 -70 -241t-189 -173t-259 -63q-138 0 -255.5 62.5t-187 173t-69.5 241.5zM274 895q0 -123 92 -211t222 -88q131 0 225 88t94 211q0 121 -94.5 209t-224.5 88t-222 -87.5 t-92 -209.5z" />
<glyph horiz-adv-x="655" d="M16 1225l265 112h200v-886h-200v706l-222 -92z" />
<glyph horiz-adv-x="974" d="M88 1202q57 42 89 63.5t87.5 50.5t115.5 41.5t130 12.5q99 0 182.5 -25.5t141 -85t57.5 -145.5q0 -58 -24.5 -106t-61 -78.5t-87 -55t-93.5 -39t-90 -27.5q-23 -6 -33 -9q-103 -31 -157 -71.5t-54 -115.5v-2h577v-159h-776v143q0 80 33 145t92 110t127.5 75.5t151.5 50.5 q23 5 46.5 12.5t62 24t62 42t23.5 56.5q0 43 -50.5 62.5t-123.5 19.5q-96 0 -167 -33.5t-142 -95.5z" />
<glyph horiz-adv-x="1095" d="M45 608l121 140q155 -152 371 -152q122 0 202 39t80 110q0 91 -155 91h-181v159h179q41 0 64.5 24.5t23.5 63.5q0 56 -55 82.5t-126 26.5q-89 0 -173 -39t-150 -100l-121 121q212 196 448 196q62 0 125 -14t121 -42.5t94.5 -79t36.5 -116.5q0 -62 -26.5 -110t-57.5 -64 q56 -14 104 -66t48 -145q0 -99 -65 -171.5t-172 -108t-242 -35.5q-301 0 -494 190z" />
<glyph horiz-adv-x="1165" d="M53 637v135l705 565h170v-538h174v-162h-174v-186h-201v186h-674zM352 799h375v280h-16q-58 -46 -179.5 -138t-179.5 -138v-4z" />
<glyph horiz-adv-x="1069" d="M59 532l101 160q153 -96 368 -96q74 0 133.5 14t102.5 53t43 99q0 56 -59.5 89.5t-139.5 33.5q-103 0 -180 -27t-156 -76l-125 86v469h740v-178h-557v-186q67 43 129 62.5t153 19.5q101 0 189 -32t146.5 -100.5t58.5 -160.5q0 -91 -41.5 -160t-112 -108t-152.5 -57.5 t-174 -18.5q-260 0 -467 114z" />
<glyph horiz-adv-x="1099" d="M78 881q0 112 43.5 205.5t117 154.5t170.5 95t205 34q206 0 379 -99q6 -4 8 -5l-120 -140q-107 66 -271 66q-136 0 -235.5 -73t-112.5 -199q187 116 381 116q95 0 170.5 -24.5t121 -65t69.5 -89.5t24 -103q0 -146 -119 -241t-307 -95q-101 0 -194 30t-167.5 86.5 t-118.5 146.5t-44 200zM281 774q37 -86 125 -132t200 -46q97 0 160 48.5t63 113.5q0 46 -50.5 82.5t-151.5 36.5q-153 0 -346 -103z" />
<glyph horiz-adv-x="976" d="M63 1159v178h859v-178l-502 -708h-262l534 708h-629z" />
<glyph horiz-adv-x="1107" d="M78 705q0 95 62 154.5t149 74.5q-78 14 -120 61t-42 125q0 62 40 111.5t104 79.5t137.5 45.5t146.5 15.5q72 0 145 -15.5t137 -45.5t104 -79.5t40 -111.5q0 -159 -164 -186q89 -15 151 -74.5t62 -154.5q0 -89 -68 -156t-175 -100t-232 -33q-127 0 -234.5 33t-175 100 t-67.5 156zM295 723q0 -61 76.5 -95t183.5 -34q106 0 182 34t76 95t-80.5 96t-177.5 35q-99 0 -179.5 -35t-80.5 -96zM344 1102q0 -103 211 -103q209 0 209 103q0 51 -65.5 80.5t-143.5 29.5q-80 0 -145.5 -29.5t-65.5 -80.5z" />
<glyph horiz-adv-x="1101" d="M74 1034q0 146 119 241t307 95q101 0 194 -30t167.5 -86.5t118.5 -146.5t44 -200q0 -149 -75 -262t-196 -170t-266 -57q-35 0 -68.5 2.5t-63 8t-55 11t-50.5 14.5t-42 15t-37 16t-29.5 14.5t-24.5 13t-17 9.5l121 140q111 -66 271 -66q135 0 236 73t114 199 q-187 -116 -383 -116q-95 0 -170.5 24.5t-121 65t-69.5 89.5t-24 103zM272 1030q0 -46 51 -82.5t154 -36.5q159 0 344 103q-37 85 -125.5 131.5t-199.5 46.5q-96 0 -160 -48.5t-64 -113.5z" />
<glyph horiz-adv-x="1181" d="M76 444q0 130 69.5 239.5t187 173t255.5 63.5q139 0 258.5 -63.5t189.5 -173t70 -239.5q0 -131 -70 -241t-189 -173t-259 -63q-138 0 -255.5 62.5t-187 173t-69.5 241.5zM274 444q0 -123 92 -211t222 -88q131 0 225 88t94 211q0 122 -94.5 209.5t-224.5 87.5t-222 -87.5 t-92 -209.5z" />
<glyph horiz-adv-x="655" d="M16 774l265 113h200v-887h-200v707l-222 -93z" />
<glyph horiz-adv-x="974" d="M88 752q57 42 89 63.5t87.5 50.5t115.5 41.5t130 12.5q99 0 182.5 -25.5t141 -85t57.5 -145.5q0 -42 -13.5 -79.5t-32.5 -64t-52.5 -51t-60 -39.5t-69.5 -31t-65.5 -23t-64.5 -19q-10 -3 -17 -5l-14 -4q-50 -15 -83.5 -29t-65 -35.5t-47 -52t-15.5 -69.5v-2h577v-160 h-776v143q0 80 33 145t92 110t127.5 75.5t151.5 50.5q23 5 46.5 12.5t62 24t62 42t23.5 56.5q0 43 -50.5 62.5t-123.5 19.5q-96 0 -167 -33.5t-142 -95.5z" />
<glyph horiz-adv-x="1093" d="M43 158l121 139q155 -152 371 -152q122 0 202 39.5t80 110.5q0 90 -155 90h-181v160h178q41 0 65 24.5t24 63.5q0 38 -29.5 63.5t-68.5 35t-83 9.5q-89 0 -173 -39t-150 -100l-121 121q213 197 448 197q62 0 125 -14t121 -42.5t94.5 -79t36.5 -116.5q0 -62 -26.5 -110 t-57.5 -64q56 -14 104 -66t48 -145q0 -99 -65 -172t-172 -108.5t-242 -35.5q-300 0 -494 191z" />
<glyph horiz-adv-x="1165" d="M53 186v136l705 565h170v-539h174v-162h-174v-186h-201v186h-674zM352 348h375v281h-16q-58 -46 -179 -138.5t-180 -138.5v-4z" />
<glyph horiz-adv-x="1069" d="M59 82l101 160q155 -97 368 -97q74 0 133.5 14t102.5 53t43 99q0 56 -59.5 89.5t-139.5 33.5q-103 0 -180.5 -27t-155.5 -75l-125 86v469h740v-178h-557v-187q67 43 129 62.5t153 19.5q101 0 189 -32t146.5 -100.5t58.5 -160.5q0 -91 -41.5 -160t-112 -108t-152.5 -57.5 t-174 -18.5q-258 0 -467 115z" />
<glyph horiz-adv-x="1101" d="M78 430q0 149 74.5 262t195.5 170.5t266 57.5q32 0 63.5 -2.5t57 -6t52.5 -10t46 -11.5t41.5 -14l35 -14t31.5 -14.5l25 -12.5t20 -11l15 -9l-120 -139q-106 65 -271 65q-136 0 -235.5 -73t-112.5 -199q189 117 381 117q184 0 284.5 -84.5t100.5 -198.5q0 -146 -119 -241 t-307 -95q-101 0 -194 30t-167.5 86.5t-118.5 146.5t-44 200zM281 324q37 -86 125.5 -132.5t199.5 -46.5q97 0 160 48.5t63 113.5q0 46 -50.5 82.5t-151.5 36.5q-155 0 -346 -102z" />
<glyph horiz-adv-x="976" d="M63 709v178h859v-178l-502 -709h-262l534 709h-629z" />
<glyph horiz-adv-x="1107" d="M78 254q0 95 62 154.5t149 74.5q-78 14 -120 61.5t-42 125.5q0 62 40 111.5t104 79.5t137.5 45.5t146.5 15.5q72 0 145 -15.5t137 -45.5t104 -79.5t40 -111.5q0 -160 -164 -187q89 -15 151 -74.5t62 -154.5q0 -89 -68 -156t-175 -100t-232 -33q-127 0 -234.5 33t-175 100 t-67.5 156zM295 272q0 -61 76.5 -95t183.5 -34q106 0 182 34t76 95t-80.5 96t-177.5 35q-99 0 -179.5 -35t-80.5 -96zM344 651q0 -102 211 -102q209 0 209 102q0 51 -65.5 81t-143.5 30q-50 0 -96.5 -12t-80.5 -38t-34 -61z" />
<glyph horiz-adv-x="1101" d="M74 584q0 146 119 241t307 95q101 0 194 -30t167.5 -86.5t118.5 -146.5t44 -200q0 -149 -75 -262t-196 -170.5t-266 -57.5q-39 0 -77.5 4t-68 9t-61.5 14.5t-51.5 16t-44.5 18t-35.5 17t-29 16t-19.5 10.5l121 139q111 -66 271 -66q135 0 236 73.5t114 199.5 q-189 -117 -383 -117q-184 0 -284.5 84.5t-100.5 198.5zM272 580q0 -46 51 -82.5t154 -36.5q161 0 344 102q-37 85 -125.5 131.5t-199.5 46.5q-96 0 -160 -48t-64 -113z" />
<glyph horiz-adv-x="1540" d="M98 391q0 89 25.5 159t73.5 118t100 79.5t121 57.5q-76 109 -76 221q0 105 54.5 186.5t143 123.5t193.5 42q179 0 391 -125l-114 -180q-55 40 -130 70.5t-151 30.5q-73 0 -115.5 -41.5t-42.5 -102.5q0 -41 30 -93.5t61 -87.5t80 -84.5t57 -57.5l256 -275q112 128 211 305 l184 -94q-134 -213 -264 -352l274 -291h-301l-135 143q-228 -176 -455 -176q-58 0 -118.5 12t-125 43t-114 77t-81.5 121.5t-32 170.5zM328 403q0 -111 80 -171t184 -60q144 0 299 111l-285 303l-69 73q-41 -18 -71 -36t-65 -48.5t-54 -74t-19 -97.5z" />
<glyph horiz-adv-x="1671" d="M113 670q0 145 58 276.5t155 226.5t230 151t278 56q146 0 280 -56t232 -151t156.5 -227t58.5 -276q0 -195 -99 -359.5t-266 -259t-362 -94.5q-145 0 -278 56t-230 151t-155 227.5t-58 278.5zM342 670q0 -137 65.5 -254t179 -185.5t247.5 -68.5t248.5 68.5t181.5 185.5 t67 254q0 136 -67 252.5t-181.5 185t-248.5 68.5t-247.5 -68.5t-179 -185t-65.5 -252.5z" />
<glyph horiz-adv-x="878" d="M33 1161l391 176h229v-1337h-229v1130l-342 -153z" />
<glyph horiz-adv-x="1374" d="M125 0v180q0 417 571 574q1 0 28 7.5t37 11t39.5 13t44.5 16.5t42.5 20.5t42.5 25t34.5 29t30 35t18 39.5t7.5 46q0 46 -25.5 82t-69 56.5t-94.5 30.5t-108 10q-140 0 -242.5 -50t-210.5 -145l-135 160q73 58 121 90.5t123 72t158 58t180 18.5q102 0 195 -22.5 t169.5 -66.5t122 -118t45.5 -169q0 -83 -37 -152.5t-79 -110.5t-127.5 -82t-126.5 -54.5t-132 -40.5q-29 -9 -42 -13q-79 -25 -136 -51.5t-109 -67t-79 -98.5t-27 -133v-17h869v-184h-1098z" />
<glyph horiz-adv-x="1544" d="M63 233l140 160q110 -110 243 -170.5t310 -60.5q195 0 322.5 72t127.5 198q0 53 -26 91t-68 56.5t-81.5 26.5t-80.5 8h-260v185h252q63 0 112.5 46.5t49.5 125.5q0 54 -28 95.5t-74 64.5t-97 34t-104 11q-131 0 -255 -61.5t-224 -156.5l-140 142q302 280 623 280 q69 0 139.5 -12t141.5 -41t125 -70.5t88 -106t34 -142.5q0 -98 -45.5 -170.5t-99.5 -98.5q40 -10 78.5 -30.5t79 -57t65.5 -97t25 -136.5q0 -144 -91.5 -250t-244 -158.5t-344.5 -52.5q-211 0 -381.5 67.5t-311.5 208.5z" />
<glyph horiz-adv-x="1615" d="M66 303v162l1011 872h203v-850h252v-184h-252v-303h-229v303h-985zM408 487h643v555h-23q-381 -334 -620 -546v-9z" />
<glyph horiz-adv-x="1507" d="M76 209l139 160q223 -207 530 -207q84 0 159 16.5t139.5 50.5t102.5 94.5t38 139.5q0 80 -50 137.5t-125.5 83t-166.5 25.5q-145 0 -256.5 -39t-223.5 -109l-143 103v673h1041v-204h-832v-353q97 64 190.5 93.5t229.5 29.5q108 0 207 -27t180 -79t129.5 -138t48.5 -194 t-38.5 -195t-103 -144.5t-152 -96t-181.5 -55.5t-195 -17q-370 0 -667 252z" />
<glyph horiz-adv-x="1544" d="M115 647q0 168 61 308t163.5 232t237 142.5t283.5 50.5q84 0 163.5 -14t131 -31t106 -45t74.5 -41t51 -35l-139 -159q-76 58 -178 89.5t-213 31.5q-136 0 -252.5 -56t-193.5 -169t-86 -263q274 191 569 191q134 0 242 -38t172.5 -100.5t98.5 -137t34 -152.5 q0 -209 -169.5 -351.5t-430.5 -142.5q-112 0 -217.5 27.5t-198 84.5t-161 138t-108.5 194t-40 246zM338 518q41 -170 182 -263t324 -93q157 0 261.5 87.5t104.5 205.5q0 42 -19 82.5t-57.5 76.5t-106.5 58t-155 22q-256 0 -534 -176z" />
<glyph horiz-adv-x="1339" d="M63 1133v204h1197v-204l-730 -1133h-301l766 1133h-932z" />
<glyph horiz-adv-x="1548" d="M111 383q0 145 97.5 236.5t237.5 117.5q-124 22 -190 92.5t-66 186.5q0 90 54.5 163t141.5 116t187 66t201 23t201 -23t187 -66t141.5 -116t54.5 -163q0 -235 -258 -279q67 -12 126 -40t107 -70.5t76.5 -105.5t28.5 -138q0 -99 -56.5 -181.5t-150 -136t-212 -83 t-245.5 -29.5q-128 0 -246.5 29.5t-211.5 83t-149 136t-56 181.5zM360 403q0 -76 61.5 -133.5t154 -84.5t198.5 -27t198.5 27t154 84.5t61.5 133.5q0 59 -38 106.5t-99.5 76.5t-133 44t-143.5 15t-143.5 -15t-133 -44t-99.5 -76.5t-38 -106.5zM440 995q0 -89 86 -135.5 t248 -46.5t248 46.5t86 135.5q0 66 -53.5 114t-127.5 69.5t-153 21.5t-153 -21.5t-127.5 -69.5t-53.5 -114z" />
<glyph horiz-adv-x="1548" d="M109 887q0 209 169.5 351t430.5 142q112 0 217.5 -27.5t198 -84.5t161 -138t108.5 -194t40 -246q0 -168 -61 -308t-164 -232t-237.5 -142.5t-283.5 -50.5q-84 0 -163.5 14t-131 31t-106 45t-74.5 41t-51 35l139 160q76 -58 178 -89.5t213 -31.5q136 0 252 55.5t193 168.5 t86 263q-272 -190 -568 -190q-108 0 -199.5 25t-154.5 67t-107 97.5t-64.5 116t-20.5 122.5zM338 883q0 -42 19 -82.5t57.5 -77t106.5 -58.5t155 -22q250 0 532 174q-28 115 -104 197.5t-178 122t-221 39.5q-157 0 -262 -88t-105 -205z" />
<glyph horiz-adv-x="675" d="M133 1221q0 62 47.5 104.5t116.5 42.5t115.5 -42.5t46.5 -104.5t-47 -106t-115 -44q-69 0 -116.5 44t-47.5 106zM172 0v324l51 583h148l51 -583v-324h-250z" />
<glyph horiz-adv-x="1189" d="M76 287q0 142 102 241q35 33 89.5 69.5t99.5 64.5t88 62.5t68.5 80.5t27.5 102h205q3 -83 -26 -151.5t-81 -117t-104.5 -84t-114 -75t-92.5 -69.5q-57 -54 -57 -117q0 -71 65 -109.5t164 -38.5q92 0 167 27t125 67t107 105l144 -131q-55 -61 -104 -102.5t-114.5 -78 t-147.5 -54t-183 -17.5q-90 0 -164.5 17.5t-135 54.5t-94.5 101.5t-34 152.5zM451 1221q0 62 47 104.5t116 42.5t115.5 -42.5t46.5 -104.5t-47 -106t-115 -44q-69 0 -116 44t-47 106z" />
<glyph horiz-adv-x="698" d="M106 655v107l203 252h254l-248 -297v-17l248 -294h-254z" />
<glyph horiz-adv-x="698" d="M135 406l248 294v17l-248 297h254l203 -252v-107l-203 -249h-254z" />
<glyph horiz-adv-x="1236" d="M106 655v107l203 252h254l-248 -297v-17l248 -294h-254zM608 700v17l240 297h254l-248 -297v-17l248 -294h-254z" />
<glyph horiz-adv-x="1236" d="M135 406l248 294v17l-248 297h254l240 -297v-17l-240 -294h-254zM674 406l248 294v17l-248 297h254l202 -252v-107l-202 -249h-254z" />
<glyph horiz-adv-x="788" d="M131 623v208h526v-208h-526z" />
<glyph horiz-adv-x="1273" d="M131 643v188h1012v-188h-1012z" />
<glyph horiz-adv-x="2256" d="M131 643v188h1995v-188h-1995z" />
<glyph horiz-adv-x="808" d="M92 651q0 287 144.5 520t404.5 365l115 -139q-197 -107 -315.5 -307t-118.5 -439t118 -437.5t316 -305.5l-115 -139q-260 132 -404.5 363.5t-144.5 518.5z" />
<glyph horiz-adv-x="808" d="M53 -92q198 107 316 305.5t118 437.5t-118.5 439t-315.5 307l115 139q260 -132 404.5 -365t144.5 -520t-144.5 -518.5t-404.5 -363.5z" />
<glyph horiz-adv-x="753" d="M182 -205v1727h488v-185h-279v-1357h279v-185h-488z" />
<glyph horiz-adv-x="753" d="M84 -20h278v1357h-278v185h487v-1727h-487v185z" />
<glyph horiz-adv-x="798" d="M57 586v180q90 0 157 58t67 151v211q1 72 10 123t30 89.5t52 62t81.5 38t111.5 20t149 5.5v-185q-134 0 -178.5 -28.5t-47.5 -124.5v-211q0 -124 -66 -204.5t-157 -86.5v-16q221 -4 221 -281v-260q0 -91 46 -119t182 -28v-185q-135 0 -213.5 12t-131.5 49.5t-72 100.5 t-19 170v260q0 199 -222 199z" />
<glyph horiz-adv-x="798" d="M84 -20q129 0 178 28.5t49 118.5v260q0 277 221 281v16q-91 6 -157 86.5t-66 204.5v211q-3 95 -50 124t-175 29v185q88 0 149 -5.5t111.5 -20t81.5 -38t52 -62t30 -89.5t10 -123v-211q0 -93 66.5 -151t156.5 -58v-180q-221 0 -221 -199v-260q0 -107 -19 -170t-72 -100.5 t-131.5 -49.5t-213.5 -12v185z" />
<glyph horiz-adv-x="946" d="M139 715q0 132 98 224.5t236 92.5q137 0 235.5 -93t98.5 -224q0 -132 -98.5 -225t-235.5 -93q-138 0 -236 93t-98 225z" />
<glyph horiz-adv-x="2004" d="M113 590q0 197 82 365.5t219.5 282t318 177.5t377.5 64q176 0 325.5 -51.5t252 -140.5t160 -210.5t57.5 -259.5q0 -107 -33 -205t-88 -170t-124.5 -125.5t-143.5 -80.5t-144 -27q-93 0 -154 44t-61 116v16q-68 -83 -155 -128.5t-173 -45.5q-56 0 -106 20t-91 59.5 t-65 104.5t-24 148q0 113 45.5 217.5t115.5 175.5t154.5 113.5t163.5 42.5q92 0 158 -55t82 -132l49 144h190l-174 -533q-8 -21 -8 -43q0 -49 26.5 -74.5t73.5 -25.5q49 0 104 32.5t103 87t79.5 138.5t31.5 176q0 220 -174 364t-453 144q-161 0 -308 -52t-258 -144.5 t-177 -229.5t-66 -297q0 -126 41.5 -233t112 -181.5t164 -127t197 -77t210.5 -24.5q131 0 278.5 33.5t229.5 76.5l53 -139q-89 -50 -252 -92.5t-319 -42.5q-128 0 -254.5 30.5t-244 96.5t-207 158.5t-143.5 227t-54 292.5zM752 571q0 -87 35 -131.5t98 -44.5 q56 0 124.5 33.5t129.5 97.5l63 197q-14 76 -65 130t-115 54q-41 0 -87 -23t-87.5 -64t-68.5 -106.5t-27 -142.5z" />
<glyph horiz-adv-x="1484" d="M94 236l131 149q195 -186 447 -225v454q-62 6 -110 13t-103 20t-95.5 30t-80 44.5t-64.5 62t-40 82.5t-15 107q0 89 30.5 160t79.5 115.5t117 74t136.5 42t144.5 13.5v221h153v-231q155 -20 286 -74.5t216 -119.5l-131 -152q-134 120 -371 156v-365q56 -3 103.5 -9 t105.5 -19t104.5 -32t92.5 -50.5t76.5 -72t49.5 -98.5t19 -129q0 -92 -28.5 -166t-78.5 -125t-120 -85.5t-150.5 -51t-173.5 -18.5v-285h-153v293q-323 40 -578 271zM381 993q0 -147 291 -170v365q-291 -4 -291 -195zM825 150q149 2 242.5 58t93.5 167q0 48 -16 84.5 t-43 60.5t-71 40.5t-92 26t-114 15.5v-452z" />
<glyph horiz-adv-x="1263" d="M102 526q0 122 43.5 226.5t117.5 175.5t174.5 111t213.5 40q27 0 41 -2l43 211h154l-47 -231q165 -39 295 -148l-142 -141q-82 70 -190 102l-143 -718h2q166 0 335 149l142 -133q-21 -26 -56.5 -55t-94.5 -65t-145.5 -59.5t-180.5 -23.5q-27 0 -39 2l-60 -295h-153 l63 324q-165 54 -269 195t-104 335zM334 526q0 -117 49 -205.5t131 -132.5l141 705h-4q-135 0 -226 -101.5t-91 -265.5z" />
<glyph horiz-adv-x="1634" d="M111 444v144h178q-4 54 -4 82t4 90h-178v143h211q70 210 245.5 343.5t393.5 133.5q159 0 301.5 -57t246.5 -158l-139 -159q-78 79 -185 124.5t-224 45.5q-127 0 -233 -75t-163 -198h570v-143h-615q-6 -46 -6 -90q0 -42 6 -82h615v-144h-574q56 -128 163.5 -205t236.5 -77 q122 0 234.5 50.5t193.5 137.5l139 -160q-113 -110 -259 -171.5t-308 -61.5q-220 0 -397 136.5t-245 350.5h-208z" />
<glyph horiz-adv-x="1501" d="M125 0v184h82q75 0 114.5 20t58.5 74.5t19 159.5v195h-274v166h274v180q0 100 42 178.5t112.5 126t155.5 72t178 24.5q100 0 240 -48t262 -126l-115 -159q-97 57 -204.5 93t-182.5 36q-66 0 -123 -20.5t-96 -66.5t-39 -110v-180h520v-166h-520v-195q0 -118 -42 -176 t-141 -78h940v-184h-1261z" />
<glyph horiz-adv-x="1632" d="M121 444v144h579v28l-106 144h-473v143h366l-319 434h291l366 -516l365 516h270l-319 -434h370v-143h-477l-104 -144v-28h581v-144h-581v-444h-230v444h-579z" />
<glyph horiz-adv-x="1480" d="M98 512q0 145 105 262q56 59 127 100q-15 18 -25 41q-26 60 -26 134q0 72 28 130.5t74 96t107.5 62.5t125 35.5t129.5 10.5q117 0 235 -32t206 -88l-99 -158q-68 42 -160 68t-182 26q-35 0 -70 -5.5t-75 -19.5t-65 -45t-25 -75q0 -43 20 -66q13 -14 32.5 -24t52.5 -17 t52.5 -10t68 -8.5t63.5 -7.5q350 -41 489 -189q94 -97 94 -241q0 -153 -104 -265q-52 -58 -129 -100q9 -11 27 -47q26 -57 26 -125q0 -89 -42.5 -157t-112.5 -105.5t-148.5 -55.5t-161.5 -18q-116 0 -233.5 32t-206.5 89l98 158q68 -42 160 -68.5t182 -26.5q37 0 74 6.5 t75.5 21.5t62.5 45.5t24 72.5q0 39 -21 63q-11 12 -29.5 22t-35 15.5t-47 11.5t-47 8t-55.5 6.5t-54 6.5q-351 42 -489 188q-95 98 -95 242zM328 541q0 -88 53 -144q79 -88 303 -114q5 -1 32 -3.5t36.5 -3.5t36 -4.5t40 -5.5t38 -6t41 -8t37.5 -9.5t39.5 -12t35.5 -13.5 q11 9 51 53q80 90 80 193q0 87 -53 143q-80 89 -303 115q-4 0 -41 4t-49.5 5.5t-46.5 6t-53.5 8.5t-48 10t-52 14t-45.5 17q-11 -9 -51 -53q-80 -90 -80 -192z" />
<glyph horiz-adv-x="1867" d="M100 264v164h443l71 436h-393v164h420l72 424h170l-72 -424h363l71 424h170l-72 -424h422v-164h-448l-72 -436h400v-164h-426l-80 -491h-170l80 491h-363l-80 -491h-170l80 491h-416zM713 428h362l72 436h-363z" />
<glyph horiz-adv-x="2205" d="M102 985q0 158 120.5 271.5t291.5 113.5q170 0 294 -114t124 -271q0 -159 -123.5 -273t-294.5 -114t-291.5 113.5t-120.5 273.5zM299 985q0 -87 63 -149t152 -62q91 0 156 62.5t65 148.5t-65 147.5t-156 61.5q-89 0 -152 -61.5t-63 -147.5zM633 0l760 1337h180 l-758 -1337h-182zM1274 354q0 158 120.5 271.5t291.5 113.5q170 0 293.5 -114t123.5 -271q0 -159 -123 -273t-294 -114t-291.5 113.5t-120.5 273.5zM1470 354q0 -86 63.5 -148.5t152.5 -62.5q91 0 156 62.5t65 148.5t-65 147.5t-156 61.5q-89 0 -152.5 -61.5t-63.5 -147.5z " />
<glyph horiz-adv-x="563" d="M-117 -418l39 176q19 -13 62.5 -25t74.5 -12q54 0 85.5 27t31.5 74v1167h211v-1167q0 -77 -26 -135t-69 -90t-91.5 -47t-100.5 -15q-57 0 -122 14.5t-95 32.5zM147 1311q0 51 38.5 87t95.5 36q56 0 95.5 -36.5t39.5 -86.5q0 -51 -39 -86t-96 -35t-95.5 35t-38.5 86z" />
<glyph horiz-adv-x="995" d="M152 989h194q15 -73 21 -166q26 43 51 74t60.5 62t81 47t99.5 16q128 0 204.5 -98t64.5 -256h-201q6 73 -27.5 115t-87.5 42q-44 0 -88.5 -30.5t-72 -63.5t-62.5 -84v-647h-211v719q0 134 -26 270z" />
<glyph horiz-adv-x="1155" d="M-127 -410l57 172q37 -22 97.5 -36.5t113.5 -14.5q82 0 137.5 49t118.5 177l66 133l-414 919h240l282 -686h13l307 686h215l-528 -1110q-78 -164 -182.5 -254t-260.5 -90q-65 0 -140 15t-122 40z" />
<glyph horiz-adv-x="1155" d="M-127 -410l57 172q37 -22 97.5 -36.5t113.5 -14.5q82 0 137.5 49t118.5 177l66 133l-414 919h240l282 -686h13l307 686h215l-528 -1110q-78 -164 -182.5 -254t-260.5 -90q-65 0 -140 15t-122 40zM436 1128l164 299h244l-217 -299h-191z" />
<glyph horiz-adv-x="1155" d="M-127 -410l57 172q37 -22 97.5 -36.5t113.5 -14.5q82 0 137.5 49t118.5 177l66 133l-414 919h240l282 -686h13l307 686h215l-528 -1110q-78 -164 -182.5 -254t-260.5 -90q-65 0 -140 15t-122 40zM231 1264q0 48 36 82t89 34t90 -34.5t37 -81.5q0 -49 -36.5 -82t-90.5 -33 t-89.5 32.5t-35.5 82.5zM666 1264q0 48 36 82t89 34t90 -34.5t37 -81.5q0 -49 -36.5 -82t-90.5 -33t-89.5 32.5t-35.5 82.5z" />
<glyph horiz-adv-x="950" d="M80 680q0 97 92 161t254 64q56 0 116.5 -11t96.5 -28v58q0 55 -45.5 82.5t-124.5 27.5q-77 0 -160.5 -27.5t-128.5 -58.5l-63 146q62 36 158.5 63t203.5 27q67 0 125 -11t108 -34t78.5 -64.5t28.5 -97.5v-399q0 -74 19 -127h-183q-6 17 -16 77q-39 -31 -66 -48.5 t-81.5 -34.5t-118.5 -17q-131 0 -212 71t-81 181zM262 680q0 -42 40.5 -69t109.5 -27q57 0 111.5 21t77.5 37.5t38 31.5v53q-86 39 -182 39q-195 0 -195 -86z" />
<glyph horiz-adv-x="976" d="M125 451q14 72 14 206v777h180v-353q95 103 213 103q152 0 257.5 -105.5t105.5 -271.5q0 -169 -103 -274t-255 -105q-78 0 -143 37.5t-91 79.5q0 -51 -12 -94h-166zM319 672q83 -90 199 -90q74 0 125 62.5t51 162.5q0 99 -51.5 160t-128.5 61q-104 0 -195 -88v-268z" />
<glyph horiz-adv-x="976" d="M82 807q0 167 104.5 272t255.5 105q120 0 215 -86v336h181v-777q0 -134 14 -206h-166q-12 43 -12 94q-26 -43 -90 -80t-142 -37q-153 0 -256.5 104.5t-103.5 274.5zM283 807q0 -100 51.5 -162.5t126.5 -62.5q113 0 196 90v268q-95 88 -196 88q-77 0 -127.5 -61 t-50.5 -160z" />
<glyph horiz-adv-x="921" d="M82 795q0 165 108 277t271 112q81 0 150.5 -23.5t126.5 -72t86 -133.5t20 -197h-580q13 -72 67 -123t130 -51q144 0 241 90l121 -115q-141 -131 -362 -131q-112 0 -199.5 51t-133.5 134t-46 182zM276 897h367q0 68 -53.5 103.5t-128.5 35.5q-71 0 -118 -37.5t-67 -101.5z " />
<glyph horiz-adv-x="944" d="M139 451v983h180v-353q90 103 197 103q134 0 217.5 -71.5t83.5 -182.5v-479h-184v479q0 41 -38 69.5t-97 28.5q-97 0 -179 -106v-471h-180z" />
<glyph horiz-adv-x="460" d="M117 1354q0 40 32.5 69t79.5 29t81 -29t34 -69q0 -41 -34 -70t-81 -29t-79.5 29t-32.5 70zM139 451v708h183v-708h-183z" />
<glyph horiz-adv-x="458" d="M139 451v983h180v-983h-180z" />
<glyph horiz-adv-x="1398" d="M125 1161h164q7 -31 14 -102q24 29 41 47t44 38.5t60.5 30t73.5 9.5q79 0 146 -37.5t100 -104.5q93 142 229 142q115 0 195 -72.5t80 -181.5v-479h-182v479q0 41 -35 69.5t-88 28.5q-88 0 -170 -106v-471h-183v462q0 48 -34.5 81.5t-87.5 33.5q-90 0 -168 -106v-471h-183 v503q0 111 -16 207z" />
<glyph horiz-adv-x="950" d="M80 807q0 156 116 266.5t277 110.5q163 0 280 -110.5t117 -266.5q0 -159 -116.5 -269t-280.5 -110q-161 0 -277 110.5t-116 268.5zM268 807q0 -98 53.5 -160.5t151.5 -62.5q101 0 156 62.5t55 160.5q0 95 -55.5 158t-155.5 63q-97 0 -151 -63t-54 -158z" />
<glyph horiz-adv-x="645" d="M123 1161h166q7 -37 14 -117q46 68 91.5 104t117.5 36q70 0 100 -23l-53 -166q-43 17 -90 17q-22 0 -42.5 -9t-40.5 -29t-30.5 -33.5t-31.5 -41.5v-448h-183v503q0 99 -18 207z" />
<glyph horiz-adv-x="870" d="M74 530l67 136q43 -23 62 -32t64.5 -28t90.5 -27t93 -8q72 0 118.5 23.5t46.5 58.5q0 21 -11.5 36t-28 23.5t-42.5 13.5t-47 6.5t-49 2.5q-57 2 -99 7t-91 19.5t-80.5 37.5t-52.5 64.5t-21 97.5q0 61 27.5 107t73 71t97.5 37t109 12q99 0 197 -25t152 -53l-68 -135 q-144 65 -283 65q-49 0 -86 -17t-37 -42q0 -22 14.5 -37t42 -22t50.5 -9.5t55 -3.5q38 -2 62.5 -3.5t66 -8t69.5 -16t61 -27t53 -41.5t33.5 -60t13.5 -81q0 -120 -97.5 -184t-253.5 -64q-198 0 -372 106z" />
<glyph horiz-adv-x="653" d="M66 1022v137h133v207h182v-207h176v-137h-176v-395q0 -24 19.5 -38t56.5 -14q77 0 98 3l16 -140q-18 -8 -64.5 -14t-84.5 -6q-41 0 -78.5 11t-71 34.5t-53.5 65.5t-20 98v395h-133z" />
<glyph horiz-adv-x="1466" d="M53 0l578 1163h205l577 -1163h-250l-141 293h-590l-141 -293h-238zM518 473h416l-201 418h-12z" />
<glyph horiz-adv-x="1585" d="M231 0v1163h740q226 0 334 -114q69 -72 69 -170q0 -79 -43 -143t-110 -89q99 -20 161 -103t62 -190q0 -144 -109 -250q-62 -59 -135.5 -81.5t-195.5 -22.5h-773zM459 203h532q123 0 176 53q39 39 39 98q0 54 -43 97q-61 61 -176 61h-528v-309zM459 692h502q87 0 131 41 q45 42 45 105q0 42 -31 73q-26 28 -61 39t-99 11h-487v-269z" />
<glyph horiz-adv-x="1505" d="M123 582q0 126 49 239.5t135.5 198t213 134.5t272.5 50q166 0 322 -57t263 -152l-153 -151q-83 72 -200 114.5t-228 42.5q-194 0 -314.5 -122t-120.5 -299t123 -297.5t322 -120.5q136 0 256 54.5t205 139.5l153 -149q-114 -107 -271 -177.5t-347 -70.5 q-151 0 -279.5 49.5t-215.5 134t-136 198t-49 241.5z" />
<glyph horiz-adv-x="1593" d="M231 0v1163h607q169 0 273.5 -40t191.5 -122q159 -162 159 -419q0 -126 -41.5 -236t-122.5 -188q-87 -80 -190 -119t-270 -39h-607zM459 203h368q110 0 170.5 23t118.5 73q107 107 107 283q0 172 -105 280q-57 51 -119.5 75t-171.5 24h-368v-758z" />
<glyph horiz-adv-x="1402" d="M231 0v1163h1012v-202h-784v-254h475v-201h-475v-303h831v-203h-1059z" />
<glyph horiz-adv-x="1304" d="M231 0v1163h1006v-202h-778v-248h471v-203h-471v-510h-228z" />
<glyph horiz-adv-x="1558" d="M121 582q0 170 89.5 312.5t245.5 226t343 83.5q150 0 302.5 -57t280.5 -162l-157 -141q-74 71 -193.5 114t-230.5 43q-193 0 -318 -123t-125 -298q0 -80 29.5 -153.5t85.5 -133.5t147 -95.5t203 -35.5q95 0 196 22.5t159 59.5v211h-387v202h593v-524q-119 -80 -274 -127 t-301 -47q-145 0 -273.5 49.5t-219 133.5t-143 198.5t-52.5 241.5z" />
<glyph horiz-adv-x="1568" d="M231 0v1163h228v-426h651v426h227v-1163h-227v535h-651v-535h-228z" />
<glyph horiz-adv-x="690" d="M231 0v1163h228v-1163h-228z" />
<glyph horiz-adv-x="1269" d="M43 260l188 98q96 -196 310 -196q133 0 214 65.5t81 184.5v751h227v-751q0 -212 -143.5 -332.5t-376.5 -120.5q-89 0 -165 20t-127 49.5t-94 72.5t-67.5 79t-46.5 80z" />
<glyph horiz-adv-x="1509" d="M231 0v1163h228v-532l633 532h282l-514 -446l625 -717h-295l-494 565l-237 -188v-377h-228z" />
<glyph horiz-adv-x="1280" d="M231 0v1163h228v-960h758v-203h-986z" />
<glyph horiz-adv-x="1765" d="M231 0v1163h232l424 -659h4l422 659h221v-1163h-227v758h-9l-403 -621h-35l-401 621h-10v-758h-218z" />
<glyph horiz-adv-x="1589" d="M231 0v1163h201l696 -792h2v792h228v-1163h-201l-696 793h-2v-793h-228z" />
<glyph horiz-adv-x="1611" d="M123 584q0 126 53 240.5t144 198t217.5 132.5t267.5 49q187 0 345 -83t249.5 -226t91.5 -311q0 -170 -91.5 -314t-249.5 -227.5t-345 -83.5q-188 0 -345 83.5t-247 227t-90 314.5zM362 584q0 -173 129 -297.5t314 -124.5q186 0 316 124.5t130 297.5q0 113 -59 209 t-161.5 152t-225.5 56q-185 0 -314 -122t-129 -295z" />
<glyph horiz-adv-x="1472" d="M231 0v1163h691q242 0 364 -125q98 -98 98 -241q0 -140 -100 -240q-66 -66 -155 -95.5t-214 -29.5h-456v-432h-228zM459 633h456q135 0 197 59q45 45 45 105q0 58 -39 100q-60 64 -196 64h-463v-328z" />
<glyph horiz-adv-x="1611" d="M123 584q0 126 53 240.5t144 198t217.5 132.5t267.5 49q187 0 345 -83t249.5 -226t91.5 -311q0 -160 -81 -295.5t-220 -222.5l164 -224l-221 -69l-150 209q-94 -23 -178 -23q-188 0 -345 83.5t-247 227t-90 314.5zM362 584q0 -173 129 -297.5t314 -124.5q31 0 45 2 l-150 209l220 69l145 -202q86 59 136 150t50 194q0 113 -59 209t-161.5 152t-225.5 56q-185 0 -314 -122t-129 -295z" />
<glyph horiz-adv-x="1533" d="M231 0v1163h684q245 0 371 -129q98 -101 98 -235q0 -117 -74.5 -206t-195.5 -128l291 -465h-262l-262 432h-422v-432h-228zM459 633h489q86 0 147.5 49t61.5 115q0 54 -41 98q-36 40 -83.5 53t-117.5 13h-456v-328z" />
<glyph horiz-adv-x="1445" d="M98 209l138 158q47 -39 92 -68.5t115.5 -65t159.5 -55.5t188 -20q140 0 226.5 42t86.5 126q0 92 -83 129.5t-263 50.5q-229 17 -328 42q-212 53 -253 203q-11 40 -11 85q0 82 31 147t80.5 106t116.5 67.5t135 37t141 10.5q180 0 340.5 -53t249.5 -119l-140 -158 q-61 52 -181.5 92t-276.5 40q-119 0 -193 -36t-74 -114q0 -22 9.5 -40t25.5 -30t41.5 -21t51.5 -14.5t62 -10t67.5 -6.5t72.5 -5q22 -1 33 -2q45 -3 71 -5t74 -7t78 -11.5t75 -17t74 -25t64 -34.5t57.5 -46.5t42.5 -59t29.5 -74.5t9.5 -91q0 -84 -28.5 -151.5t-78 -112.5 t-119.5 -75.5t-150 -44t-171 -13.5q-392 0 -688 250z" />
<glyph horiz-adv-x="1347" d="M70 961v202h1208v-202h-490v-961h-227v961h-491z" />
<glyph horiz-adv-x="1519" d="M207 393v770h227v-770q0 -109 91.5 -170t232.5 -61q142 0 234.5 62t92.5 169v770h228v-770q0 -202 -155.5 -318t-399.5 -116q-158 0 -281.5 50t-196.5 149.5t-73 234.5z" />
<glyph horiz-adv-x="1466" d="M53 1163h260l420 -893h12l420 893h248l-577 -1163h-205z" />
<glyph horiz-adv-x="1961" d="M88 1163h250l268 -852h12l289 852h160l289 -852h12l268 852h238l-397 -1163h-226l-264 764h-12l-262 -764h-228z" />
<glyph horiz-adv-x="1454" d="M59 0l527 596l-475 567h290l334 -407l348 407h277l-490 -557l512 -606h-290l-369 446l-387 -446h-277z" />
<glyph horiz-adv-x="1329" d="M41 1163h289l346 -430l346 430h268l-512 -633v-530h-227v530z" />
<glyph horiz-adv-x="1337" d="M123 0v141l743 820h-710v202h1042v-141l-743 -819h741v-203h-1073z" />
<glyph horiz-adv-x="1538" d="M111 342q0 75 24 135.5t68.5 103t94.5 71.5t116 53q-66 91 -66 180q0 139 112 228t267 89q178 0 365 -112l-113 -177q-126 88 -258 88q-65 0 -105.5 -33t-40.5 -79q0 -27 17 -60.5t50.5 -71t56.5 -61.5t61 -58.5t39 -35.5l227 -215q111 103 223 279l183 -93 q-124 -182 -267 -315l275 -258h-297l-137 129q-234 -160 -451 -160q-79 0 -155.5 22.5t-142 66t-106 117.5t-40.5 167zM338 346q0 -60 37.5 -101.5t89.5 -58t113 -16.5q139 0 286 92l-237 225l-80 76q-34 -13 -56 -22.5t-54.5 -29t-51.5 -40.5t-33 -53.5t-14 -71.5z" />
<glyph horiz-adv-x="1466" d="M53 0l578 1163h205l577 -1163h-250l-141 293h-590l-141 -293h-238zM518 473h416l-201 418h-12zM563 1309l205 266h279l-281 -266h-203z" />
<glyph horiz-adv-x="1466" d="M53 0l578 1163h205l577 -1163h-250l-141 293h-590l-141 -293h-238zM420 1575h278l205 -266h-205zM518 473h416l-201 418h-12z" />
<glyph horiz-adv-x="1466" d="M53 0l578 1163h205l577 -1163h-250l-141 293h-590l-141 -293h-238zM403 1309l211 272h238l209 -272h-170l-158 151l-160 -151h-170zM518 473h416l-201 418h-12z" />
<glyph horiz-adv-x="1466" d="M53 0l578 1163h205l577 -1163h-250l-141 293h-590l-141 -293h-238zM389 1442q0 48 36 82.5t89 34.5t90 -35t37 -82q0 -49 -36.5 -82t-90.5 -33t-89.5 32.5t-35.5 82.5zM518 473h416l-201 418h-12zM823 1442q0 48 36 82.5t89 34.5t90 -35t37 -82q0 -49 -36.5 -82 t-90.5 -33t-89.5 32.5t-35.5 82.5z" />
<glyph horiz-adv-x="1466" d="M53 0l578 1163h205l577 -1163h-250l-141 293h-590l-141 -293h-238zM362 1380q57 98 112.5 139.5t121.5 41.5q68 0 145 -54q29 -20 40 -27.5t33 -16.5t40 -9q23 0 45.5 16t34.5 30t35 46l127 -69q-103 -183 -234 -183q-76 0 -143 49q-5 3 -20 14.5t-20 15t-17 11t-19 10 t-16.5 5t-18.5 2.5q-12 0 -23.5 -4.5t-19 -9.5t-18.5 -17.5t-15.5 -18.5t-16.5 -22.5t-15 -21.5zM518 473h416l-201 418h-12z" />
<glyph horiz-adv-x="1466" d="M53 0l578 1163h205l577 -1163h-250l-141 293h-590l-141 -293h-238zM469 1444q0 91 68.5 153t189.5 62t191.5 -62.5t70.5 -152.5q0 -89 -70.5 -149t-191.5 -60t-189.5 60t-68.5 149zM518 473h416l-201 418h-12zM596 1444q0 -49 37 -80t94 -31q59 0 96 31t37 80 q0 52 -37.5 86.5t-95.5 34.5q-57 0 -94 -35t-37 -86z" />
<glyph horiz-adv-x="1505" d="M123 582q0 126 49 239.5t135.5 198t213 134.5t272.5 50q166 0 322 -57t263 -152l-153 -151q-83 72 -200 114.5t-228 42.5q-194 0 -314.5 -122t-120.5 -299t123 -297.5t322 -120.5q136 0 256 54.5t205 139.5l153 -149q-110 -103 -258 -171.5t-327 -74.5l-31 -72 q37 11 61 11q83 2 147 -42.5t64 -121.5q0 -90 -93.5 -144.5t-242.5 -54.5q-112 0 -292 45l32 117q184 -35 250 -35q72 0 114 19t42 55q0 55 -96 55q-27 0 -89 -10l-55 65l55 117q-173 20 -306 107.5t-203 220.5t-70 289z" />
<glyph horiz-adv-x="1402" d="M231 0v1163h1012v-202h-784v-254h475v-201h-475v-303h831v-203h-1059zM565 1309l205 266h279l-281 -266h-203z" />
<glyph horiz-adv-x="1402" d="M231 0v1163h1012v-202h-784v-254h475v-201h-475v-303h831v-203h-1059zM422 1575h278l205 -266h-205z" />
<glyph horiz-adv-x="1402" d="M231 0v1163h1012v-202h-784v-254h475v-201h-475v-303h831v-203h-1059zM406 1309l210 272h238l209 -272h-170l-158 151l-160 -151h-169z" />
<glyph horiz-adv-x="1402" d="M231 0v1163h1012v-202h-784v-254h475v-201h-475v-303h831v-203h-1059zM391 1442q0 48 36 82.5t89 34.5t90 -35t37 -82q0 -49 -36.5 -82t-90.5 -33t-89.5 32.5t-35.5 82.5zM825 1442q0 48 36 82.5t89 34.5t90 -35t37 -82q0 -49 -36.5 -82t-90.5 -33t-89.5 32.5t-35.5 82.5 z" />
<glyph horiz-adv-x="690" d="M176 1309l205 266h278l-280 -266h-203zM231 0v1163h228v-1163h-228z" />
<glyph horiz-adv-x="690" d="M33 1575h278l205 -266h-205zM231 0v1163h228v-1163h-228z" />
<glyph horiz-adv-x="690" d="M16 1309l211 272h238l209 -272h-170l-158 151l-160 -151h-170zM231 0v1163h228v-1163h-228z" />
<glyph horiz-adv-x="690" d="M2 1442q0 48 36 82.5t89 34.5t90 -35t37 -82q0 -49 -36.5 -82t-90.5 -33t-89.5 32.5t-35.5 82.5zM231 0v1163h228v-1163h-228zM436 1442q0 48 36 82.5t89 34.5t90 -35t37 -82q0 -49 -36.5 -82t-90.5 -33t-89.5 32.5t-35.5 82.5z" />
<glyph horiz-adv-x="690" d="M221 1442q0 48 36 82.5t89 34.5t90 -35t37 -82q0 -49 -36.5 -82t-90.5 -33t-89.5 32.5t-35.5 82.5zM231 0v1163h228v-1163h-228z" />
<glyph horiz-adv-x="1589" d="M231 0v1163h201l696 -792h2v792h228v-1163h-201l-696 793h-2v-793h-228zM424 1380q57 98 112 139.5t121 41.5q69 0 146 -54q2 -2 11 -8l12 -8t11 -7.5t11.5 -7t10.5 -6t11 -6t10.5 -4t11.5 -3.5t11 -2t12 -1q23 0 45.5 16t34.5 30t35 46l127 -69q-103 -183 -233 -183 q-77 0 -144 49q-6 4 -20 14.5t-20 14.5t-17 11t-18 10t-16.5 5.5t-18.5 2.5q-10 0 -19.5 -2.5t-18.5 -9t-15.5 -11.5t-15.5 -16t-13.5 -17t-14 -19.5t-12.5 -18.5z" />
<glyph horiz-adv-x="1611" d="M123 584q0 126 53 240.5t144 198t217.5 132.5t267.5 49q187 0 345 -83t249.5 -226t91.5 -311q0 -170 -91.5 -314t-249.5 -227.5t-345 -83.5q-188 0 -345 83.5t-247 227t-90 314.5zM362 584q0 -173 129 -297.5t314 -124.5q186 0 316 124.5t130 297.5q0 113 -59 209 t-161.5 152t-225.5 56q-185 0 -314 -122t-129 -295zM637 1309l205 266h278l-280 -266h-203z" />
<glyph horiz-adv-x="1611" d="M123 584q0 126 53 240.5t144 198t217.5 132.5t267.5 49q187 0 345 -83t249.5 -226t91.5 -311q0 -170 -91.5 -314t-249.5 -227.5t-345 -83.5q-188 0 -345 83.5t-247 227t-90 314.5zM362 584q0 -173 129 -297.5t314 -124.5q186 0 316 124.5t130 297.5q0 113 -59 209 t-161.5 152t-225.5 56q-185 0 -314 -122t-129 -295zM494 1575h278l205 -266h-205z" />
<glyph horiz-adv-x="1611" d="M123 584q0 126 53 240.5t144 198t217.5 132.5t267.5 49q187 0 345 -83t249.5 -226t91.5 -311q0 -170 -91.5 -314t-249.5 -227.5t-345 -83.5q-188 0 -345 83.5t-247 227t-90 314.5zM362 584q0 -173 129 -297.5t314 -124.5q186 0 316 124.5t130 297.5q0 113 -59 209 t-161.5 152t-225.5 56q-185 0 -314 -122t-129 -295zM477 1309l211 272h238l209 -272h-170l-158 151l-160 -151h-170z" />
<glyph horiz-adv-x="1611" d="M123 584q0 126 53 240.5t144 198t217.5 132.5t267.5 49q187 0 345 -83t249.5 -226t91.5 -311q0 -170 -91.5 -314t-249.5 -227.5t-345 -83.5q-188 0 -345 83.5t-247 227t-90 314.5zM362 584q0 -173 129 -297.5t314 -124.5q186 0 316 124.5t130 297.5q0 113 -59 209 t-161.5 152t-225.5 56q-185 0 -314 -122t-129 -295zM463 1442q0 48 36 82.5t89 34.5t90 -35t37 -82q0 -49 -36.5 -82t-90.5 -33t-89.5 32.5t-35.5 82.5zM897 1442q0 48 36 82.5t89 34.5t90 -35t37 -82q0 -49 -36.5 -82t-90.5 -33t-89.5 32.5t-35.5 82.5z" />
<glyph horiz-adv-x="1611" d="M123 584q0 126 53 240.5t144 198t217.5 132.5t267.5 49q187 0 345 -83t249.5 -226t91.5 -311q0 -170 -91.5 -314t-249.5 -227.5t-345 -83.5q-188 0 -345 83.5t-247 227t-90 314.5zM362 584q0 -173 129 -297.5t314 -124.5q186 0 316 124.5t130 297.5q0 113 -59 209 t-161.5 152t-225.5 56q-185 0 -314 -122t-129 -295zM436 1380q57 98 112.5 139.5t121.5 41.5q68 0 145 -54q29 -20 40 -27.5t33 -16.5t40 -9q23 0 45.5 16t33.5 29.5t35 46.5l127 -69q-103 -183 -233 -183q-76 0 -143 49q-5 3 -20 14.5t-20 15t-17 11t-19 10t-16.5 5 t-18.5 2.5q-10 0 -19.5 -2.5t-18.5 -9t-15.5 -11.5t-15.5 -16t-13.5 -17t-14 -19.5t-12.5 -18.5z" />
<glyph horiz-adv-x="1611" d="M123 584q0 126 53 240.5t144 198t217.5 132.5t267.5 49q155 0 287 -57l114 162l148 -105l-105 -147q113 -88 177.5 -211.5t64.5 -261.5q0 -170 -91.5 -314t-249.5 -227.5t-345 -83.5q-152 0 -287 55l-110 -159l-148 104l102 145q-112 88 -175.5 213t-63.5 267zM362 584 q0 -173 127 -297l480 686q-79 28 -164 28q-185 0 -314 -122t-129 -295zM643 190q76 -28 162 -28q186 0 316 124.5t130 297.5q0 169 -127 293z" />
<glyph horiz-adv-x="1519" d="M207 393v770h227v-770q0 -109 91.5 -170t232.5 -61q142 0 234.5 62t92.5 169v770h228v-770q0 -202 -155.5 -318t-399.5 -116q-158 0 -281.5 50t-196.5 149.5t-73 234.5zM590 1309l205 266h278l-280 -266h-203z" />
<glyph horiz-adv-x="1519" d="M207 393v770h227v-770q0 -109 91.5 -170t232.5 -61q142 0 234.5 62t92.5 169v770h228v-770q0 -202 -155.5 -318t-399.5 -116q-158 0 -281.5 50t-196.5 149.5t-73 234.5zM446 1575h279l205 -266h-205z" />
<glyph horiz-adv-x="1519" d="M207 393v770h227v-770q0 -109 91.5 -170t232.5 -61q142 0 234.5 62t92.5 169v770h228v-770q0 -202 -155.5 -318t-399.5 -116q-158 0 -281.5 50t-196.5 149.5t-73 234.5zM430 1309l211 272h238l208 -272h-169l-158 151l-160 -151h-170z" />
<glyph horiz-adv-x="1519" d="M207 393v770h227v-770q0 -109 91.5 -170t232.5 -61q142 0 234.5 62t92.5 169v770h228v-770q0 -202 -155.5 -318t-399.5 -116q-158 0 -281.5 50t-196.5 149.5t-73 234.5zM416 1442q0 48 36 82.5t89 34.5t90 -35t37 -82q0 -49 -36.5 -82t-90.5 -33t-89.5 32.5t-35.5 82.5z M850 1442q0 48 36 82.5t89 34.5t90 -35t37 -82q0 -49 -36.5 -82t-90.5 -33t-89.5 32.5t-35.5 82.5z" />
<glyph horiz-adv-x="1329" d="M41 1163h289l346 -430l346 430h268l-512 -633v-530h-227v530zM494 1309l204 266h279l-281 -266h-202z" />
<glyph horiz-adv-x="1329" d="M41 1163h289l346 -430l346 430h268l-512 -633v-530h-227v530zM319 1442q0 48 36 82.5t89 34.5t90 -35t37 -82q0 -49 -36.5 -82t-90.5 -33t-89.5 32.5t-35.5 82.5zM754 1442q0 48 36 82.5t89 34.5t90 -35t37 -82q0 -49 -36.5 -82t-90.5 -33t-89.5 32.5t-35.5 82.5z" />
<glyph horiz-adv-x="1654" d="M102 504v182h191v477h606q169 0 273.5 -40t191.5 -122q160 -163 160 -419q0 -126 -41.5 -236t-122.5 -188q-86 -80 -190 -119t-271 -39h-606v504h-191zM520 203h369q110 0 170.5 23t118.5 73q106 106 106 283q0 173 -104 280q-57 51 -119.5 75t-171.5 24h-369v-275h359 v-182h-359v-301z" />
<glyph horiz-adv-x="1515" d="M231 0v1163h228v-213h504q242 0 364 -125q98 -98 98 -241q0 -140 -100 -240q-66 -66 -155 -95.5t-214 -29.5h-497v-219h-228zM459 420h497q135 0 197 59q45 45 45 105q0 61 -39 100q-60 64 -196 64h-504v-328z" />
<glyph horiz-adv-x="2093" d="M-18 0l901 1163h1052v-202h-786v-254h475v-201h-475v-303h831v-203h-1056v293h-461l-227 -293h-254zM590 473h334v418h-6z" />
<glyph horiz-adv-x="2463" d="M123 584q0 126 53 240.5t144 197t217.5 131.5t267.5 49q337 0 487 -168v129h1012v-202h-784v-254h475v-201h-475v-303h831v-203h-1059v127q-158 -166 -487 -166q-188 0 -345 83t-247 226t-90 314zM362 584q0 -173 129 -296.5t314 -123.5q204 0 345.5 123.5t141.5 296.5 q0 113 -64 208.5t-176 151t-247 55.5q-185 0 -314 -121.5t-129 -293.5z" />
<glyph horiz-adv-x="2891" d="M98 209l138 158q47 -39 92 -68.5t115.5 -65t159.5 -55.5t188 -20q140 0 226.5 42t86.5 126q0 92 -83 129.5t-263 50.5q-229 17 -328 42q-212 53 -253 203q-11 40 -11 85q0 82 31 147t80.5 106t116.5 67.5t135 37t141 10.5q180 0 340.5 -53t249.5 -119l-140 -158 q-61 52 -181.5 92t-276.5 40q-119 0 -193 -36t-74 -114q0 -22 9.5 -40t25.5 -30t41.5 -21t51.5 -14.5t62 -10t67.5 -6.5t72.5 -5q22 -1 33 -2q45 -3 71 -5t74 -7t78 -11.5t75 -17t74 -25t64 -34.5t57.5 -46.5t42.5 -59t29.5 -74.5t9.5 -91q0 -84 -28.5 -151.5t-78 -112.5 t-119.5 -75.5t-150 -44t-171 -13.5q-392 0 -688 250zM1544 209l137 158q47 -39 92 -68.5t115.5 -65t159.5 -55.5t188 -20q140 0 227 42t87 126q0 92 -83 129.5t-263 50.5q-229 17 -328 42q-212 53 -253 203q-11 40 -11 85q0 82 31 147t80.5 106t116.5 67.5t135 37t141 10.5 q180 0 340 -53t249 -119l-139 -158q-61 51 -182 91.5t-277 40.5q-119 0 -192.5 -36t-73.5 -114q0 -22 9.5 -40t25.5 -30t41.5 -21t51.5 -14.5t62 -10t67.5 -6.5t72.5 -5q7 0 11 -0.5t10.5 -1t11.5 -0.5q45 -3 71 -5t74 -7t78 -11.5t75 -17t74 -25t64 -34.5t57.5 -46.5 t42.5 -59t29.5 -74.5t9.5 -91q0 -84 -28.5 -151.5t-78 -112.5t-119.5 -75.5t-150 -44t-171 -13.5q-392 0 -688 250z" />
<glyph horiz-adv-x="618" d="M104 1040q0 62 47.5 105t116.5 43t115.5 -43t46.5 -105t-46.5 -105.5t-115.5 -43.5t-116.5 43.5t-47.5 105.5zM143 143l52 584h147l51 -584v-323h-250v323z" />
<glyph horiz-adv-x="1169" d="M80 106q0 143 102 242q35 33 89.5 69.5t99.5 64.5t88 62.5t68.5 80.5t27.5 102h205q3 -83 -26 -151.5t-81 -117t-104.5 -84.5t-114 -75.5t-92.5 -69.5q-57 -54 -57 -116q0 -71 65 -109.5t164 -38.5q92 0 167 27t125 67t107 105l144 -131q-55 -61 -104 -102.5t-114.5 -78 t-147.5 -54t-183 -17.5q-90 0 -164 17.5t-135 54t-95 101t-34 152.5zM455 1040q0 62 47 105t116 43t115.5 -43t46.5 -105t-46.5 -105.5t-115.5 -43.5t-116 43.5t-47 105.5z" />
<glyph horiz-adv-x="694" d="M188 113q0 59 45.5 101t112.5 42t114.5 -42t47.5 -101q0 -60 -47 -102t-115 -42q-67 0 -112.5 42t-45.5 102zM223 883v280h248v-280l-51 -500h-146z" />
<glyph horiz-adv-x="1116" d="M96 975q52 55 97.5 92t106.5 69.5t137 48t171 15.5q83 0 152 -15.5t125 -48t87.5 -89t31.5 -132.5q0 -125 -86 -204q-38 -35 -105.5 -75.5t-116 -68t-87.5 -76t-40 -108.5h-202q-3 64 16.5 118.5t52 92t78 72.5t87.5 58.5t87 51.5t70 51q43 40 43 82q0 50 -57 79.5 t-142 29.5q-84 0 -152.5 -23t-114 -57.5t-97.5 -91.5zM348 113q0 59 45.5 101t112.5 42t113.5 -42t46.5 -101q0 -60 -46.5 -102t-113.5 -42t-112.5 42t-45.5 102z" />
<glyph horiz-adv-x="708" d="M195 1051q0 60 46.5 101.5t114.5 41.5q67 0 112.5 -41.5t45.5 -101.5q0 -59 -45.5 -101.5t-112.5 -42.5t-114 42.5t-47 101.5zM231 0v281l52 499h145l51 -499v-281h-248z" />
<glyph horiz-adv-x="1116" d="M115 248q0 126 86 205q38 35 105 75t115.5 67.5t87.5 76t40 108.5h203q3 -64 -16.5 -118.5t-52.5 -92t-78.5 -72.5t-87.5 -58.5t-87 -51.5t-70 -51q-43 -40 -43 -82q0 -50 57 -79.5t142 -29.5q122 0 204 43t161 129l141 -129q-52 -55 -97.5 -92t-106.5 -69.5t-137 -48 t-171 -15.5q-66 0 -123 9.5t-108 31t-86.5 54t-56.5 81t-21 109.5zM453 1051q0 60 46 101.5t113 41.5t112.5 -41.5t45.5 -101.5q0 -59 -45.5 -101.5t-112.5 -42.5t-113 42.5t-46 101.5z" />
</font>
</defs>
</svg>
