<svg width="184" height="117" viewBox="0 0 184 117" fill="none" xmlns="http://www.w3.org/2000/svg">
<path d="M11.9005 74.9785L11.5671 75.77L0.567383 108.013C10.9005 114.345 22.3585 115.678 30.275 115.678C33.9833 115.678 36.8582 115.386 38.5665 115.178L38.6082 115.053L11.9005 74.9785ZM12.8588 82.4768L32.775 112.262C32.025 112.304 31.1917 112.304 30.3584 112.304C23.5668 112.304 13.8171 111.262 4.73396 106.472L12.8588 82.4768Z" fill="#58595B"/>
<path d="M98.1895 2.20312L86.2315 8.07699H33.5245L24.0664 35.9042H65.607C65.607 35.9042 65.6904 35.9042 65.857 35.9042C67.607 35.9042 77.5651 35.6126 85.6482 29.6139C94.8146 22.8237 98.1895 2.20312 98.1895 2.20312ZM93.3563 8.28523C91.5647 14.8671 88.3148 23.407 83.6483 26.8646C76.3151 32.3218 66.8987 32.4883 65.857 32.4883C65.7737 32.4883 65.6903 32.4883 65.6903 32.4883H65.6487H65.607H28.7746L35.9411 11.4095H86.2315H87.0232L87.7315 11.0762L93.3563 8.28523Z" fill="#58595B"/>
<path d="M137.939 0.578125C109.523 1.99448 88.0237 22.7816 81.8988 52.9417C74.4407 41.4025 60.316 33.8624 39.6498 33.8624C39.4831 33.8624 39.3581 33.8624 39.1915 33.8624C38.0248 33.8624 36.0249 33.8624 33.8582 33.8624C29.5667 33.8624 24.6502 33.8624 24.6502 33.8624L15.0254 60.1066C50.3163 61.273 59.066 73.3538 59.5243 87.3091C59.7743 95.349 53.3162 108.638 45.9413 114.511C62.7743 110.97 76.4823 102.181 83.3571 90.9333C88.3154 104.722 98.9402 113.553 114.648 115.678C111.232 112.845 110.273 106.013 110.273 95.3073C110.273 68.0216 121.856 9.0346 137.939 0.578125ZM128.523 5.24375C122.356 14.2001 117.815 28.2386 114.815 40.0694C110.106 58.607 106.898 80.8105 106.898 95.349C106.898 101.514 107.19 106.763 108.273 110.887C97.8152 107.68 90.357 100.473 86.5237 89.8502L84.1488 83.2265L80.4822 89.2252C75.5656 97.2234 66.7742 103.93 55.8994 108.096C60.191 101.389 63.1076 93.2244 62.941 87.2257C62.6493 78.1027 59.1911 71.2293 52.3995 66.2304C45.2747 60.9816 34.5666 57.9404 19.8169 56.9823L27.0668 37.2367C28.9001 37.2367 31.4833 37.2367 33.9 37.2367C36.0666 37.2367 38.0665 37.2367 39.2748 37.2367H39.6915C49.1496 37.2367 57.441 38.9029 64.3159 42.1105C70.6074 45.0682 75.6073 49.3174 79.1072 54.7329L83.6071 61.6896L85.2321 53.5664C88.107 39.3611 94.5652 27.1971 103.898 18.3657C110.898 11.7838 119.273 7.32662 128.523 5.24375Z" fill="#58595B"/>
<path d="M145.98 0.660156C149.772 3.24292 150.814 10.1999 150.814 21.3641C150.814 48.7331 139.189 107.97 123.022 116.218C158.022 115.802 183.146 86.3081 183.146 45.7753C183.146 19.6561 170.063 2.70138 145.98 0.660156ZM152.605 5.11754C160.272 6.95047 166.396 10.6997 170.98 16.3234C176.73 23.4469 179.771 33.653 179.771 45.817C179.771 64.6462 174.021 81.7257 163.647 93.8897C155.397 103.554 144.439 109.845 132.189 112.011C138.48 103.138 143.147 88.8493 146.23 76.8102C150.98 58.2726 154.147 35.9859 154.147 21.3641C154.188 14.7405 153.855 9.2833 152.605 5.11754Z" fill="#58595B"/>
</svg>
