<svg width="280" height="283" viewBox="0 0 280 283" fill="none" xmlns="http://www.w3.org/2000/svg">
<path d="M19.6526 140.861L19.8193 135.821L0.528026 135.113L0.361328 140.153L19.6526 140.861ZM21.2775 164.19L20.7776 159.357L10.2361 160.482L20.0275 151.942L19.5276 147.235L0.361328 149.276L0.86136 154.108L12.0694 152.9L1.69466 162.107L2.11134 166.189L21.2775 164.19ZM25.3607 179.978L7.3612 186.935L12.3611 199.807L16.4443 198.224L13.2777 189.976L16.361 188.768L19.2776 196.308L23.2358 194.766L20.3192 187.226L23.1525 186.143L26.3191 194.391L30.3607 192.808L25.3607 179.978ZM22.0275 217.428L42.2354 213.512L39.5271 209.096L26.6107 211.887L34.9856 201.64L32.1523 197.016L19.4442 213.221L22.0275 217.428ZM45.402 217.386L30.9856 230.175L40.1104 240.506L43.3603 237.632L37.5272 231.05L40.0271 228.842L45.3603 234.882L48.5269 232.091L43.1936 226.051L45.4436 224.052L51.2768 230.633L54.5267 227.759L45.402 217.386ZM55.9434 246.047L55.11 253.545L59.4849 257.044L60.2766 248.838C62.6516 249.629 65.0681 249.004 66.9014 246.713C69.5264 243.422 68.7764 239.798 65.5682 237.215L58.8183 231.8L46.7353 246.838L50.6518 249.963L54.6517 245.005L55.9434 246.047ZM59.985 238.215L62.4432 240.173C63.8599 241.298 63.9015 242.506 63.0266 243.631C62.1516 244.755 60.9433 244.922 59.5267 243.797L57.0683 241.839L59.985 238.215ZM78.6928 254.92L78.7345 246.38L73.9429 243.756L73.9847 257.961L70.693 263.959L75.1096 266.376L78.4012 260.377L90.4842 252.795L85.8177 250.254L78.6928 254.92ZM100.109 276.623L113.4 279.873L114.442 275.624L106.067 273.582L109.65 259.086L104.734 257.878L100.109 276.623ZM128.942 262.46L123.9 261.918L121.775 281.081L126.817 281.622L128.942 262.46ZM134.608 267.417L140.525 267.25L140.9 282.164L145.941 282.039L145.566 267.084L151.524 266.917L151.399 262.585L134.442 263.043L134.608 267.417ZM156.858 266.376L162.691 265.168L165.732 279.789L170.691 278.79L167.649 264.168L173.482 262.96L172.607 258.711L155.983 262.127L156.858 266.376ZM184.815 274.957L197.565 269.958L195.982 265.876L187.94 269.042L182.482 255.17L177.774 257.003L184.815 274.957ZM195.565 249.421L205.44 265.959L217.273 258.877L215.023 255.128L207.44 259.669L205.732 256.836L212.648 252.712L210.481 249.088L203.565 253.212L202.023 250.629L209.606 246.088L207.398 242.381L195.565 249.421ZM233.856 246.047L238.939 240.84C243.189 236.507 243.064 231.258 238.856 227.134C234.648 223.052 229.398 223.01 225.148 227.342L220.065 232.55L233.856 246.047ZM234.189 239.465L226.606 232.05L228.064 230.55C230.314 228.259 233.023 228.384 235.356 230.675C237.689 232.925 237.897 235.632 235.647 237.923L234.189 239.465ZM235.272 216.053L251.189 226.926L258.98 215.553L255.397 213.096L250.397 220.386L247.647 218.511L252.189 211.846L248.689 209.471L244.147 216.137L241.647 214.429L246.647 207.139L243.064 204.681L235.272 216.053ZM249.564 202.181L252.022 196.766L265.605 202.973L267.688 198.39L254.105 192.183L256.605 186.768L252.647 184.977L245.606 200.39L249.564 202.181ZM255.397 175.895L272.188 187.893L273.438 183.061L270.147 180.811L271.938 174.062L275.897 173.688L277.188 168.73L256.689 170.938L255.397 175.895ZM261.814 174.979L267.563 174.437L266.563 178.27L261.814 174.979ZM259.522 153.609L258.98 158.649L278.147 160.774L278.688 155.733L259.522 153.609ZM279.355 146.777L279.105 133.113L274.73 133.196L274.897 141.819L259.98 142.111L260.064 147.152L279.355 146.777ZM38.9438 75.0007L38.4438 71.1265L36.2355 71.4181C35.5688 69.1686 34.0272 67.0857 31.6939 65.6693C26.7774 62.67 21.1942 63.7948 18.2776 68.5437C15.4027 73.2927 16.9443 78.7499 21.8608 81.7492C26.7774 84.7486 32.3606 83.6655 35.2772 78.9166C35.9855 77.7918 36.4022 76.542 36.5688 75.2922L38.9438 75.0007ZM29.0273 70.0018C30.1106 70.6683 30.9023 71.3765 31.444 72.0847L29.1523 72.3763L29.6107 76.2087L32.0273 75.9172C31.9439 76.2088 31.7773 76.4587 31.6523 76.7503C30.2773 78.9581 27.3607 79.1664 24.4858 77.4168C21.6525 75.6672 20.6526 73.0844 22.0275 70.8765C23.4025 68.627 26.1941 68.2522 29.0273 70.0018ZM49.1102 60.4206C52.5268 56.6714 52.6101 52.2557 48.6936 48.7148L40.2354 41.0497L36.8605 44.7573L44.9853 52.1306C47.0269 53.9636 47.1936 55.8799 45.777 57.4212C44.3603 58.9626 42.4437 59.0042 40.4438 57.1296L32.319 49.7562L28.944 53.4637L37.4021 61.1287C41.3187 64.7112 45.6936 64.2114 49.1102 60.4206ZM51.5685 31.3018L57.4434 51.0892L61.4016 48.0483L60.1933 44.2574L65.7765 40.0083L69.1514 42.1328L73.2346 39.0085L55.6934 28.136L51.5685 31.3018ZM57.1933 34.5096L62.0683 37.6339L58.9433 40.05L57.1933 34.5096ZM77.7762 36.509L89.9426 30.2188L87.9426 26.3446L80.2762 30.3021L73.443 17.055L68.9431 19.3878L77.7762 36.509ZM93.8175 8.22364L89.0676 9.93149L95.6091 28.0526L100.359 26.3446L93.8175 8.22364ZM102.692 9.76495L108.484 8.51514L111.609 23.137L116.567 22.0956L113.442 7.4737L119.275 6.22403L118.359 1.975L101.817 5.51579L102.692 9.76495ZM136.066 8.18194L131.775 0.766893L126.317 0.933559L133.525 13.1392L133.733 19.971L138.775 19.8044L138.566 12.9725L145.15 0.308594L139.858 0.47526L136.066 8.18194ZM178.149 11.0146C178.649 8.01528 177.024 5.14088 173.274 4.22442C169.607 3.34961 166.524 4.76602 165.732 8.05697C165.441 9.26504 165.524 10.3064 165.941 11.5145C163.941 12.0977 162.316 13.5975 161.816 15.6387C160.899 19.3462 163.024 22.2205 167.024 23.2203C168.691 23.6368 170.399 23.5119 171.982 22.9703L172.691 24.2617L178.066 25.5531L175.649 20.8042C177.232 19.4295 178.44 17.5133 179.024 15.2638L174.816 14.2639C174.524 15.3053 174.149 16.1802 173.649 16.9301L171.066 11.9311C170.566 10.973 170.066 10.0565 170.274 9.18168C170.482 8.26521 171.316 7.76533 172.316 8.01527C173.316 8.26522 173.649 9.09833 173.482 9.93149L178.149 11.0146ZM167.982 19.5545C166.482 19.1796 165.899 18.0131 166.232 16.7217C166.441 15.8469 167.024 15.2221 167.691 14.9721L170.149 19.5545C169.441 19.7211 168.691 19.7211 167.982 19.5545ZM196.315 22.5539C193.482 27.6777 194.857 33.1348 199.607 35.7592C203.815 38.0921 207.648 36.9673 210.19 33.843L205.815 31.4268C204.69 32.4683 203.315 32.76 201.773 31.9268C199.44 30.6354 199.273 27.8026 200.815 25.0532C202.357 22.2621 204.815 20.9708 207.148 22.2622C208.69 23.0954 209.148 24.4284 208.898 25.9281L213.315 28.3442C214.606 24.595 213.523 20.7209 209.315 18.3881C204.523 15.722 199.148 17.4716 196.315 22.5539ZM227.981 31.2186L210.065 41.4663L213.94 44.6323L217.356 42.5911L222.773 47.0068L221.481 50.756L225.439 54.0053L231.981 34.4262L227.981 31.2186ZM226.148 37.4255L224.231 42.8826L221.148 40.3833L226.148 37.4255ZM238.189 58.8791L235.897 66.0443L239.481 70.335L241.856 62.4201C244.064 63.6698 246.522 63.5032 248.772 61.587C251.98 58.8792 251.939 55.1716 249.272 52.0057L243.689 45.3821L228.939 57.7961L232.148 61.6286L237.023 57.5045L238.189 58.8791ZM243.689 51.9641L245.731 54.3802C246.897 55.7549 246.731 56.9629 245.647 57.8794C244.564 58.7959 243.356 58.7542 242.189 57.3795L240.147 54.9634L243.689 51.9641ZM259.022 64.9195L242.397 74.7091L249.397 86.5815L253.147 84.3737L248.689 76.7503L251.564 75.084L255.647 82.0409L259.314 79.8746L255.23 72.9179L257.814 71.3764L262.313 78.9998L266.064 76.792L259.022 64.9195ZM14.9443 104.161C12.736 104.161 10.9444 105.952 10.9444 108.16C10.9444 110.368 12.736 112.159 14.9443 112.159C17.1526 112.159 18.9443 110.368 18.9443 108.16C18.9443 105.952 17.1526 104.161 14.9443 104.161ZM264.647 104.161C262.438 104.161 260.647 105.952 260.647 108.16C260.647 110.368 262.438 112.159 264.647 112.159C266.855 112.159 268.647 110.368 268.647 108.16C268.605 105.952 266.813 104.161 264.647 104.161ZM103.359 117.991L139.358 81.9992L175.357 117.991C175.649 118.283 176.066 118.45 176.482 118.45C176.899 118.45 177.274 118.283 177.607 117.991C178.232 117.366 178.232 116.367 177.607 115.742L140.483 78.6249C139.9 78.0417 138.816 78.0417 138.233 78.6249L101.109 115.742C100.484 116.367 100.484 117.366 101.109 117.991C101.734 118.616 102.734 118.616 103.359 117.991ZM150.816 123.948C151.691 123.948 152.399 124.656 152.399 125.531V148.443C152.399 149.318 151.691 150.026 150.816 150.026H127.858C126.983 150.026 126.275 149.318 126.275 148.443V125.531C126.275 124.656 126.983 123.948 127.858 123.948H150.816ZM149.233 127.114H140.941V135.404H149.233V127.114ZM129.483 135.404H137.775V127.114H129.483V135.404ZM129.483 146.86H137.775V138.57H129.483V146.86ZM149.233 138.612H140.941V146.902H149.233V138.612ZM123.858 189.809C118.484 194.641 110.775 195.808 104.234 192.725L68.8181 176.187C69.1514 175.479 69.7347 174.604 70.6097 174.104C71.6097 173.521 72.9013 173.438 74.4846 173.896C81.1095 175.812 94.9425 179.645 94.9425 179.645L95.7758 176.562C95.7758 176.562 81.9844 172.729 75.3596 170.813C72.943 170.105 70.7763 170.313 68.9847 171.355C66.0681 173.063 65.2765 176.52 65.2348 176.645C65.0682 177.353 65.4431 178.103 66.1098 178.436L102.817 195.599C105.692 196.932 108.734 197.599 111.775 197.599C116.9 197.599 121.942 195.724 125.9 192.142C126.567 191.559 126.608 190.559 126.025 189.892C125.525 189.267 124.525 189.184 123.858 189.809ZM209.648 171.355C207.856 170.272 205.732 170.105 203.273 170.813C196.648 172.729 182.857 176.562 182.857 176.562L183.732 179.645C183.732 179.645 197.523 175.812 204.19 173.896C205.732 173.438 207.023 173.521 208.023 174.104C208.94 174.646 209.523 175.52 209.856 176.229L174.441 192.767C167.899 195.849 160.191 194.683 154.816 189.851C154.149 189.267 153.149 189.309 152.566 189.976C151.983 190.642 152.024 191.642 152.691 192.225C156.649 195.808 161.733 197.682 166.816 197.682C169.857 197.682 172.899 197.016 175.774 195.683L212.481 178.52C213.148 178.186 213.523 177.478 213.356 176.728C213.356 176.479 212.565 173.063 209.648 171.355ZM212.731 138.612L215.815 135.529C218.148 133.196 218.148 129.364 215.815 127.031C213.648 124.865 210.19 124.74 207.856 126.573C207.606 125.615 207.106 124.74 206.356 123.99C204.023 121.657 200.19 121.657 197.857 123.99L194.398 127.448C194.107 126.489 193.648 125.615 192.898 124.906C190.649 122.657 186.69 122.657 184.399 124.906L168.732 140.57V125.865C168.732 124.99 168.024 124.282 167.149 124.282C166.274 124.282 165.566 124.99 165.566 125.865V163.981H113.109V144.402V125.865C113.109 124.99 112.4 124.282 111.525 124.282C110.65 124.282 109.942 124.99 109.942 125.865V140.57L94.2758 124.865C92.0259 122.615 88.0676 122.615 85.776 124.865C85.026 125.615 84.5677 126.489 84.276 127.406L80.8178 123.948C78.4845 121.616 74.6513 121.616 72.318 123.948C71.568 124.698 71.1097 125.615 70.818 126.531C68.4431 124.657 65.0265 124.781 62.8599 126.989C60.5266 129.322 60.5266 133.155 62.8599 135.488L65.9431 138.57C65.0265 138.862 64.1099 139.32 63.4015 140.07C62.2766 141.195 61.6516 142.694 61.6516 144.319C61.6516 145.944 62.2766 147.443 63.4015 148.568L84.9844 170.147C85.2761 170.438 85.6927 170.605 86.1093 170.605C86.526 170.605 86.9426 170.438 87.2343 170.147C87.8593 169.522 87.8593 168.522 87.2343 167.897L65.6515 146.318C65.1099 145.777 64.8182 145.069 64.8182 144.319C64.8182 143.569 65.1099 142.861 65.6515 142.319C66.7348 141.236 68.5681 141.195 69.6514 142.319L84.8177 157.483C85.4427 158.108 86.4427 158.108 87.0677 157.483C87.6927 156.858 87.6927 155.858 87.0677 155.233L74.6096 142.736C74.5679 142.694 74.5679 142.653 74.5263 142.611L65.1515 133.238C64.0682 132.155 64.0682 130.364 65.1515 129.239C66.2348 128.156 68.0681 128.156 69.1514 129.239L72.3596 132.446L76.6096 136.696L90.6926 150.776C90.9842 151.109 91.4009 151.234 91.8176 151.234C92.2342 151.234 92.6092 151.067 92.9425 150.776C93.5675 150.151 93.5675 149.151 92.9425 148.526L81.0678 136.654L78.8178 134.404L74.568 130.155C74.0263 129.614 73.7346 128.906 73.7346 128.156C73.7346 127.406 74.0263 126.698 74.568 126.156C75.6929 125.031 77.4845 125.031 78.5678 126.156L99.8174 147.36C100.109 147.693 100.526 147.818 100.942 147.818C101.359 147.818 101.776 147.652 102.067 147.36C102.692 146.735 102.692 145.735 102.067 145.11L88.1093 131.155C88.0677 131.113 88.0676 131.072 88.026 131.03C86.9427 129.905 86.9427 128.114 88.026 127.031C89.1093 125.948 90.9425 125.948 92.0258 127.031L109.942 144.944V165.439C109.942 166.314 110.65 167.022 111.525 167.022H131.025C131.025 167.189 131.067 167.397 131.15 167.564C133.317 172.105 133.483 177.395 131.608 182.061C131.275 182.852 131.692 183.81 132.483 184.144C132.692 184.227 132.9 184.268 133.067 184.268C133.692 184.268 134.275 183.894 134.525 183.269C136.65 178.062 136.566 172.188 134.358 167.022H144.316C142.108 172.188 142.025 178.062 144.15 183.269C144.4 183.894 144.983 184.268 145.608 184.268C145.816 184.268 146.025 184.227 146.191 184.144C146.983 183.81 147.4 182.894 147.066 182.061C145.15 177.395 145.316 172.105 147.525 167.564C147.608 167.397 147.65 167.189 147.65 167.022H167.149C168.024 167.022 168.732 166.314 168.732 165.439V144.944L186.69 127.031C187.774 125.948 189.607 125.948 190.69 127.031C191.774 128.114 191.774 129.905 190.69 131.03C190.649 131.072 190.649 131.113 190.607 131.155L176.649 145.11C176.024 145.735 176.024 146.735 176.649 147.36C176.941 147.693 177.357 147.818 177.774 147.818C178.19 147.818 178.607 147.652 178.899 147.36L200.148 126.156C201.232 125.031 203.023 125.031 204.148 126.156C204.69 126.698 204.982 127.406 204.982 128.156C204.982 128.906 204.69 129.614 204.148 130.155L199.898 134.404L197.648 136.737L185.774 148.61C185.149 149.234 185.149 150.234 185.774 150.859C186.065 151.192 186.482 151.317 186.899 151.317C187.315 151.317 187.732 151.151 188.024 150.859L202.107 136.779L206.356 132.53L209.565 129.322C210.648 128.239 212.481 128.239 213.565 129.322C214.648 130.447 214.648 132.238 213.565 133.321L204.19 142.694C204.148 142.736 204.148 142.778 204.107 142.819L191.649 155.317C191.024 155.941 191.024 156.941 191.649 157.566C192.273 158.191 193.274 158.191 193.898 157.566L209.065 142.403C210.148 141.278 211.981 141.32 213.065 142.403C214.148 143.486 214.148 145.319 213.065 146.402L191.482 167.98C190.857 168.605 190.857 169.605 191.482 170.23C191.774 170.521 192.19 170.688 192.607 170.688C193.023 170.688 193.44 170.521 193.732 170.23L215.315 148.651C217.648 146.318 217.648 142.486 215.315 140.153C214.565 139.362 213.69 138.903 212.731 138.612Z" fill="#58595B"/>
</svg>
