<svg width="280" height="283" viewBox="0 0 280 283" fill="none" xmlns="http://www.w3.org/2000/svg">
<path d="M103.577 185.812C103.494 185.812 103.411 185.854 103.369 185.937L98.994 193.353L94.5774 185.937C94.5357 185.854 94.4524 185.812 94.3691 185.812H91.2025C91.1192 185.812 91.0358 185.854 90.9941 185.937C90.9525 186.021 90.9525 186.104 90.9941 186.146L97.2024 196.477V203.309C97.2024 203.434 97.2857 203.517 97.4107 203.517H100.327C100.452 203.517 100.536 203.434 100.536 203.309V196.477L106.786 186.146C106.827 186.063 106.827 185.979 106.786 185.937C106.744 185.854 106.661 185.812 106.577 185.812H103.577Z" fill="#58595B"/>
<path d="M125.41 185.812H114.118C113.994 185.812 113.91 185.896 113.91 186.021V203.309C113.91 203.434 113.994 203.517 114.118 203.517H125.41C125.535 203.517 125.618 203.434 125.618 203.309V200.684C125.618 200.559 125.535 200.476 125.41 200.476H117.202V195.977H124.618C124.743 195.977 124.827 195.894 124.827 195.769V193.228C124.827 193.103 124.743 193.019 124.618 193.019H117.202V188.895H125.41C125.535 188.895 125.618 188.812 125.618 188.687V186.104C125.618 185.896 125.535 185.812 125.41 185.812Z" fill="#58595B"/>
<path d="M142.409 195.769H138.326L140.367 190.228L142.409 195.769ZM141.826 185.812H138.992C138.909 185.812 138.826 185.854 138.784 185.937L132.159 203.226C132.118 203.309 132.118 203.392 132.201 203.434C132.243 203.475 132.284 203.517 132.368 203.517H135.326C135.409 203.517 135.492 203.475 135.534 203.392L137.242 198.768H143.534L145.242 203.392C145.284 203.475 145.367 203.517 145.451 203.517H148.451C148.534 203.517 148.575 203.475 148.617 203.434C148.659 203.392 148.659 203.309 148.659 203.226L142.034 185.937C141.992 185.854 141.909 185.812 141.826 185.812Z" fill="#58595B"/>
<path d="M159.199 188.77H162.658C164.408 188.77 165.491 189.687 165.491 191.186C165.491 192.686 164.449 193.603 162.658 193.603H159.199V188.77ZM164.574 196.352C167.324 195.81 168.824 194.019 168.824 191.228C168.824 187.854 166.533 185.812 162.741 185.812H156.075C155.95 185.812 155.866 185.896 155.866 186.021V203.309C155.866 203.434 155.95 203.517 156.075 203.517H158.991C159.116 203.517 159.199 203.434 159.199 203.309V196.519H160.949L165.699 203.434C165.741 203.475 165.824 203.517 165.866 203.517H169.199C169.283 203.517 169.366 203.475 169.408 203.392C169.449 203.309 169.449 203.226 169.408 203.184L164.574 196.352Z" fill="#58595B"/>
<path d="M184.2 193.351L181.2 192.642C179.742 192.309 179.075 191.643 179.075 190.601C179.075 189.31 180.242 188.435 181.992 188.435C184.159 188.435 185.034 189.601 185.409 190.601C185.45 190.685 185.534 190.768 185.617 190.768H188.534C188.617 190.768 188.659 190.726 188.7 190.684C188.742 190.643 188.742 190.559 188.742 190.518C188.075 187.352 185.575 185.561 181.95 185.561C178.409 185.561 175.867 187.81 175.867 190.893C175.867 193.392 177.367 195.059 180.325 195.725L183.242 196.433C184.909 196.808 185.575 197.433 185.575 198.558C185.575 200.016 184.367 200.891 182.45 200.891C181.117 200.891 179.367 200.474 178.742 198.474C178.7 198.391 178.617 198.308 178.534 198.308H175.576C175.492 198.308 175.451 198.35 175.409 198.391C175.367 198.433 175.367 198.516 175.367 198.558C175.992 201.849 178.659 203.807 182.492 203.807C186.325 203.807 188.867 201.599 188.867 198.349C188.867 195.808 187.2 194.017 184.2 193.351Z" fill="#58595B"/>
<path d="M19.7854 151.609L19.9937 156.941L7.28566 150.443L0.452482 150.734L0.244141 145.694L7.07731 145.402L19.2437 138.07L19.452 143.527L12.0772 147.86L19.7854 151.609Z" fill="#58595B"/>
<path d="M24.034 176.106L19.8257 177.064L17.8674 168.483L14.9092 169.149L16.7008 177.022L12.5759 177.939L10.7843 170.065L7.53437 170.815L9.49267 179.397L5.24278 180.355L2.20117 166.941L20.9924 162.65L24.034 176.106Z" fill="#58595B"/>
<path d="M18.2032 193.267L19.7865 196.891L23.9947 192.892L18.2032 193.267ZM30.5363 192.934L15.7866 207.389L13.745 202.682L16.6199 199.932L13.8283 193.517L9.87005 193.767L7.87012 189.185L28.4946 188.227L30.5363 192.934Z" fill="#58595B"/>
<path d="M31.9929 213.807L33.7845 216.389C34.7845 217.847 35.9928 218.014 37.1594 217.223C38.3261 216.431 38.6178 215.223 37.5761 213.765L35.7845 211.182L31.9929 213.807ZM28.7013 216.098L23.4515 219.722L20.6182 215.64L36.4928 204.684L41.4093 211.807C43.7843 215.223 43.451 218.889 39.9927 221.305C37.5761 222.971 35.1179 222.888 33.0346 221.472L29.9097 229.137L26.743 224.554L29.7013 217.597L28.7013 216.098Z" fill="#58595B"/>
<path d="M43.1595 235.177C42.4929 236.385 42.8262 237.676 43.9512 238.759C45.0345 239.842 46.2428 240.134 47.1178 239.301C47.7427 238.676 47.6178 237.926 46.9511 236.885L44.8678 233.719C43.3262 231.261 42.8679 228.72 45.1595 226.429C47.8261 223.763 51.7843 224.221 54.8259 227.262C58.1592 230.594 58.2425 234.302 56.2426 237.051L52.7427 233.552C53.201 232.511 53.1593 231.303 51.9926 230.136C50.951 229.136 49.826 228.886 49.0761 229.636C48.4927 230.219 48.576 231.011 49.1177 231.844L51.1593 235.135C52.951 238.009 52.951 240.592 50.8677 242.675C48.0761 245.466 44.1179 244.716 41.1596 241.759C37.9097 238.509 37.243 234.677 39.4513 231.511L43.1595 235.177Z" fill="#58595B"/>
<path d="M79.7826 251.508C77.491 250.258 74.9494 251.341 73.3244 254.299C71.7411 257.215 72.1578 259.964 74.4077 261.214C76.6993 262.464 79.2826 261.381 80.9076 258.465C82.5325 255.507 82.0325 252.758 79.7826 251.508ZM72.2828 265.047C67.4079 262.38 66.0746 256.84 68.8662 251.799C71.6578 246.759 77.0327 244.926 81.9076 247.592C86.8241 250.3 88.1991 255.799 85.4075 260.881C82.6159 265.921 77.1994 267.754 72.2828 265.047Z" fill="#58595B"/>
<path d="M89.9922 273.083L95.992 254.754L108.867 258.961L107.492 263.127L99.367 260.461L98.1586 264.085L105.658 266.543L104.325 270.625L96.8254 268.168L94.7004 274.625L89.9922 273.083Z" fill="#58595B"/>
<path d="M140.118 262.961L139.868 267.293L131.076 266.793L130.909 269.834L138.993 270.251L138.743 274.5L130.701 274.042L130.493 277.374L139.326 277.833L139.076 282.207L125.326 281.457L126.368 262.211L140.118 262.961Z" fill="#58595B"/>
<path d="M158.907 270.791L166.573 279.747L160.99 280.455L156.448 275.04L153.407 281.413L147.949 282.122L153.157 271.499L145.865 262.959L151.407 262.251L155.573 267.25L158.448 261.376L163.865 260.668L158.907 270.791Z" fill="#58595B"/>
<path d="M178.574 260.793L175.782 261.668L177.282 266.292L180.074 265.375C181.824 264.792 182.282 263.626 181.824 262.251C181.366 260.876 180.324 260.252 178.574 260.793ZM178.574 270.291L180.407 275.998L175.657 277.54L169.699 259.21L177.741 256.586C181.741 255.294 185.116 256.669 186.449 260.752C187.782 264.834 185.824 267.917 181.824 269.208L178.574 270.291Z" fill="#58595B"/>
<path d="M202.532 245.297L204.573 249.129L196.782 253.295L198.198 255.961L205.323 252.129L207.323 255.878L200.198 259.669L201.782 262.626L209.531 258.461L211.615 262.293L199.448 268.792L190.365 251.796L202.532 245.297Z" fill="#58595B"/>
<path d="M217.614 245.507L220.072 243.549C221.489 242.424 221.53 241.216 220.697 240.133C219.822 239.008 218.614 238.8 217.197 239.924L214.739 241.882L217.614 245.507ZM220.114 248.673L224.072 253.671L220.155 256.754L208.197 241.632L214.989 236.259C218.239 233.676 221.947 233.759 224.53 237.05C226.322 239.341 226.447 241.841 225.114 243.965L232.947 246.59L228.572 250.047L221.447 247.548L220.114 248.673Z" fill="#58595B"/>
<path d="M228.822 223.398L225.358 227.061L239.375 240.313L242.839 236.651L228.822 223.398Z" fill="#58595B"/>
<path d="M241.696 206.598L245.196 209.139L240.071 216.304L242.529 218.053L247.237 211.472L250.696 213.929L245.987 220.511L248.696 222.427L253.82 215.262L257.362 217.804L249.362 229.009L233.654 217.804L241.696 206.598Z" fill="#58595B"/>
<path d="M269.863 193.477L268.155 197.184L254.53 199.767L264.738 204.516L262.697 208.932L245.197 200.808L247.197 196.559L259.947 194.268L250.322 189.811L252.364 185.354L269.863 193.477Z" fill="#58595B"/>
<path d="M256.364 170.355C257.489 165.689 260.948 163.606 264.906 163.856L263.739 168.73C262.239 168.897 261.073 169.688 260.656 171.396C260.031 173.979 261.989 176.02 265.031 176.77C268.072 177.52 270.739 176.603 271.364 174.02C271.781 172.313 271.114 171.104 269.822 170.271L270.989 165.397C274.656 167.022 276.781 170.438 275.656 175.104C274.406 180.352 269.489 183.143 263.823 181.769C258.156 180.311 255.073 175.603 256.364 170.355Z" fill="#58595B"/>
<path d="M260.072 142.281L264.405 142.531L263.947 151.321L266.947 151.488L267.364 143.448L271.614 143.656L271.155 151.737L274.489 151.904L274.989 143.114L279.322 143.323L278.572 157.111L259.322 156.028L260.072 142.281Z" fill="#58595B"/>
<path d="M19.283 89.5812C19.283 91.7891 17.4913 93.5803 15.2831 93.5803C13.0748 93.5803 11.2832 91.7891 11.2832 89.5812C11.2832 87.3734 13.0748 85.582 15.2831 85.582C17.4913 85.582 19.283 87.3734 19.283 89.5812Z" fill="#58595B"/>
<path d="M264.944 89.5812C264.944 91.7891 263.153 93.5803 260.944 93.5803C258.736 93.5803 256.944 91.7891 256.944 89.5812C256.944 87.3734 258.736 85.582 260.944 85.582C263.153 85.582 264.944 87.3734 264.944 89.5812Z" fill="#58595B"/>
<path d="M47.1584 36.2603C45.0335 38.0516 45.1584 41.0093 47.45 43.717C49.7417 46.4248 52.6166 47.0496 54.7416 45.2583C56.8665 43.4671 56.7832 40.4678 54.4916 37.76C52.2416 35.0523 49.2834 34.469 47.1584 36.2603ZM57.7831 48.841C53.2832 52.6735 47.2834 51.8819 43.3251 47.2162C39.3669 42.5089 39.6169 36.5103 44.1168 32.6778C48.6583 28.8453 54.6583 29.5951 58.6165 34.2608C62.5747 38.9264 62.3247 45.0085 57.7831 48.841Z" fill="#58595B"/>
<path d="M73.6598 37.0526L56.9102 23.0141L61.8684 20.1814L72.4931 29.3877L69.9515 15.599L74.7431 12.8496L78.243 34.4699L73.6598 37.0526Z" fill="#58595B"/>
<path d="M95.8252 5.01953L97.3251 9.35196L88.492 12.4763L89.5753 15.4756L97.6585 12.6429L99.1584 16.892L91.0753 19.7247L92.2419 23.0574L101.075 19.9746L102.617 24.3487L88.7837 29.181L81.9922 9.89353L95.8252 5.01953Z" fill="#58595B"/>
<path d="M110.907 11.2656L114.198 10.7241C116.073 10.3908 116.782 9.30771 116.532 7.84969C116.282 6.35002 115.282 5.55861 113.365 5.85021L110.073 6.39178L110.907 11.2656ZM111.615 15.4731L112.74 22.1799L107.532 23.0548L104.115 2.85086L113.198 1.30955C117.532 0.601367 120.948 2.55921 121.698 6.97492C122.198 10.0159 121.031 12.3904 118.698 13.7234L124.656 20.1804L118.781 21.1802L113.448 15.2232L111.615 15.4731Z" fill="#58595B"/>
<path d="M148.074 20.4312L151.282 0.185547L165.532 2.47679L164.782 7.05916L155.782 5.60111L155.157 9.64191L163.407 10.9333L162.699 15.4323L154.449 14.0992L153.324 21.2643L148.074 20.4312Z" fill="#58595B"/>
<path d="M173.081 4.49266L167.312 24.1602L172.47 25.6723L178.239 6.00483L173.081 4.49266Z" fill="#58595B"/>
<path d="M177.906 27.3461L186.156 8.55859L199.364 14.349L197.489 18.5981L189.156 14.9322L187.489 18.6813L195.198 22.014L193.364 26.1797L185.698 22.8471L182.781 29.4706L177.906 27.3461Z" fill="#58595B"/>
<path d="M206.072 17.8477L221.113 27.7622L218.572 31.6363L213.28 28.1371L204.53 41.3841L200.072 38.4265L208.78 25.1793L203.531 21.7218L206.072 17.8477Z" fill="#58595B"/>
<path d="M237.196 42.2165L241.237 46.1323L226.738 50.5065L221.696 55.7552L217.821 52.0061L222.863 46.7989L226.821 32.2188L230.988 36.2595L228.529 45.0076L237.196 42.2165Z" fill="#58595B"/>
<path d="M107.2 158.067C98.1589 158.067 92.3258 152.735 91.9508 144.154C91.9091 143.279 92.5758 142.529 93.4507 142.487C94.2841 142.487 95.0757 143.112 95.1174 143.987C95.409 150.777 99.9089 154.86 107.2 154.86C116.908 154.86 118.95 147.07 118.95 140.571C118.95 134.573 116.908 127.449 107.2 127.449C102.867 127.449 98.6173 129.74 96.409 133.239C95.9923 133.864 95.2007 134.156 94.534 133.906L80.3676 128.699C79.701 128.449 79.2843 127.824 79.326 127.157L80.8677 86.5413C80.9093 85.7082 81.6176 85 82.4509 85H131.783C132.658 85 133.366 85.7082 133.366 86.583C133.366 87.4578 132.658 88.166 131.783 88.166H83.9926L82.5343 126.074L94.4507 130.448C97.3673 126.658 102.242 124.241 107.2 124.241C116.659 124.241 122.117 130.198 122.117 140.571C122.117 151.694 116.659 158.067 107.2 158.067ZM107.075 171.023C90.1591 171.023 78.201 160.234 77.3261 144.154C77.2844 143.279 77.9511 142.529 78.826 142.487C79.6594 142.446 80.451 143.112 80.4927 143.987C81.2844 158.484 91.7007 167.815 107.075 167.815C123.533 167.815 133.741 157.234 133.741 140.196C133.741 124.366 124.742 114.577 110.2 114.577C103.45 114.577 98.6589 116.118 95.159 119.409C94.7007 119.867 93.9924 119.951 93.409 119.701C92.8257 119.409 92.4507 118.826 92.4924 118.159L93.409 99.5802C93.4507 98.747 94.159 98.0804 94.9924 98.0804H123.408C124.283 98.0804 124.992 98.7886 124.992 99.6634C124.992 100.538 124.283 101.246 123.408 101.246H96.534L95.8673 114.868C99.6172 112.536 104.325 111.369 110.242 111.369C126.45 111.369 136.95 122.658 136.95 140.196C136.95 158.942 125.242 171.023 107.075 171.023Z" fill="#58595B"/>
<path d="M170.699 101.539C167.616 101.539 165.282 102.414 163.491 104.205C158.907 108.829 158.991 118.743 159.032 125.992C159.032 126.783 159.032 127.575 159.032 128.283C159.032 129.033 159.032 129.783 159.032 130.574C158.991 137.823 158.907 147.737 163.491 152.361C165.282 154.152 167.616 155.027 170.699 155.027C173.782 155.027 176.115 154.152 177.907 152.361C182.49 147.737 182.407 137.823 182.365 130.574C182.365 129.783 182.365 128.991 182.365 128.283C182.365 127.533 182.365 126.783 182.365 125.992C182.407 118.743 182.49 108.829 177.907 104.205C176.115 102.414 173.782 101.539 170.699 101.539ZM170.699 158.235C166.782 158.235 163.616 157.027 161.241 154.611C155.741 149.07 155.824 138.364 155.866 130.574C155.866 129.783 155.866 129.033 155.866 128.283C155.866 127.575 155.866 126.783 155.866 125.992C155.824 118.202 155.699 107.496 161.241 101.955C163.616 99.5392 166.824 98.331 170.699 98.331C174.615 98.331 177.782 99.5392 180.157 101.955C185.657 107.496 185.573 118.202 185.532 125.992C185.532 126.783 185.532 127.533 185.532 128.283C185.532 129.033 185.532 129.783 185.532 130.574C185.573 138.364 185.657 149.07 180.157 154.611C177.782 157.027 174.615 158.235 170.699 158.235ZM170.699 171.69C169.824 171.69 169.116 170.982 169.116 170.107C169.116 169.232 169.824 168.524 170.699 168.524C177.657 168.524 183.24 166.316 187.74 161.817C195.532 154.111 196.573 140.572 196.573 128.325C196.573 116.119 195.532 102.58 187.74 94.8735C183.24 90.3745 177.657 88.1667 170.699 88.1667C163.741 88.1667 158.157 90.3745 153.658 94.8735C145.866 102.58 144.824 116.119 144.824 128.366C144.824 140.614 145.866 154.111 153.658 161.817C154.283 162.442 154.283 163.442 153.658 164.067C153.033 164.692 152.033 164.692 151.408 164.067C142.783 155.527 141.616 141.238 141.616 128.325C141.616 115.452 142.783 101.122 151.408 92.5824C156.449 87.5418 162.949 84.959 170.699 84.959C178.449 84.959 184.949 87.5418 189.99 92.5824C198.573 101.081 199.781 115.411 199.781 128.283C199.781 141.155 198.615 155.485 189.99 164.025C184.949 169.107 178.449 171.69 170.699 171.69Z" fill="#58595B"/>
</svg>
