<svg width="280" height="283" viewBox="0 0 280 283" fill="none" xmlns="http://www.w3.org/2000/svg">
<path d="M20.7287 117.074C20.7287 119.49 18.7704 121.49 16.3121 121.49C13.8955 121.49 11.8955 119.532 11.8955 117.074C11.8955 114.658 13.8538 112.658 16.3121 112.658C18.7704 112.658 20.7287 114.616 20.7287 117.074Z" fill="#58595B"/>
<path d="M270.182 117.074C270.182 119.49 268.223 121.49 265.765 121.49C263.349 121.49 261.349 119.532 261.349 117.074C261.349 114.658 263.307 112.658 265.765 112.658C268.182 112.658 270.182 114.616 270.182 117.074Z" fill="#58595B"/>
<path d="M19.6874 147.321L0.562888 154.986L0.479476 149.862L4.18778 148.404L4.06279 141.406L0.312905 140.114L0.229492 135.115L19.6041 142.114L19.6874 147.321ZM8.22935 142.905L8.31264 146.863L13.6875 144.78L8.22935 142.905Z" fill="#58595B"/>
<path d="M1.52051 161.859L20.4785 158.359L22.9368 171.69L18.6452 172.481L17.1036 164.066L13.3537 164.733L14.7703 172.481L10.562 173.273L9.14541 165.524L2.43716 166.774L1.52051 161.859Z" fill="#58595B"/>
<path d="M23.8112 175.312L29.5611 191.267L25.4778 192.725L23.4779 187.102L9.39484 192.184L7.68652 187.393L21.7696 182.353L19.7696 176.771L23.8112 175.312Z" fill="#58595B"/>
<path d="M38.1026 207.016L34.3112 209.099L30.0196 201.392L27.3946 202.891L31.3112 209.932L27.6446 211.973L23.728 204.933L20.8114 206.557L25.1029 214.264L21.2698 216.389L14.5615 204.35L31.3945 194.977L38.1026 207.016Z" fill="#58595B"/>
<path d="M33.6437 222.845L28.6438 226.803L25.5605 222.887L40.6853 210.973L46.0601 217.763C48.6017 221.012 48.5601 224.72 45.2268 227.302C42.9352 229.094 40.4352 229.177 38.3103 227.886L35.6853 235.717L32.2271 231.343L34.727 224.261L33.6437 222.845ZM36.7687 220.346L38.727 222.803C39.8519 224.22 41.0602 224.303 42.1435 223.428C43.2684 222.553 43.4768 221.345 42.3519 219.929L40.3936 217.471L36.7687 220.346Z" fill="#58595B"/>
<path d="M47.1428 232.385L52.851 238.008L49.8095 241.174L44.0596 235.551L47.1428 232.385Z" fill="#58595B"/>
<path d="M57.4766 247.964C57.0183 249.256 57.5183 250.464 58.7682 251.422C60.0182 252.338 61.2681 252.463 61.9764 251.505C62.5181 250.755 62.2681 250.089 61.4765 249.131L58.9765 246.298C57.1015 244.09 56.2683 241.632 58.2265 239.05C60.4765 236.05 64.4764 235.925 67.893 238.466C71.6429 241.299 72.2679 244.923 70.6846 247.923L66.7264 244.965C67.018 243.882 66.8096 242.674 65.4763 241.674C64.3097 240.799 63.1848 240.716 62.5181 241.591C62.0181 242.257 62.1848 243.007 62.8931 243.757L65.3931 246.715C67.5597 249.297 67.9347 251.839 66.1847 254.213C63.8098 257.379 59.8099 257.212 56.435 254.671C52.7267 251.922 51.56 248.256 53.2683 244.798L57.4766 247.964Z" fill="#58595B"/>
<path d="M87.4347 250.714L85.2265 271.209L80.6848 268.876L81.1432 264.919L74.8933 261.753L71.9767 264.461L67.5186 262.211L82.8098 248.381L87.4347 250.714ZM78.1433 258.795L81.6432 260.587L82.3515 254.838L78.1433 258.795Z" fill="#58595B"/>
<path d="M97.5585 255.211L102.392 256.752L97.9335 270.958L106.183 273.54L104.892 277.706L91.8086 273.624L97.5585 255.211Z" fill="#58595B"/>
<path d="M128.684 262.336L128.059 266.627L119.309 265.294L118.893 268.293L126.851 269.501L126.226 273.667L118.226 272.459L117.768 275.75L126.476 277.083L125.809 281.374L112.185 279.332L115.059 260.295L128.684 262.336Z" fill="#58595B"/>
<path d="M137.641 276.211C138.058 277.502 139.224 278.168 140.766 278.127C142.308 278.085 143.349 277.419 143.349 276.252C143.349 275.336 142.724 274.961 141.516 274.669L137.808 273.961C134.975 273.378 132.808 271.92 132.766 268.671C132.725 264.921 135.808 262.38 140.058 262.297C144.766 262.214 147.474 264.755 148.058 268.046L143.141 268.129C142.724 267.046 141.849 266.254 140.183 266.296C138.724 266.338 137.766 266.963 137.808 268.046C137.849 268.879 138.433 269.337 139.433 269.545L143.224 270.379C146.516 271.128 148.391 272.878 148.433 275.836C148.516 279.793 145.224 282.084 141.016 282.168C136.391 282.251 133.225 280.043 132.475 276.294L137.641 276.211Z" fill="#58595B"/>
<path d="M169.515 258.547C174.182 257.381 177.599 259.464 179.224 263.088L174.349 264.338C173.515 263.088 172.265 262.421 170.599 262.88C168.016 263.546 167.141 266.171 167.891 269.253C168.641 272.294 170.682 274.252 173.307 273.586C175.015 273.169 175.807 272.003 175.932 270.461L180.807 269.212C181.098 273.211 179.057 276.668 174.39 277.835C169.14 279.168 164.391 276.127 162.974 270.461C161.557 264.796 164.266 259.88 169.515 258.547Z" fill="#58595B"/>
<path d="M191.141 251.088L205.724 265.626L201.057 267.709L198.266 264.877L191.891 267.751L192.182 271.708L187.641 273.791L186.433 253.212L191.141 251.088ZM191.599 263.377L195.182 261.752L191.141 257.628L191.599 263.377Z" fill="#58595B"/>
<path d="M212.392 253.922L215.975 259.171L211.85 261.962L200.976 246.049L208.142 241.175C211.559 238.842 215.267 239.176 217.6 242.675C219.225 245.091 219.142 247.549 217.725 249.632L225.35 252.798L220.725 255.964L213.809 252.964L212.392 253.922ZM210.142 250.59L212.725 248.84C214.184 247.84 214.35 246.632 213.559 245.466C212.767 244.299 211.559 244.008 210.1 245.008L207.517 246.757L210.142 250.59Z" fill="#58595B"/>
<path d="M227.349 224.844L230.349 227.968L223.974 234.05L226.015 236.216L231.89 230.676L234.807 233.758L228.932 239.299L231.224 241.715L237.64 235.633L240.64 238.799L230.64 248.297L217.391 234.3L227.349 224.844Z" fill="#58595B"/>
<path d="M235.681 215.096L244.93 200.891L248.555 203.265L245.305 208.264L257.847 216.387L255.055 220.636L242.556 212.513L239.306 217.47L235.681 215.096Z" fill="#58595B"/>
<path d="M252.389 184.561L256.347 186.31L252.764 194.392L255.555 195.6L258.805 188.226L262.68 189.934L259.43 197.308L262.43 198.641L266.013 190.601L270.013 192.351L264.43 204.931L246.806 197.141L252.389 184.561Z" fill="#58595B"/>
<path d="M256.764 169.313L277.222 166.855L275.972 171.813L272.014 172.229L270.306 179.02L273.597 181.227L272.389 186.06L255.473 174.27L256.764 169.313ZM266.681 176.562L267.639 172.729L261.889 173.312L266.681 176.562Z" fill="#58595B"/>
<path d="M278.723 150.818L267.098 154.275L278.556 154.817L278.307 159.524L259.099 158.607L259.39 152.484L271.557 148.818L259.765 144.027L260.057 137.945L279.306 138.82L279.056 143.569L267.64 143.028L278.89 147.527L278.723 150.818Z" fill="#58595B"/>
<path d="M8.10449 88.5832L11.2711 82.0013C13.8961 76.5442 18.8543 74.8778 24.1458 77.3773C29.4374 79.9184 31.229 84.834 28.6457 90.2911L25.5207 96.8731L8.10449 88.5832ZM24.5624 88.6666C25.9374 85.7922 24.8957 83.2927 21.9791 81.8764C19.0209 80.46 16.4376 81.2098 15.0626 84.0842L14.1459 85.9587L23.6874 90.5411L24.5624 88.6666Z" fill="#58595B"/>
<path d="M27.3123 55.5059L30.8539 57.9638L25.8124 65.2122L28.3123 66.9201L32.8955 60.3382L36.3955 62.7544L31.7705 69.3362L34.4788 71.2524L39.5205 64.0457L43.1037 66.5452L35.2289 77.8344L19.4375 66.7952L27.3123 55.5059Z" fill="#58595B"/>
<path d="M32.3096 49.34L37.3928 44.1328C41.6011 39.8004 46.851 39.8004 51.1009 43.8828C55.3091 47.9653 55.4341 53.214 51.2259 57.5881L46.1427 62.7952L32.3096 49.34ZM47.8925 54.6721C50.1008 52.3809 49.8926 49.6731 47.601 47.4236C45.2677 45.1741 42.5594 45.0075 40.3095 47.2987L38.8511 48.7984L46.4342 56.1717L47.8925 54.6721Z" fill="#58595B"/>
<path d="M53.8042 29.4866L49.8496 32.6133L61.7901 47.7097L65.7447 44.583L53.8042 29.4866Z" fill="#58595B"/>
<path d="M67.1033 20.1384C71.2282 17.6806 75.1031 18.6804 77.728 21.6797L73.4365 24.2625C72.2698 23.3043 70.8948 23.0128 69.3949 23.9293C67.1032 25.304 67.0199 28.095 68.6449 30.8027C70.2699 33.5105 72.7699 34.7602 75.0615 33.3855C76.5615 32.469 76.978 31.136 76.6864 29.6363L80.978 27.0536C82.4363 30.8027 81.4363 34.6769 77.3531 37.1763C72.7281 39.9257 67.3116 38.3844 64.3116 33.3855C61.27 28.4282 62.4784 22.9295 67.1033 20.1384Z" fill="#58595B"/>
<path d="M91.1848 9.10156L104.934 24.4316L100.143 26.2645L97.5179 23.2652L90.9764 25.7647L91.0598 29.7221L86.3933 31.5134L86.3516 10.8928L91.1848 9.10156ZM90.9764 21.3489L94.6847 19.9326L90.8931 15.5585L90.9764 21.3489Z" fill="#58595B"/>
<path d="M102.101 5.39376L118.683 1.89453L119.558 6.14369L113.725 7.35167L116.808 21.9735L111.85 23.015L108.809 8.39311L103.017 9.64292L102.101 5.39376Z" fill="#58595B"/>
<path d="M139.851 0.394531L140.059 4.72683L131.268 5.18513L131.435 8.18448L139.476 7.76788L139.684 12.0169L131.643 12.3919L131.81 15.7245L140.601 15.3079L140.81 19.6403L127.06 20.3484L126.102 1.10264L139.851 0.394531Z" fill="#58595B"/>
<path d="M147.852 0.603516L155.06 1.43672C161.06 2.1449 164.31 6.26898 163.643 12.101C162.977 17.9331 158.894 21.2657 152.894 20.5575L145.686 19.7243L147.852 0.603516ZM153.102 16.1834C156.269 16.5583 158.269 14.7254 158.644 11.5178C159.019 8.26849 157.477 6.06066 154.31 5.68574L152.269 5.43581L151.06 15.9335L153.102 16.1834Z" fill="#58595B"/>
<path d="M183.683 27.972L184.225 15.8496L179.933 26.4723L175.559 24.7227L182.725 6.85156L188.433 9.14281L187.933 21.8484L196.308 12.2671L201.975 14.5583L194.808 32.4294L190.433 30.6798L194.683 20.0154L186.725 29.1801L183.683 27.972Z" fill="#58595B"/>
<path d="M208.966 18.6019L199.265 35.2246L203.619 37.765L213.321 21.1424L208.966 18.6019Z" fill="#58595B"/>
<path d="M216.139 38.5114L212.264 43.5519L208.306 40.511L220.014 25.2227L226.889 30.4715C230.18 32.971 231.013 36.5952 228.472 39.9278C226.68 42.2189 224.305 42.927 221.889 42.2189L221.264 50.4254L216.847 47.0512L217.514 39.5529L216.139 38.5114ZM218.556 35.3454L221.055 37.2617C222.472 38.3448 223.68 38.1364 224.514 37.0117C225.389 35.8869 225.264 34.679 223.847 33.5959L221.347 31.6795L218.556 35.3454Z" fill="#58595B"/>
<path d="M227.85 57.1738L237.058 38.8027L240.766 42.7601L234.599 54.4243L246.683 49.1337L250.224 52.9246L231.225 60.798L227.85 57.1738Z" fill="#58595B"/>
<path d="M259.39 66.0889L247.432 82.877L244.599 78.6279L246.932 75.4202L243.057 69.5881L239.224 70.5463L236.474 66.3805L256.598 61.8398L259.39 66.0889ZM247.348 68.5884L249.557 71.8794L252.973 67.2136L247.348 68.5884Z" fill="#58595B"/>
<path d="M270.015 85.3741C271.974 89.7481 270.474 93.4974 267.182 95.7052L265.14 91.1229C266.224 90.0814 266.682 88.7483 265.974 87.1654C264.89 84.7492 262.14 84.291 259.224 85.5824C256.349 86.8321 254.807 89.2066 255.849 91.6227C256.557 93.2474 257.849 93.7889 259.349 93.6639L261.391 98.2463C257.516 99.2044 253.766 97.788 251.807 93.414C249.641 88.4984 251.807 83.2912 257.141 80.9167C262.515 78.5423 267.807 80.4169 270.015 85.3741Z" fill="#58595B"/>
<path d="M142.1 201.141H98.6006C97.6423 201.141 96.8506 200.349 96.8506 199.391V166.023C96.8506 147.152 116.517 131.822 140.641 131.822C164.766 131.822 184.432 147.152 184.432 166.023V176.396C184.432 177.396 183.64 178.146 182.682 178.146C181.724 178.146 180.932 177.354 180.932 176.396V166.023C180.932 149.11 162.849 135.363 140.641 135.363C118.433 135.363 100.35 149.11 100.35 166.023V197.641H140.35C140.308 195.517 139.891 191.726 137.766 189.351C136.516 187.977 134.808 187.31 132.6 187.31H111.559C110.6 187.31 109.809 186.519 109.809 185.561C109.809 184.602 110.6 183.811 111.559 183.811H132.6C135.85 183.811 138.433 184.894 140.391 187.019C144.516 191.559 143.849 199.266 143.849 199.599C143.808 200.432 143.016 201.141 142.1 201.141Z" fill="#58595B"/>
<path d="M90.9349 115.41C83.5601 115.41 77.5186 109.411 77.5186 101.996V96.6638C77.5186 89.2487 83.5184 83.25 90.9349 83.25C98.3097 83.25 104.351 89.2487 104.351 96.6638V101.996C104.31 109.411 98.3097 115.41 90.9349 115.41ZM90.9349 86.7909C85.4767 86.7909 81.0602 91.2066 81.0602 96.6638V101.996C81.0602 107.453 85.4767 111.869 90.9349 111.869C96.3931 111.869 100.81 107.453 100.81 101.996V96.6638C100.81 91.2483 96.3514 86.7909 90.9349 86.7909Z" fill="#58595B"/>
<path d="M63.3526 145.985C62.3942 145.985 61.6025 145.194 61.6025 144.236C61.6025 131.53 74.7689 121.199 90.9352 121.199C104.227 121.199 115.893 128.198 119.268 138.279C119.601 139.195 119.101 140.195 118.143 140.528C117.226 140.862 116.226 140.362 115.893 139.445C112.976 130.822 102.685 124.782 90.8935 124.782C76.6439 124.782 65.0607 133.53 65.0607 144.277C65.1024 145.194 64.3109 145.985 63.3526 145.985Z" fill="#58595B"/>
<path d="M188.391 115.41C181.016 115.41 174.975 109.411 174.975 101.996V96.6638C174.975 89.2487 180.974 83.25 188.391 83.25C195.766 83.25 201.807 89.2487 201.807 96.6638V101.996C201.807 109.411 195.766 115.41 188.391 115.41ZM188.391 86.7909C182.933 86.7909 178.516 91.2066 178.516 96.6638V101.996C178.516 107.453 182.933 111.869 188.391 111.869C193.849 111.869 198.266 107.453 198.266 101.996V96.6638C198.266 91.2483 193.849 86.7909 188.391 86.7909Z" fill="#58595B"/>
<path d="M215.973 145.985C215.015 145.985 214.223 145.194 214.223 144.236C214.223 133.488 202.64 124.74 188.39 124.74C177.016 124.74 167.099 130.281 163.724 138.487C163.349 139.404 162.349 139.82 161.433 139.445C160.516 139.07 160.099 138.029 160.474 137.154C164.391 127.614 175.599 121.199 188.39 121.199C204.598 121.199 217.723 131.53 217.723 144.236C217.765 145.194 216.973 145.985 215.973 145.985Z" fill="#58595B"/>
<path d="M158.39 205.515C157.432 205.515 156.64 204.723 156.64 203.765V162.941H124.683V185.561C124.683 186.519 123.891 187.31 122.933 187.31C121.974 187.31 121.183 186.519 121.183 185.561V161.191C121.183 160.233 121.974 159.441 122.933 159.441H158.39C159.349 159.441 160.14 160.233 160.14 161.191V203.765C160.182 204.723 159.39 205.515 158.39 205.515Z" fill="#58595B"/>
<path d="M154.307 215.93H122.933C121.974 215.93 121.183 215.139 121.183 214.181V199.392C121.183 198.392 121.974 197.643 122.933 197.643C123.891 197.643 124.683 198.434 124.683 199.392V212.431H154.265C155.224 212.431 156.015 213.223 156.015 214.181C156.057 215.181 155.265 215.93 154.307 215.93Z" fill="#58595B"/>
<path d="M148.474 178.814H131.35C130.391 178.814 129.6 176.856 129.6 174.398C129.6 171.94 130.391 169.982 131.35 169.982H148.474C149.433 169.982 150.224 171.94 150.224 174.398C150.224 176.814 149.433 178.814 148.474 178.814Z" fill="#58595B"/>
</svg>
