<svg width="280" height="283" viewBox="0 0 280 283" fill="none" xmlns="http://www.w3.org/2000/svg">
<path d="M258.965 79.9196C258.965 82.3358 257.007 84.3353 254.548 84.3353C252.132 84.3353 250.132 82.3774 250.132 79.9196C250.132 77.5035 252.09 75.5039 254.548 75.5039C257.007 75.5039 258.965 77.5035 258.965 79.9196Z" fill="#58595B"/>
<path d="M22.2614 116.701L1.80371 119.242L3.01204 114.285L6.9703 113.826L8.63689 107.036L5.34529 104.828L6.55362 99.9961L23.553 111.702L22.2614 116.701ZM12.2618 109.494L11.3034 113.327L17.0532 112.702L12.2618 109.494Z" fill="#58595B"/>
<path d="M8.9304 125.159L20.3051 125.951L19.9718 130.95L9.05539 130.2C6.34712 129.992 4.84708 131.2 4.68042 133.283C4.51375 135.365 5.84707 136.74 8.597 136.907L19.5134 137.657L19.1801 142.656L7.76376 141.864C2.51389 141.489 -0.152709 137.99 0.222282 132.949C0.513942 127.909 3.63885 124.784 8.9304 125.159Z" fill="#58595B"/>
<path d="M6.17912 152.278C4.88748 152.819 4.34581 153.986 4.4708 155.569C4.63747 157.11 5.38745 158.11 6.5541 157.985C7.47075 157.901 7.80406 157.277 7.97072 156.027L8.42911 152.278C8.8041 149.403 10.054 147.154 13.3039 146.862C17.0539 146.529 19.8038 149.403 20.1788 153.652C20.5954 158.318 18.3039 161.234 15.0123 162.067L14.5539 157.152C15.5955 156.652 16.3039 155.694 16.1789 154.027C16.0539 152.569 15.3456 151.694 14.2623 151.778C13.429 151.861 13.0123 152.486 12.8873 153.527L12.3456 157.36C11.8873 160.692 10.2623 162.692 7.30405 162.942C3.38746 163.317 0.804202 160.193 0.42921 156.027C0.0125509 151.444 1.92922 148.112 5.67915 147.07L6.17912 152.278Z" fill="#58595B"/>
<path d="M21.0536 164.234L25.2202 180.689L21.0119 181.731L19.5536 175.982L5.09562 179.648L3.8457 174.774L18.3037 171.066L16.8453 165.318L21.0536 164.234Z" fill="#58595B"/>
<path d="M16.6808 193.849L10.8477 196.432L8.84766 191.85L26.4723 184.102L29.9723 192.016C31.6389 195.807 30.639 199.39 26.764 201.056C24.0974 202.223 21.6392 201.681 19.8892 199.89L15.3892 206.805L13.1392 201.681L17.3475 195.432L16.6808 193.849ZM20.3475 192.225L21.5974 195.099C22.3057 196.724 23.4724 197.099 24.764 196.557C26.0557 195.974 26.5557 194.891 25.8474 193.224L24.5973 190.35L20.3475 192.225Z" fill="#58595B"/>
<path d="M40.7612 211.181L28.7616 227.928L25.9284 223.679L28.2616 220.471L24.3868 214.639L20.5535 215.555L17.8037 211.39L37.928 206.891L40.7612 211.181ZM28.72 213.597L30.8866 216.888L34.3447 212.264L28.72 213.597Z" fill="#58595B"/>
<path d="M47.0113 219.637L50.4696 223.302L39.5115 233.467L45.3864 239.799L42.1781 242.757L32.8867 232.717L47.0113 219.637Z" fill="#58595B"/>
<path d="M59.722 232.275L47.1982 246.893L51.0273 250.172L63.5511 235.555L59.722 232.275Z" fill="#58595B"/>
<path d="M76.1764 244.842L71.8015 265.004L67.5099 262.213L68.3849 258.339L62.51 254.506L59.3433 256.923L55.1768 254.173L71.8431 242.051L76.1764 244.842ZM66.0933 251.84L69.3848 254.007L70.6764 248.383L66.0933 251.84Z" fill="#58595B"/>
<path d="M93.3021 274.542L89.552 272.959L86.4688 259.42L82.094 269.834L77.6357 267.918L85.0939 250.172L89.4688 252.005L92.177 264.669L96.302 254.879L100.802 256.795L93.3021 274.542Z" fill="#58595B"/>
<path d="M113.134 260.129L118.092 260.962L115.634 275.625L124.175 277.083L123.425 281.374L109.926 279.125L113.134 260.129Z" fill="#58595B"/>
<path d="M137.177 282.039L129.761 281.789L131.219 262.543L138.594 262.793L137.177 282.039Z" fill="#58595B"/>
<path d="M145.468 276.292C145.968 277.583 147.135 278.167 148.677 278.083C150.218 278 151.218 277.25 151.135 276.084C151.093 275.167 150.468 274.792 149.218 274.626L145.468 274.084C142.593 273.626 140.385 272.293 140.177 269.044C139.927 265.294 142.885 262.628 147.177 262.337C151.885 262.045 154.718 264.42 155.427 267.71L150.51 268.044C150.052 267.002 149.093 266.253 147.427 266.378C145.968 266.461 145.052 267.169 145.135 268.21C145.177 269.044 145.802 269.502 146.843 269.627L150.677 270.252C154.01 270.835 155.968 272.501 156.135 275.459C156.385 279.416 153.218 281.874 149.01 282.166C144.385 282.457 141.135 280.458 140.177 276.709L145.468 276.292Z" fill="#58595B"/>
<path d="M157.926 261.753L174.425 258.004L175.384 262.211L169.592 263.544L172.884 278.125L167.926 279.208L164.634 264.669L158.842 265.961L157.926 261.753Z" fill="#58595B"/>
<path d="M190.632 251.672L192.257 255.713L184.049 258.962L185.174 261.753L192.674 258.795L194.257 262.711L186.757 265.71L187.966 268.793L196.174 265.544L197.799 269.585L185.007 274.667L177.841 256.796L190.632 251.672Z" fill="#58595B"/>
<path d="M194.257 249.963L200.507 246.213C205.715 243.089 210.798 244.422 213.798 249.463C216.84 254.503 215.631 259.627 210.423 262.71L204.173 266.459L194.257 249.963ZM207.965 259.127C210.715 257.461 211.173 254.795 209.548 252.046C207.882 249.254 205.298 248.421 202.548 250.046L200.757 251.129L206.215 260.21L207.965 259.127Z" fill="#58595B"/>
<path d="M224.048 227.593C227.465 224.218 231.465 224.26 234.715 226.593L231.131 230.134C229.798 229.467 228.381 229.551 227.131 230.759C225.215 232.633 225.798 235.383 228.048 237.632C230.256 239.882 233.006 240.507 234.923 238.632C236.173 237.382 236.256 236.008 235.59 234.633L239.173 231.092C241.464 234.383 241.464 238.424 238.048 241.798C234.215 245.589 228.59 245.381 224.465 241.215C220.34 237.049 220.215 231.384 224.048 227.593Z" fill="#58595B"/>
<path d="M253.465 223.552C250.257 228.093 244.59 228.759 239.924 225.426C235.215 222.094 234.007 216.553 237.257 212.013C240.507 207.472 246.132 206.722 250.84 210.055C255.506 213.429 256.673 219.011 253.465 223.552ZM240.84 214.595C239.34 216.72 240.132 219.386 242.84 221.302C245.548 223.219 248.34 223.135 249.84 221.011C251.34 218.886 250.59 216.179 247.882 214.262C245.132 212.346 242.34 212.471 240.84 214.595Z" fill="#58595B"/>
<path d="M265.921 201.558L253.838 200.475L264.254 205.183L262.338 209.515L244.755 201.558L247.297 195.935L259.963 197.018L250.755 188.27L253.296 182.688L270.879 190.603L268.921 194.935L258.463 190.228L267.254 198.559L265.921 201.558Z" fill="#58595B"/>
<path d="M268.506 176.897L274.339 178.313L273.173 183.145L254.465 178.563L256.465 170.356C257.465 166.315 260.423 164.108 264.59 165.149C268.714 166.149 270.339 169.481 269.34 173.522L268.506 176.897ZM260.423 171.939L259.715 174.772L264.423 175.897L265.131 173.064C265.548 171.314 264.798 170.273 263.423 169.94C261.965 169.565 260.84 170.148 260.423 171.939Z" fill="#58595B"/>
<path d="M259.381 150.443L279.214 144.736L278.797 149.819L274.964 150.86L274.381 157.858L278.006 159.525L277.589 164.482L259.006 155.526L259.381 150.443ZM270.381 156.026L270.714 152.068L265.131 153.568L270.381 156.026Z" fill="#58595B"/>
<path d="M277.506 121.324L277.881 125.365L267.423 134.446L278.631 133.405L279.089 138.237L259.881 140.028L259.465 135.321L269.34 126.948L258.757 127.906L258.34 123.074L277.506 121.324Z" fill="#58595B"/>
<path d="M254.256 106.954L252.881 101.83L266.672 105.288L273.297 103.455L274.63 108.329L268.006 110.162L257.839 120.034L256.422 114.785L262.589 108.87L254.256 106.954Z" fill="#58595B"/>
<path d="M32.9703 48.7578L52.4283 55.6313L49.095 59.5471L45.3451 58.1724L40.8035 63.5046L42.7618 66.9621L39.5119 70.7529L29.5537 52.6736L32.9703 48.7578ZM38.6785 59.672L41.2202 56.6727L35.8036 54.6732L38.6785 59.672Z" fill="#58595B"/>
<path d="M54.7185 46.1329C55.8852 46.8827 57.1768 46.6745 58.3851 45.633C59.5518 44.6333 59.9684 43.4669 59.1768 42.5504C58.5935 41.8422 57.8851 41.9255 56.7601 42.5087L53.4269 44.3C50.8436 45.633 48.2604 45.8831 46.1771 43.3836C43.7605 40.5092 44.5522 36.5934 47.8437 33.844C51.4686 30.803 55.1352 31.0529 57.7185 33.2607L53.9269 36.4267C52.9269 35.8852 51.7187 35.8018 50.4687 36.8849C49.3437 37.8014 49.0103 38.9261 49.7186 39.7593C50.2603 40.4258 51.0102 40.3842 51.9269 39.8843L55.3852 38.1347C58.4268 36.5934 60.9683 36.8016 62.885 39.0928C65.4266 42.1338 64.3433 46.008 61.1351 48.7158C57.5935 51.6735 53.7602 52.0067 50.802 49.5489L54.7185 46.1329Z" fill="#58595B"/>
<path d="M74.3028 27.1792L84.9275 32.3032L80.0942 35.1776L73.8027 32.0532L73.5111 39.0933L68.8029 41.8844L69.3446 30.1369L59.2197 25.1796L64.053 22.3053L69.8445 25.263L70.1362 18.7228L74.8028 15.9316L74.3028 27.1792Z" fill="#58595B"/>
<path d="M90.5107 9.10055L106.719 4.22656L107.969 8.39232L102.26 10.1003L106.552 24.4305L101.719 25.8468L97.4273 11.5583L91.7191 13.2663L90.5107 9.10055Z" fill="#58595B"/>
<path d="M124.383 21.1805C118.883 21.847 114.55 18.1812 113.841 12.4741C113.133 6.72538 116.425 2.14308 121.925 1.43491C127.466 0.726729 131.799 4.39257 132.508 10.1413C133.216 15.8484 129.924 20.514 124.383 21.1805ZM122.466 5.85058C119.883 6.18384 118.466 8.55833 118.883 11.8493C119.3 15.1402 121.258 17.0981 123.841 16.8065C126.424 16.4733 127.883 14.0988 127.466 10.8078C127.049 7.47523 125.05 5.51732 122.466 5.85058Z" fill="#58595B"/>
<path d="M143.383 13.9736L143.092 19.9724L138.092 19.7224L139.008 0.476562L147.425 0.851467C151.592 1.05976 154.3 3.51762 154.092 7.80837C153.883 12.0575 150.967 14.3069 146.8 14.0986L143.383 13.9736ZM146.717 5.05894L143.8 4.93397L143.592 9.76628L146.508 9.89125C148.342 9.97457 149.175 9.05802 149.258 7.6C149.3 6.14198 148.508 5.18391 146.717 5.05894Z" fill="#58595B"/>
<path d="M166.883 22.8053L172.174 4.26758L185.216 8.01674L184.007 12.1825L175.799 9.84969L174.716 13.5156L182.299 15.6817L181.132 19.8059L173.549 17.6397L171.716 24.1799L166.883 22.8053Z" fill="#58595B"/>
<path d="M191.974 10.5315L184.531 28.3262L189.183 30.2709L196.625 12.4762L191.974 10.5315Z" fill="#58595B"/>
<path d="M194.132 32.5536L203.632 15.7656L215.423 22.4307L213.298 26.2216L205.84 22.0143L203.965 25.3468L210.798 29.2209L208.715 32.9285L201.84 29.0544L198.507 34.9697L194.132 32.5536Z" fill="#58595B"/>
<path d="M221.299 26.2207L234.59 36.8018L231.882 40.1761L227.215 36.4686L217.924 48.1744L213.966 45.0084L223.257 33.3026L218.591 29.6367L221.299 26.2207Z" fill="#58595B"/>
<path d="M248.422 51.3389L251.963 55.2964L238.047 58.379L232.922 62.9197L229.589 59.1705L234.672 54.6299L239.422 41.2578L243.047 45.2986L240.089 53.3385L248.422 51.3389Z" fill="#58595B"/>
<path d="M29.7217 83.9176C29.7217 86.3337 27.7635 88.3333 25.3052 88.3333C22.8886 88.3333 20.8887 86.3754 20.8887 83.9176C20.8887 81.5015 22.8469 79.502 25.3052 79.502C27.7635 79.502 29.7217 81.5015 29.7217 83.9176Z" fill="#58595B"/>
<path d="M91.8865 85.584H89.0532C88.9698 85.584 88.8865 85.6257 88.8449 85.7507L82.1784 103.705C82.1367 103.788 82.1784 103.83 82.2201 103.913C82.2618 103.955 82.3451 103.997 82.3868 103.997H85.345C85.4283 103.997 85.5116 103.955 85.5533 103.83L87.3033 98.9978H93.6364L95.3864 103.83C95.4281 103.913 95.5113 103.997 95.5947 103.997H98.5946C98.6779 103.997 98.7196 103.955 98.7613 103.913C98.8029 103.872 98.8029 103.788 98.8029 103.705L92.1365 85.7507C92.0532 85.6673 91.9698 85.584 91.8865 85.584ZM92.5115 95.9568H88.3865L90.4698 90.2081L92.5115 95.9568Z" fill="#58595B"/>
<path d="M111.095 93.4136L108.053 92.7055C106.595 92.3722 105.928 91.664 105.928 90.5809C105.928 89.2479 107.095 88.3314 108.845 88.3314C111.053 88.3314 111.928 89.5395 112.262 90.5809C112.303 90.6642 112.387 90.7476 112.47 90.7476H115.428C115.47 90.7476 115.553 90.7058 115.595 90.6642C115.637 90.6225 115.678 90.5393 115.637 90.4976C114.928 87.2067 112.47 85.332 108.803 85.332C105.262 85.332 102.678 87.6649 102.678 90.8725C102.678 93.497 104.178 95.2049 107.178 95.9131L110.137 96.6629C111.803 97.0794 112.47 97.7043 112.47 98.8707C112.47 100.37 111.262 101.328 109.303 101.328C107.97 101.328 106.22 100.87 105.595 98.7874C105.553 98.7041 105.47 98.6208 105.387 98.6208H102.387C102.303 98.6208 102.262 98.6625 102.22 98.7042C102.178 98.7458 102.137 98.8291 102.178 98.8707C102.803 102.287 105.512 104.328 109.345 104.328C113.178 104.328 115.762 102.037 115.762 98.6625C115.762 95.9964 114.095 94.1218 111.095 93.4136Z" fill="#58595B"/>
<path d="M129.261 94.5405L135.052 85.9173C135.094 85.834 135.094 85.7506 135.052 85.709C135.01 85.6256 134.927 85.584 134.844 85.584H131.594C131.51 85.584 131.469 85.6257 131.427 85.6674L127.344 91.7494L123.344 85.6674C123.302 85.6257 123.219 85.584 123.136 85.584H119.761C119.677 85.584 119.594 85.6256 119.552 85.709C119.511 85.7923 119.511 85.8757 119.552 85.9173L125.344 94.582L119.261 103.622C119.219 103.705 119.219 103.788 119.261 103.83C119.302 103.913 119.386 103.955 119.469 103.955H122.761C122.844 103.955 122.886 103.913 122.927 103.872L127.261 97.4147L131.594 103.872C131.635 103.913 131.719 103.955 131.76 103.955H135.135C135.219 103.955 135.302 103.913 135.344 103.83C135.385 103.747 135.385 103.663 135.344 103.622L129.261 94.5405Z" fill="#58595B"/>
<path d="M162.719 85.584H148.219C148.094 85.584 148.011 85.6674 148.011 85.7923V88.5001C148.011 88.625 148.094 88.7083 148.219 88.7083H153.761V103.747C153.761 103.872 153.886 103.955 153.969 103.955H156.927C157.052 103.955 157.135 103.872 157.135 103.747V88.7083H162.677C162.802 88.7083 162.885 88.625 162.885 88.5001V85.7923C162.927 85.6674 162.844 85.584 162.719 85.584Z" fill="#58595B"/>
<path d="M174.427 85.293C169.677 85.293 166.177 89.2921 166.177 94.7909C166.177 100.29 169.635 104.289 174.427 104.289C179.218 104.289 182.676 100.29 182.676 94.7909C182.676 89.2921 179.177 85.293 174.427 85.293ZM179.26 94.7909C179.26 98.54 177.26 101.123 174.427 101.123C171.552 101.123 169.593 98.5817 169.593 94.7909C169.593 91 171.51 88.4589 174.427 88.4589C177.26 88.4589 179.26 91.0417 179.26 94.7909Z" fill="#58595B"/>
<path d="M194.925 85.584H188.217C188.092 85.584 188.009 85.6674 188.009 85.7923V103.747C188.009 103.872 188.092 103.955 188.217 103.955H191.175C191.3 103.955 191.384 103.872 191.384 103.747V97.2898H194.925C198.8 97.2898 201.092 95.1236 201.092 91.4577C201.092 87.7919 198.759 85.584 194.925 85.584ZM191.384 88.6667H194.884C196.717 88.6667 197.759 89.6664 197.759 91.4577C197.759 93.2073 196.675 94.2071 194.884 94.2071H191.384V88.6667Z" fill="#58595B"/>
<path d="M107.844 203.433C90.928 203.433 78.9699 192.644 78.1366 176.605C78.095 175.731 78.7617 174.981 79.6366 174.939C80.47 174.856 81.2616 175.564 81.3032 176.439C82.0949 190.936 92.5113 200.267 107.844 200.267C124.302 200.267 134.51 189.686 134.51 172.69C134.51 156.901 125.51 147.07 111.011 147.07C104.261 147.07 99.5111 148.612 95.9695 151.903C95.5112 152.361 94.8029 152.444 94.2196 152.194C93.6363 151.903 93.2613 151.319 93.303 150.653L94.2612 132.074C94.3028 131.24 95.0112 130.574 95.8445 130.574H124.219C125.094 130.574 125.802 131.282 125.802 132.157C125.802 133.032 125.094 133.74 124.219 133.74H97.3445L96.6362 147.362C100.386 145.029 105.094 143.863 111.011 143.863C127.219 143.863 137.718 155.152 137.718 172.648C137.718 191.352 125.969 203.433 107.844 203.433ZM107.969 190.478C98.9278 190.478 93.0946 185.145 92.7196 176.564C92.6779 175.689 93.3446 174.939 94.2196 174.898C95.0529 174.898 95.8445 175.522 95.8862 176.397C96.1779 183.187 100.678 187.27 107.969 187.27C117.636 187.27 119.677 179.48 119.677 172.981C119.677 166.983 117.636 159.859 107.969 159.859C103.636 159.859 99.3861 162.15 97.1778 165.65C96.7612 166.274 95.9695 166.566 95.3028 166.275L81.1365 161.067C80.4699 160.817 80.0532 160.192 80.0949 159.526L81.6365 118.951C81.6782 118.118 82.3865 117.41 83.2198 117.41H132.51C133.385 117.41 134.093 118.118 134.093 118.993C134.093 119.868 133.385 120.576 132.51 120.576H84.7614L83.3031 158.443L95.2195 162.817C98.1361 159.026 103.011 156.61 107.969 156.61C117.427 156.61 122.885 162.525 122.885 172.898C122.885 184.104 117.427 190.478 107.969 190.478Z" fill="#58595B"/>
<path d="M171.426 204.101C170.551 204.101 169.842 203.393 169.842 202.518C169.842 201.643 170.551 200.935 171.426 200.935C178.384 200.935 183.967 198.769 188.467 194.228C196.259 186.521 197.3 172.983 197.3 160.777C197.3 148.571 196.259 135.033 188.467 127.326C183.967 122.827 178.384 120.619 171.426 120.619C164.468 120.619 158.884 122.827 154.426 127.326C146.635 135.033 145.593 148.571 145.593 160.777C145.593 172.983 146.635 186.521 154.426 194.228C155.051 194.853 155.051 195.853 154.426 196.478C153.801 197.102 152.801 197.102 152.176 196.478C143.551 187.938 142.385 173.649 142.385 160.777C142.385 147.905 143.551 133.616 152.176 125.076C157.218 120.036 163.676 117.453 171.426 117.453C179.176 117.453 185.634 120.036 190.717 125.076C199.3 133.575 200.467 147.905 200.467 160.777C200.467 173.649 199.3 187.938 190.675 196.478C185.634 201.518 179.176 204.101 171.426 204.101ZM171.426 190.687C167.509 190.687 164.343 189.479 161.968 187.063C156.468 181.522 156.551 170.816 156.593 163.026C156.593 162.235 156.593 161.485 156.593 160.735C156.593 160.027 156.593 159.236 156.593 158.444C156.551 150.654 156.468 139.948 161.968 134.408C164.343 131.992 167.509 130.783 171.426 130.783C175.342 130.783 178.509 131.992 180.884 134.408C186.384 139.948 186.3 150.613 186.259 158.444C186.259 159.236 186.259 159.985 186.259 160.735C186.259 161.443 186.259 162.235 186.259 163.026C186.342 170.816 186.425 181.522 180.884 187.063C178.509 189.437 175.342 190.687 171.426 190.687ZM171.426 134.033C168.343 134.033 166.009 134.908 164.218 136.699C159.634 141.323 159.718 151.237 159.801 158.486C159.801 159.277 159.801 160.069 159.801 160.777C159.801 161.527 159.801 162.277 159.801 163.068C159.759 170.317 159.676 180.231 164.218 184.855C166.009 186.646 168.343 187.521 171.426 187.521C174.509 187.521 176.842 186.646 178.634 184.855C183.217 180.231 183.134 170.317 183.092 163.068C183.092 162.277 183.092 161.485 183.092 160.777C183.092 160.027 183.092 159.277 183.092 158.486C183.134 151.237 183.217 141.323 178.634 136.699C176.842 134.866 174.509 134.033 171.426 134.033Z" fill="#58595B"/>
</svg>
