<svg width="164" height="164" viewBox="0 0 164 164" fill="none" xmlns="http://www.w3.org/2000/svg">
<circle cx="82" cy="82" r="80.5" stroke="#bb6228" stroke-width="3"/>
<path d="M64.2832 93.8634C62.629 95.262 61.6919 96.8807 61.6919 98.5988C61.6919 103.98 70.9213 108.339 82.3019 108.339C93.6825 108.339 102.912 103.98 102.912 98.5988C102.912 97.2357 102.316 95.9294 101.244 94.7508" stroke="#bb6228" stroke-width="3" stroke-miterlimit="22.9256" stroke-linecap="round" stroke-linejoin="round"/>
<path d="M59.7247 88.7303C53.5055 91.4637 49.5581 95.4891 49.5581 99.969C49.5581 108.815 64.2187 115.978 82.3013 115.978C100.384 115.978 115.045 108.808 115.045 99.969C115.045 95.8441 111.601 92.1097 106.113 89.4758" stroke="#bb6228" stroke-width="3" stroke-miterlimit="22.9256" stroke-linecap="round" stroke-linejoin="round"/>
<path d="M55.1598 83.5974C44.3826 87.6655 37.418 94.1048 37.418 101.346C37.418 113.65 57.5097 123.632 82.3014 123.632C107.093 123.632 127.185 113.657 127.185 101.346C127.185 94.4598 120.888 88.2973 110.991 84.208" stroke="#bb6228" stroke-width="3" stroke-miterlimit="22.9256" stroke-linecap="round" stroke-linejoin="round"/>
<path d="M64.8579 75.8731C64.8579 86.7993 73.2709 95.6525 83.6434 95.6525C94.0158 95.6525 102.429 86.7993 102.429 75.8731C102.429 63.7612 87.9244 55.2914 83.6434 40.4675C77.8572 55.0926 64.8579 63.7612 64.8579 75.8731Z" stroke="#bb6228" stroke-width="3" stroke-miterlimit="22.9256" stroke-linecap="round" stroke-linejoin="round"/>
<path d="M83.2603 89.0783C90.2178 89.0783 95.791 83.1431 95.8549 75.8234C95.8549 72.0961 93.9877 68.9084 91.6093 65.671" stroke="#bb6228" stroke-width="3" stroke-miterlimit="22.9256" stroke-linecap="round" stroke-linejoin="round"/>
</svg>
