<svg width="52" height="36" viewBox="0 0 52 36" fill="none" xmlns="http://www.w3.org/2000/svg">
<path d="M5.65714 17.3002V3.46506C5.65714 2.10928 6.74301 1 8.07019 1H43.9946C45.3218 1 46.4076 2.10928 46.4076 3.46506V17.3002" stroke="#bb6228" stroke-width="2" stroke-miterlimit="10" stroke-linecap="round" stroke-linejoin="round"/>
<path d="M10.3144 17.3006V11.0109C10.3144 9.66752 11.4276 8.56836 12.7882 8.56836H21.2301C22.5907 8.56836 23.7039 9.66752 23.7039 11.0109V17.3006" stroke="#bb6228" stroke-width="2" stroke-miterlimit="10" stroke-linecap="round" stroke-linejoin="round"/>
<path d="M28.361 17.3006V11.0109C28.361 9.66752 29.4258 8.56836 30.7272 8.56836H38.8021C40.1035 8.56836 41.1683 9.66752 41.1683 11.0109V17.3006" stroke="#bb6228" stroke-width="2" stroke-miterlimit="10" stroke-linecap="round" stroke-linejoin="round"/>
<path d="M4.50856 28.4163V34.7643H1V19.684C1 18.3727 2.08886 17.2998 3.41969 17.2998H48.0631C49.3939 17.2998 50.4828 18.3727 50.4828 19.684V34.7643H46.9742V28.4163" stroke="#bb6228" stroke-width="2" stroke-miterlimit="10" stroke-linecap="round" stroke-linejoin="round"/>
<path d="M1 27.7793H50.4828" stroke="#bb6228" stroke-width="2" stroke-miterlimit="10" stroke-linecap="round" stroke-linejoin="round"/>
<path d="M1 24.2861H50.4828" stroke="#bb6228" stroke-width="2" stroke-miterlimit="10" stroke-linecap="round" stroke-linejoin="round"/>
</svg>
