<svg width="64" height="33" viewBox="0 0 64 33" fill="none" xmlns="http://www.w3.org/2000/svg">
<path d="M62.2439 21.6017V25.9513H52.7761C52.7761 25.9234 52.7761 25.8956 52.7761 25.8398C52.7761 22.8285 50.3173 20.4028 47.265 20.4028C44.2127 20.4028 41.7539 22.8564 41.7539 25.8398C41.7539 25.8677 41.7539 25.8956 41.7539 25.9513H16.0354C16.0354 25.9234 16.0354 25.8956 16.0354 25.8398C16.0354 22.8285 13.5766 20.4028 10.5243 20.4028C7.47202 20.4028 5.01322 22.8564 5.01322 25.8398C5.01322 25.8677 5.01322 25.8956 5.01322 25.9513H1V16.3041C1 14.5475 2.46963 13.0977 4.25014 13.0977H53.6805C58.372 13.0977 62.2439 16.9175 62.2439 21.6017Z" stroke="#bb6228" stroke-width="2" stroke-miterlimit="10" stroke-linecap="round" stroke-linejoin="round"/>
<path d="M28.9756 17.6338H34.2683" stroke="#bb6228" stroke-width="2" stroke-miterlimit="10" stroke-linecap="round" stroke-linejoin="round"/>
<path d="M15.3659 26.3144C15.3659 26.3434 15.3659 26.3724 15.3659 26.4305C15.3116 29.5051 12.9502 31.9997 10.0732 31.9997C7.19614 31.9997 4.80765 29.5051 4.78051 26.4305C4.78051 26.4014 4.78051 26.3724 4.78051 26.3144C4.78051 23.1818 7.169 20.6582 10.0732 20.6582C12.9774 20.6582 15.3659 23.1818 15.3659 26.3144Z" stroke="#bb6228" stroke-width="2" stroke-miterlimit="10" stroke-linecap="round" stroke-linejoin="round"/>
<path d="M53.1707 26.3144C53.1707 26.3434 53.1707 26.3724 53.1707 26.4305C53.1125 29.5051 50.5825 31.9997 47.5 31.9997C44.3883 31.9997 41.8583 29.5051 41.8292 26.4305C41.8292 26.4014 41.8292 26.3724 41.8292 26.3144C41.8292 23.1818 44.3593 20.6582 47.5 20.6582C50.6407 20.6582 53.1707 23.1818 53.1707 26.3144Z" stroke="#bb6228" stroke-width="2" stroke-miterlimit="10" stroke-linecap="round" stroke-linejoin="round"/>
<path d="M4.78051 13.0976L10.9101 1.88994C11.1631 1.41716 11.8379 1 12.4003 1H39.0835C39.6459 1 40.3207 1.38935 40.5737 1.88994L46.3659 13.0976" stroke="#bb6228" stroke-width="2" stroke-miterlimit="10" stroke-linecap="round" stroke-linejoin="round"/>
<path d="M25.9513 13.0976V1" stroke="#bb6228" stroke-width="2" stroke-miterlimit="10" stroke-linecap="round" stroke-linejoin="round"/>
</svg>
