<svg width="119" height="122" viewBox="0 0 119 122" fill="none" xmlns="http://www.w3.org/2000/svg">
<mask id="path-1-inside-1_903_906" fill="white">
<path fill-rule="evenodd" clip-rule="evenodd" d="M69 23C69 22.4477 68.5523 22 68 22H5C2.23858 22 0 24.2386 0 27V117C0 119.761 2.23858 122 5 122H95C97.7614 122 100 119.761 100 117V51C100 50.4477 99.5523 50 99 50C98.4477 50 98 50.4477 98 51V117C98 118.657 96.6569 120 95 120H5C3.34315 120 2 118.657 2 117V27C2 25.3431 3.34315 24 5 24H68C68.5523 24 69 23.5523 69 23Z"/>
</mask>
<path fill-rule="evenodd" clip-rule="evenodd" d="M69 23C69 22.4477 68.5523 22 68 22H5C2.23858 22 0 24.2386 0 27V117C0 119.761 2.23858 122 5 122H95C97.7614 122 100 119.761 100 117V51C100 50.4477 99.5523 50 99 50C98.4477 50 98 50.4477 98 51V117C98 118.657 96.6569 120 95 120H5C3.34315 120 2 118.657 2 117V27C2 25.3431 3.34315 24 5 24H68C68.5523 24 69 23.5523 69 23Z" fill="#58585A"/>
<path d="M68 19H5V25H68V19ZM5 19C0.581721 19 -3 22.5817 -3 27H3C3 25.8954 3.89543 25 5 25V19ZM-3 27V117H3V27H-3ZM-3 117C-3 121.418 0.581723 125 5 125V119C3.89543 119 3 118.105 3 117H-3ZM5 125H95V119H5V125ZM95 125C99.4183 125 103 121.418 103 117H97C97 118.105 96.1046 119 95 119V125ZM103 117V51H97V117H103ZM101 117V51H95V117H101ZM95 123C98.3137 123 101 120.314 101 117H95V123ZM5 123H95V117H5V123ZM-1 117C-1 120.314 1.68629 123 5 123V117H5H-1ZM-1 27V117H5V27H-1ZM5 21C1.68629 21 -1 23.6863 -1 27H5V27V21ZM68 21H5V27H68V21ZM99 47C96.7909 47 95 48.7909 95 51H101C101 52.1046 100.105 53 99 53V47ZM103 51C103 48.7909 101.209 47 99 47V53C97.8954 53 97 52.1046 97 51H103ZM68 27C70.2091 27 72 25.2091 72 23H66C66 21.8954 66.8954 21 68 21V27ZM68 25C66.8954 25 66 24.1046 66 23H72C72 20.7909 70.2091 19 68 19V25Z" fill="#58585A" mask="url(#path-1-inside-1_903_906)"/>
<path d="M25.3133 93.3458L29.5238 81.6824L36.9767 89.1353L25.3133 93.3458Z" fill="#58585A"/>
<line x1="30.2402" y1="82.3462" x2="105.347" y2="7.23965" stroke="#58585A" stroke-width="2"/>
<line x1="36.2929" y1="88.3995" x2="111.399" y2="13.2929" stroke="#58585A" stroke-width="2"/>
<rect x="104" y="7.07104" width="10" height="10.6018" transform="rotate(-45 104 7.07104)" fill="#58585A"/>
</svg>
