<svg width="164" height="164" viewBox="0 0 164 164" fill="none" xmlns="http://www.w3.org/2000/svg">
<circle cx="82" cy="82" r="80.5" stroke="#58585A" stroke-width="3"/>
<path d="M86.8909 49.7919L129.586 63.3231C131.107 63.8053 131.107 65.9749 129.586 66.4571L86.8909 79.9882C83.5099 81.0614 79.8819 81.0614 76.4932 79.9882L33.7982 66.4571C32.2775 65.9749 32.2775 63.8053 33.7982 63.3231L76.4932 49.7919C79.8742 48.7188 83.5022 48.7188 86.8909 49.7919Z" stroke="#58585A" stroke-width="3" stroke-miterlimit="10" stroke-linecap="round" stroke-linejoin="round"/>
<path d="M81.7344 111.907C91.5799 111.907 101.425 109.831 110.6 105.672C112.344 104.877 113.462 103.134 113.462 101.212V71.7066" stroke="#58585A" stroke-width="3" stroke-miterlimit="10" stroke-linecap="round" stroke-linejoin="round"/>
<path d="M81.7417 111.907C71.8961 111.907 62.0506 109.831 52.8763 105.672C51.1325 104.877 50.0137 103.134 50.0137 101.212V71.7066" stroke="#58585A" stroke-width="3" stroke-miterlimit="10" stroke-linecap="round" stroke-linejoin="round"/>
<path d="M125.425 68.2032V108.623" stroke="#58585A" stroke-width="3" stroke-miterlimit="10" stroke-linecap="round" stroke-linejoin="round"/>
<path d="M121.45 112.93C121.45 110.553 123.379 108.623 125.757 108.623C128.134 108.623 130.064 110.553 130.064 112.93C130.064 115.308 128.134 117.238 125.757 117.238C123.379 117.238 121.45 115.308 121.45 112.93Z" stroke="#58585A" stroke-width="3" stroke-miterlimit="10" stroke-linecap="round" stroke-linejoin="round"/>
<path d="M128.036 117.9C129.503 121.005 130.727 124.478 130.727 128.502H125.757H120.787C120.787 124.478 122.011 120.998 123.477 117.9" stroke="#58585A" stroke-width="3" stroke-miterlimit="10" stroke-linecap="round" stroke-linejoin="round"/>
</svg>
