<svg width="231" height="231" viewBox="0 0 231 231" fill="none" xmlns="http://www.w3.org/2000/svg">
<circle cx="115.5" cy="115.5" r="114" stroke="#58585A" stroke-width="3"/>
<path d="M169.829 104C172.955 106.245 175 109.926 175 114.07V163.641C175 170.437 169.486 176 162.749 176H68.2507C64.7108 176 61.5036 174.465 59.2618 172.016C57.2382 169.81 56 166.866 56 163.641V114.07C56 109.926 58.0454 106.245 61.1708 104" stroke="#58585A" stroke-width="3" stroke-miterlimit="10"/>
<path d="M59 172L111.771 130.61C113.888 128.463 117.355 128.463 119.471 130.61L171 171.791" stroke="#58585A" stroke-width="3" stroke-miterlimit="10"/>
<path d="M103.304 137.494L61.0732 104.361L73.4607 92.1748" stroke="#58585A" stroke-width="3" stroke-miterlimit="10"/>
<path d="M157.356 93.9102L169.564 104.362L169.483 104.427L157.356 113.949L127.921 137.065" stroke="#58585A" stroke-width="3" stroke-miterlimit="10"/>
<path d="M157 114V102.206V93.9438V80.9956L132.138 54H73V92.3817V102.206V113.995" stroke="#58585A" stroke-width="3" stroke-miterlimit="10"/>
<path d="M132 54V81H157" stroke="#58585A" stroke-width="3" stroke-miterlimit="10"/>
<mask id="path-8-inside-1_105_2509" fill="white">
<path d="M121.004 96.9434L118.122 105.715C118.03 105.965 117.997 106.15 117.997 106.367C117.997 107.482 118.742 108.167 119.949 108.167C122.462 108.167 126.089 105.127 126.089 100.57C126.089 95.7633 121.934 92.0765 115.642 92.0765C108.573 92.0765 102.282 96.7259 102.282 103.855C102.282 111.017 108.638 114.426 114.185 114.426C117.132 114.426 120.727 113.464 122.336 112.626L122.864 113.899C121.222 114.796 117.41 115.943 114.093 115.943C107.926 115.943 100.547 112.039 100.547 103.882C100.547 95.8232 107.676 90.5811 115.642 90.5811C122.897 90.5811 127.671 94.8879 127.671 100.473C127.671 106.052 122.956 109.646 119.547 109.646C117.747 109.646 116.48 108.716 116.48 107.226V106.976C115.055 108.684 113.288 109.614 111.553 109.614C109.324 109.614 107.181 108.096 107.181 104.747C107.181 99.9723 111.461 96.4376 114.685 96.4376C116.73 96.4376 118.095 97.8352 118.405 99.385L119.242 96.9379H121.004V96.9434ZM116.387 105.562L117.812 101.19C117.562 99.6079 116.387 98.1234 114.68 98.1234C112.385 98.1234 109.101 100.636 109.101 104.507C109.101 106.862 110.373 107.95 112.015 107.95C113.38 107.95 114.963 107.172 116.387 105.562Z"/>
</mask>
<path d="M121.004 96.9434L118.122 105.715C118.03 105.965 117.997 106.15 117.997 106.367C117.997 107.482 118.742 108.167 119.949 108.167C122.462 108.167 126.089 105.127 126.089 100.57C126.089 95.7633 121.934 92.0765 115.642 92.0765C108.573 92.0765 102.282 96.7259 102.282 103.855C102.282 111.017 108.638 114.426 114.185 114.426C117.132 114.426 120.727 113.464 122.336 112.626L122.864 113.899C121.222 114.796 117.41 115.943 114.093 115.943C107.926 115.943 100.547 112.039 100.547 103.882C100.547 95.8232 107.676 90.5811 115.642 90.5811C122.897 90.5811 127.671 94.8879 127.671 100.473C127.671 106.052 122.956 109.646 119.547 109.646C117.747 109.646 116.48 108.716 116.48 107.226V106.976C115.055 108.684 113.288 109.614 111.553 109.614C109.324 109.614 107.181 108.096 107.181 104.747C107.181 99.9723 111.461 96.4376 114.685 96.4376C116.73 96.4376 118.095 97.8352 118.405 99.385L119.242 96.9379H121.004V96.9434ZM116.387 105.562L117.812 101.19C117.562 99.6079 116.387 98.1234 114.68 98.1234C112.385 98.1234 109.101 100.636 109.101 104.507C109.101 106.862 110.373 107.95 112.015 107.95C113.38 107.95 114.963 107.172 116.387 105.562Z" fill="#58585A"/>
<path d="M121.004 96.9434L122.904 97.5677L123.004 97.2635V96.9434H121.004ZM118.122 105.715L119.998 106.408L120.011 106.374L120.022 106.339L118.122 105.715ZM122.336 112.626L124.184 111.86L123.349 109.845L121.413 110.852L122.336 112.626ZM122.864 113.899L123.823 115.654L125.399 114.792L124.711 113.133L122.864 113.899ZM116.48 106.976H118.48V101.458L114.944 105.695L116.48 106.976ZM118.405 99.385L116.444 99.7772L117.897 107.045L120.297 100.033L118.405 99.385ZM119.242 96.9379V94.9379H117.813L117.35 96.2904L119.242 96.9379ZM121.004 96.9379H123.004V94.9379H121.004V96.9379ZM116.387 105.562L117.885 106.888L118.16 106.577L118.289 106.182L116.387 105.562ZM117.812 101.19L119.714 101.81L119.863 101.353L119.788 100.878L117.812 101.19ZM112.015 107.95V105.95V107.95ZM119.104 96.3191L116.222 105.09L120.022 106.339L122.904 97.5677L119.104 96.3191ZM116.246 105.021C116.08 105.47 115.997 105.889 115.997 106.367H119.997C119.997 106.363 119.997 106.369 119.996 106.382C119.995 106.395 119.993 106.409 119.99 106.423C119.988 106.437 119.986 106.444 119.986 106.444C119.986 106.442 119.989 106.431 119.998 106.408L116.246 105.021ZM115.997 106.367C115.997 107.389 116.352 108.407 117.165 109.156C117.959 109.887 118.976 110.167 119.949 110.167V106.167C119.835 106.167 119.783 106.151 119.78 106.15C119.78 106.149 119.821 106.164 119.876 106.214C119.932 106.266 119.969 106.326 119.988 106.374C120.006 106.418 119.997 106.423 119.997 106.367H115.997ZM119.949 110.167C121.93 110.167 123.962 109.034 125.434 107.43C126.959 105.769 128.089 103.399 128.089 100.57H124.089C124.089 102.299 123.404 103.727 122.488 104.725C121.518 105.781 120.481 106.167 119.949 106.167V110.167ZM128.089 100.57C128.089 94.3347 122.684 90.0765 115.642 90.0765V94.0765C121.184 94.0765 124.089 97.192 124.089 100.57H128.089ZM115.642 90.0765C107.819 90.0765 100.282 95.3005 100.282 103.855H104.282C104.282 98.1512 109.327 94.0765 115.642 94.0765V90.0765ZM100.282 103.855C100.282 108.107 102.2 111.318 104.937 113.414C107.618 115.467 111.039 116.426 114.185 116.426V112.426C111.785 112.426 109.253 111.681 107.369 110.238C105.541 108.839 104.282 106.765 104.282 103.855H100.282ZM114.185 116.426C117.429 116.426 121.344 115.397 123.26 114.4L121.413 110.852C120.11 111.53 116.836 112.426 114.185 112.426V116.426ZM120.489 113.392L121.016 114.665L124.711 113.133L124.184 111.86L120.489 113.392ZM121.905 112.144C120.561 112.878 117.079 113.943 114.093 113.943V117.943C117.74 117.943 121.883 116.714 123.823 115.654L121.905 112.144ZM114.093 113.943C111.392 113.943 108.446 113.079 106.22 111.381C104.051 109.726 102.547 107.276 102.547 103.882H98.5469C98.5469 108.645 100.733 112.226 103.794 114.562C106.8 116.855 110.627 117.943 114.093 117.943V113.943ZM102.547 103.882C102.547 97.2516 108.426 92.5811 115.642 92.5811V88.5811C106.926 88.5811 98.5469 94.3947 98.5469 103.882H102.547ZM115.642 92.5811C122.121 92.5811 125.671 96.2949 125.671 100.473H129.671C129.671 93.4808 123.672 88.5811 115.642 88.5811V92.5811ZM125.671 100.473C125.671 102.669 124.75 104.467 123.477 105.734C122.161 107.042 120.613 107.646 119.547 107.646V111.646C121.89 111.646 124.404 110.453 126.298 108.57C128.234 106.644 129.671 103.856 129.671 100.473H125.671ZM119.547 107.646C118.969 107.646 118.668 107.495 118.561 107.413C118.513 107.376 118.501 107.352 118.498 107.346C118.496 107.341 118.48 107.309 118.48 107.226H114.48C114.48 108.601 115.091 109.786 116.115 110.577C117.092 111.332 118.324 111.646 119.547 111.646V107.646ZM118.48 107.226V106.976H114.48V107.226H118.48ZM114.944 105.695C113.796 107.071 112.55 107.614 111.553 107.614V111.614C114.025 111.614 116.314 110.297 118.015 108.258L114.944 105.695ZM111.553 107.614C110.884 107.614 110.32 107.389 109.931 107.008C109.562 106.646 109.181 105.977 109.181 104.747H105.181C105.181 106.867 105.872 108.63 107.131 109.865C108.371 111.08 109.992 111.614 111.553 111.614V107.614ZM109.181 104.747C109.181 102.976 109.975 101.385 111.142 100.212C112.346 99.0019 113.74 98.4376 114.685 98.4376V94.4376C112.406 94.4376 110.048 95.6407 108.306 97.3911C106.527 99.179 105.181 101.743 105.181 104.747H109.181ZM114.685 98.4376C115.707 98.4376 116.307 99.0923 116.444 99.7772L120.366 98.9927C119.883 96.578 117.753 94.4376 114.685 94.4376V98.4376ZM120.297 100.033L121.135 97.5855L117.35 96.2904L116.513 98.7374L120.297 100.033ZM119.242 98.9379H121.004V94.9379H119.242V98.9379ZM119.004 96.9379V96.9434H123.004V96.9379H119.004ZM118.289 106.182L119.714 101.81L115.911 100.571L114.486 104.943L118.289 106.182ZM119.788 100.878C119.445 98.713 117.719 96.1234 114.68 96.1234V100.123C114.908 100.123 115.124 100.21 115.34 100.438C115.575 100.687 115.769 101.072 115.837 101.503L119.788 100.878ZM114.68 96.1234C112.877 96.1234 110.999 97.0608 109.613 98.4519C108.18 99.8897 107.101 101.977 107.101 104.507H111.101C111.101 103.166 111.663 102.061 112.447 101.275C113.276 100.442 114.188 100.123 114.68 100.123V96.1234ZM107.101 104.507C107.101 106.036 107.517 107.435 108.474 108.469C109.442 109.517 110.743 109.95 112.015 109.95V105.95C111.646 105.95 111.489 105.839 111.411 105.754C111.32 105.656 111.101 105.334 111.101 104.507H107.101ZM112.015 109.95C114.13 109.95 116.217 108.773 117.885 106.888L114.89 104.237C113.709 105.571 112.63 105.95 112.015 105.95V109.95Z" fill="#58585A" mask="url(#path-8-inside-1_105_2509)"/>
</svg>
