<svg width="164" height="164" viewBox="0 0 164 164" fill="none" xmlns="http://www.w3.org/2000/svg">
<circle cx="82" cy="82" r="80.5" stroke="#bb6228" stroke-width="3"/>
<path d="M57.1413 75.5121C56.5662 73.9857 56.0905 72.225 56.0195 70.4075C56.0195 70.3081 56.0266 70.2016 56.0266 70.1022C56.2538 64.6782 60.1586 59.9995 66.5269 63.0311C67.7267 63.6061 68.6426 64.2025 69.3099 64.2025C69.9844 64.2025 70.8931 63.599 72.1001 63.0311C80.4491 59.0553 84.0415 68.1711 81.6845 75.1855C81.649 75.2991 81.6064 75.4056 81.5709 75.5121" stroke="#bb6228" stroke-width="3" stroke-miterlimit="22.9256" stroke-linecap="round" stroke-linejoin="round"/>
<path d="M80.0299 70.5779C80.1151 72.0049 79.8879 73.51 79.2986 74.8802C79.2063 75.0932 79.114 75.3062 79.0146 75.5121" stroke="#bb6228" stroke-width="3" stroke-miterlimit="22.9256" stroke-linecap="round" stroke-linejoin="round"/>
<path d="M65.9019 55.4272C68.621 57.3441 69.338 61.4335 69.3167 64.2023" stroke="#bb6228" stroke-width="3" stroke-miterlimit="22.9256" stroke-linecap="round" stroke-linejoin="round"/>
<path d="M79.2492 57.0248C77.9712 58.7216 75.9692 59.8504 73.676 59.9356C71.5248 60.0137 69.5653 59.1617 68.1738 57.7347C69.4518 56.0379 71.4538 54.9091 73.747 54.8239C75.8982 54.7387 77.8576 55.5978 79.2492 57.0248Z" stroke="#bb6228" stroke-width="3" stroke-miterlimit="22.9256" stroke-linecap="round" stroke-linejoin="round"/>
<path d="M120.526 83.1653H40.294C38.1854 83.1653 36.4673 81.4401 36.4673 79.3386C36.4673 77.2301 38.1925 75.512 40.294 75.512H120.533C122.642 75.512 124.36 77.2372 124.36 79.3386C124.353 81.4472 122.635 83.1653 120.526 83.1653Z" stroke="#bb6228" stroke-width="3" stroke-miterlimit="22.9256" stroke-linecap="round" stroke-linejoin="round"/>
<path d="M41.1245 83.1655L47.2017 124.556C47.2017 128.922 50.7728 132.493 55.1391 132.493H105.674C110.04 132.493 113.611 128.922 113.611 124.556L119.688 83.1655" stroke="#bb6228" stroke-width="3" stroke-miterlimit="22.9256" stroke-linecap="round" stroke-linejoin="round"/>
<path d="M121.392 75.6116C122.01 74.1988 123.941 69.0019 127.824 52.5522C132.68 31.9847 123.855 33.2698 123.855 33.2698C123.855 33.2698 119.787 33.3905 115.066 41.775C114.576 42.6412 114.058 43.6635 113.526 44.8137V44.8208C112.809 46.3401 112.063 48.0795 111.303 49.9253C110.7 51.4234 110.082 52.9924 109.479 54.5827C108.67 56.7196 107.874 58.8992 107.129 60.9865C106.639 62.378 106.163 63.7198 105.73 64.9977C103.877 70.3508 102.592 74.3834 102.592 74.3834" stroke="#bb6228" stroke-width="3" stroke-miterlimit="22.9256" stroke-linecap="round" stroke-linejoin="round"/>
<path d="M107.115 60.9792L115.79 64.5361C115.79 64.5361 123.067 69.2786 116.855 68.7036C110.239 68.093 105.617 65.7218 105.617 65.7218" stroke="#bb6228" stroke-width="3" stroke-miterlimit="22.9256" stroke-linecap="round" stroke-linejoin="round"/>
<path d="M111.637 50.0813L118.169 52.7436C118.169 52.7436 125.439 57.4861 119.234 56.9111C114.782 56.4993 111.24 55.2924 109.387 54.5469" stroke="#bb6228" stroke-width="3" stroke-miterlimit="22.9256" stroke-linecap="round" stroke-linejoin="round"/>
<path d="M92.2129 75.512C92.4756 73.7301 93.2849 68.3202 94.3783 62.172C94.7687 59.9853 95.1876 57.7063 95.6349 55.4629C95.9686 53.7945 96.3164 52.1474 96.6643 50.5713C97.4311 47.1564 98.2333 44.0894 99.0214 41.9098C102.287 32.8578 106.277 32.0627 106.277 32.0627C106.277 32.0627 113.164 29.8547 113.526 44.8135V44.8206" stroke="#bb6228" stroke-width="3" stroke-miterlimit="22.9256" stroke-linecap="round" stroke-linejoin="round"/>
<path d="M93.6753 67.092C93.6753 67.092 98.3184 68.5688 104.63 68.2138" stroke="#bb6228" stroke-width="3" stroke-miterlimit="22.9256" stroke-linecap="round" stroke-linejoin="round"/>
<path d="M105.304 64.8555C104.261 64.245 103.508 64.245 103.508 64.245L94.9888 62.1648" stroke="#bb6228" stroke-width="3" stroke-miterlimit="22.9256" stroke-linecap="round" stroke-linejoin="round"/>
<path d="M97.0975 50.2021L103.892 52.2113C103.892 52.2113 112.859 55.1151 105.631 56.1445C101.208 56.7763 97.5803 55.8889 95.6279 55.4558" stroke="#bb6228" stroke-width="3" stroke-miterlimit="22.9256" stroke-linecap="round" stroke-linejoin="round"/>
<path d="M75.9973 54.5401C75.9973 54.5401 77.7154 47.5612 64.0416 47.689C64.0416 47.689 44.816 47.8736 39.6333 57.1811C39.6333 57.1811 34.266 64.1742 42.9417 66.6093L45.5117 75.5335" stroke="#bb6228" stroke-width="3" stroke-miterlimit="22.9256" stroke-linecap="round" stroke-linejoin="round"/>
<path d="M54.1806 48.8108C54.1806 48.8108 36.95 52.6801 34.8911 61.235C34.8911 61.235 33.6416 65.296 39.8253 67.4756L42.1185 75.5265" stroke="#bb6228" stroke-width="3" stroke-miterlimit="22.9256" stroke-linecap="round" stroke-linejoin="round"/>
<path d="M81.7412 65.672C81.7412 65.672 86.5192 62.1364 94.0093 63.4427" stroke="#bb6228" stroke-width="3" stroke-miterlimit="22.9256" stroke-linecap="round" stroke-linejoin="round"/>
<path d="M76.814 53.9507C76.814 53.9507 88.3863 55.5836 86.3274 63.7268" stroke="#bb6228" stroke-width="3" stroke-miterlimit="22.9256" stroke-linecap="round" stroke-linejoin="round"/>
<path d="M113.675 91.6353H64.042" stroke="#bb6228" stroke-width="3" stroke-miterlimit="22.9256" stroke-linecap="round" stroke-linejoin="round"/>
<path d="M110.863 102.398H61.2373" stroke="#bb6228" stroke-width="3" stroke-miterlimit="22.9256" stroke-linecap="round" stroke-linejoin="round"/>
<path d="M108.613 112.607H58.9868" stroke="#bb6228" stroke-width="3" stroke-miterlimit="22.9256" stroke-linecap="round" stroke-linejoin="round"/>
<path d="M106.838 123.093H57.2051" stroke="#bb6228" stroke-width="3" stroke-miterlimit="22.9256" stroke-linecap="round" stroke-linejoin="round"/>
<path d="M54.3081 113.729L56.8355 127.871" stroke="#bb6228" stroke-width="3" stroke-miterlimit="22.9256" stroke-linecap="round" stroke-linejoin="round"/>
<path d="M62.4512 99.5938L65.0496 127.495" stroke="#bb6228" stroke-width="3" stroke-miterlimit="22.9256" stroke-linecap="round" stroke-linejoin="round"/>
<path d="M110.65 87.5105L106.717 109.327" stroke="#bb6228" stroke-width="3" stroke-miterlimit="22.9256" stroke-linecap="round" stroke-linejoin="round"/>
<path d="M105.879 113.729L103.352 127.871" stroke="#bb6228" stroke-width="3" stroke-miterlimit="22.9256" stroke-linecap="round" stroke-linejoin="round"/>
<path d="M96.6289 110.172L95.1309 127.495" stroke="#bb6228" stroke-width="3" stroke-miterlimit="22.9256" stroke-linecap="round" stroke-linejoin="round"/>
<path d="M98.8794 87.7944L97.3813 105.117" stroke="#bb6228" stroke-width="3" stroke-miterlimit="22.9256" stroke-linecap="round" stroke-linejoin="round"/>
</svg>
