<svg width="164" height="164" viewBox="0 0 164 164" fill="none" xmlns="http://www.w3.org/2000/svg">
<circle cx="82" cy="82" r="80.5" stroke="#58585A" stroke-width="3"/>
<path d="M116.802 108.465L126.651 118.387C127.677 119.413 127.677 121.079 126.651 122.112L122.105 126.658C121.079 127.684 119.413 127.684 118.38 126.658L108.531 116.736" stroke="#58585A" stroke-width="3" stroke-miterlimit="10" stroke-linecap="round" stroke-linejoin="round"/>
<path d="M75.7886 67.4524L95.6403 87.966" stroke="#58585A" stroke-width="3" stroke-miterlimit="10" stroke-linecap="round" stroke-linejoin="round"/>
<path d="M46.626 55.2097L36.7693 45.0402C35.7436 44.0145 35.7436 42.3487 36.7693 41.3157L41.3157 36.7693C42.3414 35.7436 44.0072 35.7436 45.0402 36.7693L54.8969 46.9388" stroke="#58585A" stroke-width="3" stroke-miterlimit="10" stroke-linecap="round" stroke-linejoin="round"/>
<path d="M87.3697 96.237L67.5181 75.7161" stroke="#58585A" stroke-width="3" stroke-miterlimit="10" stroke-linecap="round" stroke-linejoin="round"/>
<path d="M45.9207 86.1257C43.2947 83.4996 43.2947 79.2369 45.9207 76.6108L76.6039 45.9277C79.2299 43.3016 83.4927 43.3016 86.1187 45.9277C88.7447 48.5537 88.7447 52.8165 86.1187 55.4425L55.4355 86.1257C52.8095 88.7517 48.5467 88.7517 45.9207 86.1257Z" stroke="#58585A" stroke-width="3" stroke-miterlimit="10" stroke-linecap="round" stroke-linejoin="round"/>
<path d="M51.769 70.6022C49.143 73.2283 44.8802 73.2283 42.2542 70.6022C39.6282 67.9762 39.6282 63.7134 42.2542 61.0874L61.0802 42.2614C63.7062 39.6354 67.969 39.6354 70.595 42.2614C73.2211 44.8874 73.2211 49.1502 70.595 51.7762" stroke="#58585A" stroke-width="3" stroke-miterlimit="10" stroke-linecap="round" stroke-linejoin="round"/>
<path d="M77.2947 117.5C79.9208 120.126 84.1835 120.126 86.8096 117.5L117.493 86.8166C120.119 84.1906 120.119 79.9278 117.493 77.3018C114.867 74.6758 110.604 74.6758 107.978 77.3018L77.2947 107.985C74.6687 110.611 74.6687 114.874 77.2947 117.5Z" stroke="#58585A" stroke-width="3" stroke-miterlimit="10" stroke-linecap="round" stroke-linejoin="round"/>
<path d="M92.8182 111.651C90.1921 114.277 90.1921 118.54 92.8182 121.166C95.4442 123.792 99.707 123.792 102.333 121.166L121.159 102.34C123.785 99.7142 123.785 95.4514 121.159 92.8254C118.533 90.1993 114.27 90.1993 111.644 92.8254" stroke="#58585A" stroke-width="3" stroke-miterlimit="10" stroke-linecap="round" stroke-linejoin="round"/>
</svg>
