<svg width="164" height="164" viewBox="0 0 164 164" fill="none" xmlns="http://www.w3.org/2000/svg">
<path d="M62.3228 49.7172C63.6291 48.993 65.1271 48.5813 66.7245 48.5813C66.8381 48.5813 66.9446 48.6097 67.0582 48.6168C66.8665 47.8784 66.7245 47.1117 66.7245 46.3094C66.7245 41.2829 70.7996 37.2078 75.8261 37.2078C80.8526 37.2078 84.9278 41.2829 84.9278 46.3094C84.9278 47.1117 84.7929 47.8784 84.5941 48.6168C84.7077 48.6097 84.8142 48.5813 84.9278 48.5813C89.9543 48.5813 94.0294 52.6564 94.0294 57.6829C94.0294 62.7094 89.9543 66.7846 84.9278 66.7846C79.9013 66.7846 71.2753 66.7846 71.2753 66.7846" stroke="#58585A" stroke-width="3" stroke-miterlimit="10" stroke-linecap="round" stroke-linejoin="round"/>
<path d="M75.8262 48.5813V84.9879" stroke="#58585A" stroke-width="3" stroke-miterlimit="10" stroke-linecap="round" stroke-linejoin="round"/>
<path d="M82.6489 55.4038L75.8262 59.9546" stroke="#58585A" stroke-width="3" stroke-miterlimit="10" stroke-linecap="round" stroke-linejoin="round"/>
<path d="M39.4195 59.9548C39.5331 59.9548 39.6396 59.9832 39.7532 59.9903C39.5615 59.2519 39.4195 58.4852 39.4195 57.6829C39.4195 52.6565 43.4947 48.5813 48.5212 48.5813C53.5477 48.5813 57.6228 52.6565 57.6228 57.6829C57.6228 58.4852 57.4879 59.2519 57.2891 59.9903C57.4027 59.9832 57.5092 59.9548 57.6228 59.9548C62.6493 59.9548 66.7245 64.03 66.7245 69.0564C66.7245 74.0829 62.6493 78.1581 57.6228 78.1581C52.5963 78.1581 44.446 78.1581 39.4195 78.1581C34.393 78.1581 30.3179 74.0829 30.3179 69.0564C30.3179 64.03 34.393 59.9548 39.4195 59.9548Z" stroke="#58585A" stroke-width="3" stroke-miterlimit="10" stroke-linecap="round" stroke-linejoin="round"/>
<path d="M48.5215 59.9548V96.3614" stroke="#58585A" stroke-width="3" stroke-miterlimit="10" stroke-linecap="round" stroke-linejoin="round"/>
<path d="M55.3513 66.7844L48.5215 71.3352" stroke="#58585A" stroke-width="3" stroke-miterlimit="10" stroke-linecap="round" stroke-linejoin="round"/>
<path d="M41.6982 64.5056L48.5209 69.0564" stroke="#58585A" stroke-width="3" stroke-miterlimit="10" stroke-linecap="round" stroke-linejoin="round"/>
<path d="M65.5886 128.217C52.5041 122.182 36.672 109.311 57.6229 101.665C79.8658 93.5499 101.917 85.073 83.4298 73.6072" stroke="#58585A" stroke-width="3" stroke-miterlimit="10" stroke-linecap="round" stroke-linejoin="round"/>
<path d="M107.263 127.94C90.4581 121.934 67.5833 113.017 81.9883 103.376C85.9711 100.706 89.2227 98.2216 91.7573 95.8503" stroke="#58585A" stroke-width="3" stroke-miterlimit="10" stroke-linecap="round" stroke-linejoin="round"/>
<path d="M107.682 78.1579C107.795 78.1579 107.902 78.1863 108.015 78.1934C107.824 77.4551 107.682 76.6883 107.682 75.8861C107.682 70.8596 111.757 66.7844 116.783 66.7844C121.81 66.7844 125.885 70.8596 125.885 75.8861C125.885 76.6883 125.75 77.4551 125.551 78.1934C125.665 78.1863 125.771 78.1579 125.885 78.1579C130.912 78.1579 134.987 82.2331 134.987 87.2596C134.987 92.2861 130.912 96.3612 125.885 96.3612C120.859 96.3612 112.708 96.3612 107.682 96.3612C102.655 96.3612 98.5801 92.2861 98.5801 87.2596C98.5801 82.2331 102.655 78.1579 107.682 78.1579Z" stroke="#58585A" stroke-width="3" stroke-miterlimit="10" stroke-linecap="round" stroke-linejoin="round"/>
<path d="M96.8906 47.6299C98.1898 44.1937 101.512 41.7515 105.403 41.7515C110.429 41.7515 114.505 45.8266 114.505 50.8531C114.505 51.6554 114.37 52.4221 114.171 53.1605C114.285 53.1534 114.391 53.125 114.505 53.125C119.531 53.125 123.606 57.2001 123.606 62.2266" stroke="#58585A" stroke-width="3" stroke-miterlimit="10" stroke-linecap="round" stroke-linejoin="round"/>
<path d="M116.784 78.158V114.565" stroke="#58585A" stroke-width="3" stroke-miterlimit="10" stroke-linecap="round" stroke-linejoin="round"/>
<path d="M123.606 84.9878L116.784 89.5386" stroke="#58585A" stroke-width="3" stroke-miterlimit="10" stroke-linecap="round" stroke-linejoin="round"/>
<circle cx="82" cy="82" r="80.5" stroke="#58585A" stroke-width="3"/>
</svg>
