<svg width="159" height="159" viewBox="0 0 159 159" fill="none" xmlns="http://www.w3.org/2000/svg">
<path d="M79.568 157C122.37 157 157.068 122.302 157.068 79.5C157.068 36.6979 122.37 2 79.568 2C36.7659 2 2.06787 36.6979 2.06787 79.5C2.06787 122.302 36.7659 157 79.568 157Z" stroke="white" stroke-width="3" stroke-miterlimit="10" stroke-linecap="round" stroke-linejoin="round"/>
<path d="M56.4984 110.868V111.368H56.9984H71.7603H72.2603V110.868V48.13V47.63H71.7603H56.9984H56.4984V48.13V110.868ZM73.7473 114.2H55.0111C54.1517 114.2 53.5239 113.573 53.5239 112.713V46.0008C53.5239 45.1415 54.1517 44.5137 55.0111 44.5137H73.6054C74.4648 44.5137 75.0926 45.1415 75.0926 46.0008V112.713C75.0926 113.597 74.4409 114.2 73.7473 114.2Z" fill="white" stroke="white"/>
<path d="M87.0164 110.868V111.368H87.5164H102.278H102.778V110.868V48.13V47.63H102.278H87.5164H87.0164V48.13V110.868ZM104.123 114.2H85.5292C84.6698 114.2 84.042 113.573 84.042 112.713V46.0008C84.042 45.1415 84.6698 44.5137 85.5292 44.5137H104.123C104.983 44.5137 105.611 45.1415 105.611 46.0008V112.713C105.611 113.573 104.983 114.2 104.123 114.2Z" fill="white" stroke="white"/>
</svg>
