<svg width="159" height="159" viewBox="0 0 159 159" fill="none" xmlns="http://www.w3.org/2000/svg">
<path d="M79.5678 157C122.37 157 157.068 122.302 157.068 79.5C157.068 36.6979 122.37 2 79.5678 2C36.7658 2 2.06787 36.6979 2.06787 79.5C2.06787 122.302 36.7658 157 79.5678 157Z" stroke="white" stroke-width="3" stroke-miterlimit="10" stroke-linecap="round" stroke-linejoin="round"/>
<path d="M55.8812 121.656L55.8335 121.686L55.7937 121.726C55.7086 121.811 55.5923 121.884 55.4648 121.935C55.3351 121.987 55.2209 122.005 55.1537 122.005C54.9831 122.005 54.6394 121.902 54.3838 121.774C54.0004 121.583 53.6665 121.056 53.6665 120.518V38.3342C53.6665 37.7965 54.0004 37.2698 54.3838 37.0781C54.5841 36.9779 54.859 36.918 55.1537 36.918C55.4388 36.918 55.7053 36.9741 55.9038 37.0684L121.156 78.0637C121.587 78.3933 121.792 78.8095 121.792 79.3552C121.792 79.9009 121.587 80.3171 121.156 80.6467L55.8812 121.656ZM57.2647 41.4591L56.499 40.979V41.8827V116.97V117.875L57.2654 117.393L117.023 79.7784L117.696 79.3544L117.022 78.9316L57.2647 41.4591Z" fill="white" stroke="white"/>
</svg>
