<svg width="106" height="106" viewBox="0 0 106 106" fill="none" xmlns="http://www.w3.org/2000/svg">
<path fill-rule="evenodd" clip-rule="evenodd" d="M63 9.345C63 5.84 60.16 3 56.655 3H49.35C45.84 3 43 5.84 43 9.345C43 12.235 41.02 14.715 38.325 15.775C37.9 15.945 37.475 16.125 37.06 16.305C34.405 17.455 31.25 17.105 29.2 15.06C26.7225 12.5842 22.7075 12.5842 20.23 15.06L15.06 20.23C12.5842 22.7075 12.5842 26.7225 15.06 29.2C17.11 31.25 17.46 34.4 16.3 37.06C16.1177 37.4786 15.9427 37.9003 15.775 38.325C14.715 41.02 12.235 43 9.345 43C5.84 43 3 45.84 3 49.345V56.655C3 60.16 5.84 63 9.345 63C12.235 63 14.715 64.98 15.775 67.675C15.945 68.1 16.125 68.525 16.3 68.94C17.455 71.595 17.105 74.75 15.06 76.8C12.5842 79.2775 12.5842 83.2925 15.06 85.77L20.23 90.94C22.7075 93.4158 26.7225 93.4158 29.2 90.94C31.25 88.89 34.4 88.54 37.06 89.695C37.475 89.88 37.9 90.055 38.325 90.225C41.02 91.285 43 93.765 43 96.655C43 100.16 45.84 103 49.345 103H56.655C60.16 103 63 100.16 63 96.655C63 93.765 64.98 91.285 67.675 90.22C68.1 90.055 68.525 89.88 68.94 89.7C71.595 88.54 74.75 88.895 76.795 90.94C77.985 92.1305 79.5993 92.7993 81.2825 92.7993C82.9657 92.7993 84.58 92.1305 85.77 90.94L90.94 85.77C93.4158 83.2925 93.4158 79.2775 90.94 76.8C88.89 74.75 88.54 71.6 89.695 68.94C89.88 68.525 90.055 68.1 90.225 67.675C91.285 64.98 93.765 63 96.655 63C100.16 63 103 60.16 103 56.655V49.35C103 45.845 100.16 43.005 96.655 43.005C93.765 43.005 91.285 41.025 90.22 38.33C90.0525 37.9053 89.8774 37.4835 89.695 37.065C88.545 34.41 88.895 31.255 90.94 29.205C93.4158 26.7275 93.4158 22.7125 90.94 20.235L85.77 15.065C83.2925 12.5892 79.2775 12.5892 76.8 15.065C74.75 17.115 71.6 17.465 68.94 16.31C68.5214 16.126 68.0997 15.9493 67.675 15.78C64.98 14.715 63 12.235 63 9.35V9.345Z" stroke="white" stroke-width="6"/>
<path fill-rule="evenodd" clip-rule="evenodd" d="M73 53C73 64.0457 64.0457 73 53 73C41.9543 73 33 64.0457 33 53C33 41.9543 41.9543 33 53 33C64.0457 33 73 41.9543 73 53Z" stroke="white" stroke-width="6"/>
</svg>
