<svg width="164" height="164" viewBox="0 0 164 164" fill="none" xmlns="http://www.w3.org/2000/svg">
<circle cx="82" cy="82" r="80.5" stroke="#ffefc7" stroke-width="0"/>
<path d="M112.173 47.6654C112.173 42.4354 107.935 38.1891 102.697 38.1891H60.5935C55.3635 38.1891 51.1172 42.4274 51.1172 47.6654" stroke="#ffefc7" stroke-width="3" stroke-miterlimit="10" stroke-linecap="round" stroke-linejoin="round"/>
<path d="M106.032 51.6158H57.2593V75.0227H106.032V51.6158Z" stroke="#ffefc7" stroke-width="3" stroke-miterlimit="10" stroke-linecap="round" stroke-linejoin="round"/>
<path d="M61.353 111.313L52.7563 134.064" stroke="#ffefc7" stroke-width="3" stroke-miterlimit="10" stroke-linecap="round" stroke-linejoin="round"/>
<path d="M101.946 111.313L110.542 134.064" stroke="#ffefc7" stroke-width="3" stroke-miterlimit="10" stroke-linecap="round" stroke-linejoin="round"/>
<path d="M66.0718 116.271H97.2277" stroke="#ffefc7" stroke-width="3" stroke-miterlimit="10" stroke-linecap="round" stroke-linejoin="round"/>
<path d="M62.8809 126.515H100.418" stroke="#ffefc7" stroke-width="3" stroke-miterlimit="10" stroke-linecap="round" stroke-linejoin="round"/>
<path d="M99.5701 38.1891L98.0987 32.4553C97.8108 31.3198 96.7872 30.5281 95.6196 30.5281H67.6785C66.5109 30.5281 65.4873 31.3198 65.1995 32.4553L63.728 38.1891" stroke="#ffefc7" stroke-width="3" stroke-miterlimit="10" stroke-linecap="round" stroke-linejoin="round"/>
<path d="M112.173 47.6655V85.9786C112.173 87.9699 110.558 89.5852 108.567 89.5852H91.2933C89.0302 89.5852 87.1909 91.4245 87.1909 93.6876C87.1909 95.9508 89.0302 97.79 91.2933 97.79H101.297L104.04 89.5852" stroke="#ffefc7" stroke-width="3" stroke-miterlimit="10" stroke-linecap="round" stroke-linejoin="round"/>
<path d="M51.125 47.6655V85.9786C51.125 87.9699 52.7404 89.5852 54.7316 89.5852H72.0049C74.268 89.5852 76.1073 91.4245 76.1073 93.6876C76.1073 95.9508 74.268 97.79 72.0049 97.79H62.0008L59.2578 89.5852" stroke="#ffefc7" stroke-width="3" stroke-miterlimit="10" stroke-linecap="round" stroke-linejoin="round"/>
<path d="M112.133 86.4344L109.166 101.653C108.335 104.124 106.016 105.795 103.409 105.795H59.8896C57.2826 105.795 54.9635 104.132 54.1318 101.653L51.125 86.7863" stroke="#ffefc7" stroke-width="3" stroke-miterlimit="10" stroke-linecap="round" stroke-linejoin="round"/>
</svg>
