 <svg  id="ParksRiverwalk" xmlns="http://www.w3.org/2000/svg"
      xmlns:xlink="http://www.w3.org/1999/xlink" viewBox="0 0 4500 2531.25">
      <defs>
        <style>
          .cls-1 {
            letter-spacing: .17em;
          }

          .cls-2 {
            letter-spacing: .17em;
          }

          .cls-3 {
            stroke-dasharray: 0 0 4.59 4.59;
          }

          .cls-3,
          .cls-4,
          .cls-5,
          .cls-6,
          .cls-7,
          .cls-8,
          .cls-9,
          .cls-10,
          .cls-11,
          .cls-12,
          .cls-13,
          .cls-14,
          .cls-15,
          .cls-16,
          .cls-17,
          .cls-18,
          .cls-19,
          .cls-20,
          .cls-21,
          .cls-22,
          .cls-23,
          .cls-24,
          .cls-25,
          .cls-26,
          .cls-27,
          .cls-28,
          .cls-29,
          .cls-30,
          .cls-31,
          .cls-32 {
            fill: none;
          }

          .cls-3,
          .cls-4,
          .cls-5,
          .cls-6,
          .cls-7,
          .cls-8,
          .cls-9,
          .cls-10,
          .cls-11,
          .cls-12,
          .cls-13,
          .cls-14,
          .cls-15,
          .cls-16,
          .cls-17,
          .cls-18,
          .cls-19,
          .cls-20,
          .cls-21,
          .cls-22,
          .cls-23,
          .cls-24,
          .cls-26,
          .cls-27,
          .cls-28,
          .cls-29,
          .cls-30,
          .cls-31,
          .cls-32 {
            stroke: #54565a;
          }

          .cls-3,
          .cls-4,
          .cls-5,
          .cls-6,
          .cls-7,
          .cls-8,
          .cls-9,
          .cls-10,
          .cls-11,
          .cls-12,
          .cls-13,
          .cls-14,
          .cls-15,
          .cls-16,
          .cls-17,
          .cls-18,
          .cls-19,
          .cls-21,
          .cls-22,
          .cls-23,
          .cls-24,
          .cls-26,
          .cls-27,
          .cls-28,
          .cls-29,
          .cls-30,
          .cls-31,
          .cls-32 {
            stroke-width: 1.13px;
          }

          .cls-4 {
            stroke-dasharray: 0 0 4.78 4.78;
          }

          .cls-33 {
            letter-spacing: 0em;
          }

          .cls-34 {
            letter-spacing: .11em;
          }

          .cls-35 {
            letter-spacing: .17em;
          }

          .cls-36 {
            letter-spacing: .16em;
          }

          .cls-37 {
            letter-spacing: .16em;
          }

          .cls-38 {
            letter-spacing: .17em;
          }

          .cls-39 {
            letter-spacing: .17em;
          }

          .cls-6 {
            stroke-dasharray: 0 0 4.94 4.94;
          }

          .cls-40 {
            font-family: SweetSansPro-Medium, 'Sweet Sans Pro';
            font-size: 20.26px;
          }

          .cls-40,
          .cls-41 {
            fill: #54565a;
          }

          .cls-7 {
            stroke-dasharray: 0 0 4.53 4.53;
          }

          .cls-42 {
            letter-spacing: .17em;
          }

          .cls-8 {
            stroke-dasharray: 0 0 4.26 4.26;
          }

          .cls-9 {
            stroke-dasharray: 0 0 4.79 4.79;
          }

          .cls-10 {
            stroke-dasharray: 0 0 4.49 4.49;
          }

          .cls-43 {
            letter-spacing: .16em;
          }

          .cls-44 {
            letter-spacing: .16em;
          }

          .cls-11 {
            stroke-dasharray: 0 0 4.11 4.11;
          }

          .cls-45 {
            letter-spacing: .13em;
          }

          .cls-46 {
            letter-spacing: .16em;
          }

          .cls-47 {
            letter-spacing: .16em;
          }

          .cls-48 {
            letter-spacing: .17em;
          }

          .cls-12 {
            stroke-dasharray: 0 0 4.56 4.56;
          }

          .cls-13 {
            stroke-dasharray: 0 0 4.48 4.48;
          }

          .cls-14 {
            stroke-dasharray: 0 0 5.19 5.19;
          }

          .cls-15 {
            stroke-dasharray: 0 0 4.7 4.7;
          }

          .cls-49 {
            letter-spacing: .17em;
          }

          .cls-16 {
            stroke-dasharray: 0 0 4.66 4.66;
          }

          .cls-50 {
            letter-spacing: .13em;
          }

          .cls-17 {
            stroke-dasharray: 0 0 4.46 4.46;
          }

          .cls-51 {
            letter-spacing: .13em;
          }

          .cls-18 {
            stroke-dasharray: 0 0 4.49 4.49;
          }

          .cls-52 {
            clip-path: url(#clippath);
          }

          .cls-19 {
            stroke-dasharray: 0 0 3.49 3.49;
          }

          .cls-21 {
            stroke-dasharray: 0 0 4.82 4.82;
          }

          .cls-22 {
            stroke-dasharray: 0 0 4.75 4.75;
          }

          .cls-23 {
            stroke-dasharray: 0 0 4.74 4.74;
          }

          .cls-24 {
            stroke-dasharray: 0 0 4.61 4.61;
          }

          .cls-53 {
            clip-path: url(#clippath-3);
          }

          .cls-26 {
            stroke-dasharray: 0 0 4.51 4.51;
          }

          .cls-54 {
            letter-spacing: .16em;
          }

          .cls-27 {
            stroke-dasharray: 0 0 4.47 4.47;
          }

          .cls-28 {
            stroke-dasharray: 0 0 4.33 4.33;
          }

          .cls-55 {
            letter-spacing: .13em;
          }

          .cls-29 {
            stroke-dasharray: 0 0 4.96 4.96;
          }

          .cls-30 {
            stroke-dasharray: 0 0 4.08 4.08;
          }

          .cls-31 {
            stroke-dasharray: 0 0 4.26 4.26;
          }

          .cls-32 {
            stroke-dasharray: 0 0 4.56 4.56;
          }
        </style>
        <clipPath id="clippath">
          <rect class="cls-25" x="-362.22" y="0" width="4862.22" height="2735" />
        </clipPath>
        <clipPath id="clippath-1">
          <rect class="cls-25" x="-362.22" y="0" width="4862.22" height="2735" />
        </clipPath>
        <clipPath id="clippath-3">
          <rect class="cls-25" x="-362.22" y="0" width="4862.22" height="2735" />
        </clipPath>
      </defs>
      <g class="cls-52"><text class="cls-40" transform="translate(1790.73 2378)" (click)="openModal()">
          <tspan class="cls-35" x="0" y="0">NE</tspan>
          <tspan class="cls-43" x="37.86" y="0">W</tspan>
          <tspan class="cls-47" x="61.51" y="0"> </tspan>
          <tspan class="cls-34" x="69.31" y="0">F</tspan>
          <tspan class="cls-49" x="84.93" y="0">AR</tspan>
          <tspan class="cls-44" x="122.99" y="0">M</tspan>
          <tspan class="cls-47" x="144.59" y="0"> </tspan>
          <tspan class="cls-50" x="152.39" y="0">P</tspan>
          <tspan class="cls-1" x="170.14" y="0">A</tspan>
          <tspan class="cls-49" x="188.88" y="0">R</tspan>
          <tspan class="cls-33" x="208.18" y="0">K</tspan>
        </text>
        <polyline class="cls-5" points="1877.72 2404.2 1902.62 2429.09 1927.51 2404.2" />
        <g class="cls-53" (click)="openModal()">
          <line class="cls-11" x1="2481.76" y1="1676.58" x2="2507.23" y2="1650.48" />
          <path class="cls-19" d="M2526.81,1638.31c4.14-.66,8.72-.34,12.71,2.39" />
          <path class="cls-15" d="M2551.14,1664.17c6.69,24.32,13.97,64.02,23.8,86.01" />
          <path class="cls-24" d="M2590.78,1774.92c21,32.3,59.22,100.73,76.13,163.47" />
          <path class="cls-27" d="M2673.68,1966.22c16.25,65.53,37.35,124.61,35.74,171.1" />
          <path class="cls-3" d="M2706.08,2165.87c-7.83,50.13-24.24,125.72-27.7,178.08" />
          <path class="cls-16" d="M2677.57,2373.25c-.15,46.43,3.01,109.62,4.43,135.48" />
          <path class="cls-5"
            d="M2686.68,2729.04l.11,5.96m-4.46-220.38c.21,3.78,.34,5.89,.34,5.89l.11,5.96m-4.74-176.7c-.1,1.98-.17,3.92-.23,5.81-.05,1.91-.1,3.88-.13,5.9m31.42-218.49c-.15,1.9-.33,3.77-.57,5.63-.23,1.86-.49,3.79-.76,5.76m-39.41-210.33c.47,1.9,.93,3.79,1.36,5.68,.42,1.84,.85,3.68,1.28,5.51m-93.44-199.7c1.05,1.89,2.12,3.57,3.22,5,1.01,1.31,2.16,2.88,3.45,4.71m-41.48-121.56c.88,1.04,1.7,2.25,2.46,3.66,.79,1.47,1.58,3.31,2.37,5.46m-36.73-6.05l3.64-3.73s1.5-.99,3.89-2.08m-47.55,46.82l3.64-3.73" />
          <path class="cls-31" d="M2227.82,577.96c-4.75,32.36-15.18,105.76-18.02,144.61" />
          <path class="cls-6" d="M2208.68,752.1c-.27,21.01,.91,33.77,4.69,43.27" />
          <path class="cls-28" d="M2228.68,819.82c2.36,5.05,3.57,10.23,3.38,15.93" />
          <path class="cls-14" d="M2225.76,865.73c-1.05,6.64-1.57,13.37-1.2,19.65" />
          <path class="cls-9" d="M2249.39,941.85c2.5,3.72,4.63,8.96,5.69,17.09" />
          <path class="cls-22" d="M2256.2,989.06c1.35,34.34,5.95,87.23,12.35,113.38" />
          <path class="cls-4" d="M2278.75,1130.81c4.5,13.81,8.28,29.37,11.85,40.72" />
          <path class="cls-29" d="M2302.9,1199.92c8.24,17.83,20.21,43.97,29.69,62.41" />
          <path class="cls-21" d="M2333.91,1289.67c-12.75,12.75-42.8,24.47-59.43,30.29" />
          <path class="cls-5"
            d="M2268.71,1321.92c-3.63,1.21-5.81,1.87-5.81,1.87m72.62-55.89c1.05,1.97,2.07,3.82,3.02,5.5,1.1,1.94,1.5,3.9,1.31,5.86m-47.31-102c.78,2.15,1.56,4.03,2.34,5.58,.71,1.42,1.63,3.34,2.73,5.66m-27.47-80.28c.69,2.22,1.39,4.11,2.11,5.62,.83,1.75,1.63,3.61,2.42,5.56m-19.03-154.44c.1,1.89,.16,3.91,.16,6.06,0,1.85,.02,3.87,.06,6.01m-22.42-55.43c.81,2.58,1.8,4.98,3.24,7.38,1.03,1.72,2.49,3.04,4.14,4.38m-15.49-41.46c.4,2.22,.94,4.35,1.65,6.36,.98,2.79,1.77,5.34,2.43,7.7m2.09-64.78c-.31,1.72-.73,3.49-1.28,5.33-.61,2.04-1.2,4.16-1.76,6.34m-12.33-51.88c1.06,1.79,2.25,3.48,3.58,5.12,1.19,1.46,2.31,2.91,3.35,4.34m-13.59-82.5c-.11,1.91-.2,3.71-.26,5.39-.08,2.15-.15,4.23-.21,6.25m21.23-177.65s-.29,1.91-.8,5.34" />
          <path class="cls-8" d="M1808.85,183.76c-7.14,25.69-20.69,76.45-23.18,99.81" />
          <path class="cls-30" d="M1799.68,295.76c17.14-5.81,46.16-25.01,66.56-39.19" />
          <path class="cls-32" d="M1888.9,240.7c25.38-17.19,60.48-36.24,103.21-24.12" />
          <path class="cls-18" d="M2018.68,227.1c53.72,24.74,135.6,74.76,177.6,88.95" />
          <path class="cls-7" d="M2224.12,322.16c46.76,7.73,135.22,16.12,196.9-15.22" />
          <path class="cls-13" d="M2445.25,292.04c58.34-40.59,99.04-97.73,159.07-116.42" />
          <path class="cls-10" d="M2631.91,168.95c59.68-13.64,108.21-26.57,171.2-41.77" />
          <path class="cls-17" d="M2830.62,120.59c87.94-20.91,312.13-72.25,440.07-60.67" />
          <path class="cls-26" d="M3298.89,63.3c106.21,13.76,79.42,13.82,128.84,23.92" />
          <path class="cls-12" d="M3455.88,92.96c73.67,16.34,228.24,60.07,287.82,61.15" />
          <path class="cls-23" d="M3773.01,150.85c43.65-7.85,107.98-25.44,133.99-32.75" />
          <path class="cls-5"
            d="M3912.78,116.47c3.7-1.05,5.77-1.65,5.77-1.65m-169.07,39.25c2.08-.08,4-.22,5.76-.44,1.9-.24,3.89-.51,5.94-.82m-327.86-64.46c1.78,.35,3.64,.71,5.6,1.08,1.8,.34,3.69,.72,5.66,1.12m-168.28-30.08c1.89,.21,3.76,.43,5.6,.66,1.92,.24,3.81,.49,5.66,.72m-478.94,64c1.83-.44,3.67-.88,5.53-1.32,1.73-.42,3.56-.86,5.49-1.32m-209.88,50.85c1.82-.48,3.65-.93,5.51-1.34,1.86-.42,3.71-.83,5.55-1.24m-194.74,132.79c1.67-.93,3.32-1.89,4.95-2.89,1.61-.99,3.21-1.99,4.8-3.01m-234.13,19.39c1.95,.55,3.79,1.01,5.51,1.35,1.74,.35,3.62,.72,5.62,1.09m-215.21-101.86c1.79,.61,3.6,1.28,5.42,2.01,1.7,.68,3.45,1.4,5.25,2.17m-137.82,31.13c1.47-1.03,2.88-2.02,4.22-2.97,1.52-1.07,3.09-2.19,4.72-3.34m-94.13,41.65c-.06,2.35,.09,4.17,.48,5.35,.58,1.73,1.9,2.71,3.82,3.06m23.67-129.18s-.54,1.88-1.48,5.19" />
          <path class="cls-41"
            d="M2331.92,2278.11c6.15,0,11.14-4.99,11.14-11.14s-4.99-11.15-11.14-11.15-11.14,4.99-11.14,11.15,4.99,11.14,11.14,11.14" />
          <path class="cls-20"
            d="M2331.92,2278.11c6.15,0,11.14-4.99,11.14-11.14s-4.99-11.15-11.14-11.15-11.14,4.99-11.14,11.15,4.99,11.14,11.14,11.14Z" />
          <path class="cls-41"
            d="M2261.54,1337.44c6.15,0,11.14-4.99,11.14-11.14s-4.99-11.15-11.14-11.15-11.14,4.99-11.14,11.15,4.99,11.14,11.14,11.14" />
          <path class="cls-20"
            d="M2261.54,1337.44c6.15,0,11.14-4.99,11.14-11.14s-4.99-11.15-11.14-11.15-11.14,4.99-11.14,11.15,4.99,11.14,11.14,11.14Z" />
          <path class="cls-41"
            d="M2117.46,1174.15c6.15,0,11.14-4.99,11.14-11.14s-4.99-11.15-11.14-11.15-11.14,4.99-11.14,11.15,4.99,11.14,11.14,11.14" />
          <path class="cls-20"
            d="M2117.46,1174.15c6.15,0,11.14-4.99,11.14-11.14s-4.99-11.15-11.14-11.15-11.14,4.99-11.14,11.15,4.99,11.14,11.14,11.14Z" />
          <path class="cls-41"
            d="M2272.76,1133.93c6.15,0,11.14-4.99,11.14-11.14s-4.99-11.15-11.14-11.15-11.14,4.99-11.14,11.15,4.99,11.14,11.14,11.14" />
          <path class="cls-20"
            d="M2272.76,1133.93c6.15,0,11.14-4.99,11.14-11.14s-4.99-11.15-11.14-11.15-11.14,4.99-11.14,11.15,4.99,11.14,11.14,11.14Z" />
          <path class="cls-41"
            d="M2230.8,568.54c6.15,0,11.14-4.99,11.14-11.14s-4.99-11.15-11.14-11.15-11.14,4.99-11.14,11.15,4.99,11.14,11.14,11.14" />
          <path class="cls-20"
            d="M2230.8,568.54c6.15,0,11.14-4.99,11.14-11.14s-4.99-11.15-11.14-11.15-11.14,4.99-11.14,11.15,4.99,11.14,11.14,11.14Z" />
          <path class="cls-41"
            d="M1813.24,178.68c6.15,0,11.14-4.99,11.14-11.14s-4.99-11.15-11.14-11.15-11.14,4.99-11.14,11.15,4.99,11.14,11.14,11.14" />
          <path class="cls-20"
            d="M1813.24,178.68c6.15,0,11.14-4.99,11.14-11.14s-4.99-11.15-11.14-11.15-11.14,4.99-11.14,11.15,4.99,11.14,11.14,11.14Z" />
          <path class="cls-41"
            d="M3917.84,123.16c6.15,0,11.14-4.99,11.14-11.14s-4.99-11.15-11.14-11.15-11.14,4.99-11.14,11.15,4.99,11.14,11.14,11.14" />
          <path class="cls-20"
            d="M3917.84,123.16c6.15,0,11.14-4.99,11.14-11.14s-4.99-11.15-11.14-11.15-11.14,4.99-11.14,11.15,4.99,11.14,11.14,11.14Z" />
          <path class="cls-41"
            d="M2863.8,617.71c6.15,0,11.14-4.99,11.14-11.14s-4.99-11.15-11.14-11.15-11.14,4.99-11.14,11.15,4.99,11.14,11.14,11.14" />
          <path class="cls-20"
            d="M2863.8,617.71c6.15,0,11.14-4.99,11.14-11.14s-4.99-11.15-11.14-11.15-11.14,4.99-11.14,11.15,4.99,11.14,11.14,11.14Z" />
          <path class="cls-41"
            d="M1625.2,604.24c6.15,0,11.14-4.99,11.14-11.14s-4.99-11.15-11.14-11.15-11.14,4.99-11.14,11.15,4.99,11.14,11.14,11.14" />
          <path class="cls-20"
            d="M1625.2,604.24c6.15,0,11.14-4.99,11.14-11.14s-4.99-11.15-11.14-11.15-11.14,4.99-11.14,11.15,4.99,11.14,11.14,11.14Z" />
          <path class="cls-41"
            d="M2158.54,432.84c6.15,0,11.14-4.99,11.14-11.14s-4.99-11.15-11.14-11.15-11.14,4.99-11.14,11.15,4.99,11.14,11.14,11.14" />
          <path class="cls-20"
            d="M2158.54,432.84c6.15,0,11.14-4.99,11.14-11.14s-4.99-11.15-11.14-11.15-11.14,4.99-11.14,11.15,4.99,11.14,11.14,11.14Z" />
          <path class="cls-41"
            d="M3406.42,1600.62c6.15,0,11.14-4.99,11.14-11.14s-4.99-11.15-11.14-11.15-11.14,4.99-11.14,11.15,4.99,11.14,11.14,11.14" />
          <path class="cls-20"
            d="M3406.42,1600.62c6.15,0,11.14-4.99,11.14-11.14s-4.99-11.15-11.14-11.15-11.14,4.99-11.14,11.15,4.99,11.14,11.14,11.14Z" />
          <path class="cls-41"
            d="M3045.49,1830.8c6.15,0,11.14-4.99,11.14-11.14s-4.99-11.15-11.14-11.15-11.14,4.99-11.14,11.15,4.99,11.14,11.14,11.14" />
          <path class="cls-20"
            d="M3045.49,1830.8c6.15,0,11.14-4.99,11.14-11.14s-4.99-11.15-11.14-11.15-11.14,4.99-11.14,11.15,4.99,11.14,11.14,11.14Z" />
          <path class="cls-41"
            d="M2481.79,1693.63c6.15,0,11.14-4.99,11.14-11.14s-4.99-11.15-11.14-11.15-11.14,4.99-11.14,11.15,4.99,11.14,11.14,11.14" />
          <path class="cls-20"
            d="M2481.79,1693.63c6.15,0,11.14-4.99,11.14-11.14s-4.99-11.15-11.14-11.15-11.14,4.99-11.14,11.15,4.99,11.14,11.14,11.14Z" />
        </g><text class="cls-40" transform="translate(2076.92 2274.77)">
          <tspan class="cls-1" x="0" y="0">T</tspan>
          <tspan class="cls-49" x="17.3" y="0">ENER</tspan>
          <tspan class="cls-1" x="92.38" y="0">I</tspan>
          <tspan class="cls-35" x="102.65" y="0">F</tspan>
          <tspan class="cls-39" x="119.49" y="0">F</tspan>
          <tspan class="cls-36" x="136.3" y="0">E </tspan>
          <tspan class="cls-51" x="161.81" y="0">P</tspan>
          <tspan class="cls-39" x="179.58" y="0">A</tspan>
          <tspan class="cls-35" x="198.32" y="0">R</tspan>
          <tspan x="217.62" y="0">K</tspan>
        </text><text class="cls-40" transform="translate(2080.36 1334.09)">
          <tspan class="cls-35" x="0" y="0">R</tspan>
          <tspan class="cls-1" x="19.31" y="0">I</tspan>
          <tspan class="cls-49" x="29.58" y="0">VER</tspan>
          <tspan class="cls-45" x="85.47" y="0">W</tspan>
          <tspan class="cls-1" x="108.55" y="0">A</tspan>
          <tspan class="cls-35" x="127.29" y="0">L</tspan>
          <tspan x="143.84" y="0">K</tspan>
        </text>
        <path class="cls-41" (click)="openModal()"
          d="M1657.55,1157.58l2.96,9.72h.12l3.14-9.72h1.62l3.14,9.72h.12l2.96-9.72h2.37l-4.23,13.22h-2.27l-2.9-8.85h-.12l-2.9,8.85h-2.27l-4.23-13.22h2.49Zm26.46,0h2.07l6.14,13.22h-2.49l-1.6-3.56h-6.3l-1.58,3.56h-2.37l6.14-13.22Zm-1.38,7.84h4.68l-2.27-5.12h-.12l-2.29,5.12Zm13.01-7.84h12.66v2.02h-5.18v11.2h-2.27v-11.2h-5.2v-2.02Zm26.35,7.33h-5.08v3.87h8.95v2.02h-11.22v-13.22h10.73v2.02h-8.46v3.28h5.08v2.02Zm10.56,5.89v-13.22h7.29c1.76,0,2.98,.49,3.83,1.4,.67,.71,1.05,1.64,1.05,2.65,0,1.78-1.17,3.14-2.92,3.79l3.16,5.39h-2.61l-2.83-5.08h-4.7v5.08h-2.27Zm2.27-11.2v4.09h5.43c1.19,0,2.21-.93,2.21-2.07,0-.51-.2-.95-.55-1.32-.63-.65-1.36-.71-2.07-.71h-5.02Zm17.04,11.2v-13.22h10.63v2.02h-8.36v3.28h5.08v2.02h-5.08v5.89h-2.27Zm16.84,0v-13.22h7.29c1.76,0,2.98,.49,3.83,1.4,.67,.71,1.05,1.64,1.05,2.65,0,1.78-1.17,3.14-2.92,3.79l3.16,5.39h-2.61l-2.83-5.08h-4.7v5.08h-2.27Zm2.27-11.2v4.09h5.43c1.19,0,2.21-.93,2.21-2.07,0-.51-.2-.95-.55-1.32-.63-.65-1.36-.71-2.07-.71h-5.02Zm23.3-2.43c4.17,0,7.49,3.12,7.49,6.99s-3.32,7.05-7.49,7.05-7.43-3.12-7.43-7.05,3.26-6.99,7.43-6.99Zm0,12.01c2.85,0,5.1-2.27,5.1-5.02s-2.25-4.96-5.1-4.96-5.04,2.23-5.04,4.96,2.21,5.02,5.04,5.02Zm26.25-11.6v13.22h-2l-7.63-9.17h-.02v9.17h-2.27v-13.22h2l7.63,9.17h.02v-9.17h2.27Zm6.35,0h12.66v2.02h-5.18v11.2h-2.27v-11.2h-5.2v-2.02Zm26.6,13.22v-13.22h7.29c1.86,0,3.02,.53,3.83,1.4,.71,.77,1.05,1.68,1.05,2.65,0,1.13-.47,2.13-1.21,2.85-.79,.75-1.9,1.24-3.66,1.24h-5.02v5.08h-2.27Zm2.27-11.2v4.09h5.02c.57,0,1.36-.04,2-.65,.38-.36,.61-.87,.61-1.4s-.2-.97-.55-1.34c-.61-.65-1.42-.71-2.07-.71h-5.02Zm19.83-2.02h2.07l6.14,13.22h-2.49l-1.6-3.56h-6.3l-1.58,3.56h-2.37l6.14-13.22Zm-1.38,7.84h4.68l-2.27-5.12h-.12l-2.29,5.12Zm15.8,5.39v-13.22h7.29c1.76,0,2.98,.49,3.83,1.4,.67,.71,1.05,1.64,1.05,2.65,0,1.78-1.17,3.14-2.92,3.79l3.16,5.39h-2.61l-2.83-5.08h-4.7v5.08h-2.27Zm2.27-11.2v4.09h5.43c1.19,0,2.21-.93,2.21-2.07,0-.51-.2-.95-.55-1.32-.63-.65-1.36-.71-2.07-.71h-5.02Zm19.31,4.52l6.9-6.54h2.81l-5.41,5.06,6.58,8.16h-2.94l-5.28-6.64-2.67,2.49v4.15h-2.27v-13.22h2.27v6.54Zm29.48-7.13c-2.57,1.4-4.29,4.19-4.29,7.37s1.72,5.95,4.29,7.35l-1.13,1.38c-3.42-1.74-5.43-4.94-5.43-8.73s2-7.01,5.43-8.75l1.13,1.38Zm6.26,13.81v-13.22h6.34c2.39,0,3.73,.67,4.86,1.76,1.17,1.21,1.8,2.92,1.8,4.84s-.69,3.79-1.94,5c-1.13,1.01-2.33,1.62-4.72,1.62h-6.34Zm6.24-2.02c1.68,0,2.25-.38,3.04-1.03,.85-.85,1.36-2.15,1.36-3.56s-.45-2.61-1.28-3.46c-.75-.69-1.46-1.11-3.12-1.11h-3.97v9.17h3.97Zm19.98-11.6c4.17,0,7.49,3.12,7.49,6.99s-3.32,7.05-7.49,7.05-7.43-3.12-7.43-7.05,3.26-6.99,7.43-6.99Zm0,12.01c2.85,0,5.1-2.27,5.1-5.02s-2.25-4.96-5.1-4.96-5.04,2.23-5.04,4.96,2.21,5.02,5.04,5.02Zm24.94-8.2c-1.11-1.11-3-1.78-4.56-1.78-2.85,0-4.86,2.27-4.86,5,0,2.55,1.74,4.98,5.08,4.98,1.38,0,3-.4,3.89-1.07v-2.65h-4.15v-2.02h6.22v5.79c-1.66,1.21-4.01,1.98-6.09,1.98-4.19,0-7.31-3.14-7.31-7.03s3.16-7.01,7.21-7.01c2.11,0,4.35,.85,6.16,2.39l-1.58,1.42Zm16.74,9.82v-13.22h7.29c1.86,0,3.02,.53,3.83,1.4,.71,.77,1.05,1.68,1.05,2.65,0,1.13-.47,2.13-1.21,2.85-.79,.75-1.9,1.24-3.66,1.24h-5.02v5.08h-2.27Zm2.27-11.2v4.09h5.02c.57,0,1.36-.04,2-.65,.38-.36,.61-.87,.61-1.4s-.2-.97-.55-1.34c-.61-.65-1.42-.71-2.07-.71h-5.02Zm19.83-2.02h2.07l6.14,13.22h-2.49l-1.6-3.56h-6.3l-1.58,3.56h-2.37l6.14-13.22Zm-1.38,7.84h4.68l-2.27-5.12h-.12l-2.29,5.12Zm15.8,5.39v-13.22h7.29c1.76,0,2.98,.49,3.83,1.4,.67,.71,1.05,1.64,1.05,2.65,0,1.78-1.17,3.14-2.92,3.79l3.16,5.39h-2.61l-2.83-5.08h-4.7v5.08h-2.27Zm2.27-11.2v4.09h5.43c1.19,0,2.21-.93,2.21-2.07,0-.51-.2-.95-.55-1.32-.63-.65-1.36-.71-2.07-.71h-5.02Zm19.31,4.52l6.9-6.54h2.81l-5.41,5.06,6.58,8.16h-2.94l-5.28-6.64-2.67,2.49v4.15h-2.27v-13.22h2.27v6.54Zm16.07-8.5c3.42,1.74,5.43,4.96,5.43,8.75s-2,6.99-5.43,8.73l-1.13-1.38c2.57-1.4,4.29-4.15,4.29-7.35s-1.72-5.97-4.29-7.37l1.13-1.38Z" />
        <text class="cls-40" transform="translate(2073.51 1130.58)">
          <tspan class="cls-1" x="0" y="0">WH</tspan>
          <tspan class="cls-35" x="43.58" y="0">AR</tspan>
          <tspan class="cls-46" x="81.64" y="0">F</tspan>
          <tspan class="cls-47" x="98.26" y="0"> </tspan>
          <tspan class="cls-50" x="106.06" y="0">P</tspan>
          <tspan class="cls-1" x="123.8" y="0">A</tspan>
          <tspan class="cls-35" x="142.54" y="0">R</tspan>
          <tspan x="161.85" y="0">K</tspan>
        </text><text class="cls-40" transform="translate(2049.63 565.19)">
          <tspan class="cls-35" x="0" y="0">R</tspan>
          <tspan class="cls-1" x="19.31" y="0">I</tspan>
          <tspan class="cls-49" x="29.58" y="0">VER</tspan>
          <tspan class="cls-45" x="85.47" y="0">W</tspan>
          <tspan class="cls-1" x="108.55" y="0">A</tspan>
          <tspan class="cls-35" x="127.29" y="0">L</tspan>
          <tspan x="143.84" y="0">K</tspan>
        </text><text class="cls-40" transform="translate(1632.06 175.32)">
          <tspan class="cls-35" x="0" y="0">R</tspan>
          <tspan class="cls-1" x="19.31" y="0">I</tspan>
          <tspan class="cls-49" x="29.58" y="0">VER</tspan>
          <tspan class="cls-45" x="85.47" y="0">W</tspan>
          <tspan class="cls-1" x="108.55" y="0">A</tspan>
          <tspan class="cls-35" x="127.29" y="0">L</tspan>
          <tspan x="143.84" y="0">K</tspan>
        </text><text class="cls-40" transform="translate(3945.61 117.28)">
          <tspan class="cls-49" x="0" y="0">R</tspan>
          <tspan class="cls-1" x="19.31" y="0">IV</tspan>
          <tspan class="cls-2" x="48.24" y="0">ER</tspan>
          <tspan class="cls-55" x="85.45" y="0">W</tspan>
          <tspan class="cls-42" x="108.51" y="0">A</tspan>
          <tspan class="cls-49" x="127.25" y="0">L</tspan>
          <tspan x="143.8" y="0">K</tspan>
        </text><text class="cls-40" transform="translate(2891.56 611.83)">
          <tspan class="cls-1" x="0" y="0">VI</tspan>
          <tspan class="cls-36" x="28.93" y="0">C L</tspan>
          <tspan class="cls-2" x="71.94" y="0">U</tspan>
          <tspan class="cls-1" x="91.17" y="0">CA</tspan>
          <tspan class="cls-36" x="128.95" y="0">S </tspan>
          <tspan class="cls-50" x="154.9" y="0">P</tspan>
          <tspan class="cls-42" x="172.65" y="0">A</tspan>
          <tspan class="cls-49" x="191.39" y="0">R</tspan>
          <tspan x="210.69" y="0">K</tspan>
        </text><text class="cls-40" transform="translate(1652.95 598.35)">
          <tspan class="cls-1" x="0" y="0">P</tspan>
          <tspan class="cls-49" x="18.62" y="0">ER</tspan>
          <tspan class="cls-54" x="55.83" y="0">R</tspan>
          <tspan class="cls-36" x="75" y="0">Y </tspan>
          <tspan class="cls-51" x="99.82" y="0">P</tspan>
          <tspan class="cls-1" x="117.58" y="0">A</tspan>
          <tspan class="cls-49" x="136.32" y="0">R</tspan>
          <tspan x="155.63" y="0">K</tspan>
        </text><text class="cls-40" transform="translate(2186.29 426.96)">
          <tspan class="cls-35" x="0" y="0">NE</tspan>
          <tspan class="cls-48" x="37.86" y="0">WS</tspan>
          <tspan class="cls-2" x="80.04" y="0">TE</tspan>
          <tspan class="cls-42" x="115.27" y="0">A</tspan>
          <tspan class="cls-37" x="134.01" y="0">D </tspan>
          <tspan class="cls-50" x="161.57" y="0">P</tspan>
          <tspan class="cls-2" x="179.31" y="0">AR</tspan>
          <tspan x="217.38" y="0">K</tspan>
        </text><text class="cls-40" transform="translate(3434.17 1594.75)">
          <tspan class="cls-2" x="0" y="0">BUL</tspan>
          <tspan class="cls-42" x="55.77" y="0">I</tspan>
          <tspan class="cls-49" x="66.04" y="0">MB</tspan>
          <tspan class="cls-43" x="107.86" y="0">A</tspan>
          <tspan class="cls-36" x="126.4" y="0"> </tspan>
          <tspan class="cls-1" x="134.2" y="0">M</tspan>
          <tspan class="cls-49" x="156" y="0">EM</tspan>
          <tspan class="cls-1" x="195.72" y="0">O</tspan>
          <tspan class="cls-49" x="216.29" y="0">R</tspan>
          <tspan class="cls-1" x="235.59" y="0">IA</tspan>
          <tspan class="cls-46" x="264.6" y="0">L</tspan>
          <tspan class="cls-36" x="280.93" y="0"> </tspan>
          <tspan class="cls-50" x="288.73" y="0">P</tspan>
          <tspan class="cls-42" x="306.48" y="0">A</tspan>
          <tspan class="cls-38" x="325.22" y="0">R</tspan>
          <tspan x="344.53" y="0">K</tspan>
        </text><text class="cls-40" transform="translate(3073.22 1824.93)">
          <tspan class="cls-2" x="0" y="0">BUL</tspan>
          <tspan class="cls-42" x="55.77" y="0">I</tspan>
          <tspan class="cls-49" x="66.04" y="0">MB</tspan>
          <tspan class="cls-43" x="107.86" y="0">A</tspan>
          <tspan class="cls-36" x="126.4" y="0"> </tspan>
          <tspan class="cls-49" x="134.2" y="0">R</tspan>
          <tspan class="cls-1" x="153.5" y="0">I</tspan>
          <tspan class="cls-2" x="163.77" y="0">VER</tspan>
          <tspan class="cls-1" x="219.67" y="0">SI</tspan>
          <tspan class="cls-49" x="248.27" y="0">D</tspan>
          <tspan class="cls-37" x="268.23" y="0">E </tspan>
          <tspan class="cls-50" x="293.74" y="0">P</tspan>
          <tspan class="cls-42" x="311.48" y="0">A</tspan>
          <tspan class="cls-49" x="330.22" y="0">R</tspan>
          <tspan x="349.53" y="0">K</tspan>
        </text><text class="cls-40" transform="translate(2300.58 1690.29)">
          <tspan class="cls-49" x="0" y="0">R</tspan>
          <tspan class="cls-1" x="19.31" y="0">IV</tspan>
          <tspan class="cls-2" x="48.24" y="0">ER</tspan>
          <tspan class="cls-55" x="85.45" y="0">W</tspan>
          <tspan class="cls-42" x="108.51" y="0">A</tspan>
          <tspan class="cls-49" x="127.25" y="0">L</tspan>
          <tspan x="143.8" y="0">K</tspan>
        </text>
      </g>
    </svg>