<svg width="37" height="19" viewBox="0 0 37 19" fill="none" xmlns="http://www.w3.org/2000/svg">
<path d="M6.43299 6.839C6.43299 5.16719 7.88041 3.79939 9.64959 3.79939C11.4187 3.79939 12.8662 5.16719 12.8662 6.839C12.8662 8.51081 11.4187 9.87861 9.64959 9.87861C7.88041 9.87861 6.43299 8.51083 6.43299 6.839ZM35.3817 11.3983H4.82472V0.759824C4.82472 0.341868 4.46292 0 4.02065 0H0.804063C0.361773 0 0 0.341895 0 0.759824V18.9972H4.82472V15.9575H31.3611V18.9972H36.1856L36.1859 12.1581C36.1859 11.7402 35.824 11.3983 35.3817 11.3983ZM29.7527 4.55927H15.2783C14.836 4.55927 14.4743 4.90116 14.4743 5.31908V9.87835H35.3817C35.3817 6.95299 32.8487 4.55927 29.7527 4.55927Z" fill="#BB6228"/>
</svg>
