<svg width="32" height="23" viewBox="0 0 32 23" fill="none" xmlns="http://www.w3.org/2000/svg">
<path d="M30.3532 6.92267H28.188C27.8273 6.92267 27.5465 7.04607 27.2659 7.25177C26.7847 5.35904 26.2633 3.46635 25.7421 1.61492C25.2609 0.997767 24.2184 0.709732 23.4967 0.586337C18.4447 -0.195433 13.4328 -0.195443 8.38029 0.586328C7.65861 0.709741 6.61601 0.997776 6.13485 1.61492C5.61349 3.4664 5.09227 5.35909 4.61111 7.25177C4.33059 7.04605 4.04988 6.92267 3.68896 6.92267H1.52375C0.68166 6.92267 0 7.62215 0 8.48625C0 9.35036 0.641637 10.0909 1.52375 10.0909H2.52613C2.24545 10.7491 1.96475 11.6956 1.96475 13.0533C1.96475 15.7691 1.92472 18.4432 1.92472 21.1176C1.92472 21.6115 2.32569 22.0228 2.80684 22.0228H6.69625C7.17743 22.0228 7.57837 21.6113 7.57837 21.1176V20.0891H24.2987V21.1176C24.2987 21.6115 24.6996 22.0228 25.1808 22.0228H29.0701C29.5513 22.0228 29.9523 21.6113 29.9523 21.1176C29.9523 18.4433 29.9523 15.7688 29.9123 13.0533C29.9123 11.6956 29.6316 10.7493 29.3508 10.0909H30.3532C31.1953 10.0909 31.8769 9.39143 31.8769 8.52732C31.8769 7.66321 31.2353 6.92267 30.3532 6.92267ZM11.5081 14.6992C9.7038 14.7815 7.93955 14.6581 6.21516 14.4111C6.05471 13.4236 5.89437 12.4359 5.77413 11.4486C7.45813 11.3663 8.98188 11.5309 10.3453 12.0247C10.9467 12.3538 11.3878 13.0122 11.7888 13.7116C11.9892 14.2053 11.9892 14.5757 11.5081 14.6992ZM6.37523 7.0872C6.77617 5.4824 7.21732 3.87793 7.61827 2.31436C13.0715 1.36811 18.8052 1.36811 24.2584 2.31436C24.6593 3.87788 25.1005 5.48255 25.5015 7.0872C19.2464 6.38772 12.6303 6.38772 6.37523 7.0872ZM25.6617 14.4109C23.9373 14.658 22.1731 14.7815 20.4088 14.6992C19.8876 14.5757 19.8876 14.2053 20.088 13.7116C20.4889 13.0122 20.9701 12.3538 21.5316 12.0247C22.8949 11.5309 24.4587 11.3663 26.1027 11.4486C25.9824 12.4359 25.8221 13.4235 25.6617 14.4109Z" fill="#BB6228"/>
</svg>
