<svg width="204" height="113" viewBox="0 0 204 113" fill="none" xmlns="http://www.w3.org/2000/svg">
<path d="M88.4353 0.535156C81.0188 7.78357 60.5194 12.241 53.7696 30.5703C48.3114 45.4421 51.4364 66.8542 51.4364 66.8542C51.4364 66.8542 82.8105 54.6902 88.4353 43.7343V0.535156Z" fill="#58595B"/>
<path d="M90.6865 0.535156V43.7343L126.852 66.3543V23.4468L90.6865 0.535156Z" fill="#58595B"/>
<path d="M165.225 0.535156L129.101 23.4468V66.3543L165.225 43.7343V0.535156Z" fill="#58595B"/>
<path d="M167.475 0.535156V43.7343L203.64 66.3543V23.4468L167.475 0.535156Z" fill="#58595B"/>
<path d="M55.8538 111.22H52.8122C52.2705 111.22 51.8955 110.803 51.8955 110.22V76.9359C51.8955 76.3111 52.2288 76.1444 52.8122 75.8945L55.8538 74.853C56.3121 74.6864 56.7704 75.2696 56.7704 75.8945V110.179C56.7704 110.803 56.4371 111.22 55.8538 111.22Z" fill="#58595B"/>
<path d="M80.1449 79.1423C76.1033 79.1423 72.7701 79.4754 69.4785 80.5585V110.177C69.4785 110.843 69.0618 111.177 68.6035 111.177H65.5202C65.0202 111.177 64.6035 110.843 64.6035 110.177V81.5999C64.6035 78.6006 65.1452 77.6841 67.2285 76.601C69.8951 75.2263 75.395 74.3516 78.3533 74.3516H79.8949C80.1865 74.3516 80.7698 74.4765 80.7698 75.393V78.3508C80.6865 78.809 80.5615 79.1423 80.1449 79.1423Z" fill="#58595B"/>
<path d="M140.767 111.301C139.017 111.717 136.058 112.259 132.85 112.259C127.6 112.259 116.726 112.05 116.726 100.97C116.726 91.8049 121.267 91.3049 127.309 90.2219L141.058 88.0973V84.8896C141.058 82.6817 140.933 80.9322 138.808 80.0157C137.642 79.4742 135.933 79.1825 133.267 79.1825C128.559 79.1825 122.35 80.4741 119.851 81.1822L119.476 81.2654C119.226 81.2654 118.934 81.0987 118.851 80.7238C118.851 80.7238 118.392 78.2661 118.309 77.6829C118.226 77.2663 118.476 76.8498 118.934 76.6832C120.892 75.8917 128.267 74.5586 133.85 74.5586C138.183 74.5586 140.975 75.2667 142.767 76.3498C145.892 78.1828 146.017 81.432 146.017 84.6396V104.302C145.892 109.009 144.975 110.134 140.767 111.301ZM141.017 92.3464L127.642 94.471C124.725 95.0959 121.726 95.2208 121.726 100.636C121.726 107.51 128.892 107.968 132.892 107.968C135.558 107.968 138.433 107.551 141.017 106.593V92.3464Z" fill="#58595B"/>
<path d="M180.183 109.802C180.183 110.427 179.808 110.593 179.6 110.676C178.058 111.426 169.1 112.259 165.475 112.259C154.059 112.259 151.059 106.219 151.059 93.4303C151.059 80.5581 154.059 74.5176 165.475 74.5176C169.058 74.5176 177.225 75.7675 178.725 76.5173C178.891 76.6423 179.391 76.8088 179.308 77.392L178.85 80.0581C178.725 80.5997 178.558 81.0162 177.725 80.8079C176.433 80.433 168.933 78.975 165.683 78.975C158.35 78.975 156.017 82.4743 156.017 93.3469C156.017 104.303 158.35 107.802 165.683 107.802C168.933 107.802 177.1 106.927 178.558 106.511C179.1 106.344 179.558 106.469 179.641 107.261C179.725 107.261 180.183 109.385 180.183 109.802Z" fill="#58595B"/>
<path d="M44.6457 85.8493C44.6457 78.5175 41.3957 74.4766 34.1459 74.4766H30.4377C26.7295 74.4766 24.0629 75.2265 22.3546 76.8928C20.6463 75.2681 17.9797 74.4766 14.2715 74.4766H10.5632C3.31335 74.4766 0.0634766 78.5175 0.0634766 85.8493V110.177C0.0634766 110.802 0.438472 111.219 0.980125 111.219H4.02176C4.56341 111.219 4.93841 110.802 4.93841 110.177V85.9741C5.0634 81.85 6.56326 78.8508 10.6882 78.8508H14.1465C18.3964 78.8508 19.9379 80.4337 19.9379 84.9744V110.177C19.9379 110.802 20.3129 111.219 20.8546 111.219H23.8962C24.4379 111.219 24.8129 110.802 24.8129 110.177V84.9744C24.8129 80.4337 26.3545 78.8508 30.5627 78.8508H34.0209C38.1458 78.8508 39.6458 81.8083 39.7708 85.9741V110.177C39.7708 110.802 40.1458 111.219 40.6874 111.219H43.7291C44.2707 111.219 44.6457 110.802 44.6457 110.177V85.8493Z" fill="#58595B"/>
<path d="M96.3927 111.221C95.7677 111.221 95.3094 110.804 95.1011 110.138L85.1847 76.4782C84.9763 75.77 85.3514 75.2285 85.7263 75.2285H89.3929C90.0179 75.2285 90.1846 75.645 90.3096 76.1449L99.4761 107.263H99.726L108.892 76.1449C109.017 75.645 109.184 75.2285 109.809 75.2285H113.476C113.851 75.2285 114.226 75.77 114.017 76.4782L104.101 110.138C103.934 110.804 103.434 111.221 102.809 111.221H96.3927Z" fill="#58595B"/>
</svg>
