<svg width="159" height="159" viewBox="0 0 159 159" fill="none" xmlns="http://www.w3.org/2000/svg">
<path d="M79.5 157C122.302 157 157 122.302 157 79.5C157 36.6979 122.302 2 79.5 2C36.6979 2 2 36.6979 2 79.5C2 122.302 36.6979 157 79.5 157Z" stroke="white" stroke-width="3" stroke-miterlimit="10" stroke-linecap="round" stroke-linejoin="round"/>
<path d="M96.5663 78.2318L96.5793 78.2392L96.5927 78.2459C96.976 78.4376 97.3098 78.9642 97.3098 79.502C97.3098 79.9829 97.0289 80.414 96.5394 80.7878L68.0792 97.2126C67.9844 97.245 67.8973 97.2766 67.8193 97.3052L67.8019 97.3115C67.7161 97.3429 67.6448 97.369 67.5779 97.3913C67.4338 97.4394 67.3529 97.4544 67.2924 97.4544C67.1218 97.4544 66.7781 97.3511 66.5225 97.2233C66.1391 97.0316 65.8052 96.5049 65.8052 95.9672V63.0368C65.8052 62.5607 66.0807 62.1333 66.5614 61.762C66.9638 61.5762 67.493 61.5631 68.0684 61.7852L96.5663 78.2318ZM69.389 66.0111L68.6377 65.5745V66.4434V92.7026V93.5668L69.3869 93.136L92.0976 80.0774L92.8473 79.6463L92.0996 79.2117L69.389 66.0111Z" fill="white" stroke="white"/>
<path d="M41.6063 102.526L41.6064 102.526L41.6015 102.518C40.1516 100.145 39.0707 97.6416 38.1237 94.9959L40.8635 94.0476C41.7047 96.4705 42.8005 98.8843 44.1539 101.051C51.7673 113.975 65.8393 122.015 80.7765 122.015C98.7058 122.015 114.662 110.737 120.684 94.0455L123.43 94.9962C116.98 112.985 99.8442 124.989 80.7765 124.989C64.7723 124.989 49.749 116.425 41.6063 102.526Z" fill="white" stroke="white"/>
<path d="M58.685 100.052L40.8623 95.907L40.3833 95.7956L40.264 96.2728L35.8442 113.952L32.9813 113.21L38.2739 92.3108L59.3124 97.3329L58.685 100.052Z" fill="white" stroke="white"/>
<path d="M80.7766 124.989C61.7103 124.989 44.5727 112.986 37.9845 94.995L40.7296 94.0448C46.8883 110.875 62.8461 122.015 80.7766 122.015C104.189 122.015 123.291 102.913 123.291 79.5004C123.291 56.0878 104.189 36.9857 80.7766 36.9857C60.8304 36.9857 43.4314 51.1146 39.2248 70.5453L36.377 70.018C40.9195 49.2152 59.4685 34.1533 80.7766 34.1533C105.908 34.1533 126.266 54.511 126.266 79.6423C126.266 104.772 105.91 124.989 80.7766 124.989Z" fill="white" stroke="white"/>
</svg>
