<svg width="27" height="29" viewBox="0 0 27 29" fill="none" xmlns="http://www.w3.org/2000/svg">
<path d="M16.1013 4.47069H17.3668V1.99231C17.3668 1.44299 17.1505 0.944593 16.802 0.584167C16.4536 0.223764 15.9719 0 15.4407 0H0.351264C0.25476 0 0.166237 0.0413144 0.102992 0.106511C0.0397335 0.17194 0 0.2635 0 0.363317V0.945708C0 1.04596 0.0399476 1.1373 0.102992 1.20273C0.166237 1.26815 0.25476 1.30925 0.351264 1.30925H15.4407C15.5652 1.30925 15.6816 1.34743 15.7787 1.40839C15.8245 1.43564 15.8675 1.46957 15.9068 1.50999C16.0229 1.63013 16.1012 1.80296 16.1012 1.99209L16.1013 4.47069ZM15.2301 28.8109C14.8884 28.8109 14.6111 28.524 14.6111 28.1705C14.6111 27.8171 14.8884 27.5301 15.2353 27.5301C15.5828 27.5301 15.8601 27.8171 15.8601 28.1705C15.8601 28.524 15.5825 28.8109 15.2301 28.8109ZM18.2269 28.8109C17.8852 28.8109 17.6079 28.524 17.6079 28.1705C17.6079 27.8171 17.8852 27.5301 18.2321 27.5301C18.5796 27.5301 18.8569 27.8171 18.8569 28.1705C18.8569 28.524 18.5793 28.8109 18.2269 28.8109ZM18.2269 25.7113C17.8852 25.7113 17.6079 25.4243 17.6079 25.0708C17.6079 24.7173 17.8852 24.4304 18.2321 24.4304C18.5796 24.4304 18.8569 24.7173 18.8569 25.0708C18.8569 25.4243 18.5793 25.7113 18.2269 25.7113ZM21.2237 25.7113C20.882 25.7113 20.6047 25.4243 20.6047 25.0708C20.6047 24.7173 20.882 24.4304 21.2289 24.4304C21.5764 24.4304 21.8539 24.7173 21.8539 25.0708C21.8539 25.4243 21.5761 25.7113 21.2237 25.7113ZM12.2339 25.7113C11.8921 25.7113 11.6147 25.4243 11.6147 25.0708C11.6147 24.7173 11.8921 24.4304 12.2395 24.4304C12.5864 24.4304 12.8639 24.7173 12.8639 25.0708C12.8639 25.4243 12.5862 25.7113 12.2339 25.7113ZM15.2304 25.7113C14.8887 25.7113 14.6113 25.4243 14.6113 25.0708C14.6113 24.7173 14.8887 24.4304 15.2356 24.4304C15.5831 24.4304 15.8604 24.7173 15.8604 25.0708C15.8604 25.4243 15.5828 25.7113 15.2304 25.7113ZM19.7257 22.6119C19.384 22.6119 19.1065 22.3249 19.1065 21.9715C19.1065 21.618 19.384 21.3311 19.7309 21.3311C20.0783 21.3311 20.3557 21.618 20.3557 21.9715C20.3557 22.3249 20.0781 22.6119 19.7257 22.6119ZM22.7224 22.6119C22.3805 22.6119 22.1032 22.3249 22.1032 21.9715C22.1032 21.618 22.3805 21.3311 22.728 21.3311C23.0753 21.3311 23.3528 21.618 23.3528 21.9715C23.3528 22.3249 23.0751 22.6119 22.7224 22.6119ZM25.7196 22.6119C25.3777 22.6119 25.1004 22.3249 25.1004 21.9715C25.1004 21.618 25.3777 21.3311 25.7248 21.3311C26.0721 21.3311 26.3496 21.618 26.3496 21.9715C26.3496 22.3249 26.072 22.6119 25.7196 22.6119ZM7.73909 22.6119C7.39733 22.6119 7.11992 22.3249 7.11992 21.9715C7.11992 21.618 7.39735 21.3311 7.74472 21.3311C8.09167 21.3311 8.36911 21.618 8.36911 21.9715C8.36911 22.3249 8.09145 22.6119 7.73909 22.6119ZM10.7357 22.6119C10.3939 22.6119 10.1165 22.3249 10.1165 21.9715C10.1165 21.618 10.3939 21.3311 10.7413 21.3311C11.0883 21.3311 11.3657 21.618 11.3657 21.9715C11.3657 22.3249 11.0881 22.6119 10.7357 22.6119ZM13.7325 22.6119C13.3908 22.6119 13.1133 22.3249 13.1133 21.9715C13.1133 21.618 13.3908 21.3311 13.7377 21.3311C14.0851 21.3311 14.3625 21.618 14.3625 21.9715C14.3625 22.3249 14.0848 22.6119 13.7325 22.6119ZM16.7293 22.6119C16.3876 22.6119 16.1101 22.3249 16.1101 21.9715C16.1101 21.618 16.3876 21.3311 16.7349 21.3311C17.0823 21.3311 17.3597 21.618 17.3597 21.9715C17.3597 22.3249 17.0821 22.6119 16.7293 22.6119ZM7.22592 16.5564C7.19073 16.5564 7.15835 16.5717 7.13481 16.5961C7.11107 16.6191 7.09639 16.6535 7.09639 16.6905V18.0437C7.09639 18.0748 7.10632 18.1036 7.129 18.1323C7.15815 18.1624 7.19073 18.178 7.22592 18.178H26.2427C26.2779 18.178 26.3103 18.1625 26.3337 18.1383C26.3575 18.1152 26.3723 18.0808 26.3723 18.0437V16.6905C26.3723 16.6596 26.3623 16.6308 26.3396 16.6021C26.3104 16.572 26.2779 16.5564 26.2427 16.5564H7.22592ZM20.8032 8.62589C20.7157 8.64443 20.6255 8.65425 20.5331 8.65425H12.9353C12.8429 8.65425 12.7525 8.64488 12.6648 8.62635C11.4642 9.34805 10.4547 10.3782 9.7414 11.6085C9.11123 12.6956 8.71115 13.9429 8.61337 15.2753H24.8551C24.7571 13.9429 24.3568 12.6956 23.7271 11.6085C23.0137 10.3782 22.0043 9.34759 20.8032 8.62589ZM20.5331 5.7516H12.9353C12.8988 5.7516 12.8658 5.76632 12.844 5.78911C12.8198 5.81411 12.8056 5.84805 12.8056 5.8858V7.239C12.8056 7.27049 12.8151 7.29885 12.8373 7.32721C12.8673 7.3578 12.9001 7.37343 12.9353 7.37343H20.5331C20.5631 7.37343 20.5909 7.36315 20.6185 7.34015C20.6477 7.30956 20.6628 7.2754 20.6628 7.23923V5.88601C20.6628 5.84963 20.6479 5.81568 20.6244 5.79157C20.6021 5.767 20.5689 5.7516 20.5331 5.7516Z" fill="#BB6228"/>
</svg>
